<svg id="Layer_1" data-name="Layer 1" xmlns="http://www.w3.org/2000/svg" viewBox="0 0 1080 482.56"><g id="Layer_1-2" data-name="Layer_1"><g id="_2033864096256" data-name=" 2033864096256"><path d="M218,298.72H838.72C971.47,298.72,1080,407.25,1080,540S971.47,781.28,838.72,781.28H218A239.9,239.9,0,0,1,67.51,728.22a218.1,218.1,0,0,0,20.41-13.55A216.63,216.63,0,0,0,218,758H838.72c119.92,0,218-98.12,218-218h0c0-119.92-98.12-218-218-218H218A216.69,216.69,0,0,0,87.92,365.33a218.1,218.1,0,0,0-20.41-13.55A239.9,239.9,0,0,1,218,298.72Z" transform="translate(0 -298.72)" fill="#222" fill-rule="evenodd"/><rect y="23.24" width="1056.76" height="436.09" rx="218.04" fill="#f3aa97"/></g></g></svg>