<svg id="Layer_1" data-name="Layer 1" xmlns="http://www.w3.org/2000/svg" viewBox="0 0 1080 1079.02"><g id="Layer_1-2" data-name="Layer_1"><g id="_2033561465488" data-name=" 2033561465488"><path d="M821.13.49C965.58,12.47,1080,134.35,1080,281.76v515.5c0,155.28-127,282.25-282.25,282.25H282.25C127,1079.51,0,952.54,0,797.26V281.76C0,134.35,114.42,12.47,258.87.49V23.28C127,35.2,22.7,146.88,22.7,281.76v515.5c0,142.75,116.8,259.55,259.55,259.55h515.5c142.75,0,259.55-116.8,259.55-259.55V281.76C1057.3,146.88,953,35.2,821.13,23.28V.49Z" transform="translate(0 -0.49)" fill="#222" fill-rule="evenodd"/><rect x="22.7" y="21.71" width="1034.61" height="1034.61" rx="259.56" fill="#1f879a"/></g></g></svg>