<svg id="Layer_1" data-name="Layer 1" xmlns="http://www.w3.org/2000/svg" viewBox="0 0 1080 838.76"><g id="Layer_1-2" data-name="Layer_1"><g id="_2823617730400" data-name=" 2823617730400"><path d="M454.89,120.62H760.63c33.8,0,65.59,14.47,84.54,42.92L1065.8,494.76c18.93,28.42,18.93,62.06,0,90.48L845.17,916.46c-18.95,28.45-50.74,42.92-84.54,42.92H319.37c-33.8,0-65.59-14.47-84.54-42.92L14.2,585.24c-18.93-28.42-18.93-62.06,0-90.48L216.66,190.81l17.57,12L142.22,341,31.9,506.56c-14.16,21.27-14.16,45.61,0,66.88L142.22,739.05,252.54,904.66c14.16,21.27,38.49,33.45,66.83,33.45H760.63c28.34,0,52.66-12.18,66.83-33.45L937.78,739.05l110.31-165.61c14.17-21.27,14.17-45.61,0-66.88L937.78,341,827.46,175.34C813.29,154.07,789,141.9,760.63,141.9H453.17l1.72-21.28Z" transform="translate(0 -120.62)" fill="#222" fill-rule="evenodd"/><path d="M319.37,141.9H760.63c28.34,0,52.66,12.17,66.83,33.44L937.78,341l110.31,165.61c14.17,21.27,14.17,45.61,0,66.88L937.78,739.05,827.46,904.66c-14.16,21.27-38.49,33.45-66.83,33.45H319.37c-28.34,0-52.66-12.18-66.83-33.45L142.22,739.05,31.91,573.44c-14.17-21.26-14.17-45.61,0-66.88L142.22,341,252.54,175.34c14.17-21.27,38.49-33.44,66.83-33.44Z" transform="translate(0 -120.62)" fill="#1f879a" fill-rule="evenodd"/></g></g></svg>