<svg id="Layer_1" data-name="Layer 1" xmlns="http://www.w3.org/2000/svg" viewBox="0 0 960.02 1080"><g id="Layer_1-2" data-name="Layer_1"><g id="_2030377720544" data-name=" 2030377720544"><path d="M587.05,12.9l117.79,68-30.65,41.42,149.29,90.23,33.2-44L973,235.71c29.78,17.19,47,47.09,47,81.48V762.81c0,34.39-17.27,64.29-47,81.48L587.05,1067.1c-29.79,17.2-64.31,17.2-94.1,0L107,844.29C77.26,827.1,60,797.2,60,762.81V317.19C60,282.8,77.26,252.9,107,235.71L493,12.9c29.79-17.2,64.31-17.2,94.1,0Z" transform="translate(-59.99 0)" fill="#222" fill-rule="evenodd"/><path d="M579,26.89,771.92,138.3l193,111.4c24.78,14.31,39,38.88,39,67.49V762.81c0,28.61-14.19,53.18-39,67.49l-193,111.4L579,1053.11c-24.79,14.31-53.15,14.31-77.94,0L308.08,941.7l-193-111.4c-24.78-14.31-39-38.88-39-67.49V317.19c0-28.61,14.19-53.18,39-67.49l193-111.4L501,26.89c24.79-14.31,53.15-14.31,77.94,0Z" transform="translate(-59.99 0)" fill="#1f879a" fill-rule="evenodd"/></g></g></svg>