<svg id="Layer_1" xmlns="http://www.w3.org/2000/svg" viewBox="0 0 400 511" width="100%" height="100%"
    preserveAspectRatio="none">
    <path
        d="M13.11611,468.96412c10.59087,27.87142,31.276,42.34572,62.07517,42.03085,47.65276-.48681,95.31446-.09529,142.97215-.14138,11.74649-.0114,14.00349-3.7127,9.301-14.71668-4.4151-10.33176-11.93911-17.38584-22.71911-20.44135-7.33373-2.07826-14.90124-3.33206-23.36716-5.17261,18.01586-10.5674,30.56884-25.15564,38.28445-45.21065,12.89266,14.10919,21.83107,29.83471,29.0356,46.55455a262.7376,262.7376,0,0,1,10.446,28.816c2.17325,7.28609,6.0229,10.51613,13.726,10.28929,12.78288-.377,25.61535.40551,38.36367-.35734,4.83348-.28949,9.49195-3.504,14.23-5.38494-2.05-4.77384-3.5457-9.89363-6.2629-14.2511-6.15079-9.86463-15.8944-18.52208-18.84772-29.15162-8.60611-30.97354-10.45287-61.873,13.22121-88.72731,6.07234-6.88784,10.47941-15.27029,15.46591-23.08463,18.60564-29.15835,22.51821-60.60575,14.39418-93.87972-1.133-4.64023-2.30671-9.27062-3.22841-12.96986C353.65,239.034,367.09686,236.051,379.585,230.79085c18.22855-7.67761,24.86466-23.37982,17.40789-41.58392a90.19352,90.19352,0,0,0-17.15533-27.29812c-25.07683-26.59121-54.56474-45.06616-92.78911-45.55193-2.29571-.029-5.4735-3.447-6.66847-6.01884-11.43827-24.61859-21.90784-49.709-34.01343-73.98681C240.74339,25.07382,232.58634,14.92746,224.711,4.953c-5.2498-6.64909-12.87932-6.39792-19.16034-.48007-10.17844,9.58963-13.72595,21.95512-14.11107,35.49931-.7771,27.33541,11.68876,49.969,25.873,71.8754,7.11159,10.98378,14.8971,21.53046,22.83588,32.93269-16.92354,22.00484-14.34511,46.35569-5.25407,70.97894-13.31351,0-26.29187-.85813-39.126.13983C113.966,222.25977,52.951,261.43605,16.06361,334.78793-5.78041,378.22484-3.9383,424.08284,13.11611,468.96412Z"
        fill="#ac4b4b" data-color-group="0"></path>
</svg>