<svg id="Layer_2" data-name="Layer 2" xmlns="http://www.w3.org/2000/svg" viewBox="0 0 955.11 1080"><path d="M237.73,0,536,298.22c133,133,133,350.58,0,483.56L237.73,1080H138.31a299.57,299.57,0,0,0,22.88-20.66L467.06,753.47c117.41-117.41,117.41-309.53,0-426.94L161.19,20.66A301.68,301.68,0,0,0,138.31,0Z" transform="translate(-124.89 0)" fill="#f3aa97" fill-rule="evenodd"/><path d="M256.67,0l76.42,76.42L323.74,86l-86-86ZM138.31,0a301.68,301.68,0,0,1,22.88,20.66L467.06,326.53a299.17,299.17,0,0,1,72.43,117.13H525.35A286,286,0,0,0,457.6,336L151.72,30.13a284.1,284.1,0,0,0-21.87-19.74,13.2,13.2,0,0,1-5-10.39ZM256.67,1080H237.73L536,781.78c133-133,133-350.58,0-483.56l-27.34-27.35,9.35-9.58,27.46,27.46C683.63,427,683.63,653,545.42,791.25L256.67,1080Zm-118.36,0H124.89a13.17,13.17,0,0,1,5-10.39,285.83,285.83,0,0,0,21.86-19.74L372,829.55l10.56,8.38L161.19,1059.34A299.57,299.57,0,0,1,138.31,1080Z" transform="translate(-124.89 0)" fill="#222" fill-rule="evenodd"/><path d="M237.73,0H1080V1080H237.73L536,781.78c133-133,133-350.58,0-483.56L237.73,0Z" transform="translate(-124.89 0)" fill="#1f879a" fill-rule="evenodd"/></svg>