<svg data-name="Layer 1" xmlns="http://www.w3.org/2000/svg" viewBox="0 0 1080 835.96"><path d="M423.71-.02H1080v19.91H423.71a401.31 401.31 0 0 0-246.57 84.61l-14.4-14a421.27 421.27 0 0 1 261-90.48Zm-343.39 212a400.51 400.51 0 0 0-60.41 211.73c0 188.43 130.81 347.77 306.1 391.75v20.52C139.64 791.56 0 623.19 0 423.71a420.32 420.32 0 0 1 64.73-224.36l15.59 12.63Z" fill="#222" fill-rule="evenodd"/><path d="M423.71 19.91H1080v807.61H423.71c-222.09 0-403.8-181.71-403.8-403.81 0-222.09 181.71-403.8 403.8-403.8Zm5.8 75.13c181.52 0 328.67 147.15 328.67 328.67S611 752.38 429.51 752.38 100.84 605.23 100.84 423.71 248 95.04 429.51 95.04Z" fill="#1f879a" fill-rule="evenodd"/><path d="M429.51 76.51c191.75 0 347.2 155.45 347.2 347.2 0 5.32-.14 10.6-.37 15.86h-18.55q.16-3.34.26-6.71v-1.13c.06-2.65.1-5.31.1-8 0-181.52-147.15-328.67-328.67-328.67S100.84 242.19 100.84 423.71 248 752.38 429.51 752.38q4.11 0 8.19-.1h.71c2.54-.07 5.07-.16 7.59-.29h.8c2.56-.13 5.12-.29 7.66-.48h.51c2.68-.21 5.34-.44 8-.71l.45-.05q3.81-.39 7.59-.87l.81-.1c2.45-.31 4.9-.66 7.34-1l.7-.1c2.59-.4 5.18-.83 7.75-1.29h.12c2.6-.46 5.19-1 7.76-1.48l.68-.14c2.39-.5 4.77-1 7.14-1.56l.84-.19q3.58-.84 7.14-1.74l.57-.15c2.51-.65 5-1.32 7.49-2l.44-.12q3.56-1 7.07-2.11l.87-.27q3.38-1.05 6.72-2.18l.84-.28c2.34-.8 4.68-1.62 7-2.47l.34-.12q3.57-1.3 7.11-2.7l.76-.3c2.17-.87 4.34-1.75 6.5-2.66l.89-.38a306.9 306.9 0 0 0 6.45-2.82l.69-.31c2.29-1 4.56-2.1 6.82-3.18l.51-.25c2.14-1 4.28-2.1 6.39-3.18l.88-.45c2-1 4-2.11 6-3.19l.88-.48q3.12-1.69 6.19-3.46l.53-.3c2.13-1.23 4.26-2.48 6.36-3.76l.8-.49c1.93-1.17 3.84-2.37 5.74-3.58l1-.62c1.89-1.22 3.76-2.45 5.63-3.71l.8-.53q3-2.05 6-4.17l.6-.43q2.79-2 5.55-4.05l1-.74c1.73-1.3 3.44-2.62 5.15-3.95l1-.78c1.76-1.38 3.5-2.79 5.22-4.21l.71-.57 11.88 14.23a345.81 345.81 0 0 1-221.16 79.54c-191.76 0-347.2-155.45-347.2-347.21s155.44-347.2 347.2-347.2Z" fill="#222" fill-rule="evenodd"/></svg>