<svg xmlns="http://www.w3.org/2000/svg" width="1024" height="1024" viewBox="0 0 1024 1024">
<g>
<path d="M 439.00,886.96 C414.33,885.01 383.95,878.47 362.36,870.45 C312.76,852.03 260.38,812.60 228.23,769.50 C224.13,764.00 220.53,759.27 220.23,759.00 C216.90,755.96 233.25,783.45 241.19,794.24 C248.19,803.75 271.28,827.20 281.35,835.02 C285.13,837.95 293.20,843.87 299.31,848.17 C305.41,852.48 310.11,856.00 309.75,856.00 C309.39,856.00 304.91,854.16 299.79,851.91 C269.94,838.78 239.93,820.39 216.50,800.87 C202.54,789.24 177.08,763.62 166.34,750.38 C123.95,698.13 98.48,645.09 91.48,594.49 C87.83,568.09 88.05,537.66 92.06,515.00 C96.35,490.78 101.11,475.93 110.54,457.38 C134.28,410.66 172.72,381.68 220.50,374.51 C230.84,372.96 249.13,372.63 257.00,373.85 L 261.50,374.54 L 254.00,375.86 C244.23,377.57 225.11,383.91 216.27,388.36 C190.27,401.46 162.90,427.00 147.03,453.01 C132.81,476.30 124.60,499.94 120.44,529.61 C118.45,543.78 118.94,570.48 121.48,586.70 C123.29,598.33 127.86,615.35 130.95,622.00 C133.00,626.42 133.03,626.43 132.48,623.00 C130.25,609.11 129.81,601.77 130.27,586.09 C130.72,570.78 131.18,566.91 133.88,556.25 C141.53,525.96 154.98,501.00 173.96,481.90 C182.04,473.77 200.09,460.00 202.68,460.00 C203.09,460.00 201.16,462.36 198.39,465.25 C182.50,481.77 169.61,502.64 162.63,523.12 C142.06,583.45 156.68,650.34 194.27,667.89 L 200.03,670.59 L 196.77,671.73 C183.18,676.49 158.65,675.91 145.25,670.52 C141.82,669.14 141.67,669.14 143.50,670.59 C148.16,674.26 159.82,679.27 167.86,681.05 C183.80,684.57 199.42,683.03 212.30,676.68 C217.16,674.27 218.90,673.77 218.40,674.91 C215.15,682.42 213.68,688.66 213.25,696.75 C212.83,704.75 213.11,707.11 215.35,714.29 C221.36,733.58 236.98,749.25 257.00,756.08 C265.96,759.15 283.93,759.90 293.03,757.59 C299.86,755.85 312.24,750.39 316.98,747.01 C318.54,745.91 320.00,745.00 320.23,745.00 C320.46,745.00 319.55,748.26 318.21,752.25 C310.66,774.76 317.72,800.67 336.52,819.48 C356.26,839.21 389.85,849.98 419.50,846.07 C438.15,843.61 449.13,839.87 459.75,832.33 C463.19,829.89 466.00,828.12 466.00,828.40 C466.00,828.67 464.64,830.92 462.98,833.38 C456.87,842.43 451.77,857.17 450.49,869.50 L 449.87,875.50 L 453.25,867.93 C459.85,853.16 470.84,837.67 481.03,828.76 C503.31,809.26 534.86,811.01 545.67,832.33 C549.10,839.10 549.33,847.75 546.23,853.67 C543.12,859.60 538.85,862.31 531.83,862.82 C526.31,863.22 525.88,863.08 522.55,859.75 C520.17,857.37 518.86,854.96 518.41,852.15 C517.51,846.52 516.11,844.96 511.38,844.32 C507.85,843.85 506.85,844.19 503.72,846.94 C496.79,853.03 496.20,862.64 502.14,872.68 C504.13,876.05 507.57,879.98 510.31,882.00 L 515.03,885.50 L 510.27,886.21 C502.35,887.39 451.31,887.93 439.00,886.96 M 559.98,874.78 C569.08,863.35 572.32,850.34 569.63,836.05 C567.62,825.40 563.70,817.77 556.41,810.31 C545.31,798.96 528.65,792.99 511.96,794.38 C501.77,795.23 495.75,796.90 478.80,803.59 C454.21,813.28 448.92,814.35 425.00,814.43 C406.49,814.49 403.72,814.28 396.50,812.20 C378.95,807.17 363.41,797.27 355.87,786.32 C351.91,780.56 348.02,770.63 347.93,766.06 C347.80,759.34 346.14,766.00 346.08,773.50 C345.96,787.56 351.36,800.14 362.32,811.38 C369.96,819.23 383.35,828.57 392.77,832.62 L 398.50,835.09 L 391.92,834.53 C372.92,832.93 352.95,822.90 340.56,808.75 C330.70,797.49 324.13,779.78 325.43,768.00 C328.00,744.80 344.28,729.83 365.42,731.23 C378.45,732.09 388.46,738.78 392.48,749.30 C394.14,753.66 394.26,762.08 392.67,763.66 C392.37,763.97 390.78,763.27 389.15,762.11 C380.31,755.81 368.13,764.34 370.96,774.85 C372.08,779.00 374.65,781.78 380.00,784.63 C383.04,786.24 386.38,786.53 405.21,786.83 C436.06,787.31 446.51,785.54 484.39,773.39 C490.38,771.47 496.45,769.85 497.89,769.80 C499.33,769.74 510.40,774.31 522.50,779.95 C561.18,797.97 593.97,812.15 610.50,818.00 C613.80,819.16 624.15,822.83 633.50,826.14 C642.85,829.46 654.10,833.32 658.50,834.73 L 666.50,837.30 L 651.50,844.61 C643.25,848.63 631.10,854.25 624.50,857.09 C613.15,861.98 579.05,873.51 563.26,877.80 L 556.02,879.77 L 559.98,874.78 M 798.00,841.39 C732.55,835.67 695.38,827.52 634.50,805.51 C552.40,775.84 466.24,732.77 392.37,684.46 C375.62,673.49 346.81,652.08 328.01,636.60 C303.87,616.74 265.78,578.15 245.53,553.06 C233.19,537.78 215.74,512.85 216.72,511.92 C217.71,510.98 232.31,506.57 241.50,504.43 C251.55,502.10 281.25,502.41 301.84,505.06 C318.58,507.21 347.19,512.66 359.10,515.96 C363.09,517.07 366.47,517.87 366.59,517.74 C366.72,517.61 366.35,513.90 365.77,509.50 C363.80,494.61 368.52,480.01 379.91,465.71 C386.33,457.66 396.12,448.28 403.57,443.03 L 408.50,439.55 L 403.69,445.03 C398.12,451.35 390.84,465.66 388.50,474.86 C386.78,481.66 387.03,484.23 388.90,478.86 C391.10,472.56 399.34,460.75 407.60,452.07 C416.16,443.07 426.25,435.40 435.98,430.50 C441.79,427.57 453.11,423.39 451.47,424.78 C450.94,425.23 447.94,427.53 444.81,429.88 C436.94,435.79 429.08,445.70 425.58,454.13 C424.28,457.27 425.54,456.32 434.85,447.13 C448.93,433.24 460.40,426.52 474.52,423.91 C485.40,421.90 494.70,426.92 498.14,436.66 C501.03,444.84 499.09,469.16 494.81,478.50 L 493.89,480.50 L 495.52,478.50 C499.23,473.94 505.11,462.75 507.41,455.87 L 509.87,448.50 L 509.94,453.12 C510.03,460.07 507.43,473.40 504.02,483.50 C497.70,502.17 472.46,549.11 458.31,568.50 C454.86,573.23 455.08,573.09 462.40,566.00 C485.18,543.93 503.97,513.65 514.62,481.89 L 519.45,467.50 L 519.47,453.00 C519.50,435.36 517.89,430.24 509.49,421.17 C497.22,407.91 480.48,404.13 458.00,409.52 C435.52,414.93 420.39,421.19 405.06,431.44 C390.56,441.14 382.42,448.36 375.73,457.48 L 369.66,465.74 L 367.49,463.12 C363.15,457.87 352.08,437.32 347.89,426.73 C346.75,423.85 344.54,416.64 342.97,410.70 C340.25,400.36 340.19,399.68 341.59,394.32 C344.96,381.38 351.95,367.53 360.69,356.50 L 365.44,350.50 L 366.59,362.00 C368.22,378.38 372.94,395.72 379.24,408.50 C383.16,416.46 389.28,427.01 389.96,426.98 C390.26,426.97 391.48,426.18 392.69,425.23 C394.51,423.79 395.06,421.83 395.97,413.53 C398.21,393.01 403.43,374.05 410.97,359.07 C413.18,354.66 415.00,350.66 415.00,350.19 C415.00,347.95 379.67,342.00 366.35,342.00 L 360.12,342.00 L 354.31,349.03 C337.40,369.50 329.07,391.04 328.44,416.00 C328.25,423.43 327.63,432.20 327.05,435.50 C325.60,443.89 325.77,452.40 327.55,459.95 C328.39,463.50 328.81,467.61 328.48,469.08 C327.63,472.96 313.98,484.97 309.62,485.67 C301.73,486.96 293.82,480.97 292.59,472.78 C292.23,470.33 292.38,467.13 292.94,465.66 C294.15,462.48 294.36,462.51 288.72,465.00 C284.34,466.94 284.21,467.13 284.65,470.75 C285.30,476.07 282.39,480.31 276.55,482.53 C270.03,485.02 265.78,483.57 259.20,476.62 C256.39,473.65 252.52,470.25 250.59,469.06 C245.68,466.02 242.24,461.62 240.94,456.70 C240.33,454.39 238.77,451.38 237.48,450.00 C232.44,444.64 231.63,436.88 235.37,429.84 C237.44,425.95 237.57,425.13 236.37,423.50 C232.60,418.33 236.77,406.76 243.58,403.53 C248.24,401.32 252.28,402.08 257.34,406.15 C260.77,408.91 261.72,409.19 265.85,408.70 C272.05,407.96 283.51,402.72 285.26,399.82 C286.44,397.86 288.38,390.42 290.69,379.00 C291.08,377.09 291.63,378.19 293.03,383.68 C294.68,390.12 301.26,406.00 302.27,406.00 C302.50,406.00 301.75,402.06 300.62,397.25 C297.74,385.03 297.57,348.95 300.33,339.00 C306.02,318.54 313.22,306.35 327.12,293.66 C335.23,286.26 338.73,284.62 332.28,291.25 C323.29,300.49 315.24,317.36 313.55,330.50 C313.20,333.25 312.69,336.96 312.41,338.75 C311.63,343.83 313.39,342.56 314.69,337.11 C317.79,324.07 325.79,309.67 337.94,295.29 C351.82,278.86 374.93,267.82 398.50,266.36 C410.54,265.62 410.30,266.64 397.52,270.49 C374.42,277.46 353.87,292.51 345.18,308.82 C343.43,312.10 342.00,315.05 342.00,315.37 C342.00,315.70 344.83,313.14 348.28,309.68 C359.81,298.15 378.32,287.31 395.36,282.10 C404.74,279.23 405.06,279.40 398.80,284.04 C393.73,287.79 388.90,293.32 384.39,300.50 C383.11,302.56 385.03,301.25 390.51,296.36 C399.16,288.63 411.21,281.87 423.79,277.68 C430.98,275.28 433.53,274.00 431.08,274.00 C428.65,274.00 420.66,266.44 415.85,259.59 C402.25,240.22 403.53,213.91 418.75,199.87 C428.44,190.95 443.08,187.84 458.45,191.44 C466.68,193.36 481.83,200.34 490.23,206.07 C496.48,210.34 496.64,210.04 491.56,203.65 C488.34,199.60 478.25,191.55 474.00,189.64 C471.88,188.69 473.04,188.44 481.50,188.01 L 491.50,187.50 L 486.00,185.81 C477.42,183.18 468.64,181.75 463.61,182.15 C461.07,182.35 459.00,182.21 459.00,181.85 C459.00,181.48 460.80,178.91 462.99,176.13 C470.42,166.73 483.24,158.92 496.96,155.42 C502.02,154.13 506.15,153.90 515.96,154.34 C522.86,154.66 530.08,155.22 532.00,155.60 L 535.50,156.29 L 530.75,152.64 C528.14,150.64 523.94,147.43 521.42,145.50 C516.08,141.42 516.47,141.29 525.64,144.10 C544.58,149.90 563.39,163.36 569.97,175.82 C571.76,179.22 571.91,179.31 571.96,176.96 C572.08,169.68 566.49,155.85 560.34,148.29 L 556.92,144.07 L 560.71,145.65 C570.49,149.73 585.42,161.55 593.17,171.34 C595.28,174.00 597.00,175.98 597.00,175.73 C597.00,173.98 590.48,160.00 588.38,157.26 C583.62,151.02 586.66,152.85 593.86,160.56 C600.27,167.42 607.00,178.40 607.00,182.00 C607.00,182.66 609.09,185.52 611.65,188.35 C629.01,207.58 627.52,240.24 608.36,260.53 L 605.50,263.57 L 607.71,269.03 C608.92,272.04 610.44,276.98 611.08,280.00 C612.72,287.74 611.75,302.20 609.14,308.96 C607.98,311.97 607.40,314.80 607.85,315.25 C608.29,315.69 617.40,318.92 628.08,322.41 C645.49,328.10 679.59,341.77 700.09,351.28 L 707.67,354.80 L 713.59,352.80 C716.84,351.71 735.48,344.51 755.00,336.81 C796.54,320.44 808.95,315.82 810.22,316.24 C810.73,316.41 805.24,320.47 798.03,325.25 C779.77,337.37 758.97,347.31 718.00,363.50 C712.77,365.56 708.04,367.61 707.48,368.05 C706.91,368.51 695.45,362.77 680.79,354.68 C640.97,332.70 629.52,326.75 620.42,323.36 C615.79,321.63 612.00,320.37 612.00,320.57 C612.00,320.76 615.49,323.49 619.75,326.64 C635.23,338.05 645.13,349.24 653.20,364.45 C657.31,372.18 657.66,371.79 655.56,361.86 C654.14,355.16 651.15,348.18 648.13,344.52 C646.22,342.20 645.96,342.02 658.08,351.31 C668.39,359.21 677.45,368.70 683.77,378.20 C686.33,382.05 688.58,384.76 688.76,384.21 C689.28,382.66 685.13,371.00 682.29,366.00 C680.89,363.52 678.56,360.21 677.12,358.64 L 674.50,355.77 L 679.56,358.31 C682.35,359.70 685.21,361.55 685.94,362.42 C686.66,363.29 687.67,364.00 688.20,364.00 C689.34,364.00 702.76,371.74 705.24,373.82 C706.78,375.13 708.46,374.77 720.74,370.51 C737.22,364.80 751.16,359.06 760.00,354.35 L 766.50,350.89 L 755.74,361.33 C749.83,367.07 742.52,373.47 739.49,375.55 C736.47,377.63 734.18,379.52 734.41,379.74 C735.22,380.55 748.69,374.27 758.28,368.61 C772.25,360.38 787.12,349.07 797.25,338.98 C802.06,334.19 806.00,330.43 806.00,330.62 C806.00,332.02 797.55,348.80 794.89,352.68 L 791.57,357.50 L 797.39,352.54 C803.49,347.34 810.45,338.91 813.53,333.00 C814.92,330.33 815.53,325.96 816.11,314.50 C817.17,293.65 818.38,290.11 829.44,275.61 C839.21,262.81 840.00,260.83 840.00,249.20 C840.00,240.81 840.35,238.66 842.30,234.96 C846.28,227.44 855.37,224.15 863.13,227.42 C866.91,229.02 872.08,234.21 873.68,238.01 C875.43,242.16 875.36,261.21 873.58,265.46 C872.16,268.86 872.17,269.08 873.78,268.58 C874.72,268.28 887.42,264.85 902.00,260.97 C916.58,257.08 930.72,253.25 933.43,252.45 C944.23,249.27 951.60,251.32 956.73,258.92 C959.39,262.87 959.81,270.55 957.59,274.80 C953.93,281.81 951.47,282.91 923.00,290.18 C918.33,291.37 914.32,292.49 914.09,292.67 C913.86,292.84 914.37,293.78 915.22,294.74 C918.58,298.57 919.23,307.20 916.47,311.41 C915.04,313.58 915.10,314.05 917.18,317.58 C919.96,322.29 920.21,330.28 917.70,334.08 L 915.99,336.66 L 929.75,340.92 C937.31,343.26 945.56,345.82 948.08,346.61 C952.61,348.03 957.67,352.37 959.94,356.79 C962.01,360.82 961.57,368.22 958.98,372.82 C956.49,377.25 950.49,381.00 945.89,381.00 C943.21,381.00 933.56,378.13 905.26,368.93 C895.23,365.67 885.56,363.01 883.76,363.01 C881.97,363.02 876.90,363.91 872.50,365.00 C863.61,367.20 852.18,367.58 845.52,365.90 L 841.15,364.80 L 830.83,373.46 C806.87,393.54 784.96,405.46 761.87,410.97 C757.41,412.04 753.55,413.11 753.31,413.36 C753.06,413.61 756.82,414.14 761.66,414.54 C769.56,415.20 781.82,414.19 788.50,412.34 C792.19,411.32 788.06,414.60 779.59,419.42 C770.23,424.75 757.96,429.37 745.50,432.26 C732.85,435.18 709.83,435.16 698.88,432.20 C685.52,428.60 665.65,417.75 656.75,409.20 C652.38,405.00 651.88,406.07 655.63,411.61 C661.74,420.65 672.37,430.69 681.50,436.03 C687.47,439.52 687.21,439.58 677.23,436.99 C667.03,434.34 648.23,424.97 634.17,415.51 C620.77,406.50 608.52,399.35 597.50,394.08 C589.64,390.33 574.95,384.67 574.49,385.22 C574.36,385.37 571.73,390.83 568.65,397.35 C565.56,403.88 558.80,417.15 553.62,426.85 C548.44,436.56 542.28,448.77 539.93,454.00 C534.68,465.68 527.02,484.36 527.35,484.68 C527.48,484.82 530.05,484.23 533.05,483.39 C536.05,482.54 544.80,481.53 552.50,481.14 L 566.50,480.44 L 561.00,478.63 C557.98,477.64 552.41,476.57 548.63,476.27 C544.78,475.96 542.36,475.39 543.13,474.97 C546.13,473.34 560.10,471.69 570.50,471.74 C583.42,471.80 593.85,473.80 602.66,477.93 C609.50,481.13 618.68,489.09 621.98,494.69 L 624.02,498.15 L 619.76,494.69 C614.52,490.43 605.98,484.99 604.55,485.02 C603.83,485.03 603.83,485.26 604.53,485.77 C606.64,487.26 612.92,496.73 616.38,503.62 C621.18,513.18 624.85,526.44 626.36,539.63 L 627.61,550.50 L 628.80,543.92 C630.57,534.22 630.22,518.77 628.05,510.50 C627.04,506.65 626.35,503.35 626.51,503.18 C627.13,502.51 636.50,520.70 638.79,526.99 C645.24,544.73 647.99,563.65 648.00,590.20 C648.00,613.83 644.32,642.42 638.49,664.00 L 637.00,669.50 L 642.75,674.73 C645.91,677.61 654.22,684.06 661.20,689.07 C676.08,699.74 678.83,702.45 670.48,698.25 C667.19,696.59 662.76,694.50 660.64,693.62 L 656.77,692.01 L 660.59,696.25 C662.69,698.59 666.45,702.45 668.95,704.83 L 673.50,709.16 L 661.70,703.10 C655.21,699.76 650.23,697.59 650.62,698.27 C652.13,700.87 657.50,707.66 660.88,711.25 C664.85,715.48 664.55,715.82 659.21,713.13 C657.17,712.09 650.33,709.55 644.00,707.48 C631.60,703.40 624.90,700.38 618.32,695.87 C616.02,694.29 613.90,693.00 613.61,693.00 C613.32,693.00 615.54,696.67 618.54,701.15 C621.54,705.62 624.71,711.59 625.59,714.40 C627.10,719.19 627.09,719.83 625.31,725.08 L 623.42,730.67 L 630.56,738.33 C638.18,746.52 640.76,747.61 643.44,743.78 C645.71,740.54 645.48,739.77 640.38,733.51 C636.23,728.42 635.87,727.58 636.88,725.37 C637.49,724.01 638.00,721.58 638.00,719.95 C638.00,718.33 638.34,717.01 638.75,717.01 C639.16,717.02 644.45,718.84 650.50,721.06 C668.61,727.72 674.91,731.31 686.20,741.39 C694.72,749.00 696.59,751.19 697.00,754.03 C697.66,758.55 699.95,758.91 704.14,755.16 C707.29,752.36 707.38,752.08 706.02,749.54 C705.23,748.07 698.39,741.05 690.82,733.93 C683.24,726.82 677.50,721.00 678.05,721.00 C682.41,721.00 718.24,744.22 717.87,746.80 C717.52,749.19 718.20,751.00 719.45,751.00 C720.99,751.00 726.00,745.05 726.00,743.23 C726.00,742.64 721.61,739.11 716.25,735.40 C705.40,727.88 686.38,713.42 685.52,712.03 C685.20,711.51 686.13,711.46 687.73,711.92 C694.17,713.77 721.91,729.09 723.29,731.56 C724.58,733.86 727.57,733.23 728.87,730.39 C730.47,726.87 729.60,725.97 719.11,720.28 C714.37,717.72 707.80,714.00 704.50,712.03 C701.20,710.05 695.12,706.92 691.00,705.06 C686.88,703.21 683.27,701.50 683.00,701.26 C682.73,701.03 687.45,701.16 693.50,701.56 C703.90,702.26 704.72,702.47 708.50,705.52 C710.70,707.30 713.96,709.49 715.75,710.40 L 719.00,712.05 L 719.00,709.13 C719.00,706.85 717.69,705.00 712.94,700.61 L 706.89,695.00 L 697.69,694.93 C681.33,694.80 679.50,694.25 667.90,686.04 C662.18,681.99 655.22,676.76 652.43,674.41 L 647.35,670.15 L 649.66,660.82 C650.93,655.70 651.98,650.68 651.99,649.67 C652.00,648.18 657.29,650.54 679.75,662.04 C741.61,693.71 781.96,717.62 819.00,744.56 C833.60,755.17 837.49,758.29 855.00,773.45 C875.72,791.39 914.00,831.22 914.00,834.84 C914.00,835.90 910.31,836.46 885.50,839.11 C867.45,841.04 810.89,842.51 798.00,841.39 M 857.50,820.03 L 863.50,819.85 L 857.50,817.07 C841.03,809.42 773.50,777.84 747.56,765.64 L 733.61,759.09 L 732.13,762.14 C731.32,763.83 728.93,766.34 726.82,767.74 C723.57,769.89 722.23,770.19 718.10,769.70 C714.86,769.31 712.62,769.55 711.45,770.41 C709.82,771.60 709.89,771.76 712.35,772.37 C713.82,772.74 729.75,779.40 747.76,787.17 C765.77,794.94 791.80,805.84 805.62,811.40 L 830.74,821.50 L 841.12,820.86 C846.83,820.50 854.20,820.13 857.50,820.03 M 766.92,814.60 C766.69,814.39 763.12,812.85 759.00,811.19 C729.70,799.39 670.00,773.81 670.00,773.06 C670.00,772.74 672.83,771.66 676.30,770.67 C685.12,768.14 685.63,767.74 683.63,764.89 C682.73,763.60 682.00,761.37 682.00,759.93 C682.00,757.91 680.66,756.25 676.25,752.82 C669.96,747.92 658.42,740.00 657.58,740.00 C657.29,740.00 657.32,741.33 657.64,742.95 C658.55,747.52 654.62,754.65 649.33,758.01 C643.79,761.52 639.18,762.39 633.83,760.95 C629.34,759.75 627.92,758.47 615.64,744.57 C608.34,736.30 607.82,735.42 608.29,732.08 C608.57,730.11 609.12,727.71 609.51,726.74 C610.27,724.87 610.79,725.14 570.00,706.00 C506.75,676.30 490.99,669.00 490.16,669.00 C489.65,669.00 488.47,670.16 487.54,671.58 C484.08,676.86 474.18,678.62 468.27,675.02 C465.09,673.08 464.97,673.08 461.77,674.93 C455.08,678.77 447.33,678.41 441.70,673.98 C439.42,672.18 438.68,672.09 434.78,673.14 C429.32,674.60 424.53,673.73 419.28,670.33 C413.72,666.72 411.37,662.08 410.02,652.00 C409.39,647.33 408.23,639.73 407.44,635.12 C406.65,630.51 406.00,626.62 406.00,626.47 C406.00,626.10 384.73,614.48 358.50,600.53 C337.03,589.10 309.00,572.85 304.00,568.93 L 301.50,566.96 L 307.00,567.58 C315.91,568.59 331.50,571.95 338.76,574.43 C342.46,575.69 353.01,580.17 362.20,584.37 C371.38,588.56 379.26,591.98 379.70,591.95 C380.14,591.92 373.86,588.54 365.75,584.44 C357.64,580.34 351.00,576.57 351.00,576.07 C351.00,574.97 360.05,571.46 365.49,570.44 L 369.31,569.72 L 366.64,568.32 C365.17,567.55 348.34,560.24 329.23,552.07 C310.13,543.90 286.49,533.58 276.71,529.12 C258.54,520.86 241.98,514.48 242.03,515.78 C242.04,516.18 244.18,519.25 246.78,522.61 C271.48,554.59 321.21,603.05 356.03,629.09 C384.65,650.48 419.86,673.70 449.50,690.71 C534.84,739.69 615.19,775.37 692.00,798.39 C709.46,803.63 738.30,810.09 763.00,814.30 C767.08,815.00 767.35,815.02 766.92,814.60 M 864.75,802.61 C839.08,778.91 807.97,755.19 778.50,736.84 C757.78,723.94 739.05,713.02 732.75,710.17 C732.34,709.99 732.00,711.63 732.00,713.82 C732.00,717.32 732.43,718.05 735.55,719.90 C741.93,723.66 744.04,733.96 739.83,740.77 C737.70,744.22 737.70,744.31 739.58,745.72 C740.64,746.52 751.85,752.19 764.50,758.33 C777.15,764.47 807.05,779.28 830.95,791.25 C854.84,803.21 874.76,813.00 875.20,813.00 C875.65,813.00 870.95,808.32 864.75,802.61 M 575.41,680.03 C578.59,678.94 583.42,677.75 586.15,677.39 C588.89,677.02 590.76,676.40 590.31,676.01 C589.87,675.62 579.83,670.89 568.00,665.51 C556.17,660.14 540.35,652.92 532.83,649.47 L 519.15,643.21 L 517.92,646.20 C517.21,647.90 515.25,649.87 513.34,650.78 C511.03,651.88 510.00,653.06 510.00,654.60 C510.00,655.83 509.73,657.55 509.39,658.42 C509.06,659.29 509.29,660.00 509.90,660.00 C510.51,660.00 522.82,665.33 537.25,671.85 C568.46,685.94 566.12,685.07 568.07,683.38 C568.93,682.63 572.24,681.12 575.41,680.03 M 678.70,679.50 C671.30,675.03 667.00,672.81 667.00,673.45 C667.00,674.16 682.25,683.00 683.48,683.00 C684.04,683.00 681.89,681.42 678.70,679.50 M 605.00,661.25 C604.99,651.09 602.95,622.85 601.30,610.00 L 599.57,596.50 L 598.35,604.00 C597.68,608.12 597.10,613.71 597.06,616.42 C597.03,619.12 596.76,621.10 596.47,620.81 C595.23,619.57 592.06,599.41 591.07,586.50 C589.72,568.92 588.94,561.72 588.44,562.22 C587.20,563.46 584.99,578.43 584.91,586.13 C584.85,591.09 584.61,594.95 584.38,594.71 C582.95,593.28 578.80,566.42 578.20,554.74 L 577.50,540.96 L 569.50,546.56 C554.11,557.35 534.72,565.68 516.00,569.53 C510.81,570.60 500.34,571.52 489.10,571.89 L 470.69,572.50 L 483.60,576.83 C514.16,587.07 568.82,608.82 586.77,617.88 L 592.70,620.88 L 593.40,630.06 C593.78,635.11 593.92,639.42 593.70,639.63 C593.49,639.84 587.51,637.27 580.41,633.91 C564.61,626.43 515.63,605.43 504.00,601.15 C481.27,592.79 468.46,588.34 468.06,588.67 C467.13,589.46 476.64,598.12 479.00,598.63 C484.76,599.89 499.74,605.15 502.72,606.97 C504.68,608.17 506.17,610.03 506.52,611.72 C508.04,619.09 509.24,622.05 511.45,623.78 C512.77,624.82 525.02,630.68 538.67,636.81 C552.33,642.94 572.27,651.98 583.00,656.90 C593.73,661.82 603.06,665.88 603.75,665.92 C604.59,665.97 605.00,664.43 605.00,661.25 M 460.33,660.53 C461.62,659.24 461.28,657.40 457.51,645.28 C455.15,637.70 452.73,630.23 452.11,628.68 C451.50,627.14 451.00,625.70 451.00,625.48 C451.00,625.27 452.83,625.92 455.07,626.92 C457.31,627.92 460.16,630.26 461.41,632.12 C464.62,636.92 472.82,653.98 473.48,657.25 C473.95,659.58 474.54,660.00 477.33,660.00 C479.14,660.00 481.49,659.36 482.56,658.57 C484.44,657.19 484.32,656.78 478.81,645.82 C475.67,639.59 471.72,632.12 470.02,629.22 L 466.93,623.94 L 469.71,624.59 C474.88,625.79 477.10,628.08 485.65,641.05 C494.69,654.77 495.00,654.98 499.24,650.29 C500.87,648.49 500.81,648.23 498.11,644.95 C496.55,643.05 492.74,637.67 489.63,633.00 C486.53,628.33 482.81,623.04 481.37,621.25 L 478.74,618.00 L 482.12,618.63 C486.39,619.44 487.99,620.92 496.00,631.44 C502.63,640.16 505.03,641.52 507.30,637.89 C508.09,636.63 507.13,634.80 502.81,629.39 C499.79,625.60 496.57,621.88 495.66,621.13 C494.75,620.37 494.00,618.33 494.00,616.58 C494.00,613.51 493.80,613.36 488.19,612.20 C484.99,611.54 480.47,611.00 478.14,611.00 C474.10,611.00 473.49,610.57 465.31,601.97 C460.59,597.01 456.57,593.10 456.39,593.28 C456.06,593.60 460.97,605.77 465.14,615.00 L 467.17,619.50 L 462.84,615.51 C460.45,613.32 456.14,609.28 453.25,606.54 C450.36,603.81 448.01,602.00 448.02,602.53 C448.03,603.72 451.57,617.74 452.55,620.50 C452.94,621.60 451.74,620.70 449.90,618.50 C448.05,616.30 444.45,612.25 441.91,609.50 C439.36,606.75 436.99,603.83 436.64,603.00 C435.55,600.46 437.01,613.60 438.42,619.03 L 439.74,624.14 L 436.26,620.82 C430.36,615.20 422.44,606.78 417.41,600.78 C414.77,597.63 412.48,595.18 412.32,595.34 C412.16,595.50 413.42,599.20 415.12,603.57 C416.82,607.93 419.08,614.42 420.13,618.00 C422.37,625.64 427.22,652.83 426.54,653.94 C425.50,655.62 428.82,658.33 431.91,658.33 C437.92,658.33 438.45,656.66 436.19,644.87 C432.77,627.15 432.76,627.00 434.33,627.00 C435.12,627.00 437.32,627.66 439.24,628.46 C442.51,629.82 442.96,630.60 446.38,640.89 C448.38,646.93 450.14,653.59 450.29,655.69 C450.43,657.78 450.90,660.06 451.33,660.75 C452.41,662.47 458.53,662.32 460.33,660.53 M 407.00,564.98 C407.00,564.48 403.43,561.78 399.06,558.98 C394.34,555.95 387.71,550.30 382.74,545.08 L 374.37,536.28 L 363.43,533.17 C347.08,528.52 323.95,523.14 311.00,520.96 C297.80,518.75 269.74,514.93 269.38,515.29 C268.48,516.19 378.42,558.42 395.00,563.54 C405.16,566.68 407.00,566.90 407.00,564.98 M 428.00,558.43 C428.00,553.02 430.82,535.47 433.45,524.50 C438.68,502.69 448.48,477.24 457.32,462.53 L 461.82,455.05 L 458.11,458.03 C444.89,468.65 429.85,498.59 425.98,522.00 C424.50,530.89 424.17,549.16 425.32,557.26 C426.20,563.40 428.00,564.19 428.00,558.43 M 312.09,469.41 C316.52,465.05 316.71,464.64 315.90,461.16 C314.75,456.23 314.77,439.28 315.93,435.24 C316.44,433.46 316.61,432.00 316.31,432.00 C316.01,432.00 313.68,433.52 311.13,435.38 C302.95,441.34 294.05,445.17 285.60,446.37 L 281.70,446.92 L 284.22,444.21 C287.34,440.86 290.78,435.54 289.47,436.10 C288.94,436.33 285.64,438.00 282.15,439.82 C275.58,443.24 275.41,442.98 280.17,436.86 C281.73,434.85 283.00,432.96 283.00,432.65 C283.00,432.34 280.66,433.18 277.79,434.50 C274.93,435.83 272.40,436.73 272.17,436.51 C271.95,436.28 273.92,433.57 276.56,430.49 C281.29,424.94 281.31,424.88 278.43,425.57 C276.82,425.95 273.98,426.88 272.13,427.63 C267.80,429.39 267.75,429.38 269.24,426.97 C269.93,425.86 273.75,422.62 277.72,419.78 C281.69,416.94 284.83,414.50 284.70,414.37 C284.57,414.23 281.09,415.26 276.98,416.64 C272.87,418.02 266.79,419.40 263.48,419.69 C257.74,420.21 257.25,420.07 252.72,416.62 C250.12,414.63 247.75,413.00 247.47,413.00 C247.18,413.00 246.52,414.12 246.00,415.50 C244.34,419.86 246.25,422.57 252.62,424.96 C255.78,426.14 258.76,427.35 259.23,427.64 C261.04,428.76 257.65,430.93 253.17,431.51 C245.83,432.47 244.00,433.54 244.00,436.86 C244.00,442.17 246.01,442.55 254.94,438.90 C259.35,437.10 263.25,435.91 263.60,436.27 C265.42,438.09 262.61,441.79 256.57,445.50 C253.00,447.70 250.06,449.86 250.04,450.30 C250.02,450.74 250.69,452.43 251.53,454.07 C253.30,457.47 253.09,457.54 262.71,450.49 L 268.92,445.94 L 270.61,448.53 C272.31,451.12 272.30,451.13 266.41,457.14 L 260.50,463.15 L 264.88,467.08 C269.07,470.84 272.00,472.06 272.00,470.06 C272.00,469.54 271.55,468.84 271.00,468.50 C269.22,467.40 269.94,464.53 272.89,460.95 C275.06,458.32 277.36,456.97 282.14,455.54 C285.64,454.49 292.10,452.18 296.50,450.40 L 304.50,447.17 L 306.14,454.21 C307.77,461.24 307.77,461.25 305.39,464.76 C302.74,468.66 302.40,471.00 304.20,472.80 C306.12,474.72 307.15,474.27 312.09,469.41 M 528.29,413.87 C535.54,410.19 546.22,398.39 550.97,388.79 C556.59,377.45 558.82,364.80 557.05,354.30 L 555.84,347.14 L 549.82,351.04 C544.78,354.29 529.69,361.00 527.40,361.00 C527.04,361.00 528.55,359.04 530.76,356.64 C534.97,352.07 537.48,348.15 536.70,347.36 C536.44,347.11 533.55,349.12 530.28,351.84 C523.23,357.71 514.86,362.53 510.00,363.52 L 506.50,364.23 L 508.57,361.87 C511.54,358.47 518.20,348.86 517.82,348.50 C517.64,348.34 513.03,352.17 507.57,357.02 L 497.65,365.83 L 494.72,362.16 C487.97,353.71 484.03,341.55 483.95,328.94 L 483.91,321.50 L 481.89,326.50 C479.63,332.12 479.11,343.68 480.90,348.31 C482.36,352.07 481.11,351.12 476.21,344.77 C471.59,338.79 467.48,328.24 466.46,319.78 L 465.78,314.06 L 462.91,315.55 C461.33,316.36 457.10,319.78 453.50,323.14 C441.49,334.38 434.98,352.38 437.01,368.73 C438.01,376.80 443.30,389.32 448.21,395.27 L 450.50,398.03 L 457.50,396.48 C461.35,395.63 468.66,394.66 473.74,394.32 L 482.98,393.71 L 485.91,389.10 C487.53,386.57 489.45,383.16 490.17,381.53 C491.43,378.73 491.53,379.06 492.00,387.40 L 492.50,396.23 L 498.64,398.45 C505.37,400.88 512.35,405.62 518.45,411.92 C520.63,414.17 522.78,416.00 523.24,416.00 C523.70,416.00 525.97,415.04 528.29,413.87 M 948.81,364.31 C949.23,360.01 947.45,358.98 930.98,353.96 C923.57,351.70 912.66,348.31 906.74,346.42 L 895.98,342.98 L 885.74,345.64 C868.36,350.15 862.18,350.02 857.23,345.08 C855.67,343.51 853.84,340.39 853.16,338.15 C852.04,334.39 851.51,333.93 846.72,332.51 C843.85,331.65 839.81,330.68 837.75,330.35 C835.69,330.02 834.00,329.45 834.00,329.10 C834.00,328.74 835.54,327.62 837.43,326.61 C845.96,322.01 849.70,314.12 847.41,305.50 C846.68,302.75 846.07,298.23 846.04,295.45 C846.01,290.99 846.67,289.33 851.65,281.45 C860.73,267.04 862.34,262.86 862.81,252.44 C863.20,243.86 863.08,243.21 860.67,240.44 C858.24,237.64 857.99,237.57 855.46,239.00 C852.88,240.46 852.81,240.77 852.62,251.00 C852.38,263.91 851.16,266.93 840.43,281.23 C829.72,295.52 828.67,298.12 828.19,311.50 C827.70,325.43 829.81,338.61 833.41,344.04 C839.66,353.49 852.95,356.30 871.10,352.02 C877.44,350.52 882.13,349.98 885.50,350.35 C888.25,350.65 902.20,354.74 916.50,359.43 C930.80,364.13 943.85,367.86 945.50,367.73 C948.08,367.53 948.54,367.06 948.81,364.31 M 884.58,334.15 C892.77,331.91 899.95,330.49 901.74,330.75 C904.23,331.11 905.15,330.70 906.53,328.60 C908.10,326.20 908.11,325.81 906.62,323.54 C903.46,318.72 902.18,318.66 886.26,322.50 C878.14,324.46 870.48,326.28 869.22,326.56 C866.45,327.16 863.00,330.45 863.00,332.50 C863.00,334.55 866.61,338.00 868.76,338.00 C869.72,338.00 876.84,336.27 884.58,334.15 M 576.22,327.03 C579.61,325.76 583.70,323.17 586.25,320.69 C590.71,316.35 595.34,308.36 594.34,306.74 C594.01,306.20 583.76,305.96 569.63,306.16 L 545.50,306.50 L 540.92,303.81 C538.40,302.33 535.75,300.40 535.02,299.53 C533.84,298.11 533.99,298.05 536.42,298.97 C540.68,300.59 547.35,300.19 556.28,297.78 C563.02,295.96 567.21,295.55 579.50,295.53 C587.75,295.51 596.03,295.84 597.89,296.25 L 601.29,297.01 L 600.63,289.08 C599.65,277.34 595.90,268.02 587.90,257.46 C576.70,242.68 575.26,227.22 583.95,215.22 C591.18,205.24 600.48,205.83 604.56,216.52 C608.61,227.12 600.99,245.00 592.42,245.00 C589.17,245.00 589.36,245.81 593.71,250.40 L 597.41,254.30 L 601.18,250.05 C611.77,238.12 614.89,218.76 608.39,205.27 C605.32,198.89 601.25,195.83 595.05,195.23 C588.90,194.64 583.52,197.36 577.86,203.93 L 573.59,208.90 L 568.30,203.89 C555.90,192.17 538.65,189.82 523.70,197.81 C517.61,201.06 512.50,206.70 509.14,213.88 C506.88,218.68 506.51,220.81 506.54,228.50 C506.58,236.31 506.95,238.20 509.33,242.79 C513.20,250.25 518.29,255.51 524.67,258.63 C529.23,260.86 531.59,261.33 538.58,261.41 C543.21,261.46 546.99,261.74 547.00,262.02 C547.00,262.31 545.42,263.40 543.48,264.44 C539.02,266.84 531.79,274.53 529.19,279.63 C519.11,299.38 530.57,323.38 552.75,328.98 C558.37,330.40 569.77,329.45 576.22,327.03 M 874.50,313.60 C890.95,309.40 897.15,308.00 899.25,308.00 C902.54,308.00 906.00,305.27 906.00,302.67 C906.00,299.46 903.24,296.00 900.68,296.00 C899.47,296.00 890.38,298.05 880.49,300.55 C863.07,304.95 860.00,306.33 860.00,309.74 C860.00,311.78 865.10,316.09 866.91,315.58 C867.79,315.34 871.20,314.45 874.50,313.60 M 861.55,293.98 C863.92,293.08 874.19,290.38 929.60,276.13 C937.35,274.13 944.44,271.88 945.35,271.13 C947.76,269.12 947.40,265.31 944.62,263.49 C942.45,262.06 941.71,262.10 935.87,263.93 C932.37,265.02 918.02,268.89 904.00,272.53 C862.25,283.36 864.40,282.56 860.95,288.59 C856.99,295.51 857.01,295.71 861.55,293.98 M 472.51,267.00 C481.97,263.74 482.05,263.43 473.89,261.61 C453.27,257.02 440.65,239.62 450.66,229.61 C453.60,226.67 452.40,226.22 447.87,228.57 C444.60,230.26 441.03,236.78 441.07,241.00 C441.09,243.24 442.16,246.77 444.52,252.37 C445.29,254.19 445.23,254.20 442.40,252.44 C432.96,246.58 428.65,239.54 428.61,229.94 C428.58,222.13 430.75,217.69 436.00,214.80 C446.41,209.06 461.22,218.53 469.97,236.50 L 472.89,242.50 L 472.94,238.00 C473.02,230.48 471.02,220.72 468.53,216.50 C459.19,200.62 438.99,197.44 426.87,209.96 C420.71,216.32 418.60,222.64 419.21,232.87 C420.20,249.36 430.89,262.56 447.76,268.11 C454.59,270.36 463.97,269.94 472.51,267.00 M 597.80,229.80 C599.58,228.02 599.26,225.55 597.00,223.50 C595.07,221.75 594.93,221.75 593.00,223.50 C589.77,226.42 591.00,231.00 595.00,231.00 C595.88,231.00 597.14,230.46 597.80,229.80 M 415.53,761.40 C416.33,755.17 414.04,744.01 410.48,736.87 C405.05,725.97 389.74,714.96 375.85,711.95 C368.44,710.35 351.08,711.20 344.50,713.49 C341.75,714.44 333.88,717.59 327.00,720.47 C311.49,726.98 303.57,729.00 293.58,729.00 C274.83,729.00 258.37,720.14 250.42,705.76 C247.87,701.15 247.51,699.48 247.50,692.30 L 247.50,684.10 L 245.74,687.52 C243.32,692.24 242.14,701.98 243.19,708.68 C244.50,717.01 248.51,724.48 255.50,731.61 C262.16,738.41 271.49,743.62 282.00,746.41 L 287.50,747.87 L 279.00,747.92 C262.04,748.01 249.88,743.50 238.54,732.89 C227.13,722.21 221.27,706.42 223.76,693.03 C227.44,673.22 241.65,660.46 261.33,659.28 C268.12,658.87 270.48,659.16 275.33,661.00 C278.54,662.21 282.73,664.58 284.64,666.26 C291.33,672.13 294.54,682.12 291.58,687.85 C289.66,691.57 289.56,691.59 286.27,689.00 C283.07,686.48 276.34,686.37 273.37,688.77 C270.23,691.31 269.00,694.31 269.00,699.40 C269.00,711.87 287.26,718.31 300.54,710.53 C310.07,704.95 314.47,695.04 313.82,680.65 C313.30,669.17 310.40,662.37 302.50,654.09 C292.57,643.67 280.64,639.00 264.00,639.00 C252.72,639.00 246.37,640.49 233.20,646.22 C224.48,650.02 222.69,650.44 215.50,650.45 C208.46,650.46 206.77,650.08 201.40,647.29 C191.06,641.92 182.22,630.16 176.93,614.76 C166.55,584.50 172.40,547.57 192.23,518.17 C194.95,514.14 197.31,510.99 197.49,511.17 C197.66,511.35 196.51,515.35 194.93,520.06 C182.94,555.81 189.72,595.85 211.43,617.56 C216.41,622.54 231.84,633.49 232.69,632.65 C232.90,632.44 231.48,629.60 229.54,626.33 C220.69,611.49 216.48,592.56 217.34,571.50 C217.63,564.35 218.03,557.73 218.24,556.78 C218.78,554.27 220.00,553.37 220.00,555.48 C220.00,558.44 233.58,585.65 239.52,594.57 C249.65,609.80 264.66,620.81 276.64,621.80 C281.94,622.24 282.58,622.61 290.35,629.80 C304.12,642.52 306.05,644.21 320.50,656.11 C358.89,687.76 395.46,711.87 461.23,748.90 C464.38,750.67 467.19,752.50 467.47,752.96 C468.12,754.00 449.15,761.51 440.76,763.52 C437.32,764.35 430.09,765.32 424.70,765.67 L 414.89,766.31 L 415.53,761.40 M 855.00,713.28 C854.17,712.97 848.36,710.28 842.08,707.29 C835.79,704.31 827.43,700.79 823.49,699.47 C815.68,696.84 799.99,694.01 793.25,694.00 C790.91,694.00 789.00,693.55 789.00,693.00 C789.00,692.45 789.51,692.00 790.13,692.00 C790.75,692.00 797.84,689.57 805.88,686.59 C823.01,680.26 836.77,677.05 850.07,676.28 C861.17,675.64 865.44,676.69 870.74,681.35 C880.78,690.16 880.14,705.68 869.48,711.71 C865.64,713.89 858.64,714.64 855.00,713.28 M 749.97,657.65 C761.44,649.03 773.33,638.34 782.16,628.71 C791.18,618.87 795.83,616.05 803.00,616.04 C818.53,616.02 826.57,635.37 815.59,646.34 C811.53,650.40 807.44,651.56 790.32,653.48 C777.24,654.95 759.08,658.49 749.50,661.44 C746.75,662.29 744.13,662.98 743.68,662.99 C743.24,663.00 746.07,660.59 749.97,657.65 M 703.61,644.50 C705.72,642.85 710.06,638.89 713.28,635.70 C716.49,632.51 720.25,629.48 721.63,628.95 C725.01,627.67 728.92,628.72 732.25,631.82 C736.05,635.35 736.13,641.59 732.41,645.08 C729.91,647.42 729.32,647.50 714.81,647.50 L 699.79,647.50 L 703.61,644.50 M 680.81,626.35 C681.89,624.23 683.30,619.80 683.95,616.50 C685.81,607.07 686.96,604.18 689.71,602.02 C695.61,597.37 705.40,601.88 705.40,609.24 C705.40,614.64 702.62,617.82 694.66,621.53 C690.72,623.37 685.56,626.07 683.18,627.54 L 678.86,630.20 L 680.81,626.35 M 723.65,607.00 C729.27,598.81 735.80,585.64 739.36,575.33 C745.87,556.48 749.12,552.64 758.61,552.55 C766.72,552.47 772.79,557.96 773.72,566.22 C774.62,574.16 770.72,579.07 757.50,586.67 C750.04,590.96 738.28,598.78 725.83,607.71 L 720.56,611.50 L 723.65,607.00 M 105.50,349.80 C101.52,348.42 96.10,343.28 94.38,339.28 C92.50,334.90 92.56,312.77 94.48,301.76 C99.84,271.02 121.51,237.16 148.42,217.47 C163.71,206.27 184.91,197.00 203.22,193.51 C212.93,191.65 237.30,191.31 247.00,192.90 C276.34,197.70 300.66,210.51 323.00,232.95 C332.63,242.62 343.39,256.40 349.34,266.67 C349.98,267.77 347.71,269.30 335.50,276.00 C333.30,277.21 329.13,279.97 326.23,282.15 C321.11,285.98 319.00,286.37 319.00,283.47 C319.00,281.28 306.99,263.25 300.92,256.30 C287.23,240.65 266.89,229.11 244.82,224.46 C234.56,222.30 214.16,222.53 204.88,224.90 C175.73,232.36 155.33,247.50 139.95,273.09 C130.51,288.80 127.04,301.50 127.01,320.50 C127.00,327.65 126.51,335.22 125.93,337.32 C124.36,342.97 118.87,348.54 113.55,349.88 C111.11,350.50 108.98,350.96 108.81,350.92 C108.64,350.88 107.15,350.37 105.50,349.80 M 194.88,340.33 C182.51,336.20 173.64,324.07 173.58,311.21 C173.53,297.10 181.02,285.77 193.53,281.06 C201.90,277.90 213.66,278.44 220.20,282.27 C236.19,291.64 241.31,313.52 231.01,328.48 C223.23,339.80 208.12,344.76 194.88,340.33 M 292.50,295.41 C285.75,289.73 273.46,284.88 262.26,283.47 C259.38,283.11 255.57,281.84 253.80,280.64 C250.12,278.17 247.47,272.27 248.38,268.62 C249.38,264.64 253.85,260.13 258.04,258.87 C267.95,255.90 277.20,264.71 294.13,293.25 C297.29,298.58 296.89,299.10 292.50,295.41 M 365.15,210.01 C355.34,202.31 344.96,196.49 332.92,191.92 C319.78,186.94 316.58,184.84 313.99,179.48 C309.33,169.85 316.15,160.00 327.49,160.00 C337.18,160.00 343.04,165.57 356.39,187.50 C367.25,205.32 373.06,215.27 372.77,215.54 C372.62,215.67 369.19,213.18 365.15,210.01 M 389.31,187.25 C387.78,184.64 382.35,176.94 377.25,170.15 C362.15,150.06 360.50,146.19 363.80,138.71 C368.73,127.57 383.88,126.32 390.84,136.48 C394.90,142.40 395.30,145.98 393.45,159.76 C392.37,167.78 391.92,175.92 392.22,182.18 C392.48,187.58 392.56,192.00 392.39,192.00 C392.22,192.00 390.83,189.86 389.31,187.25 M 438.00,180.45 C438.00,178.81 443.44,170.63 447.54,166.09 C450.55,162.76 450.89,162.00 449.37,162.01 C447.47,162.02 439.15,164.14 435.50,165.54 C431.95,166.90 438.78,160.40 446.45,155.12 C455.76,148.71 460.00,146.65 469.00,144.15 C483.27,140.19 495.22,140.35 509.00,144.67 L 514.50,146.40 L 507.00,147.07 C489.13,148.66 470.83,156.48 459.14,167.50 C455.23,171.19 451.11,175.70 449.99,177.51 C448.20,180.42 447.36,180.85 442.98,181.16 C439.94,181.37 438.00,181.09 438.00,180.45 M 572.50,145.90 C566.92,141.65 542.76,128.10 536.60,125.76 C529.94,123.23 529.62,122.78 535.04,123.53 C547.75,125.30 558.64,130.28 567.76,138.47 C572.17,142.44 577.89,149.07 576.82,148.97 C576.64,148.96 574.70,147.57 572.50,145.90 M 531.11,134.92 C523.90,132.03 502.43,129.08 487.64,128.93 L 480.50,128.86 L 484.50,127.27 C487.32,126.15 492.05,125.65 500.50,125.59 C514.06,125.49 523.34,127.69 531.85,133.04 C536.36,135.87 535.97,136.86 531.11,134.92 M 526.00,403.17 C533.11,397.76 542.13,388.50 545.08,383.57 C548.21,378.34 548.16,380.31 544.98,387.68 C541.60,395.50 531.11,404.96 525.14,405.57 C522.56,405.83 522.58,405.77 526.00,403.17 M 446.71,380.34 C441.81,370.66 441.90,355.08 446.92,344.35 C448.63,340.69 450.23,337.90 450.48,338.14 C450.72,338.39 449.98,341.49 448.83,345.04 C447.15,350.23 446.75,353.96 446.79,364.00 C446.81,370.88 447.33,377.80 447.94,379.39 C449.43,383.24 448.53,383.93 446.71,380.34 M 573.79,272.82 C572.86,271.38 570.28,269.37 568.07,268.35 C565.86,267.33 564.04,266.13 564.03,265.67 C564.01,265.22 565.38,263.46 567.08,261.77 L 570.15,258.69 L 573.14,261.67 C575.82,264.36 576.09,265.19 575.81,270.05 L 575.50,275.44 L 573.79,272.82 M 583.19,269.99 C582.09,265.25 582.17,264.57 584.11,261.84 L 586.23,258.87 L 588.62,261.11 C591.33,263.66 591.73,266.78 589.46,267.65 C588.62,267.98 587.13,269.80 586.15,271.70 L 584.38,275.15 L 583.19,269.99 M 554.42,251.70 C557.17,248.08 560.44,241.00 559.34,241.00 C558.97,241.00 557.95,241.61 557.08,242.36 C552.62,246.19 543.75,246.98 537.40,244.09 C532.36,241.80 529.43,237.84 527.65,230.90 C526.41,226.05 526.19,225.77 525.15,227.73 C524.52,228.90 523.99,231.36 523.97,233.18 C523.94,236.37 523.88,236.42 522.39,234.50 C521.26,233.04 520.95,230.82 521.22,226.29 C521.66,218.84 525.05,213.81 532.02,210.25 C537.34,207.53 547.15,207.20 552.78,209.55 C561.70,213.27 568.00,223.23 567.95,233.50 C567.89,243.74 564.92,249.47 557.79,253.11 C552.45,255.83 551.55,255.45 554.42,251.70 M 553.50,227.61 C553.50,224.04 550.82,222.00 548.25,223.61 C544.33,226.08 546.28,231.34 550.91,230.80 C553.03,230.55 553.50,229.97 553.50,227.61 Z" fill="#f4aa97"/>
</g>
</svg>