<?xml version="1.0" encoding="UTF-8"?>
<svg id="Layer_2" data-name="Layer 2" xmlns="http://www.w3.org/2000/svg" width="1778.6" height="1840.7" viewBox="0 0 1778.6 1840.7">
  <defs>
    <style>
      .cls-1 {
        fill: #f4aa97;
      }

      .cls-2 {
        fill: #984E42;
      }

      .cls-3 {
        fill: #222222;
      }
    </style>
  </defs>
  <g id="Streetwear">
    <g id="_10" data-name="10">
      <path id="Outline" fill="#984E42" d="M1771,1667.4s0,0,0,0,0,0,0,0,0,0,0,0,0,0,0,0h0c0-1.2,0-2.4,0-3.5s0-2.3,0-3.4,0-2.3,0-3.4,0-2.3,0-3.4c.3-12.6,.4-24.8,.3-37.5s-.3-26-.8-40.5-1.2-30.5-2.3-48.6-2.5-38.4-4.3-61.7c-1.8-23.7-4.3-47.4-7.3-71s-6.4-47.1-10-70.4-7.6-46.1-11.6-68.5-8-44.3-12-65.4c-2.8-15.2-5.6-30.3-8.3-44.9s-5.2-29.1-7.5-43-4.5-27.4-6.3-40.3-3.4-25.3-4.6-36.9c-2.9-28.5-10.2-71.1-20-120.5-9.8-49.4-22.1-105.7-35-161.8s-26.4-111.9-38.5-160.3c-12.1-48.4-22.9-89.5-30.5-116.1-.7-2.5-1.4-4.9-2.1-7.4s-1.4-4.9-2.1-7.4-1.4-4.9-2.1-7.4-1.4-4.9-2.1-7.4c-7.3-26.4-14.7-53-23.2-79.2-8.5-26.2-18.1-52-30-76.9-11.8-24.9-25.9-48.7-43.2-71.1s-37.9-43-62.8-61.6c-5.3-3.9-13.7-8.8-24.5-14.4s-23.9-11.9-38.5-18.7-30.8-14-47.6-21.4-34.3-15-51.7-22.6c-7-3-13.9-6-20.6-9s-13.3-5.8-19.7-8.6-12.5-5.5-18.4-8.1-11.4-5.1-16.7-7.5c-2.2-2.6-7.2-6.3-13.7-10.3s-14.3-8.4-22.3-12.4-15.9-7.7-22.4-10.4-11.8-4.4-14.2-4.4-2.8,.2-4.3,.7-3.1,1.1-4.9,2-3.7,1.9-5.8,3.2-4.4,2.7-7,4.3c-6.9,4.2-15.2,9.4-25.5,14.8s-22.5,10.9-37.1,15.9-31.7,9.5-51.6,12.7-42.7,5.2-68.9,5.2-48.3-2.1-68.5-5.5c-20.1-3.4-37.6-8.1-52.8-13.4s-28-11-38.7-16.4-19.3-10.6-26.1-14.6c-2.4-1.4-4.5-2.7-6.4-3.8s-3.6-2-5.1-2.8-2.9-1.3-4.1-1.7-2.4-.6-3.4-.6-5.2,1.6-11.3,4.2-14,6.2-22.2,10.2-16.5,8.2-23.5,12.2-12.6,7.7-15.2,10.4c-5.3,2.4-11,5-17,7.7s-12.3,5.5-18.8,8.3-13.3,5.8-20.2,8.9-14.1,6.1-21.3,9.3c-17.3,7.5-34.8,15.2-51.7,22.6s-32.9,14.6-47.6,21.4-27.7,13.1-38.5,18.7-19.2,10.5-24.5,14.4c-24.9,18.6-45.5,39.3-62.8,61.6s-31.3,46.2-43.2,71.1-21.5,50.7-30,76.9-15.9,52.8-23.2,79.2c-.7,2.5-1.4,5-2.1,7.4s-1.4,4.9-2.1,7.4-1.4,4.9-2.1,7.4-1.4,4.9-2.1,7.4c-7.6,26.6-18.4,67.7-30.5,116.1-12.1,48.4-25.6,104.3-38.5,160.3s-25.2,112.3-35,161.8c-9.8,49.4-17.1,91.9-20,120.5-1.2,11.7-2.7,24-4.6,36.9s-4,26.4-6.3,40.3-4.9,28.3-7.5,43-5.4,29.7-8.3,44.9c-3.9,21.2-8,43.1-12,65.4s-7.9,45.3-11.6,68.5-7.1,46.7-10,70.4c-2.9,23.6-5.4,47.4-7.3,71-1.8,23.3-3.2,43.6-4.3,61.7s-1.8,34-2.3,48.6-.7,27.8-.8,40.5,0,24.9,.3,37.5c0,.9,0,1.7,0,2.6s0,1.7,0,2.6,0,1.8,0,2.6,0,1.8,0,2.7h0s0,0,0,0h0s0,0,0,0c0,0,0,.2,0,.2s0,.2,0,.2,0,.2,0,.2,0,.2,0,.2c0,5.8,0,11.8-.2,18.7s-.5,14.6-1.1,23.5-1.3,19.2-2.3,31.2-2.3,25.8-4,41.8c-.6,6.2,4.3,12.2,12.7,17.8s20,10.9,32.8,15.6,26.8,8.8,39.6,12.2c12.9,3.4,24.6,5.9,33,7.5,4.3,.8,8.9,1.6,13.7,2.4s9.9,1.5,15.1,2.1,10.4,1.2,15.6,1.5,10.3,.6,15.2,.6c5.2,0,10.2-.2,14.8-.8s8.8-1.4,12.5-2.6,6.8-2.8,9.2-4.9,4.1-4.5,5-7.6c.7-2.6,1.5-5.3,2.2-8s1.5-5.4,2.2-8.2,1.5-5.6,2.3-8.4,1.5-5.7,2.3-8.7c1.5-5.8,3.1-11.7,4.6-17.4s3.1-11.5,4.7-17.1,3.1-11,4.7-16.2,3.1-10.2,4.6-14.8c0,0,0,0,0,0s0,0,0,0,0,0,0,0,0,0,0,0h0c.3-.8,.5-1.6,.8-2.4s.5-1.6,.8-2.3,.5-1.5,.8-2.2,.5-1.5,.8-2.2c2.2-6,7.3-25.2,13.8-51.5,6.5-26.3,14.4-59.8,22.3-94.2s15.7-69.8,22-100,11-55.3,12.8-69.1c1.6-12.4,4.7-29.6,8.8-49.7s9.4-43.3,15.2-67.7,12.4-50.1,19.1-75.5,13.7-50.3,20.5-73.1c-.3,23-.9,47.6-1.7,72.3-.8,24.7-1.8,49.7-2.9,73.5-1.1,23.8-2.5,46.4-3.9,66.5s-3,37.7-4.6,51.4c-2.4,20.5-4.2,43.1-5.5,65.8s-1.9,45.4-2.2,66.2,0,39.6,.5,54.3,1.4,25.6,2.5,30.3c0,.1,0,.2,0,.3s0,.2,0,.3,0,.2,0,.4,0,.2,0,.4c.5,3.1,.7,9.1,.6,17s-.4,17.8-.9,28.6-1.1,22.5-1.8,34.3-1.4,23.5-2.1,34.3c-.5,7.3-.9,14.4-1.3,21s-.8,12.9-1.1,18.6-.6,10.8-.7,15.2-.3,8.1-.3,10.8,0,.9,.1,1.5,.2,1.1,.5,1.7,.5,1.2,1,1.9,.9,1.3,1.6,1.9c3.4,3.3,10.3,6.1,20.6,8.3s24,3.9,41,5.2,37.1,2.2,60.3,2.7c23.2,.6,49.5,.8,78.6,.8s24.2,0,36.9-.1c12.8,0,26-.2,39.7-.3s27.9-.3,42.4-.4,29.6-.4,45.1-.6c13.8-.2,27.7-.4,41.6-.5s27.8-.3,41.5-.5,27.4-.3,40.7-.3c13.3,0,26.4-.1,39.1-.1s25.8,0,39.1,.1c13.3,0,27,.2,40.7,.3s27.6,.3,41.5,.5,27.8,.4,41.6,.5c53.6,.7,102,1.2,144.7,1.4,42.8,.1,79.9-.1,110.9-1.1,31-1,55.9-2.6,74.3-5.1,18.3-2.6,30.1-6,34.9-10.7,.6-.6,1.2-1.3,1.6-1.9s.7-1.3,1-1.9,.4-1.2,.5-1.7,.1-1,.1-1.5c0-2.8,0-6.4-.3-10.8s-.4-9.5-.7-15.2-.7-11.9-1.1-18.6-.8-13.7-1.3-21c-.7-10.8-1.4-22.5-2.1-34.3s-1.3-23.5-1.8-34.3-.8-20.6-.9-28.6,0-13.9,.6-17c0-.1,0-.2,0-.4s0-.2,0-.4,0-.2,0-.3,0-.2,0-.3c1.1-4.7,2-15.5,2.5-30.3s.7-33.6,.5-54.3-1-43.5-2.2-66.2-3-45.3-5.5-65.8c-1.6-13.5-3.1-30.7-4.5-50.3s-2.7-41.7-3.8-65-2.1-47.7-2.9-72c-.8-24.3-1.4-48.5-1.8-71.3,6.7,22.7,13.5,47.3,20.1,72.1,6.6,24.9,12.9,50,18.6,73.8s10.7,46.3,14.8,66,7,36.3,8.6,48.5c1.8,13.8,6.5,38.8,12.8,69.1,6.3,30.2,14.1,65.6,22,100s15.8,67.9,22.3,94.2c6.5,26.3,11.6,45.5,13.8,51.5,1.8,4.8,3.6,10.2,5.4,16s3.6,12,5.5,18.4,3.7,13.1,5.5,19.9,3.7,13.6,5.5,20.5c.8,2.9,1.5,5.8,2.3,8.7s1.5,5.7,2.3,8.4,1.5,5.5,2.2,8.2,1.5,5.3,2.2,8c.8,3,2.6,5.5,5,7.6s5.6,3.7,9.2,4.9,7.9,2.1,12.5,2.6,9.6,.8,14.8,.8c4.9,0,10.1-.2,15.2-.6s10.4-.9,15.6-1.5,10.2-1.4,15.1-2.1,9.5-1.6,13.7-2.4c8.4-1.6,20.2-4.2,33-7.5,12.9-3.4,26.8-7.5,39.6-12.2s24.5-10,32.8-15.6,13.3-11.7,12.7-17.8c-1.6-15.5-2.9-28.9-3.9-40.6s-1.8-21.8-2.3-30.6-.9-16.4-1.1-23.3-.3-12.8-.3-18.5ZM615,54.9c5,8.1,13.8,17.6,26.9,27.3,13.1,9.7,30.5,19.6,52.7,28.4s49.3,16.7,81.7,22.4,70.2,9.1,113.9,9.1,81.4-3.4,113.8-9.1c32.4-5.7,59.5-13.5,81.7-22.4,22.2-8.9,39.6-18.8,52.7-28.5s21.9-19.2,26.9-27.3c.4-.6,.7-1.1,1-1.7s.6-1.1,.9-1.6,.5-1.1,.7-1.6,.4-1,.6-1.5c.9,.4,1.7,.8,2.6,1.2s1.8,.8,2.6,1.2,1.8,.8,2.7,1.2,1.8,.8,2.7,1.2c-9.1,18.4-24.5,33.9-44.2,46.7-19.7,12.8-43.8,23.1-70.3,31s-55.6,13.5-85.3,17.2-60.1,5.3-89.2,5.3-36.5-.5-62.6-2.6-56.2-6-85.9-12.7c-29.7-6.7-59.1-16.4-84-30.1-24.8-13.8-45.1-31.7-56.7-54.9,.9-.4,1.9-.8,2.8-1.2s1.8-.8,2.7-1.2,1.8-.8,2.7-1.2,1.8-.8,2.6-1.2c.2,.6,.4,1.2,.7,1.8s.5,1.2,.8,1.8,.6,1.1,.9,1.7,.6,1.1,.9,1.6Zm70.4-45.4c.5,.1,1.3,.4,2.3,.9s2.1,1,3.3,1.7,2.6,1.5,4,2.3,2.8,1.7,4.3,2.5c7,4.2,15.8,9.4,26.8,15s24.1,11.5,39.7,16.8,33.5,10.2,54.2,13.7,44,5.7,70.2,5.7,50.4-2.1,71-5.5c20.6-3.4,38.3-8.1,53.5-13.4s27.8-11,38.3-16.4,18.8-10.6,25.3-14.7c1.9-1.2,3.7-2.3,5.4-3.3s3.3-2,4.8-2.8,2.8-1.5,3.9-1.9,2.1-.7,2.8-.7c1.9,0,6.6,1.7,12.6,4.3s13.4,6.2,20.7,10,14.6,7.8,20.3,11.2,10,6.3,11.3,7.9c0,.3-.1,.9-.4,1.7s-.7,1.8-1.3,3.1-1.5,2.7-2.7,4.4-2.7,3.5-4.5,5.6c-2.8,3.1-8.9,9.4-19.4,17s-25.4,16.6-45.8,25.2-46.2,16.8-78.5,22.8-71.1,9.9-117.4,9.9-68.4-2.4-97.2-6.6c-28.8-4.2-53.9-10.1-75.6-17.2s-39.8-15.3-54.5-24-26-17.9-33.9-26.9c-1.8-2-3.2-3.9-4.4-5.5s-2-3.1-2.7-4.3-1.1-2.3-1.4-3.1-.4-1.4-.4-1.8c1.5-1.5,5.8-4.2,11.5-7.5s12.9-7,20.2-10.6,14.6-7.2,20.6-10,10.8-4.8,12.9-5.5ZM219.1,1789.1c-.8,2.9-1.5,5.8-2.3,8.7s-1.5,5.7-2.2,8.4-1.5,5.5-2.2,8.2-1.5,5.3-2.2,7.9c-.6,2.3-3.1,4.3-7.3,5.8s-10.2,2.5-17.8,2.9-16.9,.2-27.8-.8-23.3-2.7-37.3-5.4c-16.9-3.2-32.4-7-46-10.9-13.6-4-25.4-8.1-35-12.1s-17.1-7.9-22.1-11.3-7.6-6.4-7.4-8.5c1.3-12.8,2.4-24.1,3.3-34.3s1.6-19.2,2.2-27.3,1-15.2,1.3-21.7,.5-12.2,.6-17.5c6.9,6.2,17.3,12.4,29.6,18.3s26.7,11.4,41.6,16.4,30.4,9.5,45.1,13.1c14.7,3.7,28.5,6.5,40.1,8.3,3.6,.6,7.1,1.1,10.4,1.5s6.6,.8,9.7,1.1,6,.5,8.9,.6,5.5,.2,8.1,.2c2.3,0,4.6,0,6.7-.2s4.1-.3,6.1-.5,3.7-.5,5.4-.9,3.3-.8,4.7-1.2c-1.2,4-2.4,8-3.6,12.2s-2.4,8.5-3.6,12.8-2.4,8.7-3.5,13.1-2.3,8.8-3.5,13.2Zm92.5-388.2c-1.7,13.1-6.4,37.8-12.6,67.8-6.2,30-14,65.3-21.9,99.7s-15.7,67.8-22.2,94.1-11.5,45.4-13.6,51.1c-.3,.8-.6,1.5-.8,2.3s-.6,1.6-.8,2.4-.6,1.6-.8,2.5-.6,1.7-.9,2.5c-.5,1.6-1.9,3.1-4.5,4.3s-6.3,2.3-11.4,2.9-11.4,.8-19.2,.4-17-1.3-27.9-3c-17.9-2.8-36.6-7-54.6-12-18-5-35.3-10.8-50.4-16.7s-28.1-12.2-37.3-18c-9.3-5.8-14.9-11.2-15.4-15.6,0-1,0-2,0-3s0-2,0-2.9,0-1.9,0-2.9,0-1.9,0-2.9c-.3-12.5-.4-24.6-.3-37.3s.3-25.8,.8-40.3,1.2-30.3,2.3-48.4,2.5-38.2,4.3-61.4c1.8-23.5,4.3-47.2,7.2-70.7,2.9-23.5,6.3-47,10-70.1s7.6-46,11.5-68.3,8-44.1,11.9-65.3c2.8-15.3,5.6-30.4,8.3-45.1s5.2-29.2,7.6-43.1,4.5-27.5,6.3-40.5,3.4-25.4,4.6-37.2c2.9-28.4,10.2-70.8,19.9-120s22-105.4,34.9-161.3,26.3-111.5,38.4-159.9c12.1-48.3,22.9-89.3,30.4-115.8,.7-2.5,1.4-4.9,2.1-7.4s1.4-4.9,2.1-7.4,1.4-4.9,2.1-7.4,1.4-5,2.1-7.4c.2-.6,.3-1.2,.5-1.8s.3-1.2,.5-1.8,.3-1.2,.5-1.8,.3-1.2,.5-1.8c3,8.3,8.3,17.6,15.3,27.6,7,10,15.6,20.8,25.3,31.9s20.5,22.8,31.9,34.6,23.1,23.8,34.9,35.7c6.9,7,13.8,14,20.4,20.8s13,13.4,18.9,19.7,11.5,12.4,16.5,18.2,9.4,11.1,13.2,16.1c-.5,12.7-1.1,26.3-1.8,40.4s-1.5,28.8-2.4,43.9-1.8,30.5-2.8,46.1-2,31.3-3,47c-1.5,22.9-2.9,45.5-4.2,66.9s-2.4,41.8-3.3,60.3-1.5,35-1.8,48.9,0,25.1,.6,32.8c.4,4.2,.7,9.1,.9,14.7s.5,11.7,.6,18.5,.3,14,.3,21.7,0,15.9,0,24.4c-7.3,23-15.1,49.6-22.8,77.5s-15.3,57-22.2,85.1c-6.9,28-13.1,54.9-18,78.3s-8.6,43.3-10.4,57.3Zm1092.5,213.6c0,0,0,.1,0,.2s0,.1,0,.2,0,.1,0,.2,0,.1,0,.2c-.7,.9-2.5,2-6.5,3.2s-10.3,2.6-20,3.9-23,2.5-40.9,3.6c-17.9,1.1-40.5,1.9-69.1,2.4-19.1,.3-39.3,.5-60.1,.6-20.9,0-42.4,0-64.2-.2-21.8-.2-43.8-.4-65.5-.7s-43.3-.6-64.1-.9c-11.6-.2-23.1-.3-34.3-.5-11.2-.2-22.1-.3-32.6-.4s-20.5-.2-30-.3-18.4-.1-26.7-.1-17.2,0-26.7,.1-19.5,.2-30,.3-21.4,.3-32.6,.4c-11.2,.2-22.7,.3-34.3,.5-20.8,.3-42.3,.6-64.1,.9s-43.7,.5-65.5,.7-43.3,.2-64.2,.2c-20.9,0-41.1-.2-60.1-.6-28.5-.5-51.2-1.4-69.1-2.4-17.9-1.1-31.1-2.3-40.9-3.6s-16-2.6-20-3.9-5.8-2.3-6.5-3.2c0,0,0-.1,0-.2s0-.1,0-.2,0-.1,0-.2,0-.1,0-.2c-.1-.4-.2-.9-.3-1.5s-.2-1.3-.3-2-.2-1.5-.3-2.4-.2-1.8-.3-2.8c3.4,1.4,8.1,2.8,14.6,4.1s14.6,2.5,24.9,3.5,22.8,2,37.8,2.8c15.1,.8,32.7,1.4,53.4,1.9,19.6,.4,40.4,.7,62,.8s43.9,0,66.5,0c22.6-.1,45.4-.4,68-.6,22.6-.3,45-.6,66.6-.9,11.3-.2,22.5-.3,33.4-.5s21.5-.3,31.7-.4,20-.2,29.2-.3,18-.1,26-.1,16.8,0,26,.1,19,.2,29.3,.3,20.8,.2,31.7,.4,22.1,.3,33.4,.5c14.3,.2,28.9,.4,43.7,.6s29.8,.4,44.8,.5,30,.3,45,.4c14.9,0,29.8,.1,44.3,.1s15.1,0,22.5,0,14.8,0,22-.1,14.4-.2,21.4-.3,13.9-.2,20.6-.4c20.8-.5,38.6-1.1,53.7-1.9,15.2-.8,27.7-1.7,38.1-2.8s18.6-2.2,25.1-3.5,11.2-2.6,14.7-4.1c0,1-.2,2-.3,2.8s-.2,1.7-.3,2.4-.2,1.4-.3,2-.2,1.1-.3,1.5Zm-107,196.8c-16.8,.4-35.1,.7-54.3,.8-19.2,.1-39.5,0-60.4,0s-42.3-.3-64-.6-43.6-.5-65.3-.8c-13.8-.2-27.7-.4-41.6-.5-13.9-.2-27.8-.3-41.5-.5s-27.4-.3-40.7-.3-26.4-.1-39.2-.1-25.8,0-39.2,.1-27,.2-40.7,.3-27.6,.3-41.5,.5c-13.9,.2-27.8,.4-41.6,.5-21.7,.3-43.6,.6-65.3,.8-21.7,.2-43.2,.4-64,.6s-41.1,.1-60.4,0-37.5-.4-54.3-.8c-25.4-.6-45.1-1.7-60.5-2.9s-26.4-2.6-34.2-4-12.6-2.8-15.4-4-3.8-2.2-4.1-2.8c0-2.7,0-6.3,.3-10.6s.4-9.4,.7-15,.7-11.8,1.1-18.5,.8-13.6,1.3-20.9c.8-12.2,1.5-23.8,2.1-34.6s1.2-20.7,1.6-29.8,.8-17.2,1-24.2,.3-13.1,.1-17.9c6.4,2.4,16,4.3,28.4,5.9,12.4,1.6,27.6,2.8,45.4,3.8,17.7,.9,37.9,1.6,60.3,2,22.4,.4,46.9,.6,73.2,.6s27.5,0,42-.1,29.3-.2,44.6-.4,30.9-.3,46.9-.5c16-.2,32.3-.4,48.9-.7,11.6-.2,23.1-.3,34.3-.5,11.2-.2,22.1-.3,32.5-.4s20.5-.2,30-.3,18.4-.1,26.6-.1,17.1,0,26.6,.1,19.5,.2,30,.3,21.3,.3,32.5,.4c11.2,.2,22.7,.3,34.3,.5,49,.7,95.4,1.3,138.1,1.5,42.7,.3,81.6,.2,115.7-.4s63.2-1.7,86.2-3.6,40-4.5,49.7-8.1c-.1,4.8,0,10.9,.1,17.9s.5,15.2,1,24.2,1,19,1.6,29.8,1.3,22.3,2.1,34.6c.5,7.3,.9,14.3,1.3,20.9s.8,12.8,1.1,18.4,.6,10.7,.7,15,.3,7.9,.3,10.5c-.3,.6-1.2,1.7-4.1,2.9s-7.6,2.6-15.4,4-18.9,2.8-34.3,4-35.1,2.2-60.5,2.9Zm102.1-410.4c2,17.2,3.6,35.9,4.8,54.7s1.9,37.9,2.4,55.9,.6,35.1,.4,50.1-.5,27.7-1.1,37.1c-1.4,.9-4,2-8.7,3.2s-11.5,2.5-21.3,3.7-22.6,2.4-39.3,3.5-37.4,1.9-62.9,2.4c-19.7,.4-40.6,.7-62.2,.8-21.7,0-44.1,0-66.7,0-22.7-.1-45.6-.4-68.3-.6s-45.1-.6-66.9-.9c-11.3-.2-22.5-.3-33.4-.5s-21.5-.3-31.7-.4-20-.2-29.3-.3-18-.1-26.1-.1-16.8,0-26.1,.1-19.1,.2-29.3,.3-20.8,.2-31.7,.4-22.1,.3-33.4,.5c-21.6,.3-44,.6-66.6,.9s-45.4,.5-68,.6-44.8,.2-66.4,0-42.3-.3-61.9-.8c-25.3-.6-45.9-1.4-62.5-2.4s-29.3-2.2-39.1-3.5-16.5-2.5-21.1-3.7-7.3-2.3-8.7-3.2c-.6-9.4-.9-22.2-1.1-37.1s0-32,.4-50.1,1.2-37.1,2.4-55.9,2.7-37.5,4.8-54.7c2.6-21.6,4.9-52,6.9-86.4,2-34.4,3.7-72.8,4.8-110.6s1.8-74.9,1.9-106.7c0-31.8-.6-58.2-2-74.6-.6-7.5-.8-18.6-.5-32.3s.9-30.2,1.8-48.5,2-38.6,3.3-60,2.7-43.9,4.2-66.7c1.7-27.3,3.5-54.9,5.1-81.6s3-52.4,4-76,1.7-45.2,1.9-63.6-.3-33.4-1.4-44.2c-2.1-19.5-4.8-40.2-7.7-60.2s-6-39.4-8.8-56.4-5.4-31.6-7.3-42-3.1-16.6-3.1-16.8l-2.3,.4-2.3,.4-2.3,.4-2.3,.4c0,.2,1.2,6.4,3.1,16.8s4.4,24.9,7.3,41.8,5.9,36.2,8.8,56.2,5.6,40.5,7.7,59.9c.4,4.1,.8,8.8,1,14.1s.4,11.3,.4,17.7,0,13.4-.1,20.9-.3,15.3-.6,23.6c-3.9-4.9-8.3-10-13.2-15.4s-10.1-11.1-15.6-16.9-11.4-11.9-17.4-18.1-12.3-12.5-18.6-18.9c-11.9-12.1-24.6-24.9-36.8-37.8-12.2-12.9-24.1-25.8-34.5-38.1s-19.4-24.1-26-34.7-10.6-19.9-11.1-27.5c6.8-24.4,14-48.9,22.2-72.9s17.6-47.6,29-70.3,24.7-44.4,40.9-64.7,35.2-39.1,58-56.1c5-3.8,13.5-8.6,24.3-14.2s24.1-11.9,38.8-18.7,30.8-14,47.3-21.3,33.5-14.7,49.9-21.8c5-2.2,9.9-4.3,14.7-6.4s9.6-4.2,14.3-6.2,9.3-4.1,13.7-6,8.8-3.9,13.1-5.8c11.9,24.1,32.7,42.7,58.1,57,25.4,14.3,55.4,24.3,85.6,31.2s60.9,10.9,87.5,13.2,49.3,2.7,63.7,2.7,37.2-.5,63.8-2.7c26.7-2.2,57.3-6.2,87.6-13.1,30.3-7,60.3-16.9,85.6-31.2s46.1-32.8,57.9-56.8c4.1,1.8,8.4,3.7,12.7,5.6s8.8,3.9,13.4,5.9,9.2,4,13.9,6.1,9.5,4.1,14.3,6.2c16.4,7.1,33.4,14.5,49.9,21.8s32.6,14.5,47.3,21.3,27.9,13.1,38.8,18.7,19.3,10.4,24.3,14.2c23,17.2,42.3,36.3,58.6,56.9s29.8,42.7,41.2,65.7,20.8,47,29.1,71.3,15.4,49.2,22.3,73.9c-1.5,7.8-6.1,17.1-12.9,27.6s-15.8,21.9-26,33.9-21.7,24.4-33.5,36.8-23.9,24.7-35.4,36.4c-6.3,6.4-12.5,12.7-18.6,18.9s-11.9,12.2-17.4,18.1-10.8,11.5-15.6,16.9-9.3,10.6-13.2,15.4c-.3-8.3-.5-16.2-.6-23.6s-.2-14.4-.1-20.9,.2-12.4,.4-17.7,.6-10.1,1-14.1c2.1-19.4,4.8-40,7.7-59.9s6-39.3,8.8-56.2,5.4-31.4,7.3-41.8,3.1-16.5,3.1-16.8l-2.3-.4-2.3-.4-2.3-.4-2.3-.4c0,.2-1.2,6.4-3.1,16.8s-4.5,25-7.3,42-5.9,36.4-8.8,56.4-5.6,40.7-7.7,60.2c-1.1,10.7-1.6,25.8-1.4,44.2s.8,39.9,1.9,63.6,2.5,49.4,4,76,3.3,54.2,5.1,81.6c1.5,22.8,2.9,45.3,4.2,66.7s2.4,41.6,3.3,60,1.5,34.8,1.8,48.5,.1,24.8-.5,32.3c-.4,4.4-.7,9.5-1,15.2s-.5,12.1-.6,18.9-.3,14.3-.3,22.2,0,16.2,0,24.8h-.3c0,.1-.3,.2-.3,.2h-.3c0,.1-.3,.2-.3,.2,.1,.3,.2,.7,.3,1.1s.2,.7,.3,1.1,.2,.7,.3,1.1,.2,.7,.3,1.1c.1,23.8,.6,50,1.3,77.1,.7,27,1.7,54.8,2.9,81.5s2.6,52.4,4.2,75.4c1.6,22.9,3.3,43.1,5.2,58.6Zm67.8-.6c-1.8-13.8-5.3-33.2-10.1-56-4.8-22.8-10.8-49.1-17.5-76.6-6.7-27.4-14.1-56-21.7-83.6s-15.2-54-22.4-77c0-9,0-17.7,0-25.9s.1-15.9,.3-23,.4-13.7,.6-19.5,.6-11,.9-15.4c.7-7.7,.8-18.9,.6-32.8s-.9-30.4-1.8-48.9-2-38.8-3.3-60.3c-1.3-21.5-2.7-44-4.2-66.9-1-15.7-2-31.4-3-47s-1.9-31-2.8-46.1-1.7-29.8-2.4-43.9-1.3-27.7-1.8-40.4c3.7-5,8.2-10.4,13.2-16.1s10.5-11.8,16.5-18.2,12.3-12.9,18.9-19.7,13.4-13.7,20.4-20.8c11.5-11.7,23.1-23.4,34.2-35,11.1-11.6,21.7-23,31.3-34s18.2-21.5,25.2-31.4,12.5-19.1,15.8-27.4c.1,.4,.2,.8,.3,1.2s.2,.8,.3,1.2,.2,.8,.3,1.2,.2,.8,.3,1.2c.7,2.5,1.4,5,2.1,7.4s1.4,5,2.1,7.4,1.4,4.9,2.1,7.4,1.4,4.9,2.1,7.4c7.5,26.5,18.3,67.5,30.4,115.8,12.1,48.3,25.5,104,38.4,159.9s25.1,112,34.9,161.3,17.1,91.6,19.9,120c1.2,11.8,2.8,24.2,4.6,37.2s4,26.5,6.3,40.5,4.9,28.4,7.6,43.1,5.5,29.8,8.3,45.1c3.9,21.1,8,42.9,11.9,65.3,4,22.3,7.9,45.1,11.5,68.3s7,46.6,10,70.1,5.4,47.2,7.2,70.7c1.8,23.2,3.2,43.4,4.3,61.4s1.8,33.9,2.3,48.4,.7,27.7,.8,40.3,0,24.8-.3,37.3c0,1.2,0,2.3,0,3.5s0,2.3,0,3.5,0,2.4,0,3.6,0,2.4,0,3.6c0,4.3-5.2,9.7-14.3,15.4s-21.8,11.9-36.8,17.9-32.3,11.8-50.3,16.8c-18,5-36.7,9.2-54.7,12-11,1.7-20.4,2.7-28.3,3.1s-14.3,.2-19.5-.4-8.9-1.6-11.6-2.9-4.1-2.8-4.6-4.4c-.3-1.1-.7-2.1-1-3.2s-.7-2.1-1-3.1-.7-2-1-3-.7-1.9-1-2.8c-2.1-5.7-7.1-24.8-13.6-51.1-6.5-26.3-14.4-59.7-22.2-94.1s-15.6-69.7-21.9-99.7-11-54.7-12.6-67.8Zm191.6,423.8c-14,2.6-26.4,4.4-37.3,5.4s-20.2,1.2-27.8,.8-13.6-1.4-17.8-2.9-6.7-3.5-7.3-5.8c-.7-2.6-1.5-5.2-2.2-7.9s-1.5-5.4-2.2-8.2-1.5-5.6-2.2-8.4-1.5-5.7-2.3-8.7c-1.1-4.2-2.2-8.4-3.3-12.6s-2.2-8.4-3.4-12.5-2.3-8.2-3.4-12.2-2.3-7.9-3.4-11.7c1.5,.5,3.1,.9,4.8,1.3s3.5,.7,5.5,.9,4,.4,6.2,.5,4.5,.2,6.9,.2,5.3,0,8.2-.2,5.9-.4,9-.6,6.4-.6,9.8-1.1,6.9-.9,10.6-1.5c11.5-1.8,25.2-4.6,39.7-8.2,14.5-3.6,29.9-8,44.6-13s28.9-10.5,41.2-16.3,22.4-11.9,29.3-18.1c.1,5.2,.4,10.9,.7,17.3s.8,13.3,1.3,21.2,1.3,16.6,2.2,26.4,1.9,20.7,3.2,32.9c.2,2.1-2.3,5.1-7.4,8.5s-12.5,7.3-22.1,11.3-21.4,8.2-35,12.1c-13.6,4-29,7.7-46,10.9Z"/>

      <g id="Color_1">
        <path fill="#222222" d="M890.1,135.1c-36.3,0-68.9-2.5-97.9-6.7-29-4.2-54.4-10.3-76.2-17.5s-40.2-15.5-55-24.4c-14.9-8.8-26.3-18.2-34.3-27.3-1.7-1.9-3.1-3.7-4.3-5.4s-2.2-3.2-2.9-4.6-1.3-2.7-1.7-3.7-.6-2-.6-2.8v-.4s0-.4,0-.4v-.4s0-.4,0-.4l.2-.3,.2-.3,.2-.3,.2-.3c1.6-1.7,6-4.5,11.9-7.8s13.2-7.2,20.6-10.9,14.8-7.3,21-10.1,11-4.9,13.1-5.5h.2c0,0,.2-.1,.2-.1h.2c0,0,.2-.1,.2-.1h.2s.2,0,.2,0h.2s.2,0,.2,0c.6,.1,1.4,.4,2.3,.8s2,.9,3.2,1.6,2.6,1.4,4.1,2.3,3.2,1.9,5.1,3c6.9,4.1,15.7,9.4,26.6,14.9s23.9,11.4,39.3,16.7c15.4,5.3,33.2,10.1,53.7,13.6s43.6,5.6,69.6,5.6,49.9-2.1,70.4-5.5,38-8.1,53-13.3,27.5-10.9,37.9-16.3c10.4-5.4,18.6-10.5,25.1-14.5,2.4-1.5,4.5-2.8,6.4-3.9s3.6-2.1,5.1-2.9,2.8-1.4,4-1.8,2.2-.6,3.1-.6c2.1,0,7,1.7,13.3,4.4s13.8,6.3,21.4,10.2,15,8,20.9,11.5,10.4,6.7,11.9,8.5l.2,.2,.2,.2,.2,.2,.2,.2v.3s0,.3,0,.3v.3s0,.3,0,.3c0,.7-.2,1.6-.6,2.7s-.9,2.3-1.7,3.8-1.8,3-3,4.7-2.7,3.6-4.4,5.5c-2.8,3.2-9,9.5-19.6,17.2s-25.7,16.8-46.3,25.5c-20.6,8.7-46.6,17-79.2,23.1s-71.7,10.1-118.4,10.1Z"/>
        <path fill="#222222" d="M177.7,1833.6c-4,0-8.2-.1-12.7-.4s-9.2-.7-14.1-1.2-10-1.2-15.3-2-10.7-1.7-16.3-2.8c-15.4-2.9-30.2-6.5-43.8-10.3-13.6-3.9-25.9-8.1-36.3-12.3s-18.8-8.5-24.5-12.6-8.8-7.8-8.4-11.1c1.2-11.3,2.2-21.8,3-31.4s1.6-18.5,2.2-26.8,1.1-15.8,1.4-22.8,.6-13.5,.7-19.5v-1.7s0-1.7,0-1.7v-1.7s0-1.7,0-1.7l1.3,1.2,1.3,1.2,1.3,1.2,1.3,1.2c6.8,6.1,16.9,12.1,29.1,17.9s26.4,11.3,41.1,16.2,30.2,9.4,44.7,13c14.6,3.6,28.3,6.5,39.8,8.3,3.5,.6,7,1,10.3,1.5s6.5,.8,9.5,1,6,.5,8.8,.6,5.4,.2,8,.2,4.4,0,6.5-.2,4-.3,5.8-.5,3.6-.5,5.2-.8,3.1-.7,4.5-1.2l1.4-.5,1.4-.5,1.4-.5,1.4-.5-.4,1.4-.4,1.4-.4,1.4-.4,1.4c-1.2,4-2.4,8-3.6,12.2s-2.4,8.5-3.6,12.8-2.4,8.7-3.5,13.1-2.3,8.8-3.5,13.1c-.8,2.9-1.5,5.8-2.3,8.7s-1.5,5.6-2.2,8.4-1.5,5.5-2.2,8.2-1.5,5.3-2.2,8c-.6,2.3-2.3,4.1-4.6,5.6s-5.3,2.6-8.6,3.4-7.1,1.3-10.9,1.7-7.7,.4-11.4,.4Z"/>
        <path fill="#222222" d="M1215.9,1814.8c-12.8,0-25.9,0-39.2-.1s-26.9-.2-40.7-.3c-13.7-.1-27.5-.3-41.4-.5-13.8-.2-27.7-.4-41.4-.5-13.8-.2-27.8-.4-41.7-.5-13.9-.2-27.8-.3-41.6-.5s-27.4-.3-40.7-.3-26.4-.1-39.1-.1-25.8,0-39.1,.1-27,.2-40.7,.3-27.6,.3-41.5,.5-27.8,.4-41.6,.5c-13.7,.2-27.6,.4-41.4,.5s-27.7,.3-41.4,.5-27.3,.3-40.7,.3-26.5,.1-39.3,.1-15.6,0-22.9,0-14.4,0-21.1-.2-13.2-.2-19.4-.3-12.2-.2-17.9-.4c-12.7-.3-26-.8-39-1.5s-25.6-1.6-36.7-2.8-20.9-2.7-28.1-4.5-12-4-13.2-6.7v-.2c0,0-.1-.2-.1-.2v-.2c0,0-.1-.2-.1-.2v-.7c0-2.7,0-6.4,.3-10.7s.4-9.4,.7-15.1,.7-11.9,1.1-18.5,.8-13.7,1.3-21c.8-12.1,1.5-23.5,2.1-34.2s1.2-20.6,1.6-29.7,.8-17.2,1-24.3,.3-13.2,.2-18v-1.2s0-1.2,0-1.2v-1.2s0-1.2,0-1.2l1.1,.4,1.1,.4,1.1,.4,1.1,.4c5.6,2.1,13.9,3.9,24.9,5.4s24.8,2.8,41.7,3.7,36.8,1.7,60,2.2c23.2,.5,49.7,.7,79.7,.7s28.7,0,43.7-.1c14.9,0,30.2-.2,45.6-.4s31-.3,46.5-.5c15.5-.2,31.1-.4,46.4-.6,11.6-.2,23.1-.3,34.3-.5,11.2-.2,22.1-.3,32.5-.4s20.5-.2,30-.3,18.4-.1,26.6-.1,17.2,0,26.6,.1,19.5,.2,30,.3,21.3,.3,32.5,.4c11.2,.2,22.7,.3,34.3,.5,15.3,.2,30.8,.4,46.4,.6,15.5,.2,31.1,.4,46.5,.5s30.7,.3,45.6,.4c14.9,0,29.6,.1,43.7,.1,30,0,56.5-.2,79.7-.7,23.2-.5,43.1-1.2,60-2.2,16.9-1,30.7-2.2,41.7-3.8s19.2-3.3,24.9-5.4l1.1-.4,1.1-.4,1.1-.4,1.1-.4v1.2s0,1.2,0,1.2v1.2s0,1.2,0,1.2c-.1,4.9,0,10.9,.2,18s.5,15.2,1,24.3,1,19,1.6,29.7,1.3,22.2,2.1,34.2c.5,7.3,.9,14.4,1.3,21s.8,12.9,1.1,18.5,.6,10.7,.7,15,.3,7.9,.3,10.6v.2s0,.2,0,.2v.2s0,.2,0,.2v.2c0,0-.1,.2-.1,.2v.2c0,0-.1,.2-.1,.2-1,2.1-4.1,4.1-9.5,5.8s-13,3.3-22.8,4.6-21.7,2.4-35.9,3.3-30.5,1.6-48.9,2.1c-5.7,.1-11.7,.3-17.9,.4s-12.7,.2-19.4,.3-13.8,.1-21.1,.2-15,0-22.9,0Z"/>
        <path fill="#222222" d="M1602.5,1833.6c-3.7,0-7.6-.1-11.4-.4s-7.6-.9-10.9-1.7-6.3-1.9-8.6-3.4-3.9-3.3-4.6-5.6c-.7-2.6-1.5-5.3-2.2-8s-1.5-5.4-2.2-8.2-1.5-5.6-2.2-8.4-1.5-5.7-2.3-8.6c-1.2-4.3-2.3-8.7-3.5-13.1s-2.3-8.8-3.5-13.1-2.4-8.6-3.6-12.8-2.4-8.3-3.6-12.2l-.4-1.4-.4-1.4-.4-1.4-.4-1.4,1.4,.5,1.4,.5,1.4,.5,1.4,.5c1.4,.4,2.9,.8,4.5,1.2s3.3,.6,5.2,.8,3.8,.4,5.8,.5,4.2,.2,6.4,.2,5.2,0,8-.2,5.7-.3,8.8-.6,6.2-.6,9.5-1,6.7-.9,10.3-1.5c11.5-1.8,25.3-4.6,39.8-8.3,14.6-3.6,29.9-8,44.7-13s29-10.4,41.1-16.2,22.3-11.8,29.1-17.9l1.3-1.2,1.3-1.2,1.3-1.2,1.3-1.2v1.7s0,1.7,0,1.7v1.7s0,1.7,0,1.7c.1,6,.4,12.5,.7,19.5s.8,14.6,1.4,22.8,1.3,17.1,2.2,26.8,1.9,20.1,3,31.4c.3,3.2-2.7,7-8.4,11.1s-14.1,8.3-24.5,12.6-22.7,8.4-36.3,12.3-28.4,7.4-43.8,10.3c-5.6,1.1-11,2-16.3,2.8s-10.4,1.5-15.3,2-9.6,1-14.1,1.2-8.7,.4-12.7,.4Z"/>
      </g>
            <g id="Color_2">
        <path fill="#f4aa97" d="M890.1,155.8c-14.2,0-36.5-.5-62.9-2.6-26.4-2.2-56.7-6-86.7-12.9s-59.8-16.6-84.9-30.6c-25.2-14-45.7-32.2-57.5-55.9l-.4-.7-.4-.7-.4-.7-.4-.7,.8-.3,.8-.3,.8-.3,.8-.3c.9-.4,1.8-.8,2.8-1.2s1.8-.8,2.7-1.2,1.8-.8,2.7-1.2,1.7-.8,2.6-1.2l.8-.4,.8-.4,.8-.4,.8-.4,.3,.8,.3,.8,.3,.8,.3,.8c.2,.5,.4,1,.6,1.5s.5,1,.7,1.6,.5,1.1,.8,1.6,.6,1.1,.9,1.6c4.9,7.9,13.6,17.3,26.5,26.8,12.9,9.5,30.1,19.2,52.1,27.9s48.8,16.4,80.9,22,69.6,8.9,112.9,8.9,80.8-3.4,112.9-8.9c32.1-5.6,58.9-13.3,80.9-22,22-8.7,39.2-18.5,52.2-28s21.6-18.9,26.5-26.9c.3-.5,.6-1.1,.9-1.6s.6-1,.8-1.5,.5-1,.7-1.5,.4-1,.6-1.4l.3-.8,.3-.8,.3-.8,.3-.8,.8,.4,.8,.4,.8,.4,.8,.4c.9,.4,1.7,.8,2.6,1.2s1.8,.8,2.6,1.2,1.8,.8,2.7,1.2,1.8,.8,2.7,1.2l.8,.3,.8,.3,.8,.3,.8,.3-.4,.7-.4,.7-.4,.7-.4,.7c-9.3,18.8-24.9,34.6-44.9,47.7-20,13.1-44.4,23.5-71.3,31.6s-56.2,13.8-86.2,17.5c-29.9,3.7-60.5,5.4-89.7,5.4Z"/>
        <path fill="#f4aa97" d="M210.5,1733.6c-2.5,0-5.1,0-7.9-.2s-5.7-.3-8.7-.6-6.2-.6-9.4-1-6.6-.9-10.1-1.4c-17-2.7-35.4-6.7-53.5-11.7-18.1-5-35.8-10.8-51.4-17s-29.3-12.6-39.1-18.9-15.9-12.3-16.4-17.5h0c0,0,0-.2,0-.2h0c0,0,0-.2,0-.2,0-1,0-2,0-2.9s0-1.9,0-2.9,0-1.9,0-2.9,0-1.9,0-2.9c-.3-12.5-.4-24.7-.3-37.4s.3-25.9,.8-40.4,1.2-30.4,2.3-48.4,2.5-38.3,4.3-61.5c1.8-23.6,4.3-47.2,7.2-70.8s6.3-47,10-70.2,7.6-46,11.6-68.3c4-22.3,8-44.2,12-65.3,2.8-15.3,5.6-30.3,8.3-45.1s5.2-29.1,7.6-43.1,4.5-27.5,6.3-40.4,3.4-25.4,4.6-37.1c2.9-28.5,10.2-70.9,20-120.2s22.1-105.5,34.9-161.4c12.9-55.9,26.3-111.6,38.4-160,12.1-48.4,22.9-89.4,30.4-115.9,.7-2.4,1.4-4.9,2.1-7.3s1.4-4.9,2-7.3,1.4-4.9,2-7.3,1.4-4.9,2-7.3l1.2-4.3,1.2-4.3,1.2-4.3,1.2-4.3,.8,2.3,.8,2.3,.8,2.3,.8,2.3c3,8.2,8.2,17.3,15.1,27.3s15.5,20.6,25.2,31.7,20.4,22.7,31.7,34.4c11.2,11.7,23,23.7,34.6,35.5,7,7.1,13.8,14,20.4,20.8s13,13.4,19,19.8,11.5,12.5,16.6,18.2,9.5,11.2,13.3,16.3l.2,.2,.2,.2,.2,.2,.2,.2v.3s0,.3,0,.3v.3s0,.3,0,.3c-.5,12.8-1.1,26.4-1.8,40.6s-1.5,29-2.4,44.1-1.8,30.6-2.8,46.1-2,31.2-3,46.8c-1.5,22.9-2.9,45.4-4.2,66.8s-2.4,41.8-3.3,60.2-1.5,34.9-1.8,48.8,0,25,.6,32.6c.3,4,.6,8.7,.9,14.1s.5,11.5,.6,18.1,.3,14,.3,21.9,0,16.4,0,25.4h0c0,.1,0,.2,0,.2h0c0,.1,0,.2,0,.2h0c0,.1,0,.2,0,.2h0c0,.1,0,.2,0,.2-7.3,22.9-15,49.5-22.7,77.4s-15.2,57-22.1,85-13.1,54.9-18,78.2-8.6,43.2-10.4,57.1c-1.7,13.2-6.4,37.9-12.7,68s-14.1,65.4-21.9,99.9c-7.9,34.5-15.8,68-22.3,94.3-6.5,26.3-11.5,45.5-13.6,51.2-.3,.8-.6,1.5-.8,2.3s-.6,1.6-.8,2.4-.6,1.6-.8,2.4-.6,1.7-.8,2.5c-.5,1.6-1.5,3.1-3.1,4.3s-3.6,2.3-6.2,3.1-5.6,1.5-9.1,1.9-7.5,.6-12,.6Z"/>
        <path fill="#f4aa97" d="M586.1,1631.4c-6.9,0-13.6,0-20.1,0s-12.7,0-18.8-.1-12-.1-17.8-.2-11.3-.2-16.8-.3c-21.4-.4-40.3-1-56.8-1.8s-30.6-1.8-42.2-3c-11.6-1.2-20.7-2.6-27.4-4.2s-10.8-3.4-12.5-5.3v-.2c-.1,0-.3-.2-.3-.2v-.2c-.1,0-.3-.2-.3-.2v-.3c0,0-.1-.3-.1-.3v-.3c0,0-.1-.3-.1-.3-.1-.5-.2-1-.3-1.6s-.2-1.3-.3-2.1-.2-1.6-.3-2.5-.2-1.9-.3-3v-1.3c-.1,0-.2-1.3-.2-1.3v-1.3c-.1,0-.2-1.3-.2-1.3l1.2,.5,1.2,.5,1.2,.5,1.2,.5c3.9,1.6,9.5,3.1,16.7,4.4s16.3,2.5,27,3.4,23.2,1.8,37.5,2.5c14.3,.7,30.4,1.2,48.3,1.6,6.3,.1,12.7,.3,19.4,.4s13.6,.2,20.7,.3,14.5,.1,22.2,.2,15.6,0,23.8,0c14.5,0,29.3,0,44.2-.1,14.9,0,30-.2,45-.4,15-.2,29.9-.3,44.5-.5s29-.4,42.9-.6h0s0,0,0,0h0s0,0,0,0c11.3-.2,22.5-.3,33.3-.5s21.5-.3,31.7-.4,20-.2,29.2-.3c9.2,0,18-.1,26-.1s16.8,0,26.1,.1c9.3,0,19.1,.2,29.3,.3s20.8,.2,31.7,.4,22.1,.3,33.4,.5h.1s.1,0,.1,0h.1s.1,0,.1,0c14,.2,28.4,.4,43.1,.6,14.7,.2,29.6,.4,44.7,.5,15,.2,30.1,.3,45.1,.4s29.8,.1,44.4,.1,16.2,0,23.9,0,15.1,0,22.3-.2,14.1-.2,20.8-.3,13.2-.2,19.5-.4c18-.4,34.2-.9,48.6-1.6,14.4-.7,27-1.5,37.8-2.5s19.9-2.1,27.2-3.5,12.9-2.8,16.8-4.4l1.2-.5,1.2-.5,1.2-.5,1.2-.5v1.3c-.1,0-.2,1.3-.2,1.3v1.3c-.1,0-.2,1.3-.2,1.3,0,1.1-.2,2.1-.3,3s-.2,1.8-.3,2.6-.2,1.5-.3,2.1-.2,1.2-.3,1.6v.3c0,0-.1,.3-.1,.3v.3c0,0-.1,.3-.1,.3v.2c-.1,0-.3,.2-.3,.2v.2c-.1,0-.3,.2-.3,.2-1.7,2-5.8,3.8-12.5,5.3s-15.8,3-27.4,4.2-25.7,2.2-42.2,3c-16.5,.8-35.4,1.4-56.8,1.8-5.5,0-11,.2-16.8,.3s-11.7,.1-17.7,.2-12.4,0-18.8,.1-13.1,0-20,0c-14.8,0-29.9,0-45.1-.2-15.3,0-30.6-.2-46-.4s-30.6-.4-45.6-.6c-15-.2-29.7-.4-43.9-.6-11.6-.2-23.1-.3-34.3-.5-11.2-.2-22.1-.3-32.5-.4s-20.5-.2-30-.3-18.4-.1-26.7-.1-17.2,0-26.7,.1-19.5,.2-30,.3-21.4,.3-32.5,.4c-11.2,.2-22.7,.3-34.3,.5-14.2,.2-29,.4-44,.6s-30.2,.4-45.6,.6c-15.3,.2-30.7,.3-45.9,.4s-30.3,.2-45.1,.2Z"/>
        <path fill="#f4aa97" d="M591.8,1615c-8.2,0-16.1,0-23.8,0s-15,0-22.2-.2-14-.2-20.7-.3-13.1-.2-19.4-.4c-19-.4-36.1-1-51.3-1.8-15.2-.8-28.4-1.7-39.6-2.9-11.2-1.1-20.3-2.4-27.4-3.9s-12-3.1-14.7-4.8l-.3-.2-.3-.2-.3-.2-.3-.2v-.4s0-.4,0-.4v-.4s0-.4,0-.4c-.6-10-1-23.1-1.1-38.3s0-32.4,.5-50.5,1.3-37,2.4-55.7,2.7-37,4.7-53.8c2.6-21.6,4.9-51.9,6.9-86.2s3.7-72.7,4.8-110.4,1.8-74.8,1.9-106.5-.6-58.1-2-74.5c-.6-7.6-.8-18.7-.5-32.5s.9-30.3,1.8-48.7,2-38.7,3.3-60.1,2.7-43.9,4.2-66.8c1.7-27.3,3.5-54.9,5.1-81.5s3-52.3,4-75.9,1.7-45.1,1.9-63.4-.3-33.3-1.4-44c-1.9-17.4-4.2-35.8-6.8-53.8s-5.3-35.8-7.9-51.9-5.1-30.5-7.2-42-3.6-20.1-4.4-24.4h-.8c0,.1-.8,.3-.8,.3h-.8c0,.1-.8,.3-.8,.3,.8,4.3,2.4,12.9,4.4,24.3s4.5,25.8,7.1,41.8,5.4,33.6,7.9,51.7,4.9,36.5,6.8,54.1c.4,3.8,.7,8.2,1,13.3s.4,10.8,.4,17.1,0,13.4,0,21.1-.3,16.1-.6,25.2v2.1c0,0-.1,2.1-.1,2.1v2.1c0,0-.1,2.1-.1,2.1l-1.3-1.7-1.3-1.7-1.3-1.7-1.3-1.7c-3.9-4.8-8.3-10-13.1-15.4s-10-11-15.6-16.8-11.4-11.9-17.4-18-12.2-12.5-18.5-18.9c-12.6-12.7-25.5-25.9-38-39s-24.3-26.1-34.7-38.4-19.3-24.1-25.7-34.7-10.4-20.1-10.9-27.9h0c0-.1,0-.3,0-.3h0c0-.1,0-.3,0-.3h0c0-.1,0-.3,0-.3h0c0-.1,0-.3,0-.3,7.1-25.4,14.5-50.6,23.1-75,8.5-24.4,18.1-48.2,29.6-70.8s25-44.2,41.1-64.3,35-38.7,57.5-55.4c5.1-3.8,13.6-8.7,24.5-14.3s24.2-12,38.9-18.8c14.7-6.8,30.9-14,47.4-21.3,16.6-7.3,33.6-14.7,50-21.9,5.4-2.4,10.6-4.6,15.6-6.8s9.7-4.2,14.3-6.3,9-4,13.3-5.9,8.5-3.7,12.5-5.5l.7-.3,.7-.3,.7-.3,.7-.3,.3,.7,.3,.7,.3,.7,.3,.7c11.7,23.7,32.3,42,57.5,56,25.2,14,54.9,23.9,84.9,30.7,30,6.9,60.4,10.7,86.8,12.9s48.8,2.6,63,2.6,36.7-.5,63.1-2.6,56.8-6.1,86.9-12.9,59.8-16.7,84.9-30.7c25.1-14,45.6-32.3,57.2-56l.3-.7,.3-.7,.3-.7,.3-.7,.7,.3,.7,.3,.7,.3,.7,.3c4.3,1.9,8.8,3.9,13.4,5.9s9.2,4,13.9,6.1,9.5,4.1,14.2,6.2,9.5,4.1,14.2,6.2c16.5,7.2,33.5,14.6,50.1,21.9,16.6,7.3,32.7,14.5,47.4,21.3s28,13.2,38.9,18.8,19.4,10.5,24.5,14.3c22.4,16.7,41.3,35.3,57.5,55.4s29.6,41.6,41.1,64.3,21.1,46.4,29.6,70.8,15.9,49.6,23.1,75h0c0,.1,0,.3,0,.3h0c0,.1,0,.3,0,.3h0c0,.1,0,.3,0,.3h0c0,.1,0,.3,0,.3-.5,7.8-4.5,17.3-10.9,27.9s-15.3,22.4-25.7,34.7-22.3,25.3-34.7,38.4-25.4,26.2-38,39c-6.3,6.4-12.5,12.7-18.5,18.9s-11.8,12.2-17.4,18-10.7,11.5-15.6,16.8-9.2,10.5-13.1,15.4l-1.3,1.7-1.3,1.7-1.3,1.7-1.3,1.7v-2.1c0,0-.1-2.1-.1-2.1v-2.1c0,0-.1-2.1-.1-2.1-.3-9.1-.5-17.5-.6-25.2s-.1-14.8,0-21.1,.2-12.1,.4-17.1,.6-9.5,1-13.3c1.9-17.6,4.3-36,6.8-54.1s5.3-35.7,7.9-51.7,5.1-30.3,7.1-41.8,3.6-19.9,4.4-24.3h-.8c0-.1-.8-.3-.8-.3h-.8c0-.1-.8-.3-.8-.3-.8,4.3-2.4,12.9-4.4,24.4s-4.5,25.9-7.2,42-5.4,33.8-7.9,51.9-4.9,36.4-6.8,53.8c-1.1,10.7-1.5,25.7-1.4,44s.8,39.8,1.9,63.4,2.5,49.3,4,75.9,3.3,54.2,5.1,81.5c1.5,22.8,2.9,45.3,4.2,66.8s2.4,41.7,3.3,60.1,1.5,34.9,1.8,48.7,.1,24.9-.5,32.5c-1.4,16.4-2,42.8-2,74.5,0,31.7,.7,68.8,1.9,106.5s2.8,76.1,4.8,110.4c2,34.3,4.4,64.6,6.9,86.2,2,16.8,3.6,35.2,4.7,53.8s2,37.6,2.4,55.7,.6,35.3,.5,50.5-.5,28.4-1.1,38.3v.4s0,.4,0,.4v.4s0,.4,0,.4l-.3,.2-.3,.2-.3,.2-.3,.2c-2.8,1.8-7.7,3.4-14.8,4.8s-16.3,2.7-27.6,3.9-24.6,2.1-39.8,2.9c-15.3,.8-32.5,1.4-51.6,1.8-6.3,.1-12.8,.3-19.5,.4s-13.6,.2-20.8,.3-14.6,.1-22.3,.2-15.6,0-23.9,0c-14.6,0-29.5,0-44.5-.1-15,0-30.2-.2-45.2-.4s-30.1-.3-44.8-.5c-14.7-.2-29.2-.4-43.2-.6-11.3-.2-22.5-.3-33.4-.5s-21.5-.3-31.7-.4-20-.2-29.3-.3c-9.3,0-18-.1-26.1-.1s-16.8,0-26.1,.1-19.1,.2-29.3,.3-20.8,.2-31.7,.4-22,.3-33.4,.5c-13.9,.2-28.3,.4-42.9,.6s-29.6,.4-44.6,.5-30.1,.3-45,.4c-14.9,0-29.8,.1-44.3,.1Z"/>
        <path fill="#f4aa97" d="M1569.7,1733.6c-4.5,0-8.5-.2-12-.6s-6.6-1.1-9.1-1.9-4.6-1.9-6.2-3.2-2.6-2.7-3.1-4.4c-.3-.8-.6-1.6-.8-2.5s-.6-1.6-.8-2.4-.6-1.6-.8-2.4-.6-1.5-.8-2.3c-2.1-5.7-7.2-24.9-13.6-51.2s-14.4-59.9-22.3-94.3-15.7-69.8-21.9-99.9-11-54.8-12.7-68c-1.8-13.9-5.4-33.8-10.4-57.1s-11.1-50.2-18-78.2-14.5-57.1-22.1-85-15.4-54.4-22.7-77.4h0c0-.1,0-.2,0-.2h0c0-.1,0-.2,0-.2h0c0-.1,0-.2,0-.2h0c0-.1,0-.2,0-.2,0-9,0-17.5,0-25.4s.2-15.2,.3-21.9,.4-12.7,.6-18.1,.5-10.1,.9-14.1c.7-7.6,.8-18.8,.6-32.6s-.9-30.4-1.8-48.8-2-38.8-3.3-60.2-2.7-44-4.2-66.8c-1-15.5-2-31.2-3-46.8s-1.9-31-2.8-46.1-1.7-29.9-2.4-44.1c-.7-14.2-1.3-27.8-1.8-40.6v-.3s0-.3,0-.3v-.3s0-.3,0-.3l.2-.2,.2-.2,.2-.2,.2-.2c3.8-5,8.3-10.5,13.3-16.2s10.6-11.9,16.6-18.2,12.3-13,19-19.8,13.5-13.8,20.4-20.8c11.6-11.8,23.4-23.7,34.6-35.5s22-23.3,31.7-34.4,18.3-21.8,25.2-31.7,12.1-19.1,15.1-27.3l.8-2.3,.8-2.3,.8-2.3,.8-2.3,1.2,4.3,1.2,4.3,1.2,4.3,1.2,4.3c.7,2.4,1.4,4.9,2,7.3s1.4,4.9,2,7.3,1.4,4.9,2,7.3,1.4,4.9,2.1,7.3c7.5,26.6,18.3,67.6,30.4,115.9s25.6,104.1,38.4,160,25.1,112.1,34.9,161.4,17.1,91.7,20,120.2c1.2,11.7,2.7,24.1,4.6,37.1s4,26.5,6.3,40.4,4.9,28.4,7.6,43.1,5.5,29.8,8.3,45c3.9,21.1,8,43,12,65.3,4,22.3,7.9,45.2,11.6,68.4s7.1,46.6,10,70.2,5.4,47.2,7.2,70.8c1.8,23.2,3.2,43.5,4.3,61.5s1.8,33.9,2.3,48.4,.7,27.7,.8,40.4,0,24.9-.3,37.4c0,1,0,1.9,0,2.9s0,1.9,0,2.9,0,1.9,0,2.9,0,2,0,2.9h0c0,0,0,.2,0,.2h0c0,0,0,.2,0,.2-.6,5.2-6.6,11.3-16.4,17.5s-23.4,12.7-39.1,18.9-33.4,12-51.4,17-36.5,9-53.5,11.7c-3.5,.5-6.9,1-10.1,1.4s-6.4,.8-9.4,1-5.9,.5-8.7,.6-5.4,.2-7.9,.2Z"/>
      </g>
      
    </g>
  </g>
</svg>