<?xml version="1.0" encoding="UTF-8"?><svg id="Layer_1" xmlns="http://www.w3.org/2000/svg" viewBox="0 0 2462.962 1650.89">
<path d="M1718.762,312.692c9.23-5.44,20.59-4.36,30.55-1.76,18.33,4.7,34.81,14.45,50.65,24.52,16.67,11.12,33.24,22.52,48.52,35.51,12.54,10.49,23.15,23.02,32.81,36.16,15.82,21.06,28.39,44.44,38.02,68.94,11.46,28.5,20.25,58.05,26.74,88.07,5.28,23.56,7.19,47.72,8.48,71.77,10.11-20.82,21.8-40.92,33.9-60.67,21.85-35.89,47.52-69.7,78.22-98.51,28.12-26.47,60.16-48.59,94.09-66.94,31.08-16.49,63.89-29.51,97.32-40.37,20.13-6.33,40.49-11.95,60.53-18.59,5.9-2.05,12.65-2.21,18.34.62,7.2,3.38,12.07,9.99,16.45,16.39,11.35,17.38,18.19,37.64,20.25,58.27,1.71,23.28-2,46.58-7.33,69.17-9.6,37.21-26.21,72.27-46.11,105.02-17.1,27.56-36.75,53.48-57.58,78.32-12.43,14.53-24.97,29.05-39.18,41.88-15.42,13.7-31.46,26.71-48.17,38.8-9.08,6.59-18.41,12.86-28.18,18.4,38.77-.43,76.16,13.86,109.13,33.37,15.01,8.73,29.03,19.01,43.43,28.7,16.39,11.37,32.98,22.65,47.37,36.56,23.44,22.02,41.19,49.2,56.97,77.02,17.06,29.4,32.21,60.09,42.41,92.59,6.42,20.33,11.72,41.07,14.97,62.15,1.59,11.18,2.82,22.85-.51,33.84-4.44,14.64-15.25,27.45-29.38,33.53-11.06,4.96-23.38,5.85-35.34,5.89-26.43-.62-52.65-5.46-77.89-13.21-15.33-4.65-30.1-10.9-44.7-17.43-20.11-8.97-40.41-17.58-59.78-28.09-15.89-8.71-31.21-18.44-45.85-29.1-16.17-11.81-32.48-23.44-48.27-35.75-14.53-11.02-29.09-22.1-42.18-34.83-11.53-11.42-22.32-23.56-33.52-35.3-7.44-7.96-13.98-16.85-18.44-26.84-.77,27.28-3.05,54.52-6.76,81.55-5,36.9-18.49,72.08-35.55,104.99-9.68,18.49-19.64,36.96-31.96,53.86-18.81,25.85-42.28,47.97-67.82,67.07-14.05,10.5-28.25,20.84-43.13,30.14-16.29,10.14-33.75,18.24-51.58,25.27-16.74,6.35-33.68,12.56-51.44,15.32-19.39,3.45-40.15,5.47-58.91-1.91-8.52-3.52-15.84-10.74-18.15-19.83-1.7-6.29-.76-12.84-.11-19.19,1.51-17.22,5.67-34.08,10.27-50.7,6.37-21.73,15.46-42.53,24.85-63.1,7.22-15.4,14.35-30.84,21.78-46.14,7.72-15.18,15.6-30.29,24.11-45.05,8.57-15.28,17.01-30.64,26.4-45.44,11.82-18.65,24.54-36.71,37.7-54.44,11.89-16.58,24.55-32.61,37.99-47.97-21.94,10.59-44.09,20.88-67.06,29.05-20.41,7.3-40.86,14.55-61.8,20.21-28.66,7.96-57.93,13.55-87.3,18.19-36.99,5.6-74.57,6.79-111.9,4.83-33.88-1.86-67.78-5.67-100.75-13.87-18.3-4.31-36.44-10.22-52.71-19.8-12.94-7.65-24.55-18.3-31.2-31.96-7.73-15.16-9.63-33.65-3.16-49.59,6.42-15.88,19.08-28.08,31.96-38.88,25.79-20.76,55.19-36.57,85.39-49.9,34.67-15.05,70.43-27.41,106.25-39.41,37.65-12.13,75.53-23.74,114.09-32.63,37.23-8.37,75.6-12.3,113.74-10.34-23.2-20.03-40.49-45.83-54.88-72.65-8.23-15.91-15.86-32.2-21.5-49.22-8.05-23.72-12.78-48.41-16.36-73.15-3.41-24.83-6.1-49.81-6.8-74.88-1.1-23.44.31-47.07,5.06-70.07,3.59-18.55,9.68-36.52,16.93-53.93,4.1-9.18,8.53-19.2,17.57-24.53ZM1952.592,694.912c-8.46,1.01-16.78,3.04-24.81,5.87-10.37,3.96-20.83,7.86-30.35,13.64-10.2,6.1-19.65,13.67-27.08,22.99-12.04,14.74-20.9,31.89-26.99,49.88-6.69,18.84-10,39.15-7.49,59.09,2.56,23.56,14.28,45.5,31.02,62.06,13.23,13,28.57,24.04,45.67,31.34,15.6,6.74,32.47,11.5,49.61,10.5,22.14-1.24,43.22-10.33,61.3-22.83,27.53-19.16,46.09-48.89,56.89-80.21,6.71-18.94,7.44-39.73,3.15-59.28-4.24-18.34-13.21-35.5-25.62-49.62-8.85-9.86-18.91-18.69-30.04-25.9-22.17-14-49.1-21.15-75.26-17.53Z" style="fill:#f39eb2; stroke-width:0px;"/><path d="M1952.592,694.912c26.16-3.62,53.09,3.53,75.26,17.53,11.13,7.21,21.19,16.04,30.04,25.9,12.41,14.12,21.38,31.28,25.62,49.62,4.29,19.55,3.56,40.34-3.15,59.28-10.8,31.32-29.36,61.05-56.89,80.21-18.08,12.5-39.16,21.59-61.3,22.83-17.14,1-34.01-3.76-49.61-10.5-17.1-7.3-32.44-18.34-45.67-31.34-16.74-16.56-28.46-38.5-31.02-62.06-2.51-19.94.8-40.25,7.49-59.09,6.09-17.99,14.95-35.14,26.99-49.88,7.43-9.32,16.88-16.89,27.08-22.99,9.52-5.78,19.98-9.68,30.35-13.64,8.03-2.83,16.35-4.86,24.81-5.87Z" style="fill:#f3ffa8; stroke-width:0px;"/></svg>