<svg xmlns="http://www.w3.org/2000/svg" viewBox="0 0 944.35 278.707">
    <polygon points="821.58 228.034 767.46 264.114 767.46 228.034 821.58 228.034"
        fill="#f4aa97" />
    <path
        d="M943.34,53.024c.92,1.47,1.01,3.3.25,4.85l-52.23,106.69,52.23,106.69c.76,1.55.67,3.38-.25,4.85-.91,1.46-2.51,2.35-4.24,2.35h-176.8c-1.18-.04-2.26-.48-3.1-1.2-.16-.14-.31-.29-.46-.45,0,0,0-.01-.01-.01-.78-.87-1.26-2.03-1.27-3.29v-45.47h-320.68l-249.88,4.53v40.82c0,.51-.07,1.02-.21,1.51-.19.6-.48,1.16-.86,1.64-.43.56-.96,1-1.55,1.32-.61.33-1.3.54-2.02.59-.13.01-.25.01-.37.01H5.25c-1.73,0-3.33-.89-4.24-2.35-.92-1.47-1.01-3.3-.25-4.85l52.23-106.69L.76,57.874C0,56.324.09,54.494,1.01,53.024c.91-1.46,2.51-2.35,4.24-2.35h96.01V5.254c0-2.77,2.24-5,5-5h731.83c2.76,0,5,2.23,5,5v45.42h96.01c1.73,0,3.33.89,4.24,2.35ZM881.3,162.364l49.79-101.69h-88v162.3c0,.15-.01.3-.02.45-.07.96-.41,1.84-.95,2.57-.25.33-.53.64-.86.9-.15.13-.3.24-.46.34l-61.83,41.22h152.12l-49.79-101.69c-.67-1.39-.67-3.01,0-4.4ZM833.09,218.034V10.254H111.26v207.78h721.83ZM767.46,264.114l54.12-36.08h-54.12v36.08ZM176.9,264.114v-36.08h-54.12l54.12,36.08ZM13.26,268.454h152.12l-61.83-41.22c-.19-.12-.37-.26-.54-.4,0,0,0-.01-.01-.01-.19-.16-.37-.34-.53-.53q0-.01-.01-.01c-.74-.86-1.19-1.98-1.2-3.21V60.674H13.26l49.79,101.69c.68,1.39.68,3.01,0,4.4l-49.79,101.69Z"
        fill="#222222" />
    <path
        d="M931.09,60.674l-49.79,101.69c-.67,1.39-.67,3.01,0,4.4l49.79,101.69h-152.12l61.83-41.22c.16-.1.31-.21.46-.34.33-.26.61-.57.86-.9.54-.73.88-1.61.95-2.57.01-.15.02-.3.02-.45V60.674h88Z"
        fill="#f4aa97" />
    <rect x="111.26" y="10.254" width="721.83" height="207.78" fill="#f4aa97" />
    <polygon points="176.9 228.034 176.9 264.114 122.78 228.034 176.9 228.034"
       style="fill: #f4aa96;" />
    <path
        d="M165.38,268.454H13.26l49.79-101.69c.68-1.39.68-3.01,0-4.4L13.26,60.674h88v162.4c.01,1.23.46,2.35,1.2,3.21q.01,0,.01.01c.16.19.34.37.53.53.01,0,.01.01.01.01.17.14.35.28.54.4l61.83,41.22Z"
        fill="#f4aa97" />
</svg>