<?xml version="1.0" encoding="UTF-8"?>
<svg id="Layer_2" xmlns="http://www.w3.org/2000/svg" viewBox="0 0 1024 297.308">
    <path
        d="M1023.174,56.394c.998,1.571,1.096,3.527.271,5.183l-56.665,114.018,56.665,114.018c.825,1.656.727,3.612-.271,5.183-.987,1.56-2.723,2.511-4.6,2.511h-191.813c-1.28-.043-2.452-.513-3.363-1.282-.174-.15-.336-.31-.499-.481,0,0,0-.011-.011-.011-.846-.93-1.367-2.169-1.378-3.516v-48.593H202.501v48.465c0,.545-.076,1.09-.228,1.614-.206.641-.521,1.24-.933,1.753-.467.598-1.042,1.069-1.682,1.411-.662.353-1.41.577-2.192.631-.141.011-.271.011-.401.011H5.426c-1.877,0-3.613-.951-4.6-2.511-.998-1.571-1.096-3.527-.271-5.183l56.665-114.018L.555,61.578c-.825-1.656-.727-3.612.271-5.183.987-1.56,2.723-2.511,4.6-2.511h104.163V5.343c0-2.96,2.43-5.343,5.425-5.343h793.973c2.994,0,5.425,2.383,5.425,5.343v48.54h104.163c1.877,0,3.613.951,4.6,2.511ZM955.866,173.244l54.018-108.675h-95.473v173.448c0,.16-.011.321-.022.481-.076,1.026-.445,1.966-1.031,2.747-.271.353-.575.684-.933.962-.163.139-.325.256-.499.363l-67.08,44.051h165.037l-54.018-108.675c-.727-1.485-.727-3.217,0-4.702ZM903.562,232.738V10.687H120.438v222.051h783.124ZM832.359,281.983l58.716-38.558h-58.716v38.558ZM191.652,281.983v-38.558h-58.716l58.716,38.558ZM14.116,286.621h165.037l-67.08-44.051c-.206-.128-.401-.278-.586-.427,0,0,0-.011-.011-.011-.206-.171-.401-.363-.575-.566q0-.011-.011-.011c-.803-.919-1.291-2.116-1.302-3.43V64.57H14.116l54.018,108.675c.738,1.485.738,3.217,0,4.702l-54.018,108.675Z"
        fill="#222222" />
    <polygon points="891.075 243.425 832.359 281.983 832.359 243.425 891.075 243.425" fill="#f4aa97" />
    <path
        d="M1009.884,64.57l-54.018,108.675c-.727,1.485-.727,3.217,0,4.702l54.018,108.675h-165.037l67.08-44.051c.174-.107.336-.224.499-.363.358-.278.662-.609.933-.962.586-.78.955-1.721,1.031-2.747.011-.16.022-.321.022-.481V64.57h95.473Z"
        fill="#f4aa97" />
    <rect x="120.438" y="10.687" width="783.124" height="222.051" fill="#f4aa97" />
    <polygon points="191.652 243.425 191.652 281.983 132.936 243.425 191.652 243.425" fill="#f4aa97" />
    <path
        d="M179.154,286.621H14.116l54.018-108.675c.738-1.485.738-3.217,0-4.702L14.116,64.57h95.473v173.554c.011,1.314.499,2.511,1.302,3.43q.011,0,.011.011c.174.203.369.395.575.566.011,0,.011.011.011.011.184.15.38.299.586.427l67.08,44.051Z"
        fill="#f4aa97" />

</svg>