<?xml version="1.0" encoding="UTF-8"?>
<svg id="Layer_1" xmlns="http://www.w3.org/2000/svg" viewBox="0 0 1024 256.92">
    <path
        d="M1022.967,249.54c1.1,1.34,1.348,3.21.615,4.79-.743,1.58-2.31,2.59-4.044,2.59H4.463c-1.735,0-3.301-1.01-4.044-2.59-.734-1.58-.486-3.45.615-4.79l91.942-111.25L.825,7.1C-.137,5.73-.266,3.93.498,2.43,1.271.94,2.797,0,4.463,0h1015.075c1.665,0,3.192.94,3.965,2.43.763,1.5.634,3.3-.327,4.67l-92.15,131.19,91.942,111.25ZM921.757,135.91l89.156-126.91H13.087l89.156,126.91c1.17,1.67,1.08,3.92-.218,5.49L13.989,247.92h996.022l-88.036-106.52c-1.299-1.57-1.388-3.82-.218-5.49Z"
        style="fill:#231f20; stroke-width:0px;" />
    <path
        d="M1010.913,9l-89.156,126.91c-1.17,1.67-1.08,3.92.218,5.49l88.036,106.52H13.989l88.036-106.52c1.299-1.57,1.388-3.82.218-5.49L13.087,9h997.826Z"
        style="fill:#f5f088; stroke-width:0px;" />
</svg>