<?xml version="1.0" encoding="UTF-8"?>
<svg id="Layer_1" xmlns="http://www.w3.org/2000/svg" viewBox="0 0 1024 372.62">
    <path
        d="M1022.967,306.785c1.101,1.983,1.348,4,.615,5.149-.744,1.144-2.31,1.241-4.044.249C681.179,118.705,342.821,510.835,4.463,317.356c-1.735-.991-3.301-2.915-4.044-4.931-.734-2.01-.486-3.734.615-4.431,30.647-19.199,61.294-43.235,91.942-71.237C62.258,183.926,31.541,127.109.825,65.433c-.962-1.933-1.09-3.809-.327-4.861.773-1.037,2.3-1.088,3.965-.136,338.358,193.479,676.716-198.651,1015.075-5.172,1.665.952,3.192,2.781,3.965,4.724.763,1.948.635,3.671-.327,4.479-30.716,25.783-61.433,56.427-92.15,91.056,30.647,46.164,61.294,96.295,91.942,151.263ZM921.757,150.516c29.719-34.264,59.437-64.882,89.156-91.058C678.304-121.034,345.696,254.734,13.087,74.241c29.719,58.43,59.437,112.42,89.156,162.762,1.17,1.985,1.081,4.211-.218,5.431-29.345,27.551-58.691,51.544-88.036,71.215,134.197,72.418,268.393,54.447,402.59,19.159,197.811-52.017,395.621-141.663,593.432-34.917-29.345-51.342-58.691-98.363-88.036-141.825-1.299-1.921-1.388-4.194-.218-5.549Z"
        style="fill:#231f20; stroke-width:0px;" />
    <path
        d="M1010.913,59.459c-29.719,26.176-59.437,56.793-89.156,91.058-1.17,1.355-1.08,3.628.218,5.549,29.345,43.462,58.691,90.483,88.036,141.825-197.811-106.746-395.621-17.099-593.432,34.917-134.197,35.289-268.393,53.259-402.59-19.159,29.345-19.671,58.691-43.664,88.036-71.215,1.299-1.219,1.388-3.446.218-5.431-29.719-50.342-59.437-104.332-89.156-162.762,332.609,180.493,665.218-195.275,997.826-14.783Z"
        style="fill:#f5f088; stroke-width:0px;" />
</svg>