<svg id="Layer_1" data-name="Layer 1" xmlns="http://www.w3.org/2000/svg" viewBox="0 0 959.98 1080"><path d="M587,12.88,780,124.32,973,235.76c29.74,17.17,47,47,47,81.36V762.88c0,34.34-17.24,64.19-47,81.36L780,955.68,587,1067.12c-29.74,17.17-64.22,17.17-94,0l-77.16-44.55,8.21-13.34,76.78,44.33c24.9,14.37,53.4,14.37,78.3,0l193-111.44,193-111.44c24.9-14.37,39.15-39.06,39.15-67.8V317.12c0-28.75-14.25-53.43-39.15-67.8l-193-111.44-193-111.44c-24.9-14.37-53.4-14.37-78.3,0L408.07,80,398.5,67.45,493,12.88c29.74-17.17,64.22-17.17,94,0ZM264.19,935,107,844.24c-29.74-17.17-47-47-47-81.36V317.12c0-34.34,17.24-64.19,47-81.36l161.83-93.44L276.43,156,114.82,249.32c-24.9,14.37-39.15,39.05-39.15,67.8V762.88c0,28.74,14.25,53.43,39.15,67.8l158.66,91.61Z" transform="translate(-60.01 0)" fill="#222" fill-rule="evenodd"/><path d="M579.15,26.44l193,111.44,193,111.44c24.9,14.37,39.15,39.05,39.15,67.8V762.88c0,28.74-14.25,53.43-39.15,67.8l-193,111.44-193,111.44c-24.9,14.37-53.4,14.37-78.3,0l-193-111.44-193-111.44c-24.9-14.37-39.15-39.06-39.15-67.8V317.12c0-28.75,14.25-53.43,39.15-67.8l193-111.44,193-111.44c24.9-14.37,53.4-14.37,78.3,0Zm-7.47,98,156.17,90.17L884,304.8c20.15,11.63,31.68,31.6,31.68,54.86V720.34c0,23.26-11.53,43.23-31.68,54.86L727.85,865.37,571.68,955.54c-20.15,11.63-43.21,11.63-63.36,0L352.15,865.37,196,775.2c-20.15-11.63-31.68-31.6-31.68-54.86V359.66c0-23.26,11.53-43.23,31.68-54.86l156.18-90.17,156.17-90.17C528.47,112.83,551.53,112.83,571.68,124.46Z" transform="translate(-60.01 0)" fill="#1f879a" fill-rule="evenodd"/></svg>