<?xml version="1.0" encoding="UTF-8"?>
<svg id="Layer_1" xmlns="http://www.w3.org/2000/svg"
    viewBox="0 0 794.493 224.608">
    <polyline points="652.414 45.45 789.493 45.45 716.442 132.528 789.493 219.607 557.943 219.607 557.943 179.157"
        style="fill:#f05b88; stroke-width:0px;" />
    <path
        d="M789.493,224.607h-231.55c-2.761,0-5-2.239-5-5v-40.45c0-2.761,2.239-5,5-5s5,2.239,5,5v35.45h215.829l-66.161-78.865c-1.559-1.858-1.559-4.568,0-6.427l66.161-78.865h-126.357c-2.761,0-5-2.239-5-5s2.239-5,5-5h137.079c1.943,0,3.71,1.125,4.531,2.887.821,1.761.548,3.838-.701,5.327l-70.355,83.865,70.355,83.865c1.249,1.488,1.522,3.566.701,5.327-.821,1.761-2.588,2.887-4.531,2.887Z"
        style="fill:#231f20; stroke-width:0px;" />
    <polyline points="189.314 5 652.414 5 652.414 179.157 189.314 179.157" style="fill:#f05b88; stroke-width:0px;" />
    <path
        d="M652.415,184.157H189.314c-2.761,0-5-2.239-5-5s2.239-5,5-5h458.1V10H189.314c-2.761,0-5-2.239-5-5s2.239-5,5-5h463.1c2.761,0,5,2.239,5,5v174.157c0,2.761-2.239,5-5,5Z"
        style="fill:#231f20; stroke-width:0px;" />
    <line x1="652.414" y1="179.157" x2="557.943" y2="219.607" style="fill:#f05b88; stroke-width:0px;" />
    <path
        d="M557.945,224.608c-1.94,0-3.787-1.137-4.599-3.033-1.087-2.539.09-5.478,2.628-6.564l94.471-40.45c2.541-1.087,5.478.09,6.564,2.628,1.087,2.539-.09,5.478-2.628,6.564l-94.471,40.45c-.642.275-1.31.405-1.966.405Z"
        style="fill:#231f20; stroke-width:0px;" />
    <polyline points="142.079 45.45 5 45.45 78.051 132.528 5 219.607 236.55 219.607 236.55 179.157"
        style="fill:#f05b88; stroke-width:0px;" />
    <path
        d="M236.55,224.607H5c-1.943,0-3.71-1.125-4.531-2.887-.821-1.761-.548-3.838.701-5.327l70.355-83.865L1.169,48.663c-1.249-1.488-1.522-3.566-.701-5.327.821-1.761,2.588-2.887,4.531-2.887h137.079c2.761,0,5,2.239,5,5s-2.239,5-5,5H15.721l66.161,78.865c1.559,1.858,1.559,4.568,0,6.427L15.721,214.607h215.829v-35.45c0-2.761,2.239-5,5-5s5,2.239,5,5v40.45c0,2.761-2.239,5-5,5Z"
        style="fill:#231f20; stroke-width:0px;" />
    <polyline points="605.179 5 142.079 5 142.079 179.157 605.179 179.157" style="fill:#f05b88; stroke-width:0px;" />
    <path
        d="M605.179,184.157H142.079c-2.761,0-5-2.239-5-5V5c0-2.761,2.239-5,5-5h463.1c2.761,0,5,2.239,5,5s-2.239,5-5,5H147.079v164.157h458.1c2.761,0,5,2.239,5,5s-2.239,5-5,5Z"
        style="fill:#231f20; stroke-width:0px;" />
    <line x1="142.079" y1="179.157" x2="236.55" y2="219.607" style="fill:#f05b88; stroke-width:0px;" />
    <path
        d="M236.548,224.608c-.657,0-1.324-.13-1.966-.405l-94.471-40.45c-2.539-1.087-3.715-4.026-2.628-6.564,1.086-2.539,4.024-3.716,6.564-2.628l94.471,40.45c2.539,1.087,3.715,4.026,2.628,6.564-.812,1.896-2.658,3.033-4.599,3.033Z"
        style="fill:#231f20; stroke-width:0px;" />
</svg>