<?xml version="1.0" encoding="UTF-8"?>
<svg id="Layer_1" xmlns="http://www.w3.org/2000/svg" viewBox="0 0 1024 420">
    <path
        d="M.536,350.53c-.813-1.089-.692-3.199.299-5.468,17.451-39.903,34.902-77.834,52.353-113.987-17.451-18.428-34.902-35.189-52.353-50.087-.991-.846-1.112-2.78-.299-5.039.804-2.251,2.402-4.433,4.141-5.644,53.848-37.53,107.697-56.928,161.545-63.969V8.011c0-2.786,2.094-5.317,4.674-5.609,227.401-25.829,454.803,165.745,682.204,139.919,2.58-.292,4.674,1.639,4.673,4.351v95.704c53.852-7.041,107.703-26.44,161.555-63.973,1.738-1.211,3.328-1.335,4.141-.306.804,1.035.692,3.059-.308,5.267-17.451,38.723-34.902,75.582-52.353,110.774,17.451,17.468,34.902,33.158,52.353,46.876,1,.773,1.112,2.633.308,4.824-.813,2.188-2.402,4.343-4.141,5.567-104.597,73.622-209.193,78.834-313.79,57.95-.159-.032-.317-.073-.477-.125-.074-.024-.14-.048-.215-.073-.065-.013-.121-.044-.187-.067-.065-.023-.121-.054-.187-.087-.075-.025-.14-.058-.215-.103-.159-.072-.308-.161-.458-.251-.159-.101-.327-.215-.486-.336,0-.01-.01-.012-.009-.012-.159-.131-.318-.262-.467-.421-.01-.002-.009-.012-.019-.014-.046-.029-.084-.067-.122-.114-.093-.089-.178-.184-.262-.281-.065-.083-.131-.155-.196-.238-.112-.131-.215-.272-.308-.419-.066-.102-.131-.205-.187-.305,0-.01-.009-.012-.009-.022-.075-.114-.131-.235-.196-.357-.028-.055-.066-.122-.093-.177-.028-.065-.056-.12-.084-.185-.056-.12-.103-.249-.15-.367-.046-.138-.094-.286-.131-.422-.047-.168-.084-.334-.121-.5-.028-.164-.056-.338-.065-.508-.018-.172-.028-.342-.028-.51v-96.309c-125.911-26.567-251.822-90.037-377.733-116.603v97.74c0,.17-.009.339-.028.506-.009.139-.028.275-.056.41-.019.136-.056.26-.084.384-.028.105-.056.199-.093.302-.056.149-.112.288-.178.425-.01.028-.019.046-.037.073-.047.111-.112.217-.178.315-.009.018-.019.036-.028.054-.093.151-.206.289-.318.426,0,0,0,0-.009.008-.112.127-.234.243-.355.359-.056.049-.103.089-.159.118-.112.097-.224.175-.355.238,0,0,0,.01-.009.008-.009.018-.019.026-.028.024-.003,0-.006-.001-.009-.002-.084.053-.159.098-.252.139-.084.043-.168.076-.262.117-.093.031-.177.065-.262.087-.094.021-.187.043-.271.065-.187.043-.374.065-.561.077-.093.011-.187.013-.28.014-.131-.006-.262-.012-.393-.019-.15-.01-.299-.03-.458-.062-.009-.002-.018-.003-.019-.004-104.59-20.881-209.181-15.666-313.771,57.949-1.739,1.223-3.337,1.314-4.141.228ZM62.713,229.297c-16.37,33.325-32.74,68.182-49.109,104.734,96.356-64.228,192.711-71.424,289.067-54.666-44.772-38.987-89.545-72.965-134.317-98.614-.009.001-.009-.009-.019-.008-.15-.092-.28-.186-.411-.28-.037-.026-.065-.052-.093-.079-.14-.103-.262-.218-.374-.345-.131-.134-.252-.29-.365-.437-.112-.157-.215-.315-.308-.484v-.01c-.093-.169-.168-.351-.243-.533-.065-.173-.122-.358-.168-.543,0-.02-.009-.039-.019-.068-.028-.138-.056-.285-.075-.434-.037-.237-.056-.487-.056-.74v-60.358c-50.873,6.672-101.746,24.373-152.619,57.973,16.37,14.828,32.74,31.254,49.109,49.116,1.112,1.209,1.112,3.51,0,5.777ZM175.569,11.993v158.626c224.286-24.017,448.571,160.556,672.857,136.542,0-51.504,0-103.007,0-154.511C624.14,175.292,399.855-10.652,175.569,11.993ZM313.784,188.645c-42.364-8.309-84.728-12.233-127.092-8.961,42.364,26.384,84.728,59.819,127.092,97.492v-88.531ZM710.211,309.054v87.171c42.364-20.893,84.728-46.026,127.092-78.209-42.364,3.271-84.728-.653-127.092-8.962ZM855.642,315.356c-44.772,36.244-89.545,64.16-134.317,87.067,96.356,16.759,192.711,9.565,289.067-54.662-16.37-13.749-32.74-29.193-49.109-46.168-1.113-1.159-1.112-3.381,0-5.578,16.37-32.438,32.74-66.312,49.109-101.784-50.873,33.598-101.746,51.299-152.619,57.97v58.749c0,.177-.01.355-.028.534-.009.09-.019.17-.037.251-.01.119-.028.24-.065.362-.009.05-.019.1-.028.151-.037.162-.093.327-.149.492,0,.02-.009.04-.019.061-.065.185-.14.372-.234.561t0,.01c-.084.168-.178.338-.28.509-.019.032-.047.065-.065.097-.084.139-.187.28-.29.411-.018.032-.037.054-.056.076-.103.131-.215.264-.337.388-.037.044-.075.079-.112.113-.131.135-.271.261-.411.377-.01.001-.009.011-.019.012Z"
        style="fill:#231f20; stroke-width:0px;" />
    <path d="M186.692,179.684c42.364-3.272,84.728.652,127.092,8.961v88.531c-42.364-37.674-84.728-71.108-127.092-97.492Z"
        style="fill:#dadd70; stroke-width:0px;" />
    <path
        d="M710.211,396.225v-87.171c42.364,8.309,84.728,12.234,127.092,8.962-42.364,32.183-84.728,57.315-127.092,78.209Z"
        style="fill:#dadd70; stroke-width:0px;" />
    <path
        d="M721.325,402.423c44.772-22.907,89.545-50.823,134.317-87.067.009,0,.009-.011.019-.012.14-.116.281-.242.411-.377.037-.035.075-.069.112-.113.122-.124.234-.256.337-.388.018-.022.037-.044.056-.076.103-.131.206-.273.29-.411.019-.032.046-.065.065-.097.103-.171.196-.341.28-.509,0-.01,0-.01,0-.01.093-.189.168-.376.234-.561.009-.021.019-.042.019-.061.057-.165.112-.329.149-.492.01-.05.019-.101.028-.151.037-.123.056-.243.065-.362.019-.081.028-.161.037-.251.019-.179.028-.357.028-.534v-58.749c50.873-6.671,101.746-24.372,152.619-57.97-16.37,35.472-32.74,69.345-49.109,101.784-1.113,2.197-1.112,4.418,0,5.578,16.37,16.975,32.74,32.419,49.109,46.168-96.356,64.226-192.711,71.421-289.067,54.662Z"
        style="fill:#f2ee80; stroke-width:0px;" />
    <path
        d="M13.603,334.03c16.37-36.551,32.74-71.409,49.109-104.734,1.112-2.267,1.112-4.567,0-5.777-16.37-17.862-32.74-34.288-49.109-49.116,50.873-33.599,101.746-51.301,152.619-57.973v60.358c0,.252.019.502.056.74.019.149.047.297.075.434.009.029.019.048.019.068.047.186.103.37.168.543.075.182.15.364.243.533v.01c.094.169.196.327.308.484.112.147.234.303.365.437.112.127.234.242.374.345.028.027.056.053.093.079.131.094.262.189.411.28.009-.001.009.009.019.008,44.772,25.65,89.545,59.627,134.317,98.614-96.356-16.758-192.711-9.563-289.067,54.666Z"
        style="fill:#f2ee80; stroke-width:0px;" />
    <path
        d="M175.569,170.619V11.993c224.286-22.645,448.571,163.299,672.857,140.657,0,51.504,0,103.007,0,154.511-224.286,24.014-448.571-160.559-672.857-136.542Z"
        style="fill:#f2ee80; stroke-width:0px;" />
</svg>