<?xml version="1.0" encoding="UTF-8"?>
<svg id="Layer_1" xmlns="http://www.w3.org/2000/svg" viewBox="0 0 567 1024">
    <path
        d="M564.278,864.824c1.78.911,2.85,2.773,2.71,4.754-.14,1.971-1.46,3.674-3.35,4.328l-120.229,41.445,12.47,103.113c.22,1.822-.6,3.615-2.13,4.664-.85.574-1.84.871-2.84.871-.79,0-1.59-.188-2.32-.564L26.912,803.88c-1.66-.862-2.67-2.575-2.67-4.397v-186.083c0-2.436,1.78-4.506,4.2-4.892l214.428-34.295L27.532,496.452l-.01-.01c-.14-.05-.27-.099-.41-.168-.16-.069-.3-.149-.44-.228-.11-.059-.21-.129-.32-.208-.45-.317-.84-.703-1.15-1.129-.08-.109-.16-.218-.23-.337-.08-.139-.16-.267-.22-.406-.04-.079-.08-.158-.11-.238l-.09-.208c-.02-.079-.05-.158-.08-.238-.05-.149-.09-.297-.11-.436-.04-.158-.07-.317-.08-.485-.01-.02-.01-.03-.01-.04-.02-.168-.03-.347-.03-.525v-185.964c0-2.426,1.78-4.496,4.2-4.882l192.398-30.77L2.712,159.176c-1.78-.911-2.84-2.773-2.7-4.754.14-1.971,1.46-3.674,3.34-4.328l120.239-41.445L111.121,5.536c-.22-1.822.6-3.615,2.13-4.664,1.53-1.04,3.52-1.159,5.16-.307l421.477,219.457.19.099c.07.04.13.069.2.109.12.069.25.149.37.238.01.01.02.01.02.01.11.079.22.168.33.257.14.119.27.238.39.376.13.129.24.267.35.406.21.267.39.555.53.862.1.198.19.416.25.634.05.139.09.277.12.416.03.129.05.257.07.396.01.059.02.129.02.198.02.158.03.317.03.475v185.964c0,2.426-1.78,4.496-4.21,4.882l-205.308,32.839,206.168,79.206.15.059c.25.099.48.208.71.337.14.079.27.168.4.257s.26.188.38.297c.12.099.24.208.34.327.1.099.2.208.28.327l.01.01c.05.059.1.129.15.198.08.099.15.208.21.317.08.109.14.228.2.357l.03.059c.04.079.07.158.11.238.02.05.04.109.06.168.03.079.06.158.09.248.04.139.08.277.11.416.02.089.04.188.05.287.02.089.03.178.04.277.02.168.03.327.03.495v185.954c0,2.436-1.78,4.506-4.21,4.892l-192.608,30.809,218.338,111.105ZM436.319,907.31l113.009-38.96-219.828-111.858-284.668,45.525,399.987,208.266-11.82-97.706c-.28-2.307,1.1-4.506,3.32-5.269ZM532.758,713.809v-175.932l-268.998,43.02c-.04.01-.07.02-.11.02l-.5.079c-.05.01-.09.01-.14.02l-228.768,36.593v175.932l498.516-79.731ZM532.758,406.243v-175.922l-295.288,47.229h-.02l-203.208,32.503v175.932l279.238-44.664c.03-.01.06-.02.09-.02l219.188-35.058ZM476.378,229.301l45.79-7.319L122.181,13.716l11.81,97.706c.28,2.307-1.1,4.506-3.32,5.269l-113.009,38.96,219.828,111.858,238.888-38.207ZM263.11,570.974l255.658-40.891-205.058-78.781-264.738,42.346,214.138,77.325Z"
        style="stroke-width:0px;" />
    <path
        d="M549.328,868.35l-113.009,38.96c-2.22.763-3.6,2.961-3.32,5.269l11.82,97.706L44.832,802.018l284.668-45.525,219.828,111.858Z"
        style="fill:#184d8a; stroke-width:0px;" />
    <polygon points="518.768 530.084 263.11 570.974 48.972 493.649 313.71 451.303 518.768 530.084"
        style="fill:#184d8a; stroke-width:0px;" />
    <path
        d="M522.168,221.982l-45.79,7.319-238.888,38.207L17.662,155.65l113.009-38.96c2.22-.763,3.6-2.961,3.32-5.269l-11.81-97.706,399.987,208.266Z"
        style="fill:#184d8a; stroke-width:0px;" />
    <path
        d="M532.758,537.877v175.932l-498.516,79.731v-175.932l228.768-36.593c.05-.01.09-.01.14-.02l.5-.079c.04,0,.07-.01.11-.02l268.998-43.02Z"
        style="fill:#5395d0; stroke-width:0px;" />
    <path
        d="M532.758,230.321v175.922l-219.188,35.058c-.03,0-.06.01-.09.02l-279.238,44.664v-175.932l203.208-32.503h.02l295.288-47.229Z"
        style="fill:#5395d0; stroke-width:0px;" />
</svg>