<?xml version="1.0" encoding="UTF-8"?>
<svg id="Layer_2" xmlns="http://www.w3.org/2000/svg" viewBox="0 0 1034 393.919">
    <path
        d="M1033.435,128.578c.86,2.14.73,4.055-.34,4.977-22.727,19.669-45.453,41.895-68.18,66.34,22.727,40.655,45.453,83.529,68.18,128.96,1.07,2.137,1.199,4.202.34,5.363-.861,1.171-2.569,1.235-4.44.201-74.653-41.305-149.307-55.24-223.96-53.776-.17.003-.35-.003-.52-.02-.09-.008-.179-.016-.27-.034-.13-.007-.249-.035-.38-.062-.19-.036-.38-.092-.56-.158-.18-.056-.35-.132-.52-.208-.01,0-.02-.009-.03-.009-.13-.067-.26-.144-.39-.221-.01,0-.02-.01-.03-.019-.08-.048-.15-.096-.22-.145-.1-.058-.19-.125-.28-.213-.06-.049-.12-.097-.18-.155-.13-.106-.25-.224-.37-.35-.12-.137-.24-.284-.35-.431-.05-.079-.1-.148-.15-.226-.05-.069-.09-.148-.13-.226-.09-.147-.17-.296-.23-.454-.07-.148-.13-.306-.18-.465-.04-.149-.08-.308-.11-.457-.04-.169-.07-.338-.08-.518-.02-.16-.03-.329-.03-.499v-64.52c-188.687,5.426-377.373,107.508-566.06,112.93,0,21.507,0,43.013,0,64.52,0,.169-.01.341-.03.501-.01.17-.04.351-.08.522-.03.151-.07.312-.11.463-.04.121-.08.242-.13.364-.09.232-.21.476-.34.699-.07.122-.14.234-.22.346-.36.53-.81.962-1.31,1.314-.11.073-.22.145-.34.208-.09.052-.18.104-.27.146-.14.083-.29.147-.44.2-.19.075-.37.138-.57.183-.12.033-.24.065-.37.078-.09.022-.18.034-.28.046-.17.024-.34.037-.51.04-74.657,1.464-149.313-12.472-223.97-53.781-1.86-1.028-3.57-3.025-4.43-5.173-.86-2.14-.73-4.055.33-4.983,22.727-19.668,45.453-41.894,68.18-66.339C46.349,222.884,23.622,180.01.895,134.578c-1.06-2.132-1.19-4.197-.33-5.357.86-1.171,2.57-1.235,4.43-.207,40.09,22.183,80.18,36.472,120.27,44.722v-64.52c0-2.761,2.24-4.536,5-4.002C388.085,155.062,645.905-41.679,903.725,8.163c2.76.533,5,3.238,5,5.998,0,21.507,0,43.013,0,64.52,40.09,8.249,80.18,22.537,120.27,44.719,1.87,1.034,3.58,3.03,4.44,5.179ZM954.725,193.55c21.56-23.817,43.12-45.682,64.68-65.307-36.893-19.265-73.787-31.971-110.68-39.563,0,42.17,0,84.34,0,126.51,0,.17-.01.338-.03.504-.01.078-.02.146-.03.214,0,.02,0,.04-.01.058-.01.118-.039.242-.07.366-.04.182-.1.349-.17.525-.05.14-.11.268-.19.401-.05.09-.1.18-.16.267-.14.252-.33.473-.55.678-.1.11-.22.206-.34.291-.14.112-.29.211-.46.287-.06.038-.13.064-.19.102-28.57,14.402-57.14,31.853-85.71,51.683,66.197.679,132.393,14.128,198.59,48.696-21.56-42.142-43.12-82.043-64.68-119.993-1.2-2.112-1.2-4.392,0-5.72ZM898.725,208.257V17.227C644.239-28.844,389.752,162.227,135.265,116.15v191.03c254.487,46.076,508.973-144.994,763.46-98.924ZM810.025,265.938c25.97-18.562,51.94-35.228,77.91-49.494-25.97-4.027-51.94-5.654-77.91-5.386v54.88ZM223.965,379.261v-54.88c-25.97.268-51.94-1.36-77.91-5.387,25.97,22.321,51.94,42.242,77.91,60.267ZM14.585,335.191c66.197,34.569,132.393,48.02,198.59,48.7-28.57-20.417-57.14-43.213-85.71-69.058-.06-.062-.13-.116-.19-.178-.16-.142-.31-.302-.45-.461-.04-.038-.08-.087-.1-.13-.12-.134-.21-.253-.31-.393-.01-.012-.01-.012-.01-.022-.11-.143-.2-.291-.29-.439-.22-.374-.4-.772-.54-1.17-.07-.194-.12-.385-.17-.585-.04-.198-.08-.397-.1-.591,0-.02,0-.04,0-.06-.03-.187-.04-.368-.04-.558v-126.51c-36.893-7.592-73.787-20.299-110.68-39.565,21.563,42.144,43.127,82.047,64.69,119.998,1.2,2.112,1.2,4.391,0,5.72-21.563,23.816-43.127,45.679-64.69,65.302Z"
        style="stroke-width:0px;" />
    <path d="M906.525,218.884c.06-.038.13-.064.19-.102-.03.034-.07.046-.11.068-.027.011-.053.023-.08.034Z"
        style="stroke-width:0px;" />
    <path d="M127.275,314.655c.06.062.13.116.19.178-.027-.022-.053-.044-.08-.066-.04-.038-.08-.066-.11-.112Z"
        style="stroke-width:0px;" />
    <path d="M223.965,324.381v54.88c-25.97-18.025-51.94-37.947-77.91-60.267,25.97,4.028,51.94,5.655,77.91,5.387Z"
        style="fill:#4873b8; stroke-width:0px;" />
    <path
        d="M213.175,383.892c-66.197-.68-132.393-14.131-198.59-48.7,21.563-19.622,43.127-41.486,64.69-65.302,1.2-1.328,1.2-3.608,0-5.72-21.563-37.951-43.127-77.854-64.69-119.998,36.893,19.266,73.787,31.973,110.68,39.565v126.51c0,.19.01.372.04.558,0,.02,0,.04,0,.06.02.194.06.392.1.591.05.2.1.39.17.585.14.399.32.795.54,1.17.09.148.18.297.29.439,0,.01,0,.01.01.022.1.14.19.259.31.393.02.044.06.092.1.13.14.158.29.319.45.461.03.046.07.074.11.112.027.022.053.044.08.066,28.57,25.846,57.14,48.641,85.71,69.058Z"
        style="fill:#4873b8; stroke-width:0px;" />
    <path d="M887.935,216.444c-25.97,14.266-51.94,30.932-77.91,49.494v-54.88c25.97-.268,51.94,1.359,77.91,5.386Z"
        style="fill:#4873b8; stroke-width:0px;" />
    <path
        d="M1019.405,128.243c-21.56,19.625-43.12,41.49-64.68,65.307-1.2,1.328-1.2,3.608,0,5.72,21.56,37.95,43.12,77.852,64.68,119.993-66.197-34.567-132.393-48.017-198.59-48.696,28.57-19.83,57.14-37.282,85.71-51.683.027-.011.053-.023.08-.034.04-.022.08-.034.11-.068.17-.076.32-.176.46-.287.12-.086.241-.181.34-.291.22-.205.41-.426.55-.678.06-.088.11-.178.16-.267.08-.134.14-.262.19-.401.07-.175.13-.343.17-.525.03-.124.06-.248.07-.366.01-.018.011-.038.01-.058.01-.068.02-.136.03-.214.02-.166.03-.334.03-.504,0-42.17,0-84.34,0-126.51,36.893,7.591,73.787,20.297,110.68,39.563Z"
        style="fill:#4873b8; stroke-width:0px;" />
    <path
        d="M898.725,17.227v191.03c-254.487-46.07-508.973,145-763.46,98.924V116.15C389.752,162.227,644.239-28.844,898.725,17.227Z"
        style="fill:#4873b8; stroke-width:0px;" />
</svg>