<?xml version="1.0" encoding="UTF-8"?>
<svg id="Layer_1" xmlns="http://www.w3.org/2000/svg" viewBox="0 0 1024 277.56">
    <path
        d="M1022.721,85.86c1.705,1.75,1.705,4.56,0,6.32l-82.535,84.51c-.843.86-1.983,1.34-3.182,1.34H238.433v95.19c-.02.61-.159,1.2-.406,1.72-.248.55-.615,1.06-1.09,1.49-.198.17-.406.33-.634.47-.258.17-.535.3-.823.4h-.01l-.01.01c-.228.08-.466.14-.704.18l-.01.01c-.258.04-.515.06-.763.06H4.459c-1.675,0-3.202-.94-3.965-2.44s-.634-3.3.337-4.67l58.03-81.91L.831,106.64c-.971-1.37-1.1-3.17-.337-4.67s2.29-2.45,3.965-2.45h141.735V4.5c0-2.49,2.002-4.5,4.461-4.5h786.35c1.199,0,2.339.48,3.182,1.34l82.535,84.52ZM1013.274,89.02l-78.133-80.02H155.115v160.03h780.026l78.133-80.01ZM229.511,260.76v-82.73h-69.251l69.251,82.73ZM224.367,268.56l-77.112-92.12c-.169-.2-.327-.42-.456-.65-.059-.11-.119-.22-.169-.33-.01-.01-.01-.02-.01-.02-.059-.12-.109-.24-.149-.36-.05-.12-.089-.25-.119-.37-.04-.12-.059-.24-.089-.37,0-.02,0-.04-.01-.07-.02-.11-.03-.23-.04-.34-.01-.13-.02-.27-.02-.4v-65.01H13.133l54.838,77.41c1.11,1.56,1.11,3.67,0,5.23l-54.838,77.4h211.234Z"
        style="fill:#231f20; stroke-width:0px;" />
    <polygon points="229.511 178.03 229.511 260.76 160.26 178.03 229.511 178.03"
        style="fill:#e2cd71; stroke-width:0px;" />
    <polygon points="935.141 9 1013.274 89.02 935.141 169.03 155.115 169.03 155.115 9 935.141 9"
        style="fill:#feee8c; stroke-width:0px;" />
    <path
        d="M147.254,176.44l77.112,92.12H13.133l54.838-77.4c1.11-1.56,1.11-3.67,0-5.23L13.133,108.52h133.061v65.01c0,.13.01.27.02.4.01.11.02.23.04.34.01.03.01.05.01.07.03.13.05.25.089.37.03.12.069.25.119.37.04.12.089.24.149.36,0,0,0,.01.01.02.05.11.109.22.169.33.129.23.287.45.456.65Z"
        style="fill:#feee8c; stroke-width:0px;" />
</svg>