<?xml version="1.0" encoding="UTF-8"?>
<svg id="Layer_1" xmlns="http://www.w3.org/2000/svg" viewBox="0 0 1024.002 358">
    <path
        d="M1023.441,194.27c.85,1.65.73,3.64-.33,5.17l-51.89,75.35,51.89,75.35c1.06,1.53,1.18,3.52.33,5.17s-2.55,2.69-4.39,2.69h-311.82c-.18,0-.37-.01-.56-.04-.05,0-.11-.01-.17-.02-.11-.01-.22-.03-.33-.06-.03,0-.05-.01-.07-.02-.07-.01-.14-.03-.22-.06-.02,0-.05,0-.07-.02-.1-.02-.2-.05-.29-.09-.23-.08-.44-.18-.65-.3-.17-.09-.33-.19-.48-.3-.01,0-.01-.01-.02-.02-.07-.04-.13-.09-.19-.14-.01-.01-.03-.02-.04-.04-.13-.1-.25-.21-.37-.33-.14-.13-.26-.26-.37-.4-.06-.07-.11-.14-.16-.21-.17-.22-.3-.46-.43-.71-.04-.07-.07-.15-.1-.22-.1-.22-.18-.45-.25-.69-.04-.13-.07-.26-.09-.4-.03-.14-.05-.28-.06-.42-.02-.17-.03-.34-.03-.51v-90.8H170.131c-2.74,0-4.95-2.24-4.95-5v-90.79H4.951c-1.84,0-3.54-1.04-4.39-2.69s-.73-3.64.33-5.17l51.89-75.35L.891,7.85C-.169,6.32-.289,4.33.561,2.68S3.111,0,4.951,0h311.81c.23,0,.47.01.71.06.14.01.29.04.43.08.07.01.14.03.22.06.16.04.33.09.49.16.17.07.34.15.51.24,0,.01.01.01.01.01.17.09.34.2.5.32.07.04.14.09.2.15.28.22.54.47.77.76.06.07.11.14.16.21.09.11.16.22.22.34.19.3.34.62.46.96.04.11.07.21.1.32.07.26.13.54.15.82.02.17.03.34.03.51v90.79h532.15c2.74,0,4.95,2.24,4.95,5v90.8h160.23c1.84,0,3.54,1.03,4.39,2.68ZM961.131,271.94l48.44-70.35h-150.75v55.61c0,.19-.02.38-.04.57,0,.05-.01.09-.02.14-.01.13-.04.26-.06.39-.03.14-.07.29-.12.43-.04.11-.08.24-.12.35-.03.07-.06.14-.1.21l-.15.3c-.01.03-.02.05-.04.08-.06.1-.12.2-.19.3,0,.01,0,.02-.02.03-.03.05-.06.09-.09.13-.07.11-.16.22-.25.32-.05.07-.11.14-.18.2-.24.26-.51.49-.8.69-.02.02-.05.04-.08.06l-132.57,86.6h285.58l-48.44-70.35c-1.19-1.72-1.19-4,0-5.71ZM848.921,252.2V105.79H175.081v146.41h673.84ZM712.191,343.81l124.91-81.61h-124.91v81.61ZM311.811,95.79V14.19l-124.91,81.6h124.91ZM167.441,96.59L300.001,10H14.431l48.44,70.35c1.19,1.71,1.19,3.99,0,5.71L14.431,156.41h150.75v-55.62c0-.25.02-.5.06-.74.02-.14.04-.27.07-.4.01-.07.02-.14.05-.21.04-.14.08-.28.13-.41l.03-.06c.07-.19.16-.37.25-.55.21-.38.47-.74.76-1.06.12-.14.26-.27.41-.39.15-.13.32-.26.49-.37,0-.01.01-.01.01-.01Z"
        style="fill:#231f20; stroke-width:0px;" />
    <polygon points="311.811 14.19 311.811 95.79 186.901 95.79 311.811 14.19" style="fill:#e5d87a; stroke-width:0px;" />
    <polygon points="837.101 262.2 712.191 343.81 712.191 262.2 837.101 262.2"
        style="fill:#e5d87a; stroke-width:0px;" />
    <path
        d="M1009.571,201.59l-48.44,70.35c-1.19,1.71-1.19,3.99,0,5.71l48.44,70.35h-285.58l132.57-86.6c.03-.02.06-.04.08-.06.29-.2.56-.43.8-.69.07-.06.13-.13.18-.2.09-.1.18-.21.25-.32.03-.04.06-.08.09-.13.02-.01.02-.02.02-.03.07-.1.13-.2.19-.3.02-.03.03-.05.04-.08l.15-.3c.04-.07.07-.14.1-.21.04-.11.08-.24.12-.35.05-.14.09-.29.12-.43.02-.13.05-.26.06-.39.01-.05.02-.09.02-.14.02-.19.04-.38.04-.57v-55.61h150.75Z"
        style="fill:#fef48f; stroke-width:0px;" />
    <path
        d="M300.001,10l-132.56,86.59s-.01,0-.01.01c-.17.11-.34.24-.49.37-.15.12-.29.25-.41.39-.29.32-.55.68-.76,1.06-.09.18-.18.36-.25.55l-.03.06c-.05.13-.09.27-.13.41-.03.07-.04.14-.05.21-.03.13-.05.26-.07.4-.04.24-.06.49-.06.74v55.62H14.431l48.44-70.35c1.19-1.72,1.19-4,0-5.71L14.431,10h285.57Z"
        style="fill:#fef48f; stroke-width:0px;" />
    <rect x="175.081" y="105.79" width="673.84" height="146.41" style="fill:#fef48f; stroke-width:0px;" />
</svg>