<?xml version="1.0" encoding="UTF-8"?>
<svg id="Layer_1" xmlns="http://www.w3.org/2000/svg" viewBox="0 0 1024 355">
    <path
        d="M1023.439,195.817c.85,1.9.73,3.808-.33,4.953-17.297,18.842-34.593,38.614-51.89,59.229,17.297,28.685,34.593,58.109,51.89,88.364,1.06,1.846,1.181,3.834.33,5.171-.85,1.337-2.549,1.803-4.39,1.216-103.94-33.129-207.88-34.718-311.819-24.164-.18.018-.37.028-.56.017-.05.005-.11.001-.17-.002-.11.001-.22-.007-.33-.026-.03.003-.05-.005-.07-.013-.07-.003-.14-.015-.22-.037-.02.002-.05.005-.07-.013-.1-.009-.2-.029-.29-.059-.23-.056-.44-.133-.65-.231-.17-.072-.33-.154-.48-.248-.01,0-.01-.009-.02-.018-.07-.032-.13-.076-.19-.119-.01-.009-.03-.017-.04-.035-.13-.086-.25-.182-.37-.289-.14-.114-.26-.231-.37-.358-.06-.063-.11-.128-.16-.192-.17-.201-.3-.425-.43-.659-.04-.065-.07-.141-.1-.208-.1-.208-.18-.427-.25-.658-.04-.125-.07-.251-.09-.387-.03-.136-.05-.272-.06-.41-.02-.167-.03-.334-.03-.503v-90.065c-177.383,17.998-354.766,70.466-532.149,61.002-2.74-.146-4.95-2.549-4.95-5.345v-91.959c-53.41-3.399-106.82-12.494-160.23-29.917-1.84-.6-3.54-2.226-4.39-4.193-.85-1.967-.73-3.955.33-5.159,17.297-19.816,34.593-40.462,51.89-61.848C35.484,68.941,18.188,38.385.891,6.897-.169,4.976-.289,2.906.561,1.515,1.411.123,3.111-.349,4.951.263c103.936,34.58,207.873,37.623,311.809,28.523.23-.02.47-.031.71-.002.14-.002.29.015.43.043.07.004.14.018.22.041.16.026.33.061.49.118.17.055.34.121.51.196,0,.01.01.009.01.009.17.076.34.171.5.277.07.034.14.078.2.133.28.196.54.425.77.696.06.065.11.131.16.197.09.103.16.207.22.322.19.285.34.593.46.925.04.107.07.205.1.313.07.255.13.532.15.812.02.169.03.339.03.511v91.404c177.383-16.845,354.766-68.162,532.149-57.545,2.74.164,4.95,2.521,4.95,5.241,0,29.837,0,59.674,0,89.51,53.41,3.346,106.82,12.389,160.23,29.759,1.84.598,3.54,2.172,4.39,4.071ZM961.129,254.936c16.147-19.539,32.293-38.359,48.44-56.388-50.25-15.405-100.5-23.575-150.75-26.704,0,18.273,0,36.547,0,54.82,0,.188-.02.373-.04.56,0,.049-.01.088-.02.137-.01.128-.04.253-.06.381-.03.136-.07.282-.12.417-.041.106-.08.232-.12.338-.03.067-.06.134-.1.201-.05.096-.1.191-.15.287-.01.029-.02.048-.04.076-.06.095-.12.19-.19.285,0,.01,0,.02-.02.028-.03.048-.06.085-.09.123-.07.104-.161.207-.25.301-.049.066-.11.132-.18.187-.239.242-.51.454-.8.634-.02.018-.049.036-.08.055-44.19,25.944-88.38,55.91-132.57,88.41,95.193-8.382,190.386-5.703,285.579,22.935-16.147-27.836-32.293-54.97-48.44-81.475-1.19-1.944-1.19-4.183,0-5.606ZM848.919,221.203c0-48.129,0-96.258,0-144.387-224.613-11.907-449.226,74.052-673.838,62.144v148.238c224.613,10.623,449.226-76.619,673.838-65.996ZM712.189,316.023c41.637-31.021,83.273-59.91,124.91-85.423-41.637-1.328-83.273.59-124.91,4.505v80.918ZM311.81,125.685V43.501c-41.637,30.907-83.273,59.948-124.91,85.877,41.637,1.598,83.273-.048,124.91-3.693ZM167.441,129.2c44.187-26.433,88.373-56.589,132.56-88.979-95.19,7.125-190.38,3.19-285.569-26.704,16.147,28.96,32.293,57.13,48.44,84.581,1.19,2.003,1.19,4.322,0,5.806-16.147,20.244-32.293,39.858-48.44,58.769,50.25,15.493,100.5,23.753,150.75,26.97v-56.336c0-.253.02-.505.06-.746.02-.14.04-.271.07-.401.01-.07.02-.14.05-.209.04-.139.08-.279.13-.407.01-.02.02-.039.03-.059.07-.188.16-.364.25-.541.21-.371.47-.719.76-1.024.12-.134.26-.257.41-.369.15-.122.32-.243.49-.344,0-.01.01-.009.01-.009Z"
        style="fill:#231f20; stroke-width:0px;" />
    <path d="M311.81,43.501v82.183c-41.637,3.645-83.273,5.292-124.91,3.693,41.637-25.929,83.273-54.97,124.91-85.877Z"
        style="fill:#e5d87a; stroke-width:0px;" />
    <path d="M837.099,230.6c-41.637,25.512-83.273,54.402-124.91,85.423v-80.918c41.637-3.915,83.273-5.832,124.91-4.505Z"
        style="fill:#e5d87a; stroke-width:0px;" />
    <path
        d="M1009.569,198.548c-16.147,18.029-32.293,36.849-48.44,56.388-1.19,1.423-1.19,3.661,0,5.606,16.147,26.504,32.293,53.638,48.44,81.475-95.193-28.638-190.386-31.317-285.579-22.935,44.19-32.5,88.38-62.466,132.57-88.41.03-.018.06-.036.08-.055.29-.181.56-.392.8-.634.07-.055.13-.121.18-.187.09-.093.18-.196.25-.301.03-.038.06-.075.09-.123.02-.009.02-.018.02-.028.07-.094.13-.189.19-.285.02-.028.03-.047.04-.076.05-.096.1-.191.15-.287.04-.067.07-.134.1-.201.039-.106.08-.232.12-.338.05-.135.09-.28.12-.417.021-.127.05-.253.06-.381.01-.049.02-.088.02-.137.02-.187.04-.372.04-.56,0-18.273,0-36.547,0-54.82,50.25,3.129,100.5,11.3,150.75,26.704Z"
        style="fill:#fef48f; stroke-width:0px;" />
    <path
        d="M300,40.221c-44.187,32.39-88.373,62.547-132.56,88.979,0,0-.01,0-.01.009-.17.101-.34.222-.49.344-.15.112-.29.234-.41.369-.29.305-.55.653-.76,1.024-.09.176-.18.353-.25.541-.01.02-.02.039-.03.059-.05.128-.09.268-.13.407-.03.069-.04.139-.05.209-.03.13-.05.26-.07.401-.04.241-.06.492-.06.746v56.336c-50.25-3.217-100.5-11.477-150.75-26.97,16.147-18.911,32.293-38.525,48.44-58.769,1.19-1.485,1.19-3.803,0-5.806C46.724,70.647,30.578,42.478,14.431,13.517c95.19,29.893,190.38,33.828,285.569,26.704Z"
        style="fill:#fef48f; stroke-width:0px;" />
    <path
        d="M848.919,76.816c0,48.129,0,96.258,0,144.387-224.613-10.623-449.226,76.619-673.838,65.996v-148.238c224.613,11.907,449.226-74.052,673.838-62.144Z"
        style="fill:#fef48f; stroke-width:0px;" />
</svg>