<?xml version="1.0" encoding="UTF-8"?>
<svg id="Layer_1" xmlns="http://www.w3.org/2000/svg" viewBox="0 0 1024 346">
    <path
        d="M1023.471,7.287c.804,1.409.682,3.388-.299,5.137-17.208,30.683-34.453,61.196-51.726,91.539,17.273,22.497,34.519,44.705,51.726,66.643.981,1.249,1.103,3.168.299,4.987-.794,1.819-2.374,3.238-4.085,3.678-53.119,13.582-106.584,25.016-160.292,34.301v96.026c0,2.718-2.084,5.297-4.664,5.747-226.871,39.588-457.985,40.837-684.856,3.728-2.58-.42-4.664-3.038-4.664-5.837v-98.655c-53.708-9.125-107.182-20.409-160.301-33.831-1.711-.43-3.281-1.879-4.085-3.768-.794-1.889-.682-3.888.308-5.197,17.208-23.047,34.453-46.264,51.726-69.661C35.286,70.751,18.041,39.089.833,7.157-.158,5.338-.27,3.279.525,1.8,1.328.34,2.899-.309,4.609.141c103.172,26.805,207.681,45.495,312.695,56.069.159.02.318.04.477.08.075.02.14.03.215.05.065.01.122.03.187.05s.122.04.187.07c.075.02.14.04.215.08.159.06.308.13.458.21.168.09.336.18.495.29,0,.01.009.01.009.01.159.12.318.23.467.38.009,0,.009.01.019.01.047.03.084.06.122.1.093.08.178.17.262.26.065.08.131.15.196.22.112.13.215.26.308.4.065.09.131.19.187.29,0,.01.009.01.009.02.075.11.131.22.196.34.028.05.065.12.093.17.028.06.065.12.093.18.056.12.103.24.15.36.047.13.093.28.131.41.047.17.084.33.122.5.028.16.056.34.065.51.019.17.028.34.028.52v98.065c126.428,11.943,253.584,12.123,380.012.56V63.695c0-.16.009-.33.028-.5.009-.14.028-.28.056-.43.019-.14.056-.27.084-.4.028-.11.056-.21.093-.33.056-.16.112-.31.178-.47.009-.03.019-.05.037-.08.056-.12.122-.25.187-.36.009-.03.019-.05.028-.07.093-.17.206-.34.318-.51l.009-.01c.112-.16.234-.31.355-.46.056-.06.103-.12.159-.16.112-.13.224-.24.355-.34,0,0,0-.01.009-.01.009-.02.019-.03.028-.04h.009c.084-.07.159-.14.252-.21.084-.06.168-.12.262-.19.093-.06.178-.11.262-.16.103-.05.196-.1.28-.14.187-.1.374-.18.561-.24.093-.04.187-.07.28-.1l.393-.09c.15-.04.299-.06.458-.07.009-.01.019-.01.019-.01,105.014-9.435,209.513-26.985,312.676-52.641,1.711-.43,3.29.2,4.085,1.609ZM962.005,103.283c16.226-28.394,32.415-56.938,48.576-85.632-95.115,23.247-191.343,39.618-288.028,49.103,44.922,26.385,89.75,51.131,134.419,74.228h.009c.15.09.28.17.411.26.037.02.065.05.093.07.14.1.262.21.374.32.131.13.252.28.365.42s.215.3.308.46v.01c.093.16.168.33.243.51.065.16.122.34.168.52,0,.02.009.04.019.07.028.13.056.27.075.42.037.23.056.47.056.72v58.947c50.745-8.745,101.266-19.419,151.487-32.002-16.161-20.698-32.35-41.637-48.576-62.825-1.094-1.439-1.094-3.668,0-5.597ZM849.766,306.289v-155.033c-223.814,37.059-451.713,36.819-675.527-.72v159.171c223.814,36.16,451.713,35.02,675.527-3.418ZM838.662,143.201c-42.295-22.268-84.74-46.004-127.269-71.21v87.461c42.529-4.088,84.974-9.505,127.269-16.251ZM312.612,158.882v-88.84c-42.529,25.256-84.974,49.322-127.269,72.21,42.295,6.866,84.74,12.413,127.269,16.631ZM167.032,140.002c44.669-23.807,89.498-48.923,134.419-75.378C204.766,54.17,108.539,36.83,13.423,12.594c16.161,29.843,32.35,59.447,48.576,88.79,1.094,1.999,1.094,4.308,0,5.797-16.226,22.018-32.415,43.875-48.576,65.583,50.221,12.483,100.742,23.047,151.487,31.682v-60.556c0-.19.009-.37.028-.55.009-.09.019-.17.037-.24.009-.12.028-.24.065-.36.009-.05.019-.09.028-.14.037-.16.093-.31.15-.47,0-.02.009-.03.019-.05.065-.17.14-.34.234-.51v-.01c.084-.15.178-.29.28-.44.019-.03.047-.05.065-.08.084-.12.187-.23.29-.33.019-.03.037-.05.056-.06.103-.11.215-.21.336-.3.037-.04.075-.06.112-.08.131-.1.271-.19.411-.27h.009Z"
        style="fill:#231f20; stroke-width:0px;" />
    <path d="M711.393,71.99c42.529,25.206,84.974,48.943,127.269,71.21-42.295,6.746-84.74,12.163-127.269,16.251v-87.461Z"
        style="fill:#e2e26f; stroke-width:0px;" />
    <path d="M312.612,70.041v88.84c-42.529-4.218-84.974-9.765-127.269-16.631,42.295-22.887,84.74-46.954,127.269-72.21Z"
        style="fill:#e2e26f; stroke-width:0px;" />
    <path
        d="M1010.581,17.651c-16.161,28.694-32.35,57.238-48.576,85.632-1.094,1.929-1.094,4.158,0,5.597,16.226,21.188,32.415,42.126,48.576,62.825-50.221,12.583-100.742,23.257-151.487,32.002v-58.947c0-.25-.019-.49-.056-.72-.019-.15-.047-.29-.075-.42-.009-.03-.019-.05-.019-.07-.047-.18-.103-.36-.168-.52-.075-.18-.15-.35-.243-.51v-.01c-.093-.16-.196-.32-.308-.46s-.234-.29-.365-.42c-.112-.11-.234-.22-.374-.32-.028-.02-.056-.05-.093-.07-.131-.09-.262-.17-.411-.26h-.009c-44.669-23.097-89.498-47.843-134.419-74.228,96.685-9.485,192.913-25.856,288.028-49.103Z"
        style="fill:#f8f18b; stroke-width:0px;" />
    <path
        d="M301.452,64.625c-44.922,26.455-89.75,51.571-134.419,75.378h-.009c-.14.08-.28.17-.411.27-.037.02-.075.04-.112.08-.122.09-.234.19-.336.3-.019.01-.037.03-.056.06-.103.1-.206.21-.29.33-.019.03-.047.05-.065.08-.103.15-.196.29-.28.44v.01c-.093.17-.168.34-.234.51-.009.02-.019.03-.019.05-.056.16-.112.31-.15.47-.009.05-.019.09-.028.14-.037.12-.056.24-.065.36-.019.07-.028.15-.037.24-.019.18-.028.36-.028.55v60.556c-50.745-8.635-101.266-19.199-151.487-31.682,16.161-21.708,32.35-43.566,48.576-65.583,1.094-1.489,1.094-3.798,0-5.797C45.773,72.04,29.584,42.437,13.423,12.594c95.115,24.236,191.343,41.577,288.028,52.031Z"
        style="fill:#f8f18b; stroke-width:0px;" />
    <path
        d="M849.766,151.256v155.033c-223.814,38.439-451.713,39.578-675.527,3.418v-159.171c223.814,37.539,451.713,37.779,675.527.72Z"
        style="fill:#f8f18b; stroke-width:0px;" />
</svg>