<?xml version="1.0" encoding="UTF-8"?>
<svg id="Layer_2" xmlns="http://www.w3.org/2000/svg" viewBox="0 0 1024 278">
    <path
        d="M1023.473,2.76c.842,1.69.664,3.71-.456,5.23l-58.112,78.62,58.112,78.61c1.119,1.52,1.297,3.54.456,5.24-.842,1.69-2.555,2.75-4.427,2.75h-168.761v99.79c0,2.76-2.218,5-4.952,5H178.666c-2.733,0-4.952-2.24-4.952-5v-99.79H4.953c-1.872,0-3.585-1.06-4.427-2.75-.842-1.7-.664-3.72.456-5.24l58.112-78.61L.982,7.99C-.137,6.47-.315,4.45.527,2.76,1.368,1.06,3.082,0,4.953,0h312.586c.168,0,.337.01.505.03.099.01.198.02.297.04.089.01.188.03.277.05.218.05.436.11.644.2.158.05.317.12.465.2.01,0,.02.01.03.01.208.1.406.22.594.36.119.08.228.16.337.26.129.1.248.21.357.32.287.29.535.61.733.96.05.08.099.16.139.24.05.1.099.2.149.31.04.09.079.19.119.28.01.02.01.04.02.05.069.21.129.43.178.65.01.05.02.1.03.16.02.12.04.24.05.37.02.17.03.34.03.51v99.78h379.017V5c0-.17.01-.34.03-.51.01-.13.03-.25.05-.37.01-.06.02-.11.03-.16.03-.11.05-.21.079-.31s.05-.2.089-.3c0-.01.01-.03.01-.04.01-.01.01-.03.02-.05.01-.01.01-.03.02-.04.03-.08.069-.16.099-.24.05-.11.099-.21.149-.31.04-.08.089-.16.139-.24.099-.18.208-.34.337-.5.119-.16.257-.32.396-.46.109-.11.228-.22.357-.32.109-.1.218-.18.337-.26.02-.02.05-.03.069-.05.119-.08.238-.16.366-.23.05-.03.109-.05.158-.08.01,0,.02-.01.03-.01.069-.04.149-.08.228-.11.04-.02.079-.04.119-.05s.079-.03.119-.04c.208-.09.426-.15.644-.2.089-.02.188-.04.277-.05.099-.02.198-.03.297-.04.168-.02.337-.03.505-.03h312.586c1.872,0,3.585,1.06,4.427,2.76ZM954.755,83.62l54.418-73.62h-287.808l126.791,95.67c.109.08.218.17.327.26.119.1.238.2.347.31.525.53.921,1.16,1.159,1.85.05.13.099.27.129.41.01.01.01.03.01.04.02.07.04.14.05.22.03.1.05.21.059.32.01.06.02.13.02.19.02.17.03.35.03.52v53.42h158.888l-54.418-73.61c-1.307-1.78-1.307-4.21,0-5.98ZM840.382,268V114.78H183.618v153.22h656.764ZM711.412,104.78h119.027l-119.027-89.81v89.81ZM312.588,104.78V14.98l-119.027,89.8h119.027ZM175.844,105.67L302.635,10H14.827l54.418,73.62c1.307,1.77,1.307,4.2,0,5.98L14.827,163.21h158.888v-53.43c0-.05.01-.11.01-.16,0-.1,0-.21.01-.31,0-.04.01-.09.01-.13.02-.14.04-.27.069-.41.04-.16.079-.32.129-.48.03-.12.079-.24.129-.36.02-.09.059-.17.109-.26.04-.11.099-.21.158-.32.069-.14.158-.27.248-.4.178-.26.376-.49.594-.71.109-.11.218-.22.337-.31.109-.09.218-.18.327-.26Z"
        style="stroke-width:0px;" />
    <path
        d="M1009.173,10l-54.418,73.62c-1.307,1.77-1.307,4.2,0,5.98l54.418,73.61h-158.888v-53.42c0-.17-.01-.35-.03-.52,0-.06-.01-.13-.02-.19-.01-.11-.03-.22-.059-.32-.01-.08-.03-.15-.05-.22,0-.01,0-.03-.01-.04-.03-.14-.079-.28-.129-.41-.238-.69-.634-1.32-1.159-1.85-.109-.11-.228-.21-.347-.31-.059-.06-.129-.11-.188-.16l-.139-.1-126.791-95.67h287.808Z"
        style="fill:#fcf683; stroke-width:0px;" />
    <rect x="183.618" y="114.78" width="656.764" height="153.22" style="fill:#fcf683; stroke-width:0px;" />
    <polygon points="830.439 104.78 711.412 104.78 711.412 14.97 830.439 104.78"
        style="fill:#e2da76; stroke-width:0px;" />
    <polygon points="312.588 14.98 312.588 104.78 193.561 104.78 312.588 14.98"
        style="fill:#e2da76; stroke-width:0px;" />
    <path
        d="M302.635,10l-126.791,95.67-.139.1c-.059.05-.129.1-.188.16-.119.09-.228.2-.337.31-.218.22-.416.45-.594.71-.089.13-.178.26-.248.4-.059.11-.119.21-.158.32-.05.09-.089.17-.109.26-.05.12-.099.24-.129.36-.05.16-.089.32-.129.48-.03.14-.05.27-.069.41,0,.04-.01.09-.01.13-.01.1-.01.21-.01.31,0,.05-.01.11-.01.16v53.43H14.827l54.418-73.61c1.307-1.78,1.307-4.21,0-5.98L14.827,10h287.808Z"
        style="fill:#fcf683; stroke-width:0px;" />
</svg>