<?xml version="1.0" encoding="UTF-8"?>
<svg id="Layer_1" xmlns="http://www.w3.org/2000/svg" viewBox="0 0 1034 445.001">
    <g id="Arrow_27">
        <g id="Arrow_19">
            <g id="Arrow_33">
                <g id="Arrow_18">
                    <g id="Arrow_6">
                        <path
                            d="M607.2,444.459l424.06-214.81c1.66-.84,2.72-2.54,2.74-4.41v-.05c0-1.84-1.02-3.54-2.65-4.41L617.64.589c-1.55-.83-3.42-.78-4.93.13-1.5.9-2.42,2.53-2.42,4.28v102.42H5c-2.76,0-5,2.24-5,5v220.19c0,2.77,2.24,5,5,5h594.94v102.39c0,1.74.9,3.35,2.38,4.26,1.48.91,3.33.99,4.88.2ZM609.94,332.609c0-2.76-2.24-5-5-5H10V117.419h605.29c2.76,0,5-2.24,5-5V13.329l397.86,211.75-408.21,206.79v-99.26Z"
                            style="stroke-width:0px;" />
                        <path
                            d="M609.94,431.869v-99.26c0-2.76-2.24-5-5-5H10V117.419h605.29c2.76,0,5-2.24,5-5V13.329l397.86,211.75-408.21,206.79Z"
                            style="fill:#bfe0b9; stroke-width:0px;" />
                    </g>
                </g>
            </g>
        </g>
    </g>
</svg>