<?xml version="1.0" encoding="UTF-8"?>
<svg id="Layer_1" xmlns="http://www.w3.org/2000/svg" viewBox="0 0 1024 724">
    <g id="Arrow_27">
        <g id="Arrow_19">
            <g id="Arrow_33">
                <g id="Arrow_18">
                    <g id="Arrow_6">
                        <path
                            d="M1023.753,499.609c-1.039-31.09-5.066-61.984-12.062-92.1-6.987-30.106-16.943-59.415-29.637-87.378-25.368-55.945-61.76-106.388-106.066-147.794-44.288-41.434-96.454-73.814-152.479-94.8-28.004-10.521-56.944-18.212-86.275-22.972-29.321-4.769-59.023-6.615-88.557-5.622-29.544,1.039-58.846,4.908-87.388,11.597-28.542,6.68-56.304,16.162-82.795,28.241-52.982,24.131-100.74,58.719-139.916,100.775-39.194,42.047-69.768,91.525-89.532,144.565-9.901,26.516-17.129,53.913-21.583,81.663-1.8,11.17-3.146,22.396-4.036,33.641h23.763l-73.59,274.574L0,449.426h28.783c2.171-17.275,5.196-34.42,9.084-51.361,7.609-33.261,18.502-65.668,32.43-96.59,27.818-61.882,67.828-117.697,116.607-163.585,48.77-45.906,106.317-81.895,168.272-105.349,30.963-11.746,63.003-20.374,95.479-25.755C483.121,1.386,516.015-.758,548.676.235c32.652,1.03,65.147,5.214,96.834,12.516,31.678,7.302,62.549,17.73,91.99,31.034,58.93,26.59,112.061,64.796,155.708,111.323,43.685,46.528,77.868,101.378,100.091,160.356,11.125,29.485,19.291,59.971,24.366,90.866,5.085,30.895,7.08,62.189,6.087,93.278Z"
                            style="stroke-width:0px;" />
                    </g>
                </g>
            </g>
        </g>
    </g>
</svg>