<?xml version="1.0" encoding="UTF-8"?>
<svg id="Layer_1" xmlns="http://www.w3.org/2000/svg" viewBox="0 0 1024 997">
    <g id="Arrow_27">
        <g id="Arrow_19">
            <g id="Arrow_33">
                <g id="Arrow_18">
                    <g id="Arrow_6">
                        <path
                            d="M989.5,437.596c-1.005-27.231-4.897-54.291-11.659-80.668-6.753-26.369-16.376-52.04-28.645-76.532-24.52-49.001-59.694-93.183-102.518-129.45-42.806-36.291-93.226-64.652-147.378-83.033-27.067-9.215-55.039-15.952-83.388-20.12-28.34-4.177-57.048-5.794-85.594-4.924-28.555.91-56.878,4.299-84.464,10.158-27.587,5.851-54.42,14.156-80.025,24.736-51.209,21.136-97.37,51.43-135.234,88.266-37.882,36.828-67.433,80.164-86.536,126.622-9.569,23.225-16.556,47.221-20.86,71.526-1.74,9.784-3.04,19.617-3.901,29.465h22.968l-71.128,240.494L0,393.642h27.82c2.099-15.131,5.022-30.148,8.78-44.986,7.354-29.132,17.883-57.517,31.345-84.601,26.887-54.201,65.559-103.088,112.706-143.28,47.138-40.208,102.76-71.73,162.642-92.273,29.928-10.288,60.895-17.845,92.285-22.558,31.38-4.729,63.173-6.607,94.742-5.737,31.56.902,62.967,4.567,93.594,10.962,30.618,6.395,60.456,15.529,88.913,27.182,56.958,23.29,108.311,56.753,150.499,97.506,42.223,40.753,75.263,88.794,96.742,140.452,10.753,25.825,18.645,52.527,23.551,79.588,4.915,27.06,6.843,54.47,5.883,81.7Z"
                            style="stroke-width:0px;" />
                        <path
                            d="M34.5,559.404c1.005,27.231,4.897,54.291,11.659,80.668,6.753,26.369,16.376,52.04,28.645,76.532,24.52,49.001,59.694,93.183,102.518,129.45,42.806,36.291,93.226,64.652,147.378,83.033,27.067,9.215,55.039,15.952,83.388,20.12,28.34,4.177,57.048,5.794,85.594,4.924,28.555-.91,56.878-4.299,84.464-10.158,27.587-5.851,54.42-14.156,80.025-24.736,51.209-21.136,97.37-51.43,135.234-88.266,37.882-36.828,67.433-80.164,86.536-126.622,9.569-23.225,16.556-47.221,20.86-71.526,1.74-9.784,3.04-19.617,3.901-29.465h-22.968s71.128-240.494,71.128-240.494l71.137,240.494h-27.82c-2.099,15.131-5.022,30.148-8.78,44.986-7.354,29.132-17.883,57.517-31.345,84.601-26.887,54.201-65.559,103.088-112.706,143.28-47.138,40.208-102.76,71.73-162.642,92.273-29.928,10.288-60.895,17.845-92.285,22.558-31.38,4.729-63.173,6.607-94.742,5.737-31.56-.902-62.967-4.567-93.594-10.962-30.618-6.395-60.456-15.529-88.913-27.182-56.958-23.29-108.311-56.753-150.499-97.506-42.223-40.753-75.263-88.794-96.742-140.452-10.753-25.825-18.645-52.527-23.551-79.588-4.915-27.06-6.843-54.47-5.883-81.7Z"
                            style="stroke-width:0px;" />
                    </g>
                </g>
            </g>
        </g>
    </g>
</svg>