<?xml version="1.0" encoding="UTF-8"?>
<svg id="Layer_1" xmlns="http://www.w3.org/2000/svg" viewBox="0 0 1024 800">
    <g id="Arrow_27">
        <g id="Arrow_19">
            <g id="Arrow_33">
                <g id="Arrow_18">
                    <g id="Arrow_6">
                        <path
                            d="M822.561,350.355c-3.316-39.163-13.745-77.317-30.841-112.192-17.061-34.867-40.763-66.438-69.532-92.403-28.734-25.981-62.571-46.283-98.693-58.911-18.048-6.331-36.637-10.749-55.334-13.174-18.697-2.433-37.482-2.872-55.965-1.391-18.492,1.473-36.54,4.866-53.787,10.033-17.256,5.159-33.704,12.083-49.066,20.505-30.752,16.843-57.094,39.708-77.649,66.064-20.59,26.356-35.402,56.161-44.034,87.041-6.045,21.579-9.068,43.663-9.282,65.641l124.537.065v1.204l-201.528,116.334L0,322.616v-1.196l126.297.065c5.441-37.259,16.314-73.704,32.495-107.879,20.235-42.808,48.728-82.061,84.112-114.958,17.683-16.445,37.073-31.303,57.877-44.175,20.804-12.881,43.03-23.776,66.207-32.328,23.177-8.552,47.324-14.752,71.772-18.349,24.449-3.621,49.191-4.63,73.497-3.116,24.306,1.505,48.302,5.541,71.292,11.945,22.991,6.396,44.968,15.143,65.434,25.851,20.475,10.708,39.447,23.353,56.641,37.487,17.203,14.134,32.646,29.749,46.186,46.421,27.116,33.361,46.621,70.897,58.321,109.759,11.735,38.878,15.629,79.066,12.429,118.213Z"
                            style="stroke-width:0px;" />
                        <path
                            d="M1024,477.38v1.204l-126.297-.065c-5.432,37.259-16.314,73.712-32.495,107.871-20.226,42.816-48.72,82.069-84.112,114.958-17.674,16.453-37.073,31.303-57.877,44.175-20.804,12.881-43.021,23.776-66.207,32.328-23.177,8.552-47.315,14.752-71.772,18.357-24.449,3.613-49.191,4.63-73.488,3.108-24.306-1.505-48.311-5.533-71.292-11.937-23-6.396-44.977-15.151-65.442-25.859-20.475-10.708-39.438-23.353-56.641-37.487-17.203-14.134-32.637-29.749-46.186-46.421-27.116-33.361-46.621-70.897-58.321-109.759-11.735-38.878-15.629-79.067-12.429-118.213,3.316,39.163,13.745,77.325,30.85,112.192,17.052,34.867,40.754,66.438,69.532,92.403,28.734,25.981,62.562,46.283,98.684,58.911,18.056,6.33,36.646,10.749,55.334,13.182,18.697,2.433,37.482,2.864,55.974,1.383,18.483-1.473,36.531-4.866,53.787-10.033,17.247-5.159,33.695-12.075,49.066-20.505,30.752-16.843,57.094-39.708,77.649-66.056,20.59-26.364,35.402-56.169,44.025-87.049,6.045-21.579,9.077-43.655,9.291-65.641l-124.546-.065v-1.204l201.537-116.334,201.377,116.553Z"
                            style="stroke-width:0px;" />
                    </g>
                </g>
            </g>
        </g>
    </g>
</svg>