<?xml version="1.0" encoding="UTF-8"?>
<svg id="Layer_1" xmlns="http://www.w3.org/2000/svg" viewBox="0 0 784 1024">
    <g id="Arrow_27">
        <g id="Arrow_19">
            <g id="Arrow_33">
                <g id="Arrow_18">
                    <g id="Arrow_6">
                        <path
                            d="M782.273,998.874c-5.636,17.634-23.531,27.921-41.244,24.459-94.284-18.138-185.287-55.057-265.822-108.383-211.307-136.579-337.669-383.746-339.538-633.848-.075-10.054-8.193-18.18-18.246-18.18H18.299c-16.269,0-24.417-19.67-12.915-31.177L231.695,5.351c7.304-7.307,19.209-7.105,26.261.446l211.454,226.393c10.903,11.673,2.626,30.731-13.346,30.731h-116.021c-9.106,0-16.874,6.702-18.096,15.726-27.57,203.681,55.199,419.405,215.558,552.519,63.829,54.252,139.413,96.164,221.378,122.313,18.982,6.079,29.469,26.411,23.39,45.394Z"
                            style="stroke-width:0px;" />
                    </g>
                </g>
            </g>
        </g>
    </g>
</svg>