<?xml version="1.0" encoding="UTF-8"?>
<svg id="Layer_1" xmlns="http://www.w3.org/2000/svg" viewBox="0 0 1024 315">
    <path
        d="M1023.39,142.108c4.4,33.167-57.73,81.295-77.51,97.673-22.14,16.938-96.09,79.328-122.101,64.876-16.59-7.296-19.99-31.021-6.39-42.888,18.31-13.494,39.89-22.906,58.56-36.271,25.3-17.606,47.68-34.973,69.41-54.007-67.85,2.385-135.681,5.33-203.561,6.987-160.761,2.805-321.341,11.728-482.022,17.037.04-.04.07-.08.1-.13-.14.05-.29.1-.44.14.11,0,.23,0,.34-.01-2.75,3.613-5.69,7.116-8.27,10.72-12.09,15.451-25,30.242-37.95,44.974-13.68,15.82-26.94,32.049-41.88,46.711-2.31,2.725-4.5,5.539-6.59,8.434-7.16,9.921-22.08,11.348-31.52,4.052-7.12-5.39-10.4-15.131-7.94-23.715,2.44-7.416,8.14-13.175,11.65-20.102,15.14-26.1,35.69-48.617,57.78-69.158-17.04.449-34.09.838-51.14,1.158-13.92,20.9-40.1,43.746-48.21,52.32-10.58,10.56-22.19,19.882-34.22,28.685-8.77,11.189-25.24,15.6-36.08,4.641-10.41-10.001-7.14-26.22,3.33-34.813,6.32-7.546,11.46-16.029,18.46-23.026,5-5.31,16.24-16.079,29.44-27.368-12.25-.13-24.5-.349-36.75-.719-10.55-.798-22.44,1.238-31.34-5.639-14.68-10.46-9.43-35.283,7.99-39.574,13.79-.389,27.59-.798,41.38-1.208-9.38-8.224-18.15-17.167-25.87-26.949-6.09-8.214-13.59-16.858-14.01-27.547-.05-8.035,7.26-14.123,15.13-13.175,10.29,1.777,18.56,9.143,27.25,14.432,7.67,4.99,15.54,9.672,23.48,14.213,16.5,9.642,33.55,18.445,49.29,29.324,3.81,2.565,7.97,4.611,11.78,6.947,7.4-.23,14.79-.479,22.18-.729-17.53-14.033-33.9-29.583-49.16-45.902-7.49-9.103-17.29-18.295-19.03-30.452-1.48-10.001,8.43-18.714,18.2-15.9,14.25,5.13,25.66,16.079,38.44,23.994,32.61,23.176,65.8,45.723,100.8,65.165,219.581-7.825,439.352-17.027,658.962-22.986,6.82-.24,13.64-.459,20.46-.679-34.12-24.473-67.96-49.416-101.5-74.647-10.41-8.893-24.98-15.191-30.83-28.106-3.44-9.282,4.47-19.513,14.3-18.864,11.98,1.707,22.13,9.891,32.87,15.041,27.46,15.081,53.95,31.859,80.65,48.238,16.14,9.881,32.3,19.722,48.16,30.033,13.65,9.652,29.25,17.497,40.14,30.412,4.27,5.859,5.18,12.386,3.78,18.355Z"
        style="fill:#010101; stroke-width:0px;" />
    <path d="M259.877,195.386c-.03.05-.06.09-.1.13-.11.01-.23.01-.34.01.15-.04.3-.09.44-.14Z"
        style="fill:#010101; stroke-width:0px;" />
    <path d="M259.877,195.386c-.03.05-.06.09-.1.13-.11.01-.23.01-.34.01.15-.04.3-.09.44-.14Z"
        style="fill:#010101; stroke-width:0px;" />
</svg>