<?xml version="1.0" encoding="UTF-8"?>
<svg id="Layer_1" xmlns="http://www.w3.org/2000/svg" viewBox="0 0 1024 121">
    <path
        d="M975.857,65.482h-32.133v-9.96h32.133v9.96ZM911.591,65.482h-32.132v-9.96h32.132v9.96ZM847.326,65.482h-32.133v-9.96h32.133v9.96ZM783.06,65.482h-32.133v-9.96h32.133v9.96ZM718.795,65.482h-32.133v-9.96h32.133v9.96ZM654.529,65.482h-32.133v-9.96h32.133v9.96ZM590.262,65.482h-32.133v-9.96h32.133v9.96ZM525.997,65.482h-32.133v-9.96h32.133v9.96ZM461.731,65.482h-32.133v-9.96h32.133v9.96ZM397.466,65.482h-32.133v-9.96h32.133v9.96ZM333.199,65.482h-32.133v-9.96h32.133v9.96ZM268.934,65.482h-32.133v-9.96h32.133v9.96ZM204.668,65.482h-32.133v-9.96h32.133v9.96ZM140.402,65.482h-32.133v-9.96h32.133v9.96Z"
        style="stroke-width:0px;" />
    <rect x="1007.99" y="55.521" width="16.01" height="9.96" style="stroke-width:0px;" />
    <polygon points="76.137 55.52 76.137 65.48 69.436 65.48 69.436 121 0 60.5 69.436 0 69.436 55.52 76.137 55.52"
        style="stroke-width:0px;" />
</svg>