<?xml version="1.0" encoding="UTF-8"?>
<svg id="Layer_1" xmlns="http://www.w3.org/2000/svg" viewBox="0 0 1024 100">
    <path
        d="M1024,49.996c0,1.7-.866,3.28-2.299,4.194l-70.804,45.035c-.826.527-1.751.775-2.667.775-1.642,0-3.244-.815-4.2-2.296-1.483-2.306-.796-5.387,1.523-6.858l56.405-35.881H4.976c-2.747,0-4.976-2.226-4.976-4.97s2.229-4.97,4.976-4.97h996.982l-56.405-35.871c-2.319-1.481-3.005-4.552-1.523-6.868,1.473-2.306,4.568-2.972,6.866-1.521l70.804,45.035c1.433.914,2.299,2.495,2.299,4.194Z"
        style="stroke-width:0px;" />
</svg>