<?xml version="1.0" encoding="UTF-8"?>
<svg id="Layer_1" xmlns="http://www.w3.org/2000/svg" viewBox="0 0 1024 100">
    <path
        d="M1024,49.999c0,.17-.01.34-.03.51-.01.14-.03.29-.06.43-.02.1-.04.2-.07.3-.04.18-.1.35-.17.52-.02.07-.04.13-.07.19-.06.14-.13.28-.2.42-.08.14-.17.28-.26.41-.07.1-.14.2-.21.29-.05.07-.1.13-.16.19-.06.07-.12.14-.19.21-.24.25-.51.47-.8.66-.02.02-.05.04-.08.06l-70.8,45.041c-.83.52-1.75.77-2.67.77-1.64,0-3.24-.81-4.2-2.29-1.48-2.31-.8-5.39,1.52-6.86l56.41-35.881H22.04l56.41,35.881c2.32,1.47,3,4.55,1.52,6.86-.96,1.48-2.56,2.29-4.2,2.29-.92,0-1.84-.25-2.67-.77L2.3,54.189c-.03-.02-.06-.04-.08-.06-.29-.19-.56-.41-.8-.66-.07-.07-.13-.14-.19-.21-.06-.06-.12-.13-.16-.19-.07-.09-.14-.19-.21-.29-.1-.13-.18-.27-.26-.41-.07-.14-.14-.28-.2-.42-.03-.06-.05-.12-.07-.19-.07-.17-.13-.34-.17-.52-.03-.1-.05-.2-.07-.3-.03-.14-.05-.29-.06-.43-.02-.17-.03-.34-.03-.51s.01-.34.03-.51c.01-.14.03-.29.06-.43.02-.1.04-.2.07-.3.04-.18.1-.35.17-.52.02-.07.04-.13.07-.19.06-.14.13-.28.2-.42.08-.14.16-.27.25-.4.09-.14.19-.26.29-.39.1-.12.21-.24.32-.35.22-.23.47-.43.74-.61.03-.03.06-.06.1-.08L73.1.767c2.3-1.45,5.4-.79,6.87,1.52,1.48,2.32.8,5.39-1.52,6.87L22.04,45.028h979.92l-56.41-35.871c-2.32-1.48-3-4.55-1.52-6.87,1.47-2.31,4.57-2.97,6.87-1.52l70.8,45.031c.04.02.07.05.1.08.27.18.52.38.74.61.11.11.22.23.32.35.1.13.2.25.29.39.09.13.17.26.25.4.07.14.14.28.2.42.03.06.05.12.07.19.07.17.13.34.17.52.03.1.05.2.07.3.03.14.05.29.06.43.02.17.03.34.03.51Z"
        style="stroke-width:0px;" />
    <path d="M1022.54,46.488c-.22-.23-.47-.43-.74-.61.27.17.52.37.74.61Z" style="stroke-width:0px;" />
    <path d="M2.2,45.878c-.27.18-.52.38-.74.61.22-.24.47-.44.74-.61Z" style="stroke-width:0px;" />
</svg>