<?xml version="1.0" encoding="UTF-8"?>
<svg id="Layer_1" xmlns="http://www.w3.org/2000/svg" viewBox="0 0 1024 307">
    <path
        d="M1023.39,142.195c4.4,33.187-57.73,81.345-77.51,97.734-22.14,16.948-96.09,79.377-122.1,64.916-16.59-7.301-19.99-31.04-6.39-42.914,18.31-13.503,39.89-22.92,58.56-36.293,25.3-17.617,47.68-34.995,69.41-54.04-67.85,2.387-135.69,5.333-203.561,6.991-212.701,3.715-425.102,18.147-637.812,20.743-21.36-.06-42.74-.25-64.1-.899-10.55-.799-22.44,1.238-31.34-5.643-14.68-10.466-9.43-35.304,7.99-39.599,299.301-8.479,599.212-22.661,898.823-30.79,6.82-.24,13.64-.459,20.46-.679-34.12-24.488-67.96-49.446-101.5-74.693-10.41-8.899-24.98-15.2-30.84-28.124-3.43-9.288,4.48-19.525,14.31-18.876,11.98,1.708,22.13,9.897,32.86,15.051,27.47,15.09,53.96,31.879,80.66,48.267,16.13,9.887,32.29,19.734,48.16,30.051,13.65,9.657,29.25,17.507,40.14,30.431,4.27,5.862,5.18,12.394,3.78,18.366Z"
        style="fill:#010101; stroke-width:0px;" />
</svg>