<?xml version="1.0" encoding="UTF-8"?>
<svg id="Layer_1" xmlns="http://www.w3.org/2000/svg" viewBox="0 0 1024 308">
    <path
        d="M1023.171,149.727c2.877,33.21-59.323,78.684-79.174,94.212-22.174,16.002-96.474,75.247-121.132,59.838-15.814-7.93-18.143-31.687-4.463-42.974,18.317-12.723,39.633-21.251,58.305-33.83,25.268-16.544,47.693-32.965,69.554-51.071-65.956-.301-131.906-.034-197.852-1.051-206.581-4.651-413.294,1.358-619.849-4.417-18.302-.791-36.609-1.692-54.894-2.9,20.716,20.299,42.106,38.842,66.446,57.764,17.578,14.047,38.14,24.271,55.363,38.433,12.718,12.356,8.456,35.846-7.941,42.472-25.829,13.375-95.069-51.693-115.87-69.426C53.131,219.684-5.197,169.309.4,136.432c-1.117-6.001.031-12.467,4.413-18.136,11.093-12.448,26.551-19.649,40.19-28.727,15.811-9.647,31.903-18.815,47.958-28.014,26.577-15.266,52.967-30.939,80.229-44.883,10.633-4.718,20.815-12.462,32.511-13.692,9.567-.27,16.829,10.232,13.114,19.353-6.201,12.636-20.597,18.337-31.061,26.777-34.535,24.495-69.369,48.689-104.474,72.354,278.324,2.727,557.335.75,835.86,4.272,6.629.029,13.257.079,19.884.128-32.122-25.72-63.953-51.897-95.481-78.35-9.743-9.258-23.628-16.114-28.792-29.2-2.952-9.391,5.14-19.272,14.654-18.239,11.557,2.181,21.077,10.723,31.281,16.285,26.049,16.093,51.077,33.857,76.316,51.222,15.264,10.468,30.548,20.906,45.533,31.8,12.856,10.151,27.678,18.579,37.723,31.883,3.906,6.014,4.524,12.562,2.913,18.462Z"
        style="fill:#010101; stroke-width:0px;" />
</svg>