<?xml version="1.0" encoding="UTF-8"?>
<svg id="Layer_1" xmlns="http://www.w3.org/2000/svg" viewBox="0 0 1024 170">
    <path
        d="M1019.861,72.444c-.21-.43-.44-.85-.71-1.27-3.49-5.35-9.23-8.38-14.09-12.33-13.89-10.41-28.35-20.05-42.32-30.36-7.41-5.47-14.87-10.88-22.39-16.2-3.69-2.61-7.43-5.16-11.3-7.49-4.03-2.43-8.45-5.26-13.35-4.73-3.89.42-6.98,4.79-5.68,8.59,1.5,4.39,5.22,7.61,8.37,10.87,16.34,16.96,34.01,32.45,51.98,47.619-8.39-.11-16.8,0-25.19.01-138.35-.42-276.66,4.26-415.011,2.02-116.52-2.14-233.09-6.2-349.531.57-2.71-5.87-7.75-11.05-13.86-15.02-11.24-8.85-23.13-16.89-35.25-24.49-12.92-9.87-38.39-19-42,4.33-1.01,8.47-.92,17.03-1.49,25.55v.17c-15.84-8.76-32.01-16.99-48.34-24.78-3.72-1.71-7.45-3.4-11.22-5-3.08-1.2-6.39-2.74-9.73-2.76-3.29-2.98-8.48-2.73-11.63.34C-2.57,37.664.01,93.683,1.32,108.723c1.39,10.4,1.06,30.23,11.05,35.999,2.48,1.49,5.38,1.93,8.14,1.48,8.3,7.07,18.09-.47,25.68-6.23,10-6.89,19.44-14.53,28.43-22.68,2.08-1.98,4.7-4.31,7.52-6.88.1,8.3,1.75,15.73,6.45,21.04.01.09.03.18.05.28,1.29,6.12,6.65,11.62,13.03,12.34,22.54-.31,65.57-32.14,76.87-51.599,6.91.5,13.92.11,20.84.25,26.97-.22,53.94-.97,80.92-1.08,80.44-.77,160.85,3.14,241.27,4.44,139.72,2.95,279.45-.77,419.191-.45,12.16-.09,24.34.26,36.49-.28-2.19,1.69-4.37,3.4-6.54,5.11-13.32,10.35-26.07,21.4-38.66,32.609-4.82,4.15-9.46,8.48-13.99,12.94-5.55,5.29-5.33,14.54,0,19.87,11.66,10.91,23.3-2.45,32.06-10.17,11.82-10.98,23.61-22,35.76-32.629,6.33-5.65,12.64-11.31,18.74-17.21,4.32-4.48,9.65-8.84,12.89-14.28,7.91-3.49,8.46-14.19,2.35-19.15ZM31.63,118.573c-.85.53-1.72,1.07-2.59,1.63-.89-6.37-1.56-12.78-2.12-19.18-.89-14.72-1.02-29.5-1.85-44.229-.22-2.35-.3-4.8-.4-7.28,1.01.66,1.97,1.33,2.87,2.02,15.54,10.26,31.37,20.06,47.04,30.1-12.98,13.75-27.37,26.19-42.95,36.939ZM104.66,119.973c3.58-22.54,11.18-44.409,11.96-67.379,13.24,8.49,26.27,17.3,38.8,26.79-13.44,17.14-32.57,29-50.76,40.589Z"
        style="fill:#010101; stroke-width:0px;" />
</svg>