<?xml version="1.0" encoding="UTF-8"?>
<svg id="Layer_1" xmlns="http://www.w3.org/2000/svg" viewBox="0 0 1024 600">
    <path
        d="M1023.984,114.123c.857,28.375-32.799,58.54-50.072,79.523-17.887,20.26-35.703,40.228-53.047,60.865-10.817,12.856-21.491,25.907-32.91,38.241-6.108,7.932-10.541,11.178-23.737,17.176-20.286,5.442-41.685,2.999-45.321-20.797-2.106-22.175-5.592-44.454-6.298-66.759-24.526,2.944-48.894,6.851-73.126,11.69-190.797,36.847-373.732,111.949-534.503,220.154-60.059,39.863-114.349,87.254-169.757,133.095-5.186,3.64-10.222,9.345-16.429,11.045h-.007c-3.702,1.98-7.874,2.403-12.747-.026-20.248-13.044,16.357-48.863,23.865-62.91,32.237-43.822,67.671-85.411,106.252-123.834C295.042,257.064,496.505,142.732,713.227,92.501c13.538-2.892,27.168-5.373,40.915-7.092,8.214-.15,19.084-3.654,29.241-5.282-3.192-6.376-3.558-14.419-3.708-21.511-.425-10.244-.477-20.514.216-30.752.438-6.271,1.092-13.624,5.415-18.56,2.708-3.504,6.834-5.405,11.033-5.581,3.813-3.341,9.81-4.878,16.933-2.735,19.464,5.027,37.685,13.839,55.52,22.911,44.663,22.09,91.497,39.589,135.924,62.207,10.7,5.269,19.123,15.799,19.267,28.017Z"
        style="fill:#010101; stroke-width:0px;" />
</svg>