<?xml version="1.0" encoding="UTF-8"?>
<svg id="Layer_1" xmlns="http://www.w3.org/2000/svg" viewBox="0 0 1024 285">
    <path
        d="M1022.57,153.557c-10.41-30.676-29.2-45.814-44.36-65.363-19.24-20.637-37.43-46.383-57.5-63.307-13.39-2.195-10.2,22.612-1.18,31.973,18.39,28.021,37.64,53.677,56.24,81.089-13.46-.439-26.92-.748-40.38-.978-260.229-1.227-520.539-8.492-780.738-.03-2.83.259-5.73-.1-8.59.19-16.93-55.044-45.53-99.072-74.89-123.361C3.002-45.115-32.827,100.539,40.682,155.383c-7.04,7.454-13.8,16.186-19.66,27.103-15.68,28.111-18.65,77.297,2.57,97.665,23.96,19.379,59.92-24.159,81.69-45.644,12.49-13.322,25.26-25.546,37.36-40.325,4.24-5.518,9.47-10.588,12.26-19.299,275.839,3.582,551.729,3.383,827.578,9.55-15.14,15.078-31.47,25.836-46.7,40.435-9,8.662-26.3,13.332-22.47,41.163,5.49,29.518,22.08,9.051,32.1,2.335,17.97-14.16,35.15-26.185,53.19-42.351,13.25-12.424,30.51-38.918,23.97-72.458ZM81.332,209.041c-13.83,13.342-27.67,30.406-43.23,33.12-15.01,1.826-6.37-19.978.04-30.636,5.6-8.881,11.78-16.086,18.24-22.084,5.48-4.69,11.13-8.372,16.87-11.486,4.24-2.006,8.57-5.928,10.42-14.46,2.23-8.412.71-19.599-2.76-25.556-2.48-4.271-5.84-5.449-8.86-7.494-13.85-10.248-52.34-27.183-49.35-66.53,11.39-38.848,45.77-5.848,60.46,10.328,18.4,20.657,34.2,48.947,49.04,78.864-16.67,19.689-33.89,37.371-50.87,55.932Z"
        style="fill:#010101; stroke-width:0px;" />
</svg>
