<?xml version="1.0" encoding="UTF-8"?>
<svg id="Layer_1" xmlns="http://www.w3.org/2000/svg" viewBox="0 0 1024 713">
    <path
        d="M299.169,676.345c93.749-7.875,155.818-106.29,150.196-195.134-8.481-101.624-98.845-174.053-187.295-210.644-66.178,59.099-110.609,145.606-104.168,235.656,5.443,76.385,52.733,174.257,141.267,170.122ZM750.588,614.85c83.911-4.326,156.105-81.978,148.635-166.662-11.74-113.108-109.371-198.599-209.753-239.355-50.149,72.997-85.053,160.532-81.584,250.146,3.618,83.125,48.857,164.475,142.702,155.871ZM1023.546,47.399c5.472,32.714-39.964,73.703-61.381,95.661-5.204,5.031-10.496,9.984-15.879,14.824-3.116,2.587-6.052,5.539-9.186,8.192-1.842,1.793-3.714,3.537-5.622,5.252-10.484,9.387-24.988,18.702-39.401,12.84-10.192-4.876-16.531-15.153-21.98-24.629-9.007-16.091-18.056-32.164-26.328-48.643-1.429-3.161-3.588-7.577-6.154-12.841-46.501,15.159-89.126,39.394-122.116,78.333,105.352,43.498,201.948,131.965,224.801,247.093,19.51,94.537-40.819,194.058-132.295,223.455-135.435,43.737-230.65-44.873-238.605-179.138-6.387-97.148,29.33-192.875,81.704-273.425-120.011-40.684-259.699-23.99-361.366,53.262,73.384,31.471,142.002,83.251,177.343,156.379,65.083,126.612-28.989,313.768-178.796,308.893-105.741-6.525-161.165-122.441-162.343-217.157-2.422-89.214,38.564-175.32,101.267-237.509-52.577-16.623-108.139-23.846-163.168-19.299-13.983,1.434-27.865,3.083-41.669,5.808-6.154.508-11.866,5.85-17.96,2.408-27.458-27.121,81.698-33.042,95.896-33.962,51.56-2.964,103.193,6.107,152.403,21.092,114.204-99.509,282.091-123.284,423.34-73.171,37.416-47.406,88.408-80.52,144.676-99.658-9.784-23.368-17.147-47.358-9.97-56.548,1.89-2.408,4.563-3.902,7.41-4.356.012-.006.024-.006.036-.006,4.037-.98,8.541-.418,12.578-.06,4.282.382,8.558.812,12.835,1.272,23.845,2.599,47.763,4.505,71.584,7.272,23.66,2.725,47.302,5.754,70.664,10.402,17.948,2.928,34.073,7.577,37.685,27.963Z"
        style="fill:#010101; stroke-width:0px;" />
</svg>