<?xml version="1.0" encoding="UTF-8"?>
<svg id="Layer_1" xmlns="http://www.w3.org/2000/svg" viewBox="0 0 1024 211">
    <path
        d="M882.183,69.189c-131.812-1.557-263.579-6.265-395.411-6.418-114.347-1.683-228.636,5.768-342.932,4.329-6.283-.533-13.237-.005-18.612-3.77-5.507-4.246-5.276-13.555,1.094-16.962,8.404-3.856,18.2-2.623,27.218-3.51,204.971-13.851,410.408-17.053,615.739-10.306,16.992.465,33.963,1.133,50.945,1.93,20.649.968,41.304,1.738,61.959,2.508,4.316.16,8.322,1.631,11.415,4.716,10.043,9.4,2.575,28.076-11.415,27.483Z"
        style="fill:#010101; stroke-width:0px;" />
    <path
        d="M899.857,148.609c-131.352-3.608-262.774-4.969-394.129-8.136-113.929.363-227.813,3.818-341.72,5.683-6.874.005-13.759.075-20.628-.177-9.661,0-25.022-1.155-22.436-14.587,3.214-10.935,18.804-9.541,27.915-11.175,8.193-.861,16.408-1.567,24.617-2.241,117.205-8.822,234.792-11.985,352.294-13.352,98.629,1.955,197.278,3.379,295.918,5.251,26.882.51,53.805.883,80.64,2.513,3.839.262,7.759,2.502,10.429,5.165,11.353,11.051,3.129,31.255-12.901,31.055Z"
        style="fill:#010101; stroke-width:0px;" />
    <path
        d="M924.82,206.222c-8.609-8.507-4.371-20.79,4.141-27.543,17.451-24.424,46.462-40.658,58.872-68.662-20.754-28.87-44.274-56.819-59.244-89.248-1.995-6.491,1.893-14.336,8.667-15.995,17.009-2.499,26.879,22.517,37.619,32.71,8.939,11.256,17.866,22.522,26.937,33.671,13.668,15.007,28.885,33.697,19.054,54.93-11.777,27.172-35.234,47.121-56.083,67.399-11.608,7.663-25.93,26.223-39.963,12.737Z"
        style="fill:#010101; stroke-width:0px;" />
    <path
        d="M75.894,207.035c-4.178-4.054-9.752-6.02-14.338-9.449-8.669-7.46-16.917-15.406-25.111-23.383-12.568-12.684-25.107-26.047-32.73-42.37-6.26-12.944-4.582-27.918,4.82-38.89,13.374-17.092,29.056-32.235,43.712-48.214,7.796-8.325,15.454-16.8,23.459-24.934,6.647-6.581,13.165-13.766,21.47-18.27,4.723-2.722,11.71-1.951,14.022,3.523,3.019,8.351-3.135,16.643-6.928,23.73-11.339,18.695-24.731,36.06-38.194,53.267-9.218,11.577-18.192,23.378-28.306,34.198,12.176,20.852,31.793,35.976,48.757,52.767,4.093,4.18,6.387,9.781,10.858,13.656,13.901,14.748-5.159,36.333-21.491,24.367Z"
        style="fill:#010101; stroke-width:0px;" />
</svg>