<?xml version="1.0" encoding="UTF-8"?>
<svg id="Layer_1" xmlns="http://www.w3.org/2000/svg" viewBox="0 0 1023.998 211">
    <path
        d="M1015.839,150.571c-3.15,11.448-6.74,22.777-10.23,32.876-4.3,14.068-7.23,30.866-26.37,26.986-20.63-6.669-10.37-27.446-6.83-42.224,3.24-12.138,6.04-24.477,7.87-36.935-8.88,7.069-18.03,13.798-27.86,19.567-78.02,49.213-167.23,17.998-228.03-43.064-24.61-22.517-47.19-49.933-79.57-61.282-52.86-17.408-109.6,8.819-148.86,44.174-54.85,53.993-81.57,113.164-171.22,105.286-90.37-1.98-125.93-88.718-197.18-90.798-39.98-.12-75.86,23.157-101.19,52.693-12.28,19.917-34.96,14.568-22.98-10.049,30.87-59.782,107.37-97.417,172-71.3,62.29,26.836,102.56,91.427,177.93,83.819,49.64-.8,74.46-48.383,103.78-80.999,15.22-17.308,32.7-32.666,52-45.274,218.38-130.452,240.95,160.958,408.1,91.288,13.5-7.109,25.85-16.088,38.49-24.587-13.3-2.64-26.65-5.359-38.28-7.779-12.9-2.9-26.23-4.379-38.65-9.069-17-6.289-11.94-27.986,6.36-25.047,29.76,1.08,59.49,2.82,89.13,5.749,13.52,1.83,29.63.43,39.88,10.998,18,20.517,6.87,51.353,1.71,74.97Z"
        style="fill:#010101; stroke-width:0px;" />
</svg>