<?xml version="1.0" encoding="UTF-8"?>
<svg id="Layer_1" xmlns="http://www.w3.org/2000/svg" viewBox="0 0 1024 954">
    <path
        d="M1012.214,878.905c-8.36,17.14-18.01,33.56-28.86,49.25-12.25,17.91-28.1,33.79-50.85,21.5-12.67-7.44-19.37-24.75-12.79-38.45,8.5-20.61,22.04-39.38,30.08-60.17-57.65,8.34-115.14,17.73-172.849,25.75-106.37,14.33-213.469,25.65-320.889,26.36-135.37-2.54-291.649-12.35-391.989-114.43-88.7-88.81-80.19-227.84-5.84-322.73C214.447,267.906,472.596,154.746,710.505,87.896c10.98-2.04,34.52-8.76,61.77-15.67-42.48-5.35-85.55-11.98-111.17-31.61-27.17-62.59,83.96-33.64,115.36-35.66,96.12,6.87,191.699,10.1,143.52,136-12.75,32.67-31.29,62.68-48.4,93.19-8.02,21.96-31.79,37.76-53.92,24.63-23.64-13.28-18.49-41.78-5.22-60.72,15.5-33.01,34.46-65.74,42.12-101.63-17.44,4.26-34.77,8.93-52.09,13.65-82.3,23.24-163.459,50.64-242.679,82.84-190.319,77.25-698.227,360.829-415.629,589.459,209.269,119.47,511.938,51.99,741.407,29.25,2.01-.23,4.03-.47,6.04-.72-30.75-11.41-61.46-22.93-91.11-36.95-9.16-4.47-18.56-9.85-24.34-18.46-5.74-8.34-2.85-21.56,7.05-25.21,18.12-5.01,37.22,3.21,55.12,6.39,33.12,8.07,66.11,16.68,99.04,25.47,19.66,6.22,40.76,8.77,59.23,18.12,35.24,19.52,31.87,67.27,15.61,98.64Z"
        style="fill:#010101; stroke-width:0px;" />
</svg>