<?xml version="1.0" encoding="UTF-8"?>
<svg id="Layer_1" xmlns="http://www.w3.org/2000/svg" viewBox="0 0 763 1024">
    <path
        d="M39.353,712.988c15.439,15.768,37.688,22.463,58.514,27.883,182.948,37.561,374.689,19.19,555.841,67.666,79.265,19.593,105.076,80.012,26.049,125.498-79.183,40.908-170.55,47.685-256.372,67.211-2.653.544-5.32,1.096-7.921,1.625-.015,0-.022.007-.037.007-.03,0-.06.007-.089.015-.007.007-.022.007-.03.007-28.285,6.031-56.569,11.444-85.129,15.865-16.221,1.379-44.088,15.269-49.073-8.797-2.571-17.923,17.995-19.63,30.244-21.77,19.798-4.086,39.387-9.088,59.155-13.345,69.765-15.485,140.514-26.295,210.026-42.906,42.084-8.797,177.129-54.567,72.082-87.445-137.772-39.402-283.584-36.912-425.26-51.89-67.023-8.089-140.119-8.171-199.102-44.778-34.64-21.852-39.677-66.943-2.466-89.235,53.663-29.33,115.828-39.328,174.849-53.113,122.847-25.587,248.325-35.868,371.023-62.328,51.786-12.95,115.031-25.542,151.169-67.733,33.105-44.338-125.038-73.973-152.466-80.206-80.875-16.484-163.188-23.515-245.098-32.774-56.219-7.157-113.779-12.085-166.995-32.856-41.451-14.553-84.161-49.348-61.345-97.376,28.434-47.529,88.572-70.767,136.922-93.096,110.754-45.053,228.564-72.05,347.067-86.521,6.103-.246,28.963-2.878,53.157-4.25-10.335-3.929-20.692-7.821-30.989-11.839-12.853-5.674-31.019-9.066-40.005-20.271-4.18-6.345.618-15.336,7.883-16.208,8.509-.395,16.683,3.377,24.999,4.824,29.156,7.157,58.164,15.388,86.277,25.96,6.803,2.736,13.993,4.958,20.073,9.133,12.511,9.2,7.265,26.609-2.593,35.712-19.045,18.937-41.972,33.363-64.08,48.393-5.126,3.474-10.238,6.956-15.29,10.542-10.737,7.873-26.429,22.814-38.217,8.335-11.08-15.254,7.451-26.579,18.017-34.914,17.793-14.613,36.846-27.518,55.198-41.378-40.102,2.729-79.929,8.425-119.435,15.783-126.424,26.094-287.19,64.259-390.642,143.123-79.087,67.972,92.327,91.098,135.343,96.683,102.669,16.208,432.435,26.735,478.849,121.025,17.212,46.485-31.913,81.749-68.7,98.874-58.611,28.018-123.317,38.895-186.689,50.697-119.561,21.024-240.881,32.573-358.781,62.432-19.567,7.366-135.805,26.72-105.933,57.735Z"
        style="fill:#010101; stroke-width:0px;" />
</svg>