<?xml version="1.0" encoding="UTF-8"?>
<svg id="Layer_1" xmlns="http://www.w3.org/2000/svg" viewBox="0 0 1024 100">
    <path
        d="M939.191,97.704c1.013,1.481,2.712,2.296,4.464,2.296.96,0,1.952-.248,2.828-.775l75.069-45.033c1.52-.914,2.448-2.495,2.448-4.194s-.929-3.28-2.448-4.194L946.482.771c-2.438-1.461-5.719-.785-7.292,1.521-1.562,2.306-.834,5.387,1.614,6.858l59.811,35.879h-4.084c-2.912,0-5.276,2.226-5.276,4.969s2.364,4.969,5.276,4.969h4.084s-59.811,35.869-59.811,35.869c-2.448,1.481-3.176,4.552-1.614,6.868Z"
        style="stroke-width:0px;" />
    <path
        d="M44.364,49.996c0-2.744,2.362-4.969,5.276-4.969h29.59c2.914,0,5.276,2.225,5.276,4.969,0,2.744-2.362,4.969-5.276,4.969h-29.59c-2.914,0-5.276-2.225-5.276-4.969ZM103.545,49.996c0-2.744,2.362-4.969,5.276-4.969h29.591c2.914,0,5.276,2.225,5.276,4.969s-2.362,4.969-5.276,4.969h-29.591c-2.914,0-5.276-2.225-5.276-4.969ZM162.726,49.996c0-2.744,2.362-4.969,5.276-4.969h29.591c2.914,0,5.276,2.225,5.276,4.969,0,2.744-2.362,4.969-5.276,4.969h-29.591c-2.914,0-5.276-2.225-5.276-4.969ZM221.907,49.996c0-2.744,2.362-4.969,5.276-4.969h29.591c2.914,0,5.276,2.225,5.276,4.969,0,2.744-2.362,4.969-5.276,4.969h-29.591c-2.914,0-5.276-2.225-5.276-4.969ZM281.088,49.996c0-2.744,2.362-4.969,5.276-4.969h29.59c2.914,0,5.276,2.225,5.276,4.969,0,2.744-2.362,4.969-5.276,4.969h-29.59c-2.914,0-5.276-2.225-5.276-4.969ZM340.269,49.996c0-2.744,2.362-4.969,5.276-4.969h29.591c2.914,0,5.276,2.225,5.276,4.969,0,2.744-2.362,4.969-5.276,4.969h-29.591c-2.914,0-5.276-2.225-5.276-4.969ZM399.45,49.996c0-2.744,2.362-4.969,5.276-4.969h29.591c2.914,0,5.276,2.225,5.276,4.969,0,2.744-2.362,4.969-5.276,4.969h-29.591c-2.914,0-5.276-2.225-5.276-4.969ZM458.631,49.996c0-2.744,2.362-4.969,5.276-4.969h29.591c2.914,0,5.276,2.225,5.276,4.969,0,2.744-2.362,4.969-5.276,4.969h-29.591c-2.914,0-5.276-2.225-5.276-4.969ZM517.812,49.996c0-2.744,2.362-4.969,5.276-4.969h29.59c2.914,0,5.276,2.225,5.276,4.969s-2.362,4.969-5.276,4.969h-29.59c-2.914,0-5.276-2.225-5.276-4.969ZM576.993,49.996c0-2.744,2.362-4.969,5.276-4.969h29.591c2.914,0,5.276,2.225,5.276,4.969s-2.362,4.969-5.276,4.969h-29.591c-2.914,0-5.276-2.225-5.276-4.969ZM636.175,49.996c0-2.744,2.362-4.969,5.276-4.969h29.59c2.914,0,5.276,2.225,5.276,4.969s-2.362,4.969-5.276,4.969h-29.59c-2.914,0-5.276-2.225-5.276-4.969ZM695.355,49.996c0-2.744,2.362-4.969,5.276-4.969h29.591c2.914,0,5.276,2.225,5.276,4.969s-2.362,4.969-5.276,4.969h-29.591c-2.914,0-5.276-2.225-5.276-4.969ZM754.537,49.996c0-2.744,2.362-4.969,5.276-4.969h29.59c2.914,0,5.276,2.225,5.276,4.969,0,2.744-2.362,4.969-5.276,4.969h-29.59c-2.914,0-5.276-2.225-5.276-4.969ZM813.718,49.996c0-2.744,2.362-4.969,5.276-4.969h29.59c2.914,0,5.276,2.225,5.276,4.969,0,2.744-2.362,4.969-5.276,4.969h-29.59c-2.914,0-5.276-2.225-5.276-4.969ZM872.899,49.996c0-2.744,2.362-4.969,5.276-4.969h29.59c2.914,0,5.276,2.225,5.276,4.969,0,2.744-2.362,4.969-5.276,4.969h-29.59c-2.914,0-5.276-2.225-5.276-4.969ZM932.08,49.996c0-2.744,2.362-4.969,5.276-4.969h29.59c2.914,0,5.276,2.225,5.276,4.969,0,2.744-2.362,4.969-5.276,4.969h-29.59c-2.914,0-5.276-2.225-5.276-4.969Z"
        style="stroke-width:0px;" />
    <path
        d="M5.276,54.966h14.773c2.914,0,5.276-2.225,5.276-4.969,0-2.744-2.362-4.969-5.276-4.969H5.276c-2.914,0-5.276,2.225-5.276,4.969,0,2.744,2.362,4.969,5.276,4.969Z"
        style="stroke-width:0px;" />
</svg>