<?xml version="1.0" encoding="UTF-8"?>
<svg id="Layer_1" xmlns="http://www.w3.org/2000/svg" viewBox="0 0 1024 100">
    <path
        d="M963.103,54.967h-31.11c-3.161,0-5.724-2.225-5.724-4.97s2.562-4.97,5.724-4.97h31.11c3.161,0,5.724,2.225,5.724,4.97s-2.562,4.97-5.724,4.97ZM900.883,54.967h-31.11c-3.161,0-5.724-2.225-5.724-4.97s2.562-4.97,5.724-4.97h31.11c3.161,0,5.724,2.225,5.724,4.97s-2.562,4.97-5.724,4.97ZM838.662,54.967h-31.11c-3.161,0-5.724-2.225-5.724-4.97s2.562-4.97,5.724-4.97h31.11c3.161,0,5.724,2.225,5.724,4.97s-2.562,4.97-5.724,4.97ZM776.441,54.967h-31.11c-3.161,0-5.724-2.225-5.724-4.97s2.562-4.97,5.724-4.97h31.11c3.161,0,5.724,2.225,5.724,4.97s-2.562,4.97-5.724,4.97ZM714.22,54.967h-31.11c-3.161,0-5.724-2.225-5.724-4.97s2.562-4.97,5.724-4.97h31.11c3.161,0,5.724,2.225,5.724,4.97s-2.562,4.97-5.724,4.97ZM652,54.967h-31.11c-3.161,0-5.724-2.225-5.724-4.97s2.562-4.97,5.724-4.97h31.11c3.161,0,5.724,2.225,5.724,4.97s-2.562,4.97-5.724,4.97ZM589.779,54.967h-31.11c-3.161,0-5.724-2.225-5.724-4.97s2.562-4.97,5.724-4.97h31.11c3.161,0,5.724,2.225,5.724,4.97s-2.562,4.97-5.724,4.97ZM527.558,54.967h-31.11c-3.161,0-5.724-2.225-5.724-4.97s2.563-4.97,5.724-4.97h31.11c3.161,0,5.723,2.225,5.723,4.97s-2.562,4.97-5.723,4.97ZM465.338,54.967h-31.11c-3.161,0-5.724-2.225-5.724-4.97s2.563-4.97,5.724-4.97h31.11c3.161,0,5.724,2.225,5.724,4.97s-2.563,4.97-5.724,4.97ZM403.117,54.967h-31.11c-3.161,0-5.724-2.225-5.724-4.97s2.563-4.97,5.724-4.97h31.11c3.161,0,5.724,2.225,5.724,4.97s-2.563,4.97-5.724,4.97ZM340.896,54.967h-31.11c-3.161,0-5.724-2.225-5.724-4.97s2.563-4.97,5.724-4.97h31.11c3.161,0,5.724,2.225,5.724,4.97s-2.562,4.97-5.724,4.97ZM278.676,54.967h-31.11c-3.161,0-5.724-2.225-5.724-4.97s2.563-4.97,5.724-4.97h31.11c3.161,0,5.724,2.225,5.724,4.97s-2.563,4.97-5.724,4.97ZM216.455,54.967h-31.11c-3.161,0-5.724-2.225-5.724-4.97s2.563-4.97,5.724-4.97h31.11c3.161,0,5.724,2.225,5.724,4.97s-2.563,4.97-5.724,4.97ZM154.234,54.967h-31.11c-3.161,0-5.724-2.225-5.724-4.97s2.563-4.97,5.724-4.97h31.11c3.161,0,5.724,2.225,5.724,4.97s-2.563,4.97-5.724,4.97ZM92.013,54.967h-31.11c-3.161,0-5.724-2.225-5.724-4.97s2.563-4.97,5.724-4.97h31.11c3.161,0,5.724,2.225,5.724,4.97s-2.563,4.97-5.724,4.97Z"
        style="stroke-width:0px;" />
    <path
        d="M92,97.7c-1.09,1.49-2.94,2.3-4.83,2.3-1.05,0-2.12-.25-3.07-.77L2.65,54.187c-1.65-.91-2.65-2.49-2.65-4.19s1-3.28,2.65-4.19L84.1.764c2.64-1.45,6.2-.78,7.9,1.53s.91,5.38-1.75,6.86L25.37,45.027h4.42c3.16,0,5.73,2.23,5.73,4.97s-2.57,4.97-5.73,4.97h-4.42l64.88,35.872c2.66,1.48,3.45,4.55,1.75,6.86Z"
        style="stroke-width:0px;" />
    <path
        d="M1024,49.997c0,1.7-1,3.28-2.65,4.19l-81.44,45.043c-.95.52-2.02.77-3.07.77-1.89,0-3.74-.81-4.83-2.3-1.7-2.31-.92-5.38,1.75-6.86l64.88-35.872h-4.43c-3.16,0-5.72-2.23-5.72-4.97s2.56-4.97,5.72-4.97h4.43l-64.88-35.872c-2.67-1.48-3.45-4.55-1.75-6.86,1.69-2.31,5.25-2.98,7.9-1.53l81.44,45.043c1.65.91,2.65,2.49,2.65,4.19Z"
        style="stroke-width:0px;" />
</svg>