<?xml version="1.0" encoding="UTF-8"?>
<svg id="Layer_1" xmlns="http://www.w3.org/2000/svg" viewBox="0 0 1024 99">
    <path
        d="M968.063,55.769h-1.232c-3.347,0-6.06-2.807-6.06-6.269s2.713-6.269,6.06-6.269h1.232c3.347,0,6.06,2.807,6.06,6.269s-2.713,6.269-6.06,6.269ZM917.558,55.769h-1.232c-3.347,0-6.06-2.807-6.06-6.269s2.713-6.269,6.06-6.269h1.232c3.347,0,6.06,2.807,6.06,6.269s-2.713,6.269-6.06,6.269ZM867.052,55.769h-1.231c-3.347,0-6.06-2.807-6.06-6.269s2.713-6.269,6.06-6.269h1.231c3.347,0,6.06,2.807,6.06,6.269s-2.713,6.269-6.06,6.269ZM816.549,55.769h-1.232c-3.347,0-6.06-2.807-6.06-6.269s2.713-6.269,6.06-6.269h1.232c3.347,0,6.06,2.807,6.06,6.269s-2.713,6.269-6.06,6.269ZM766.043,55.769h-1.232c-3.347,0-6.06-2.807-6.06-6.269s2.713-6.269,6.06-6.269h1.232c3.347,0,6.06,2.807,6.06,6.269s-2.713,6.269-6.06,6.269ZM715.54,55.769h-1.232c-3.347,0-6.06-2.807-6.06-6.269s2.713-6.269,6.06-6.269h1.232c3.347,0,6.06,2.807,6.06,6.269s-2.713,6.269-6.06,6.269ZM665.034,55.769h-1.232c-3.347,0-6.06-2.807-6.06-6.269s2.713-6.269,6.06-6.269h1.232c3.347,0,6.06,2.807,6.06,6.269s-2.713,6.269-6.06,6.269ZM614.529,55.769h-1.231c-3.347,0-6.06-2.807-6.06-6.269s2.713-6.269,6.06-6.269h1.231c3.347,0,6.06,2.807,6.06,6.269s-2.713,6.269-6.06,6.269ZM564.026,55.769h-1.232c-3.347,0-6.06-2.807-6.06-6.269s2.713-6.269,6.06-6.269h1.232c3.347,0,6.06,2.807,6.06,6.269s-2.713,6.269-6.06,6.269ZM513.52,55.769h-1.231c-3.347,0-6.06-2.807-6.06-6.269s2.713-6.269,6.06-6.269h1.231c3.346,0,6.06,2.807,6.06,6.269s-2.713,6.269-6.06,6.269ZM463.016,55.769h-1.231c-3.346,0-6.06-2.807-6.06-6.269s2.713-6.269,6.06-6.269h1.231c3.346,0,6.06,2.807,6.06,6.269s-2.713,6.269-6.06,6.269ZM412.511,55.769h-1.232c-3.346,0-6.06-2.807-6.06-6.269s2.713-6.269,6.06-6.269h1.232c3.346,0,6.06,2.807,6.06,6.269s-2.713,6.269-6.06,6.269ZM362.007,55.769h-1.232c-3.346,0-6.06-2.807-6.06-6.269s2.713-6.269,6.06-6.269h1.232c3.346,0,6.06,2.807,6.06,6.269s-2.713,6.269-6.06,6.269ZM311.502,55.769h-1.232c-3.346,0-6.06-2.807-6.06-6.269s2.713-6.269,6.06-6.269h1.232c3.346,0,6.06,2.807,6.06,6.269s-2.713,6.269-6.06,6.269ZM260.997,55.769h-1.231c-3.346,0-6.06-2.807-6.06-6.269s2.713-6.269,6.06-6.269h1.231c3.346,0,6.06,2.807,6.06,6.269s-2.713,6.269-6.06,6.269ZM210.493,55.769h-1.231c-3.346,0-6.06-2.807-6.06-6.269s2.713-6.269,6.06-6.269h1.231c3.346,0,6.06,2.807,6.06,6.269s-2.713,6.269-6.06,6.269ZM159.988,55.769h-1.232c-3.346,0-6.06-2.807-6.06-6.269s2.713-6.269,6.06-6.269h1.232c3.346,0,6.06,2.807,6.06,6.269s-2.713,6.269-6.06,6.269ZM109.484,55.769h-1.232c-3.346,0-6.06-2.807-6.06-6.269s2.713-6.269,6.06-6.269h1.232c3.346,0,6.06,2.807,6.06,6.269s-2.713,6.269-6.06,6.269ZM58.979,55.769h-1.232c-3.346,0-6.06-2.807-6.06-6.269s2.713-6.269,6.06-6.269h1.232c3.346,0,6.06,2.807,6.06,6.269s-2.713,6.269-6.06,6.269Z"
        style="stroke-width:0px;" />
    <path
        d="M1017.94,55.769h-.606c-3.347,0-6.06-2.807-6.06-6.269s2.713-6.269,6.06-6.269h.606c3.347,0,6.06,2.807,6.06,6.269s-2.713,6.269-6.06,6.269Z"
        style="stroke-width:0px;" />
    <path
        d="M76.425,96.717c-.913,1.466-2.444,2.283-4.013,2.283-.875,0-1.759-.256-2.549-.777L2.197,53.643c-1.369-.905-2.197-2.47-2.197-4.152s.827-3.247,2.197-4.152L69.863.759c2.197-1.436,5.155-.777,6.562,1.505,1.417,2.292.761,5.333-1.455,6.799L16.805,47.385c.295.639.456,1.348.456,2.106s-.162,1.466-.456,2.105l58.165,38.332c2.216,1.456,2.872,4.506,1.455,6.789Z"
        style="stroke-width:0px;" />
</svg>