<?xml version="1.0" encoding="UTF-8"?>
<svg id="Layer_1" xmlns="http://www.w3.org/2000/svg" viewBox="0 0 1024 99">
    <path
        d="M917.192,55.448h-1.167c-3.171,0-5.741-2.791-5.741-6.233s2.57-6.233,5.741-6.233h1.167c3.171,0,5.741,2.791,5.741,6.233s-2.57,6.233-5.741,6.233ZM869.34,55.448h-1.167c-3.171,0-5.741-2.791-5.741-6.233s2.57-6.233,5.741-6.233h1.167c3.171,0,5.741,2.791,5.741,6.233s-2.57,6.233-5.741,6.233ZM821.489,55.448h-1.166c-3.171,0-5.741-2.791-5.741-6.233s2.57-6.233,5.741-6.233h1.166c3.171,0,5.741,2.791,5.741,6.233s-2.57,6.233-5.741,6.233ZM773.639,55.448h-1.167c-3.171,0-5.741-2.791-5.741-6.233s2.57-6.233,5.741-6.233h1.167c3.171,0,5.741,2.791,5.741,6.233s-2.57,6.233-5.741,6.233ZM725.788,55.448h-1.167c-3.171,0-5.741-2.791-5.741-6.233s2.57-6.233,5.741-6.233h1.167c3.171,0,5.741,2.791,5.741,6.233s-2.57,6.233-5.741,6.233ZM677.938,55.448h-1.167c-3.171,0-5.741-2.791-5.741-6.233s2.57-6.233,5.741-6.233h1.167c3.171,0,5.741,2.791,5.741,6.233s-2.57,6.233-5.741,6.233ZM630.087,55.448h-1.167c-3.171,0-5.741-2.791-5.741-6.233s2.57-6.233,5.741-6.233h1.167c3.171,0,5.741,2.791,5.741,6.233s-2.57,6.233-5.741,6.233ZM582.236,55.448h-1.166c-3.171,0-5.741-2.791-5.741-6.233s2.57-6.233,5.741-6.233h1.166c3.171,0,5.741,2.791,5.741,6.233s-2.57,6.233-5.741,6.233ZM534.386,55.448h-1.167c-3.171,0-5.741-2.791-5.741-6.233s2.57-6.233,5.741-6.233h1.167c3.171,0,5.741,2.791,5.741,6.233s-2.57,6.233-5.741,6.233ZM486.535,55.448h-1.167c-3.171,0-5.741-2.791-5.741-6.233s2.57-6.233,5.741-6.233h1.167c3.171,0,5.741,2.791,5.741,6.233s-2.571,6.233-5.741,6.233ZM438.685,55.448h-1.167c-3.171,0-5.741-2.791-5.741-6.233s2.571-6.233,5.741-6.233h1.167c3.171,0,5.741,2.791,5.741,6.233s-2.571,6.233-5.741,6.233ZM390.834,55.448h-1.167c-3.171,0-5.741-2.791-5.741-6.233s2.571-6.233,5.741-6.233h1.167c3.171,0,5.741,2.791,5.741,6.233s-2.571,6.233-5.741,6.233ZM342.984,55.448h-1.167c-3.171,0-5.741-2.791-5.741-6.233s2.571-6.233,5.741-6.233h1.167c3.171,0,5.741,2.791,5.741,6.233s-2.571,6.233-5.741,6.233ZM295.133,55.448h-1.167c-3.171,0-5.741-2.791-5.741-6.233s2.571-6.233,5.741-6.233h1.167c3.171,0,5.741,2.791,5.741,6.233s-2.571,6.233-5.741,6.233ZM247.282,55.448h-1.167c-3.171,0-5.741-2.791-5.741-6.233s2.571-6.233,5.741-6.233h1.167c3.171,0,5.741,2.791,5.741,6.233s-2.571,6.233-5.741,6.233ZM199.432,55.448h-1.167c-3.171,0-5.741-2.791-5.741-6.233s2.571-6.233,5.741-6.233h1.167c3.171,0,5.741,2.791,5.741,6.233s-2.571,6.233-5.741,6.233ZM151.581,55.448h-1.167c-3.171,0-5.741-2.791-5.741-6.233s2.571-6.233,5.741-6.233h1.167c3.171,0,5.741,2.791,5.741,6.233s-2.571,6.233-5.741,6.233ZM103.731,55.448h-1.167c-3.171,0-5.741-2.791-5.741-6.233s2.571-6.233,5.741-6.233h1.167c3.171,0,5.741,2.791,5.741,6.233s-2.571,6.233-5.741,6.233ZM55.88,55.448h-1.167c-3.171,0-5.741-2.791-5.741-6.233s2.571-6.233,5.741-6.233h1.167c3.171,0,5.741,2.791,5.741,6.233s-2.571,6.233-5.741,6.233Z"
        style="stroke-width:0px;" />
    <path
        d="M964.448,55.448h-.574c-3.171,0-5.741-2.791-5.741-6.233s2.57-6.233,5.741-6.233h.574c3.171,0,5.741,2.791,5.741,6.233s-2.57,6.233-5.741,6.233Z"
        style="stroke-width:0px;" />
    <path
        d="M72.409,96.161c-.865,1.458-2.316,2.269-3.802,2.269-.829,0-1.667-.254-2.415-.773L2.081,53.334c-1.298-.9-2.081-2.455-2.081-4.128s.784-3.228,2.081-4.128L66.192.754c2.081-1.428,4.884-.773,6.217,1.497,1.343,2.279.721,5.302-1.379,6.76L15.922,47.113c.279.636.432,1.34.432,2.093s-.153,1.458-.432,2.093l55.109,38.112c2.099,1.448,2.721,4.48,1.379,6.75Z"
        style="stroke-width:0px;" />
    <path
        d="M951.591,96.731c.865,1.458,2.316,2.269,3.802,2.269.829,0,1.667-.254,2.415-.773l64.11-44.323c1.298-.9,2.081-2.455,2.081-4.128,0-1.673-.784-3.228-2.081-4.128L957.808,1.324c-2.081-1.428-4.884-.773-6.217,1.497-1.343,2.279-.721,5.302,1.379,6.76l55.109,38.102c-.279.636-.432,1.34-.432,2.093,0,.753.153,1.458.432,2.093l-55.109,38.112c-2.099,1.448-2.721,4.48-1.379,6.75Z"
        style="stroke-width:0px;" />
</svg>