<?xml version="1.0" encoding="UTF-8"?>
<svg id="Layer_1" xmlns="http://www.w3.org/2000/svg" viewBox="0 0 1024 1024">
    <path
        d="M987.865,922.588c-6.442,9.768-13.499,19.078-21.115,27.872-69.525,80.279-186.122,96.729-275.153,39.963l-65.291-41.629c-69.949-44.599-158.686-44.599-228.635,0l-65.291,41.629c-89.031,56.765-205.628,40.315-275.153-39.963-7.605-8.782-14.653-18.078-21.088-27.83-41.212-62.464-47.388-142.412-17.441-211.238l48.886-112.352c24.767-56.921,24.767-121.883,0-178.804l-48.886-112.352C-11.248,239.057-5.073,159.109,36.139,96.645c.854-1.295,1.72-2.582,2.595-3.861C106.963-6.825,242.308-29.539,339.429,40.779l47.717,34.548c74.777,54.141,174.907,54.141,249.685,0l47.717-34.548c97.121-70.318,232.466-47.605,300.695,52.005.885,1.292,1.759,2.593,2.623,3.902,41.174,62.432,47.38,142.314,17.495,211.114l-48.894,112.56c-24.695,56.849-24.695,121.705,0,178.555l48.894,112.56c29.886,68.8,23.679,148.682-17.495,211.114Z"
        fill="#f4aa97" />
</svg>