<?xml version="1.0" encoding="UTF-8"?>
<svg id="Layer_1" xmlns="http://www.w3.org/2000/svg" viewBox="0 0 1024 490">
    <path
        d="M1000.205,490h-89.922c-12.557,0-23.003-9.33-23.732-21.314-5.346-87.793-43.661-169.616-109.246-232.315-70.866-67.747-165.087-105.057-265.306-105.057s-194.439,37.31-265.305,105.057c-65.586,62.699-103.9,144.521-109.246,232.315-.73,11.984-11.175,21.314-23.732,21.314H23.795c-13.538,0-24.408-10.79-23.768-23.718,2.86-57.752,16.186-113.835,39.722-167.032,25.819-58.357,62.767-110.752,109.817-155.732,47.051-44.979,101.859-80.301,162.902-104.984C375.703,12.965,442.835,0,512,0s136.297,12.965,199.532,38.534c61.043,24.683,115.851,60.005,162.902,104.984,47.051,44.979,83.998,97.375,109.817,155.732,23.536,53.197,36.863,109.28,39.722,167.032.64,12.928-10.23,23.718-23.768,23.718Z"
        fill="#f4aa97" />
</svg>