<?xml version="1.0" encoding="UTF-8"?>
<svg id="Layer_1" xmlns="http://www.w3.org/2000/svg" viewBox="0 0 1024 1024">
    <path
        d="M512,1024c-21.445,0-53.53-6.787-84.595-39.119-12.615-13.129-22.743-27.816-31.681-40.854-.155.074-.309.147-.461.22-14.168,6.747-30.225,14.395-47.533,19.435-42.638,12.415-73.483,2.356-91.851-8.271-18.437-10.667-42.638-32.474-53.226-75.78-4.326-17.696-5.717-35.57-6.943-51.342-15.772-1.225-33.645-2.616-51.341-6.942-43.306-10.588-65.112-34.789-75.779-53.226-10.628-18.369-20.689-49.214-8.271-91.852,5.041-17.307,12.688-33.365,19.436-47.533.073-.152.146-.305.219-.46-13.039-8.939-27.725-19.067-40.854-31.682C6.787,565.529,0,533.444,0,511.999s6.787-53.53,39.12-84.595c13.129-12.615,27.815-22.743,40.854-31.681-.074-.155-.147-.309-.22-.461-6.747-14.167-14.395-30.225-19.435-47.532-12.418-42.637-2.356-73.482,8.27-91.85,10.668-18.439,32.474-42.639,75.781-53.227,17.695-4.326,35.569-5.717,51.341-6.943,1.226-15.772,2.616-33.645,6.943-51.341,10.588-43.306,34.789-65.113,53.226-75.78,18.37-10.628,49.216-20.687,91.851-8.271,17.307,5.041,33.365,12.688,47.532,19.436.152.072.306.146.461.219,8.938-13.039,19.065-27.724,31.681-40.854C458.47,6.787,490.554,0,512,0s53.53,6.787,84.595,39.119c12.616,13.13,22.743,27.816,31.682,40.854.155-.074.31-.147.461-.219,14.167-6.747,30.225-14.395,47.533-19.435,42.635-12.418,73.48-2.357,91.849,8.27,18.439,10.668,42.639,32.474,53.228,75.78,4.326,17.696,5.716,35.569,6.942,51.342,15.772,1.225,33.646,2.616,51.342,6.943,43.307,10.588,65.112,34.79,75.78,53.228,10.626,18.366,20.688,49.211,8.27,91.849-5.041,17.307-12.688,33.365-19.436,47.532-.072.152-.145.306-.219.461,13.039,8.938,27.725,19.066,40.854,31.681,32.332,31.065,39.119,63.15,39.119,84.595s-6.787,53.53-39.119,84.595c-13.129,12.615-27.816,22.743-40.854,31.682.074.155.147.309.219.461,6.748,14.167,14.396,30.225,19.436,47.533,12.417,42.637,2.355,73.483-8.271,91.85-10.667,18.438-32.474,42.638-75.781,53.227-17.695,4.326-35.569,5.716-51.341,6.942-1.226,15.772-2.616,33.646-6.942,51.342-10.588,43.306-34.79,65.112-53.228,75.78-18.366,10.627-49.21,20.688-91.849,8.27-17.307-5.041-33.365-12.688-47.533-19.435-.152-.073-.305-.146-.46-.22-8.939,13.039-19.066,27.725-31.682,40.854-31.065,32.332-63.15,39.119-84.595,39.119ZM412.523,772.698c9.289,0,18.827,1.109,28.549,3.708,32.346,8.645,53.998,30.03,70.928,52.029,16.93-21.999,38.582-43.384,70.928-52.029,31.814-8.503,61.713-1.066,87.074,9.056,3.824-27.013,12.218-56.674,35.502-79.958,23.284-23.283,52.947-31.676,79.958-35.502-10.122-25.359-17.56-55.26-9.056-87.075,8.645-32.346,30.03-53.998,52.029-70.927-21.999-16.93-43.384-38.582-52.029-70.928-8.504-31.814-1.066-61.715,9.056-87.074-27.012-3.825-56.674-12.219-79.957-35.503-23.284-23.283-31.677-52.945-35.503-79.958-25.359,10.121-55.261,17.561-87.074,9.057-32.346-8.645-53.998-30.03-70.928-52.029-16.93,21.999-38.581,43.384-70.928,52.029-31.813,8.504-61.714,1.065-87.074-9.057-3.825,27.012-12.218,56.674-35.502,79.957-23.285,23.284-52.947,31.677-79.96,35.502,10.122,25.359,17.56,55.26,9.057,87.075-8.646,32.346-30.03,53.998-52.029,70.927,21.998,16.93,43.384,38.583,52.029,70.929,8.503,31.814,1.065,61.714-9.057,87.073,27.013,3.826,56.674,12.22,79.958,35.504,23.284,23.283,31.677,52.946,35.502,79.958,17.61-7.03,37.415-12.765,58.525-12.765Z"
        fill="#f4aa97" fill-rule="evenodd" />
</svg>