<?xml version="1.0" encoding="UTF-8"?>
<svg id="Layer_1" xmlns="http://www.w3.org/2000/svg" viewBox="0 0 1024 1024">
    <polygon
        points="1024 512 947.552 590.02 993.244 689.833 895.045 736.478 904.215 846.146 796.229 855.937 768.058 962.229 663.281 933.997 600.888 1024 512 960.946 423.111 1024 360.718 933.997 255.94 962.228 227.769 855.936 119.784 846.144 128.954 736.477 30.755 689.832 76.448 590.02 0 512 76.448 433.98 30.756 334.167 128.955 287.522 119.785 177.854 227.771 168.063 255.942 61.771 360.719 90.003 423.112 0 512 63.054 600.889 0 663.282 90.003 768.06 61.772 796.231 168.064 904.216 177.856 895.046 287.523 993.245 334.168 947.552 433.98 1024 512"
        fill="#f4aa97" />
</svg>