<?xml version="1.0" encoding="UTF-8"?>
<svg id="Layer_1" xmlns="http://www.w3.org/2000/svg" viewBox="0 0 1051.611 667.684">
    <path
        d="M525.806,667.684l-71.535-50.792-80.086,36.956-61.028-64.628-88.454,19.088-44.209-81.357-97.212-11.686-4.336-103.093L0,333.842l78.947-78.332,4.336-103.093,97.21-11.685,44.206-81.355,88.455,19.088,61.026-64.627,80.087,36.955L525.807,0l71.536,50.792,80.086-36.954,61.027,64.626,88.454-19.088,44.209,81.357,97.211,11.686,4.337,103.093,78.944,78.33-78.945,78.331-4.337,103.095-97.211,11.684-44.205,81.355-88.455-19.088-61.027,64.627-80.086-36.954-71.539,50.792ZM464.949,501.832l60.857,43.21,60.858-43.21,67.404,31.103,50.383-53.355,70.35,15.182,33.107-60.932,64.081-7.701,2.412-57.327,35.232-34.958-35.231-34.957-2.412-57.327-64.081-7.703-33.109-60.932-70.351,15.182-50.383-53.355-67.404,31.103-60.857-43.21-60.859,43.21-67.403-31.102-50.382,53.355-70.35-15.181-33.108,60.93-64.081,7.702-2.412,57.327-35.232,34.958,35.231,34.957,2.412,57.327,64.081,7.703,33.11,60.932,70.35-15.182,50.383,53.355,67.404-31.104Z"
        fill="#f4aa97" fill-rule="evenodd" />
</svg>