<?xml version="1.0" encoding="UTF-8"?>
<svg id="Layer_1" xmlns="http://www.w3.org/2000/svg" viewBox="0 0 1024 1024">
    <path
        d="M953.273,1024H70.727c-39.061,0-70.727-31.666-70.727-70.727V70.727C0,31.666,31.666,0,70.727,0h882.546c39.061,0,70.727,31.666,70.727,70.727v882.546c0,39.061-31.666,70.727-70.727,70.727ZM175.341,909.924h673.317c33.836,0,61.266-27.43,61.266-61.266V175.341c0-33.836-27.43-61.266-61.266-61.266H175.341c-33.836,0-61.266,27.43-61.266,61.266v673.317c0,33.836,27.43,61.266,61.266,61.266Z"
        fill="#f4aa97" fill-rule="evenodd"  />
</svg>