<?xml version="1.0" encoding="UTF-8"?>
<svg id="Layer_1" xmlns="http://www.w3.org/2000/svg" viewBox="0 0 1024 1024">
    <path
        d="M1024,512c0,130.432-57.307,305.096-149.961,409.65-46.327,52.551-101.49,87.47-162.745,98.193-61.255,11.392-128.601-1.411-199.294-28.877-70.692-27.466-138.039-67.075-199.294-104.153-61.255-37.747-116.418-72.961-162.745-107.093C57.308,710.899,0,646.097,0,512,0,381.568,57.308,206.904,149.961,102.35,196.288,49.799,251.452,14.88,312.707,4.157c61.255-11.392,128.601,1.411,199.293,28.877,70.692,27.466,138.039,67.076,199.293,104.153,61.255,37.746,116.418,72.961,162.745,107.093,92.654,68.821,149.961,133.623,149.961,267.72Z"
        fill="#f4aa97" />
</svg>