<?xml version="1.0" encoding="UTF-8"?><svg id="Layer_1" xmlns="http://www.w3.org/2000/svg" viewBox="0 0 1024 40"><path d="M1024,20c0,11.04-9.331,20-20.828,20-8.877,0-16.466-5.338-19.465-12.858-.439.087-.894.131-1.363.131H41.657c-.47,0-.924-.044-1.363-.131-2.999,7.52-10.588,12.858-19.465,12.858C9.331,40,0,31.04,0,20S9.331,0,20.828,0c8.877,0,16.466,5.338,19.465,12.858.439-.087.894-.131,1.363-.131h940.686c.47,0,.924.044,1.363.131,2.999-7.52,10.588-12.858,19.465-12.858,11.497,0,20.828,8.96,20.828,20Z" style="stroke-width:0px;"/></svg>