<?xml version="1.0" encoding="UTF-8"?><svg id="Layer_1" xmlns="http://www.w3.org/2000/svg" viewBox="0 0 1024 73"><path d="M1023.94,35.709v.01c0-.01,0-.02-.01-.03q0,.01.01.02Z" style="stroke-width:0px;"/><path d="M.07,35.689c-.01.01-.01.02-.01.03v-.01q.01-.01.01-.02Z" style="stroke-width:0px;"/><path d="M1024,36.498v.01c0,.168-.01.335-.03.493-.01.128-.03.247-.05.365-.04.257-.11.503-.19.74-.02.059-.04.118-.06.178q-.01,0-.01.01c-.13.345-.3.671-.51.967-.05.089-.11.168-.18.247-.08.118-.17.227-.27.326-.01.01-.03.03-.04.039-.1.109-.2.217-.32.306-.06.059-.11.109-.17.158l-39.12,31.569c-.92.74-2.02,1.095-3.11,1.095-1.45,0-2.88-.622-3.85-1.825-1.73-2.111-1.4-5.219.73-6.935l28.25-22.809H18.93l28.25,22.809c2.13,1.717,2.46,4.824.73,6.935-.97,1.204-2.4,1.825-3.85,1.825-1.09,0-2.19-.355-3.11-1.095L1.83,40.336c-.01-.02-.03-.03-.05-.049-.01,0-.01-.01-.02-.01v-.01h-.01c-.03-.03-.06-.049-.09-.089-.12-.089-.22-.197-.32-.306-.02-.01-.03-.02-.04-.039-.1-.099-.19-.207-.27-.326-.07-.079-.13-.158-.18-.247-.2-.286-.37-.602-.5-.937v-.01c-.01,0-.01-.01-.01-.01v-.01c-.02-.059-.05-.118-.07-.187l-.06-.187c0-.01-.01-.02-.01-.02v-.02q-.01-.01-.01-.02c-.05-.168-.08-.326-.11-.493-.02-.118-.04-.237-.05-.365-.02-.158-.03-.326-.03-.493,0-.257.02-.513.06-.76v-.03c0-.01,0-.02.01-.03,0-.02.01-.03.01-.049.02-.109.04-.217.07-.326.01-.039.01-.079.02-.109.03-.109.06-.217.1-.316.01-.02.01-.039.02-.059,0-.01.01-.01.01-.02v-.01c.01-.03.02-.059.04-.079.03-.109.07-.207.13-.306.04-.089.08-.178.13-.266l.61-.868c.03-.059.08-.109.14-.158.12-.138.26-.266.4-.385l.01-.01c.01,0,.01-.01.01-.01h.01q.01-.01.01-.02h.01c0-.01.01-.01.01-.01,0,0,.01,0,.01-.01l.01-.01.05-.039L40.95,1.101c2.12-1.717,5.24-1.391,6.96.73.75.908,1.11,2.013,1.11,3.098,0,1.44-.63,2.861-1.84,3.838l-28.25,22.799h986.14l-28.25-22.799c-1.21-.977-1.84-2.397-1.84-3.838,0-1.085.36-2.19,1.11-3.098,1.72-2.121,4.84-2.447,6.96-.73l39.07,31.53c.02.02.04.039.07.059l.01.01h.01l.01.02h.01c.01,0,.01.01.02.02.14.118.28.247.4.385.06.049.11.099.15.158.23.266.43.552.6.868.05.089.09.178.13.266.06.099.1.197.13.306.02.03.03.059.04.089,0,.01.01.01.01.01v.01c.01.02.01.039.02.059.04.099.07.207.1.316.01.039.02.069.02.109.03.109.05.217.07.326.01.02.01.03.01.049.01.01.01.02.01.03v.03c.04.247.06.493.06.75Z" style="stroke-width:0px;"/></svg>