<?xml version="1.0" encoding="UTF-8"?><svg id="Layer_1" xmlns="http://www.w3.org/2000/svg" viewBox="0 0 1024.205 43.764"><path d="M1023.797,1.431c-42.868.484-85.587,1.637-128.16,2.47-21.289.422-42.541.746-63.762.883-21.606.097-43.131.785-64.381,1.358-10.635.288-21.218.546-31.75.684-5.266.067-10.523.118-15.763.112l-15.949-.003-64.038-.022-128.056-.025H255.877l-63.755.023c-10.301-.141-20.79-.603-31.459-1.059l-16.149-.643-15.963-.501c-21.025-.752-42.521-2.07-64.55-2.174l-4.004-.016c-1.2-.003-2.396-.024-3.594-.056-2.396-.064-4.793-.179-7.226-.347-2.432-.167-4.898-.382-7.416-.631l-7.804-.834C27.341-.046,21.355-.043,15.714.034,10.089.124,4.801.338.003.338l-.002,36.826c5.872-.007,11.247-.234,16.291-.309,5.022-.081,9.728-.022,13.729.408l8.108.865c2.791.276,5.64.526,8.53.725,2.889.2,5.821.343,8.758.42,1.468.039,2.939.065,4.406.069l3.998.016c20.656.088,41.778,1.368,63.4,2.15l16.029.504,15.833.631c10.649.454,21.481.937,32.518,1.09l64.274-.02h256.06l128.004.025,63.992.022,16.059.003c5.43.006,10.841-.046,16.244-.115,10.804-.142,21.554-.405,32.249-.694,21.409-.577,42.544-1.252,63.617-1.345,21.455-.138,42.876-.466,64.255-.89,42.763-.837,85.37-1.986,127.851-2.465l-.408-36.824Z" style="fill:none; stroke-width:0px;"/><path d="M208.15,40.575c-.568.126-1.558.164-2.708.168.278-.212,1.785-.365,2.708-.168Z" style="fill:#231f20; fill-rule:evenodd; stroke-width:0px;"/><path d="M167.848,14.836c-.819.076-3.389.179-3.096-.237,1.457.018,2.058.16,3.096.237Z" style="fill:#231f20; fill-rule:evenodd; stroke-width:0px;"/><path d="M163.499,14.088c-.224.191-2.196-.07-3.126-.062.054-.258,2.554-.089,3.126.062Z" style="fill:#231f20; fill-rule:evenodd; stroke-width:0px;"/><path d="M150.791,17.36c-.655.11-2.361.149-3.149-.048.227-.194,2.208.059,3.149.048Z" style="fill:#231f20; fill-rule:evenodd; stroke-width:0px;"/><path d="M145.19,13.153c-1.095.2-2.931.204-5.452.067.891-.254,3.501-.082,5.452-.067Z" style="fill:#231f20; fill-rule:evenodd; stroke-width:0px;"/><path d="M128.97,32.288c-2.75-.071-8.368.054-10.3-.45,3.321.401,7.181.124,10.3.45Z" style="fill:#231f20; fill-rule:evenodd; stroke-width:0px;"/><path d="M121.944,23.425c-3.43.394-9.495-.459-13.866-.301-.597-.468,6.381.221,7.651-.079,1.035.079,1.813.195,2.638.306,1.205.017,2.341-.23,3.578.074Z" style="fill:#231f20; fill-rule:evenodd; stroke-width:0px;"/><path d="M80.277,20.464c.087.238-.228.378-1.396.316-.331-.089-.445-.216-.383-.372.595.019,1.183.037,1.778.056Z" style="fill:#231f20; fill-rule:evenodd; stroke-width:0px;"/><path d="M62.905,23.238c-1.355.192-3.643.312-6.031.278-2.383-.031-4.852-.211-6.591-.473-.473.032-.511.178-1.389.09-2.103-.077-6.757-.625-2.227-.253,5.612.125,10.11.556,16.238.357Z" style="fill:#231f20; fill-rule:evenodd; stroke-width:0px;"/><path d="M60.829,18.717c-.652.131-1.743.178-3.106.136.334-.207,2.597-.232,3.106-.136Z" style="fill:#231f20; fill-rule:evenodd; stroke-width:0px;"/><path d="M56.375,30.437c-.532.192-2.949-.06-4.229-.076.935-.072,3.188-.13,4.229.076Z" style="fill:#231f20; fill-rule:evenodd; stroke-width:0px;"/><path d="M57.52,20.199c-1.096.212-3.567.077-4.941.178-1.197-.404,3.249-.147,4.941-.178Z" style="fill:#231f20; fill-rule:evenodd; stroke-width:0px;"/><path d="M55.513,18.881c-.876.252-3.43.072-5.342.008,1.147-.152,3.61.034,5.342-.008Z" style="fill:#231f20; fill-rule:evenodd; stroke-width:0px;"/><path d="M51.76,32.415c-.184.3-2.047.174-3.376.158.3-.261,2.198-.105,3.376-.158Z" style="fill:#231f20; fill-rule:evenodd; stroke-width:0px;"/><path d="M49.823,30.142c-1.548.184-6.751-.279-9.275-.581,3.24.09,5.703.316,9.275.581Z" style="fill:#231f20; fill-rule:evenodd; stroke-width:0px;"/><path d="M49.295,18.83c-2.304.274-5.603-.323-7.515-.546,2.117-.038,5.112.648,7.515.546Z" style="fill:#231f20; fill-rule:evenodd; stroke-width:0px;"/><path d="M43.075,22.57c-.889.076-2.377-.039-3.636-.09-.208-.414,2.122-.022,3.636.09Z" style="fill:#231f20; fill-rule:evenodd; stroke-width:0px;"/><path d="M39.266,21.284c-1.081.115-2.013-.086-3.577-.304.383-.16,2.498.246,3.577.304Z" style="fill:#231f20; fill-rule:evenodd; stroke-width:0px;"/><path d="M35.527,19.785c-.517.183-3.848-.144-3.058-.538.956.07.813.225.82.369,1.063.162,1.006-.048,2.238.169Z" style="fill:#231f20; fill-rule:evenodd; stroke-width:0px;"/><path d="M25.907,25.846c1.037-.136,2.425-.01,2.847.101.42.112-.064.128-2.847-.101Z" style="fill:#231f20; fill-rule:evenodd; stroke-width:0px;"/><path d="M21.245,29.042c-1.722.168-3.449.131-5.539.092,1.323-.147,4.703-.192,5.539-.092Z" style="fill:#231f20; fill-rule:evenodd; stroke-width:0px;"/><path d="M19.919,29.568c.615.275-2.792.273-2.117,0,.703,0,1.407,0,2.117,0Z" style="fill:#231f20; fill-rule:evenodd; stroke-width:0px;"/><path d="M15.982,34.353c-.597.194-1.948.262-3.03.226.32-.23,2.551-.318,3.03-.226Z" style="fill:#231f20; fill-rule:evenodd; stroke-width:0px;"/><path d="M3.52,34.199c-1.946.239-3.333.228-3.498.18-.187-.057.85-.149,3.498-.18Z" style="fill:#231f20; fill-rule:evenodd; stroke-width:0px;"/><path d="M102.801,37.739c-.741.089-1.776.101-2.281.25-1.359-.423-3.876-.204-5.718-.449,2.274-.305,4.688.303,8,.198Z" style="fill:#231f20; fill-rule:evenodd; stroke-width:0px;"/><path d="M53.385,28.709c-1.127-.017-.982-.21-2.298-.206-.106-.152.46-.128.511-.243-2.308-.188-3.592-.135-5.553-.28.26-.053.512-.108.521-.231-2.631.293-5.587-.721-10.898-1.062,2.556.016,6.654.405,10.728.718,4.07.323,8.102.537,10.381.523-.687.351-4.677-.119-5.16.244-.127.28,2.567.163,1.768.538Z" style="fill:#231f20; fill-rule:evenodd; stroke-width:0px;"/><path d="M49.063,19.987c-.506-.017-.266.072-.013.089-.158.205-1.961-.091-2.223-.164.559-.194,6.409.292,2.236.074Z" style="fill:#231f20; fill-rule:evenodd; stroke-width:0px;"/><path d="M16.004,18.867l.038-.361c-2.849.061-7.409.273-9.332-.018,3.367-.339,10.541.104,12.958-.443.574.089,1.635.102,2.208.201,3.934-.251,8.075-.024,12.181.522,4.104.492,8.251.984,12.33,1.111-1.86.344-4.837-.007-7.865-.406-3.027-.388-6.119-.853-8.24-.543-.675-.099-.006-.101.462-.045-3.589-.357-10.099-.698-14.74-.017Z" style="fill:#231f20; fill-rule:evenodd; stroke-width:0px;"/><path d="M18.988,30.286c-.65.158-1.859.218-2.59.371-.391-.012,1.734-.615,2.59-.371Z" style="fill:#231f20; fill-rule:evenodd; stroke-width:0px;"/><path d="M911.36,40.415c1.999-.038,4.189-.412,6.284-.46,4.907-.11,9.319.145,14.258-.143,4.36-.253,8.467-.824,13.009-1.025,3.37-.15,4.469-.309,6.721-.471,6.584-.468,11.99-.42,14.815-1.404,4.601-.708,10.388-1.186,14.416-1.831.632-.103,1.99-.082,2.236-.121,10.251-1.627,16.501-4.069,28.585-5.276,1.046-.544,1.741-1.32,3.792-2.008.912-.308,2.995-.527,3.658-.837,2.449-1.153.267-2.552,4.86-3.455.251-.285-.591-.349-.822-.535.109-2.239-1.741-4.1-.629-5.848-3.177-.984-2.502-2.179-4.969-3.116-1.533-.581-4.53-1.114-6.489-1.662-2.24-.625-4.611-1.096-6.485-1.737.01-.676-2.849-.76-3.41-1.318-3.482-.365-6.125-.892-9.665-1.238-.342-.221-1.184-.341-1.269-.615-7.439-1.018-14.955-2.295-25.111-2.528-.913-.021-2.868-.056-4.004-.028-7.527.181-19.119.2-23.071-.615-1.358-.043-1.331.178-2.682.135-.865-.411-4.871-1.134-8.337-1.033-1.193.034-3.259.656-5.866.816-3.885.238-7.58-.463-11.078-.274-1.607.087-3.298.644-4.973.797-4.368.399-13.229.356-16.897.24-2.893-.092-3.982-.5-6.169-.373-1.977.116-3.463.611-3.258,1.302-5.655,1.62-20.285.673-29.002,1.425-6.422-.469-12.537.479-18.677.423-1.217-.013-2.734-.185-4.015-.169-2.138.025-4.985.34-7.723.492-4.69.244-8.792.287-12.631.601-5.965-.771-10.288.371-15.25.46-1.862.035-3.699-.207-5.783-.147-1.757.049-3.444.356-5.375.388-1.916.035-3.916-.197-5.765-.14-1.378.042-2.459.248-3.581.258-1.477.015-2.417-.174-3.979-.093-1.643.087-3.278.471-4.933.553-6.047.303-12.56.078-18.218.853-10.3-.372-19.12.603-31.314-.021-3.056.181-5.298.31-8.491.131-.711.065-.704.282-1.822.26-6.371-.268-13.078.484-19.646.157-.231.105-.499.201-.93.265-9.061-.435-20.534-.497-27.654.02-5.522-.453-11.945.061-18.744.073-3.2.005-6.349-.242-9.346-.144-5.865.192-13.548-.047-19.189.07-1.682.035-3.315.291-4.957.332-2.981.075-6.173-.185-9.352-.054-12.25.505-26.321.147-37.042.152-3.315,0-6.145.292-9.859.396-6.145.173-12.529-.309-18.703-.191-1.553.03-3.061.209-4.491.246-3.7.096-7.228-.077-11.136-.06-9.549.041-19.131.54-28.112.118-11.47.591-28.199.4-41.533.496-2.996.491-5.847.068-8.932.131-9.531.194-21.726.75-31.709.37-41.984.868-85.737.488-127.278,1.471-3.25-.372-8.299-.134-11.158.121-.617-.234-2.525-.22-3.977-.292-5.205.6-11.758.111-18.311.263-1.666.586-5.611.15-8.089.596-1.056-.32,1.427-.277-.383-.451-4.245,1.064-18.604.585-25.043.882.449.002.542.16-.023.181-1.555-.263-2.298.265-4.043.252-2.924.033-5.64.124-8.225.247-2.549.11-4.971.214-7.342.317-4.75.216-9.311.42-14.289.419-1.24-.197-4.557-.784-5.73-.444,1.798.139,4.08.201,3.91.632-2.981-.262-6.933-.235-8.956.027-3.712-.118-5.605-.435-8.949-.247-.814-.041.774.489-.97.405-5.208-.441-7.856-.15-12.532-.512-1.406.371-6.818.345-8.495.056-1.516.129,1.655.404.367.465-4.205-.006-8.128.011-11.992-.426-.969.157-1.618.394-3.205.389-1.072-.015.321-.395-1.284-.331-1.508.172,1.146.463.765.757-2.114.058-1.709.295-2.778.497-2.93-.374-4.967.043-7.649.077-2.762.037-5.824-.25-8.494-.225-2.291.017-3.284.294-5.877.186-2.106-.085-3.861-.466-6.203-.522-1.239.037.818.361-.95.326-8.204-.155-16.422-.185-22.487.385,9.314-.681,16.084.233,24.238-.139,1.216.448,3.666-.125,4.866.468.559-.212-1.314-.446.507-.339.602.055.83.166,1.768.168-1.173.437.548.503,1.202.864,6.916.247,12.334.268,18.313.516,1.113-.065-.756-.307.508-.335,2.279.017,4.014.162,6.706.14.789.39,2.585.638,1.603,1.065-8.052-.352-19.042-.167-28.641-.46-2.908-.094-5.916-.556-7.617-.045,4.316-.03,7.766.729,11.503.94,4.839.268,10.039-.067,14.766.26,1.332.092,1.876.28,3.079.33.942.04,2.555-.159,3.613-.098,1.151.068,1.209.262,2.195.282,2.024.042,3.594-.192,5.84-.099,3.753.163,7.424.619,11.545.623.749.183.406.571-.547.612-4.881-.146-5.715-.171-10.706-.321.557.061.895.155.846.307-1.537-.085-2.076-.218-3.136-.045,3.707.122,3.348.805,2.066,1.081-9.208-.463-20.506-.675-28.07-1.241-.841.157-1.387.389-2.759.412-8.523-.113-18.046-.671-27.157-.548,10.383.646,21.246.721,33.355,1.02.46.105.078.336,1.285.332,5.168-.032,11.183.301,15.197.377,1.77.463,3.49.93,5.15,1.409,6.358.093,11.898.571,17.293,1.082,5.391.518,10.712,1.13,16.783,1.39-.069.271.875.392,1.237.6-.987.181-1.651.444-2.788.588-1.989-.066-4.034-.005-5.773-.267-5.141.187-11.21.078-17.806-.105-6.549-.197-13.391-.51-19.774-.554-1.572.38-.368.777.689,1.206,6.137.524,11.789.13,18.311.907,2.311,1.138-.179,1.805-5.245,1.678-8.396-.206-22.737-.972-28.084-1.331-12.167-.189-24.192-.509-36.203-.435-6.377.06-12.96-.235-19.325-.756-3.189-.26-6.352-.559-9.479-.867l-2.207-.203c-.663-.062-1.348-.101-2.036-.139-1.372-.078-2.79-.108-4.221-.125,1.586.081,3.15.155,4.637.285.756.051,1.475.135,2.203.203.839.089,1.674.178,2.506.267,3.388.356,6.774.664,10.159.914,3.385.246,6.765.438,10.12.561,3.288.095,6.538.189,9.765.282-.047-.196.402-.283,1.349-.257,12.031.178,25.486.685,36.219.8,4.456.839,13.186.463,17.735,1.308-1.185.975-4.964,1.283-9.683,1.336,4.81.152,9.299.678,13.354.904,3.328.184,9.118.08,10.81.35.408.066-.385.252.401.284-1.372-.056,2.451.014,2.731.005,1.828-.065,1.467-.15,3.552-.058,2.698.125,2.648.142,4.343.436,9.337.491,18.509.624,28.013,1.207.99.042,2.996.128,3.151.134.899.097.122.248,1.312.323.676.043.382-.183,1.381-.125,3.725.209,8.006.42,11.781.459,4.648.037,9.719.077,14.578.116,4.828.045,9.443.091,13.211.065,1.678.064-.533.374,1.737.368,12.98.204,26.726.363,40.574.465,1.045.033.211.427,1.741.37,1.908.067,1.444-.37,3.163-.343,1.066.118,2.046.252,2.612.464,15.881.333,32.247-.034,48.629-.187,15.265-.07,30.572-.14,45.067-.207,11.426-.059,22.345-.441,32.567-.184,13.711-.303,25.558-.283,38.392-.332,9.25-.034,19.435.174,27.205-.032,1.341-.036,2.931-.244,4.498-.246,2.358-.003,4.736.304,7.088.308,6.362.01,12.877-.363,19.218-.346,7.117.038,13.958.075,20.945.113,3.939.019,7.726-.274,11.637-.296,2.59-.016,5.303.229,7.995.223,7.538-.015,15.206-.41,22.338-.328,9.527.107,19.312.502,28.972.071,10.669.242,23.644.261,33.861.105,8.284.72,16.908-.015,26.286.152.994.018,1.646.157,2.645.196,14.187.538,29.942-.417,41.451.058,4.317-.469,8.007.051,12.018.159,4.33.118,8.341-.19,12.511-.198,1.364-.003,2.603.179,3.981.201,4.226.066,8.431-.218,13.113-.32,7.01-.139,14.473.529,22.462-.127,6.183.204,15.33.36,22.344-.261,11.906.35,23.85-.783,35.972-.726,4.09.027,7.81.435,11.917-.042,4.276.423,9.292.114,14.599.129,5.203.024,10.624.251,16.058.298,7.751.069,17.361-.459,23.17.431,2.677,2.009,7.753-1.093,13.92-.797,3.276.355,2.858.938,4.271,1.653,2.924.25,5.661.009,8.492-.211,3.317.136,5.74,1.008,10.141.927ZM130.666,19.561c.09-.101-.074-.163-.42-.197.969-.399,3.036.302.42.197ZM129.74,19.704c-3.694-.086-8.905.109-11.579-.328-.722-.033.625.539-.553.604-1.57-.29-3.43-.535-6.162-.658-.14-.752,5.243-.077,5.509-.725,2.083.151,3.1.224,4.048-.081,4.258.422,5.221-.004,8.435.366-.868.398.566.346.302.822Z" style="fill:#231f20; fill-rule:evenodd; stroke-width:0px;"/></svg>