<?xml version="1.0" encoding="UTF-8"?><svg id="Layer_1" xmlns="http://www.w3.org/2000/svg" viewBox="0 0 1034 50.002"><path d="M977.264,30.001H56.736c-2.761,0-5-2.239-5-5s2.239-5,5-5h920.528c2.762,0,5,2.239,5,5s-2.238,5-5,5Z" style="stroke-width:0px;"/><path d="M32.519,30.001H5c-2.761,0-5-2.239-5-5s2.239-5,5-5h27.519c2.761,0,5,2.239,5,5s-2.239,5-5,5Z" style="stroke-width:0px;"/><path d="M34.195,17.506c-.778,0-1.568-.182-2.307-.567l-14.399-7.504c-2.449-1.276-3.399-4.296-2.123-6.745,1.276-2.448,4.296-3.398,6.745-2.123l14.399,7.504c2.449,1.276,3.399,4.296,2.123,6.745-.892,1.71-2.634,2.69-4.438,2.69Z" style="stroke-width:0px;"/><path d="M19.805,50.002c-1.805,0-3.547-.979-4.438-2.69-1.276-2.449-.326-5.469,2.123-6.745l14.399-7.505c2.45-1.276,5.469-.326,6.745,2.123s.326,5.469-2.123,6.745l-14.399,7.505c-.738.384-1.528.567-2.307.567Z" style="stroke-width:0px;"/><path d="M1029,30.001h-27.519c-2.762,0-5-2.239-5-5s2.238-5,5-5h27.519c2.762,0,5,2.239,5,5s-2.238,5-5,5Z" style="stroke-width:0px;"/><path d="M999.805,17.506c-1.804,0-3.546-.979-4.438-2.69-1.276-2.449-.326-5.469,2.123-6.745l14.398-7.504c2.445-1.276,5.468-.326,6.744,2.123,1.276,2.449.326,5.469-2.123,6.745l-14.398,7.504c-.737.384-1.528.567-2.307.567Z" style="stroke-width:0px;"/><path d="M1014.195,50.002c-.779,0-1.568-.182-2.308-.567l-14.398-7.505c-2.448-1.276-3.398-4.296-2.122-6.745,1.277-2.45,4.294-3.398,6.745-2.123l14.398,7.505c2.448,1.276,3.398,4.296,2.122,6.745-.892,1.71-2.634,2.69-4.438,2.69Z" style="stroke-width:0px;"/></svg>