<?xml version="1.0" encoding="UTF-8"?><svg id="Layer_1" xmlns="http://www.w3.org/2000/svg" viewBox="0 0 1023.264 10"><path d="M281.299,10H1.52c-.839,0-1.52-2.239-1.52-5S.68,0,1.52,0h279.78c.839,0,1.52,2.239,1.52,5s-.68,5-1.52,5Z" style="stroke-width:0px;"/><path d="M651.154,10h-279.78c-.839,0-1.52-2.239-1.52-5s.68-5,1.52-5h279.78c.839,0,1.52,2.239,1.52,5s-.68,5-1.52,5Z" style="stroke-width:0px;"/><path d="M310.163,10h-15.992c-.048,0-.087-2.239-.087-5s.039-5,.087-5h15.992c.048,0,.087,2.239.087,5s-.039,5-.087,5Z" style="stroke-width:0px;"/><path d="M333.964,10h-15.992c-.048,0-.087-2.239-.087-5s.039-5,.087-5h15.992c.048,0,.087,2.239.087,5s-.039,5-.087,5Z" style="stroke-width:0px;"/><path d="M356.293,10h-15.992c-.048,0-.087-2.239-.087-5s.039-5,.087-5h15.992c.048,0,.087,2.239.087,5s-.039,5-.087,5Z" style="stroke-width:0px;"/><path d="M680.754,10h-15.992c-.048,0-.087-2.239-.087-5s.039-5,.087-5h15.992c.048,0,.087,2.239.087,5s-.039,5-.087,5Z" style="stroke-width:0px;"/><path d="M704.555,10h-15.992c-.048,0-.087-2.239-.087-5s.039-5,.087-5h15.992c.048,0,.087,2.239.087,5s-.039,5-.087,5Z" style="stroke-width:0px;"/><path d="M726.884,10h-15.992c-.048,0-.087-2.239-.087-5s.039-5,.087-5h15.992c.048,0,.087,2.239.087,5s-.039,5-.087,5Z" style="stroke-width:0px;"/><path d="M1021.744,10h-279.78c-.839,0-1.52-2.239-1.52-5s.68-5,1.52-5h279.78c.839,0,1.52,2.239,1.52,5s-.68,5-1.52,5Z" style="stroke-width:0px;"/></svg>