<?xml version="1.0" encoding="UTF-8"?><svg id="Layer_1" xmlns="http://www.w3.org/2000/svg" viewBox="0 0 1024 20"><path d="M19.226,15.487c1,.983,1.049,2.635.116,3.687-.487.548-1.148.826-1.809.826-.603,0-1.214-.226-1.693-.696l-5.832-5.731-5.84,5.731c-.471.47-1.082.696-1.685.696-.661,0-1.33-.278-1.817-.826-.933-1.052-.876-2.705.124-3.687l5.584-5.479L.788,4.52C-.211,3.538-.269,1.885.665.833,1.598-.228,3.168-.28,4.167.703l5.84,5.731L15.84.703c1-.983,2.569-.931,3.503.13.933,1.052.884,2.705-.116,3.687l-5.584,5.487,5.584,5.479Z" style="stroke-width:0px;"/><path d="M53.847,15.487c1,.983,1.049,2.635.116,3.687-.487.548-1.148.826-1.809.826-.603,0-1.214-.226-1.693-.696l-5.832-5.731-5.84,5.731c-.471.47-1.082.696-1.685.696-.661,0-1.33-.278-1.817-.826-.933-1.052-.876-2.705.124-3.687l5.584-5.479-5.584-5.487c-1-.983-1.057-2.635-.124-3.687.933-1.061,2.503-1.113,3.503-.13l5.84,5.731,5.832-5.731c1-.983,2.569-.931,3.503.13.933,1.052.884,2.705-.116,3.687l-5.584,5.487,5.584,5.479Z" style="stroke-width:0px;"/><path d="M88.467,15.487c1,.983,1.049,2.635.116,3.687-.487.548-1.148.826-1.809.826-.603,0-1.214-.226-1.693-.696l-5.832-5.731-5.84,5.731c-.471.47-1.082.696-1.685.696-.661,0-1.33-.278-1.817-.826-.933-1.052-.876-2.705.124-3.687l5.584-5.479-5.584-5.487c-1-.983-1.057-2.635-.124-3.687.933-1.061,2.503-1.113,3.503-.13l5.84,5.731,5.832-5.731c1-.983,2.569-.931,3.503.13.933,1.052.884,2.705-.116,3.687l-5.584,5.487,5.584,5.479Z" style="stroke-width:0px;"/><path d="M123.087,15.487c1,.983,1.049,2.635.116,3.687-.487.548-1.148.826-1.809.826-.603,0-1.214-.226-1.693-.696l-5.832-5.731-5.84,5.731c-.471.47-1.082.696-1.685.696-.661,0-1.33-.278-1.817-.826-.933-1.052-.876-2.705.124-3.687l5.584-5.479-5.584-5.487c-1-.983-1.057-2.635-.124-3.687.933-1.061,2.503-1.113,3.503-.13l5.84,5.731,5.832-5.731c1-.983,2.569-.931,3.503.13.933,1.052.884,2.705-.116,3.687l-5.584,5.487,5.584,5.479Z" style="stroke-width:0px;"/><path d="M157.708,15.487c1,.983,1.049,2.635.116,3.687-.487.548-1.148.826-1.809.826-.603,0-1.214-.226-1.693-.696l-5.832-5.731-5.84,5.731c-.471.47-1.082.696-1.685.696-.661,0-1.33-.278-1.817-.826-.933-1.052-.876-2.705.124-3.687l5.584-5.479-5.584-5.487c-1-.983-1.057-2.635-.124-3.687.933-1.061,2.503-1.113,3.503-.13l5.84,5.731,5.832-5.731c1-.983,2.569-.931,3.503.13.933,1.052.884,2.705-.116,3.687l-5.584,5.487,5.584,5.479Z" style="stroke-width:0px;"/><path d="M192.328,15.487c1,.983,1.049,2.635.116,3.687-.487.548-1.148.826-1.809.826-.603,0-1.214-.226-1.693-.696l-5.832-5.731-5.84,5.731c-.471.47-1.082.696-1.685.696-.661,0-1.33-.278-1.817-.826-.933-1.052-.876-2.705.124-3.687l5.584-5.479-5.584-5.487c-1-.983-1.057-2.635-.124-3.687.933-1.061,2.503-1.113,3.503-.13l5.84,5.731,5.832-5.731c1-.983,2.569-.931,3.503.13.933,1.052.884,2.705-.116,3.687l-5.584,5.487,5.584,5.479Z" style="stroke-width:0px;"/><path d="M226.948,15.487c1,.983,1.049,2.635.116,3.687-.487.548-1.148.826-1.809.826-.603,0-1.214-.226-1.693-.696l-5.832-5.731-5.84,5.731c-.471.47-1.082.696-1.685.696-.661,0-1.33-.278-1.817-.826-.933-1.052-.876-2.705.124-3.687l5.584-5.479-5.584-5.487c-1-.983-1.057-2.635-.124-3.687.933-1.061,2.503-1.113,3.503-.13l5.84,5.731,5.832-5.731c1-.983,2.569-.931,3.503.13.933,1.052.884,2.705-.116,3.687l-5.584,5.487,5.584,5.479Z" style="stroke-width:0px;"/><path d="M261.569,15.487c1,.983,1.049,2.635.116,3.687-.487.548-1.148.826-1.809.826-.603,0-1.214-.226-1.693-.696l-5.832-5.731-5.84,5.731c-.471.47-1.082.696-1.685.696-.661,0-1.33-.278-1.817-.826-.933-1.052-.876-2.705.124-3.687l5.584-5.479-5.584-5.487c-1-.983-1.057-2.635-.124-3.687.933-1.061,2.503-1.113,3.503-.13l5.84,5.731,5.832-5.731c1-.983,2.569-.931,3.503.13.933,1.052.884,2.705-.116,3.687l-5.584,5.487,5.584,5.479Z" style="stroke-width:0px;"/><path d="M296.189,15.487c1,.983,1.049,2.635.116,3.687-.487.548-1.148.826-1.809.826-.603,0-1.214-.226-1.693-.696l-5.832-5.731-5.84,5.731c-.471.47-1.082.696-1.685.696-.661,0-1.33-.278-1.817-.826-.933-1.052-.876-2.705.124-3.687l5.584-5.479-5.584-5.487c-1-.983-1.057-2.635-.124-3.687.933-1.061,2.503-1.113,3.503-.13l5.84,5.731,5.832-5.731c1-.983,2.569-.931,3.503.13.933,1.052.884,2.705-.116,3.687l-5.584,5.487,5.584,5.479Z" style="stroke-width:0px;"/><path d="M330.809,15.487c1,.983,1.049,2.635.116,3.687-.487.548-1.148.826-1.809.826-.603,0-1.214-.226-1.693-.696l-5.832-5.731-5.84,5.731c-.471.47-1.082.696-1.685.696-.661,0-1.33-.278-1.817-.826-.933-1.052-.876-2.705.124-3.687l5.584-5.479-5.584-5.487c-1-.983-1.057-2.635-.124-3.687.933-1.061,2.503-1.113,3.503-.13l5.84,5.731,5.832-5.731c1-.983,2.569-.931,3.503.13.933,1.052.884,2.705-.116,3.687l-5.584,5.487,5.584,5.479Z" style="stroke-width:0px;"/><path d="M365.43,15.487c1,.983,1.049,2.635.116,3.687-.487.548-1.148.826-1.809.826-.603,0-1.214-.226-1.693-.696l-5.832-5.731-5.84,5.731c-.471.47-1.082.696-1.685.696-.661,0-1.33-.278-1.817-.826-.933-1.052-.876-2.705.124-3.687l5.584-5.479-5.584-5.487c-1-.983-1.057-2.635-.124-3.687.933-1.061,2.503-1.113,3.503-.13l5.84,5.731,5.832-5.731c1-.983,2.569-.931,3.503.13.933,1.052.884,2.705-.116,3.687l-5.584,5.487,5.584,5.479Z" style="stroke-width:0px;"/><path d="M400.05,15.487c1,.983,1.049,2.635.116,3.687-.487.548-1.148.826-1.809.826-.603,0-1.214-.226-1.693-.696l-5.832-5.731-5.84,5.731c-.471.47-1.082.696-1.685.696-.661,0-1.33-.278-1.817-.826-.933-1.052-.876-2.705.124-3.687l5.584-5.479-5.584-5.487c-1-.983-1.057-2.635-.124-3.687.933-1.061,2.503-1.113,3.503-.13l5.84,5.731,5.832-5.731c1-.983,2.569-.931,3.503.13.933,1.052.884,2.705-.116,3.687l-5.584,5.487,5.584,5.479Z" style="stroke-width:0px;"/><path d="M434.67,15.487c1,.983,1.049,2.635.116,3.687-.487.548-1.148.826-1.809.826-.603,0-1.214-.226-1.693-.696l-5.832-5.731-5.84,5.731c-.471.47-1.082.696-1.685.696-.661,0-1.33-.278-1.817-.826-.933-1.052-.876-2.705.124-3.687l5.584-5.479-5.584-5.487c-1-.983-1.057-2.635-.124-3.687.933-1.061,2.503-1.113,3.503-.13l5.84,5.731,5.832-5.731c1-.983,2.569-.931,3.503.13.933,1.052.884,2.705-.116,3.687l-5.584,5.487,5.584,5.479Z" style="stroke-width:0px;"/><path d="M469.291,15.487c1,.983,1.049,2.635.116,3.687-.487.548-1.148.826-1.809.826-.603,0-1.214-.226-1.693-.696l-5.832-5.731-5.84,5.731c-.471.47-1.082.696-1.685.696-.661,0-1.33-.278-1.817-.826-.933-1.052-.876-2.705.124-3.687l5.584-5.479-5.584-5.487c-1-.983-1.057-2.635-.124-3.687.933-1.061,2.503-1.113,3.503-.13l5.84,5.731,5.832-5.731c1-.983,2.569-.931,3.503.13.933,1.052.884,2.705-.116,3.687l-5.584,5.487,5.584,5.479Z" style="stroke-width:0px;"/><path d="M503.911,15.487c1,.983,1.049,2.635.116,3.687-.487.548-1.148.826-1.809.826-.603,0-1.214-.226-1.693-.696l-5.832-5.731-5.84,5.731c-.471.47-1.082.696-1.685.696-.661,0-1.33-.278-1.817-.826-.933-1.052-.876-2.705.124-3.687l5.584-5.479-5.584-5.487c-1-.983-1.057-2.635-.124-3.687.933-1.061,2.503-1.113,3.503-.13l5.84,5.731,5.832-5.731c1-.983,2.569-.931,3.503.13.933,1.052.884,2.705-.116,3.687l-5.584,5.487,5.584,5.479Z" style="stroke-width:0px;"/><path d="M538.531,15.487c1,.983,1.049,2.635.116,3.687-.487.548-1.148.826-1.809.826-.603,0-1.214-.226-1.693-.696l-5.832-5.731-5.84,5.731c-.471.47-1.082.696-1.685.696-.661,0-1.33-.278-1.817-.826-.933-1.052-.876-2.705.124-3.687l5.584-5.479-5.584-5.487c-1-.983-1.057-2.635-.124-3.687.933-1.061,2.503-1.113,3.503-.13l5.84,5.731,5.832-5.731c1-.983,2.569-.931,3.503.13.933,1.052.884,2.705-.116,3.687l-5.584,5.487,5.584,5.479Z" style="stroke-width:0px;"/><path d="M573.152,15.487c1,.983,1.049,2.635.116,3.687-.487.548-1.148.826-1.809.826-.603,0-1.214-.226-1.693-.696l-5.832-5.731-5.84,5.731c-.471.47-1.082.696-1.685.696-.661,0-1.33-.278-1.817-.826-.933-1.052-.876-2.705.124-3.687l5.584-5.479-5.584-5.487c-1-.983-1.057-2.635-.124-3.687.933-1.061,2.503-1.113,3.503-.13l5.84,5.731,5.832-5.731c1-.983,2.569-.931,3.503.13.933,1.052.884,2.705-.116,3.687l-5.584,5.487,5.584,5.479Z" style="stroke-width:0px;"/><path d="M607.772,15.487c1,.983,1.049,2.635.116,3.687-.487.548-1.148.826-1.809.826-.603,0-1.214-.226-1.693-.696l-5.832-5.731-5.84,5.731c-.471.47-1.082.696-1.685.696-.661,0-1.33-.278-1.817-.826-.933-1.052-.876-2.705.124-3.687l5.584-5.479-5.584-5.487c-1-.983-1.057-2.635-.124-3.687.933-1.061,2.503-1.113,3.503-.13l5.84,5.731,5.832-5.731c1-.983,2.569-.931,3.503.13.933,1.052.884,2.705-.116,3.687l-5.584,5.487,5.584,5.479Z" style="stroke-width:0px;"/><path d="M642.392,15.487c1,.983,1.049,2.635.116,3.687-.487.548-1.148.826-1.809.826-.603,0-1.214-.226-1.693-.696l-5.832-5.731-5.84,5.731c-.471.47-1.082.696-1.685.696-.661,0-1.33-.278-1.817-.826-.933-1.052-.876-2.705.124-3.687l5.584-5.479-5.584-5.487c-1-.983-1.057-2.635-.124-3.687.933-1.061,2.503-1.113,3.503-.13l5.84,5.731,5.832-5.731c1-.983,2.569-.931,3.503.13.933,1.052.884,2.705-.116,3.687l-5.584,5.487,5.584,5.479Z" style="stroke-width:0px;"/><path d="M677.013,15.487c1,.983,1.049,2.635.116,3.687-.487.548-1.148.826-1.809.826-.603,0-1.214-.226-1.693-.696l-5.832-5.731-5.84,5.731c-.471.47-1.082.696-1.685.696-.661,0-1.33-.278-1.817-.826-.933-1.052-.876-2.705.124-3.687l5.584-5.479-5.584-5.487c-1-.983-1.057-2.635-.124-3.687.933-1.061,2.503-1.113,3.503-.13l5.84,5.731,5.832-5.731c1-.983,2.569-.931,3.503.13.933,1.052.884,2.705-.116,3.687l-5.584,5.487,5.584,5.479Z" style="stroke-width:0px;"/><path d="M711.633,15.487c1,.983,1.049,2.635.116,3.687-.487.548-1.148.826-1.809.826-.603,0-1.214-.226-1.693-.696l-5.832-5.731-5.84,5.731c-.471.47-1.082.696-1.685.696-.661,0-1.33-.278-1.817-.826-.933-1.052-.876-2.705.124-3.687l5.584-5.479-5.584-5.487c-1-.983-1.057-2.635-.124-3.687.933-1.061,2.503-1.113,3.503-.13l5.84,5.731,5.832-5.731c1-.983,2.569-.931,3.503.13.933,1.052.884,2.705-.116,3.687l-5.584,5.487,5.584,5.479Z" style="stroke-width:0px;"/><path d="M746.253,15.487c1,.983,1.049,2.635.116,3.687-.487.548-1.148.826-1.809.826-.603,0-1.214-.226-1.693-.696l-5.832-5.731-5.84,5.731c-.471.47-1.082.696-1.685.696-.661,0-1.33-.278-1.817-.826-.933-1.052-.876-2.705.124-3.687l5.584-5.479-5.584-5.487c-1-.983-1.057-2.635-.124-3.687.933-1.061,2.503-1.113,3.503-.13l5.84,5.731,5.832-5.731c1-.983,2.569-.931,3.503.13.933,1.052.884,2.705-.116,3.687l-5.584,5.487,5.584,5.479Z" style="stroke-width:0px;"/><path d="M780.874,15.487c1,.983,1.049,2.635.116,3.687-.487.548-1.148.826-1.809.826-.603,0-1.214-.226-1.693-.696l-5.832-5.731-5.84,5.731c-.471.47-1.082.696-1.685.696-.661,0-1.33-.278-1.817-.826-.933-1.052-.876-2.705.124-3.687l5.584-5.479-5.584-5.487c-1-.983-1.057-2.635-.124-3.687.933-1.061,2.503-1.113,3.503-.13l5.84,5.731,5.832-5.731c1-.983,2.569-.931,3.503.13.933,1.052.884,2.705-.116,3.687l-5.584,5.487,5.584,5.479Z" style="stroke-width:0px;"/><path d="M815.494,15.487c1,.983,1.049,2.635.116,3.687-.487.548-1.148.826-1.809.826-.603,0-1.214-.226-1.693-.696l-5.832-5.731-5.84,5.731c-.471.47-1.082.696-1.685.696-.661,0-1.33-.278-1.817-.826-.933-1.052-.876-2.705.124-3.687l5.584-5.479-5.584-5.487c-1-.983-1.057-2.635-.124-3.687.933-1.061,2.503-1.113,3.503-.13l5.84,5.731,5.832-5.731c1-.983,2.569-.931,3.503.13.933,1.052.884,2.705-.116,3.687l-5.584,5.487,5.584,5.479Z" style="stroke-width:0px;"/><path d="M850.114,15.487c1,.983,1.049,2.635.116,3.687-.487.548-1.148.826-1.809.826-.603,0-1.214-.226-1.693-.696l-5.832-5.731-5.84,5.731c-.471.47-1.082.696-1.685.696-.661,0-1.33-.278-1.817-.826-.933-1.052-.876-2.705.124-3.687l5.584-5.479-5.584-5.487c-1-.983-1.057-2.635-.124-3.687.933-1.061,2.503-1.113,3.503-.13l5.84,5.731,5.832-5.731c1-.983,2.569-.931,3.503.13.933,1.052.884,2.705-.116,3.687l-5.584,5.487,5.584,5.479Z" style="stroke-width:0px;"/><path d="M884.735,15.487c1,.983,1.049,2.635.116,3.687-.487.548-1.148.826-1.809.826-.603,0-1.214-.226-1.693-.696l-5.832-5.731-5.84,5.731c-.471.47-1.082.696-1.685.696-.661,0-1.33-.278-1.817-.826-.933-1.052-.876-2.705.124-3.687l5.584-5.479-5.584-5.487c-1-.983-1.057-2.635-.124-3.687.933-1.061,2.503-1.113,3.503-.13l5.84,5.731,5.832-5.731c1-.983,2.569-.931,3.503.13.933,1.052.884,2.705-.116,3.687l-5.584,5.487,5.584,5.479Z" style="stroke-width:0px;"/><path d="M919.355,15.487c1,.983,1.049,2.635.116,3.687-.487.548-1.148.826-1.809.826-.603,0-1.214-.226-1.693-.696l-5.832-5.731-5.84,5.731c-.471.47-1.082.696-1.685.696-.661,0-1.33-.278-1.817-.826-.933-1.052-.876-2.705.124-3.687l5.584-5.479-5.584-5.487c-1-.983-1.057-2.635-.124-3.687.933-1.061,2.503-1.113,3.503-.13l5.84,5.731,5.832-5.731c1-.983,2.569-.931,3.503.13.933,1.052.884,2.705-.116,3.687l-5.584,5.487,5.584,5.479Z" style="stroke-width:0px;"/><path d="M953.975,15.487c1,.983,1.049,2.635.116,3.687-.487.548-1.148.826-1.809.826-.603,0-1.214-.226-1.693-.696l-5.832-5.731-5.84,5.731c-.471.47-1.082.696-1.685.696-.661,0-1.33-.278-1.817-.826-.933-1.052-.876-2.705.124-3.687l5.584-5.479-5.584-5.487c-1-.983-1.057-2.635-.124-3.687.933-1.061,2.503-1.113,3.503-.13l5.84,5.731,5.832-5.731c1-.983,2.569-.931,3.503.13.933,1.052.884,2.705-.116,3.687l-5.584,5.487,5.584,5.479Z" style="stroke-width:0px;"/><path d="M988.596,15.487c1,.983,1.049,2.635.116,3.687-.487.548-1.148.826-1.809.826-.603,0-1.214-.226-1.693-.696l-5.832-5.731-5.84,5.731c-.471.47-1.082.696-1.685.696-.661,0-1.33-.278-1.817-.826-.933-1.052-.876-2.705.124-3.687l5.584-5.479-5.584-5.487c-1-.983-1.057-2.635-.124-3.687.933-1.061,2.503-1.113,3.503-.13l5.84,5.731,5.832-5.731c1-.983,2.569-.931,3.503.13.933,1.052.884,2.705-.116,3.687l-5.584,5.487,5.584,5.479Z" style="stroke-width:0px;"/><path d="M1023.216,15.487c1,.983,1.049,2.635.116,3.687-.487.548-1.148.826-1.809.826-.603,0-1.214-.226-1.693-.696l-5.832-5.731-5.84,5.731c-.471.47-1.082.696-1.685.696-.661,0-1.33-.278-1.817-.826-.933-1.052-.876-2.705.124-3.687l5.584-5.479-5.584-5.487c-1-.983-1.057-2.635-.124-3.687.933-1.061,2.503-1.113,3.503-.13l5.84,5.731,5.832-5.731c1-.983,2.569-.931,3.503.13.933,1.052.884,2.705-.116,3.687l-5.584,5.487,5.584,5.479Z" style="stroke-width:0px;"/></svg>