<?xml version="1.0" encoding="UTF-8"?><svg id="Layer_1" xmlns="http://www.w3.org/2000/svg" viewBox="0 0 1024 48"><path d="M1019.246,13.652l-10.761-9.584c-6.079-5.414-15.608-5.424-21.697,0l-10.751,9.584c-1.92,1.71-3.296,3.785-4.056,6.072H52.02c-.76-2.287-2.136-4.362-4.056-6.072l-10.751-9.584c-6.089-5.424-15.618-5.424-21.697,0L4.765,13.652C1.694,16.385,0,20.058,0,23.995s1.694,7.62,4.765,10.353l10.751,9.584c3.039,2.712,6.942,4.068,10.844,4.068s7.804-1.356,10.854-4.068l10.751-9.584c1.468-1.305,2.618-2.824,3.419-4.503h921.243c.791,1.68,1.941,3.198,3.409,4.503l10.761,9.584c3.039,2.712,6.941,4.068,10.844,4.068s7.804-1.356,10.844-4.068l10.761-9.584c3.06-2.732,4.754-6.406,4.754-10.353s-1.694-7.61-4.754-10.343ZM41.074,26.849l-10.751,9.574c-2.146,1.913-5.781,1.913-7.927,0l-10.751-9.574c-.883-.8-1.376-1.801-1.376-2.854,0-1.042.493-2.044,1.376-2.844l10.751-9.574c1.078-.961,2.526-1.437,3.964-1.437,1.448,0,2.885.476,3.964,1.437l10.751,9.574c.893.799,1.376,1.801,1.376,2.844,0,1.052-.483,2.054-1.376,2.854ZM1012.355,26.849l-10.751,9.574c-2.146,1.913-5.781,1.913-7.927,0l-10.751-9.574c-.883-.8-1.376-1.801-1.376-2.854,0-1.042.493-2.044,1.376-2.844l10.751-9.574c1.078-.961,2.516-1.437,3.964-1.437s2.885.476,3.964,1.437l10.751,9.574c.883.799,1.376,1.801,1.376,2.844,0,1.052-.493,2.054-1.376,2.854Z" style="stroke-width:0px;"/></svg>