<?xml version="1.0" encoding="UTF-8"?><svg id="Layer_1" xmlns="http://www.w3.org/2000/svg" viewBox="0 0 1024 47.995"><path d="M1024,23.995c0,3.95-1.69,7.62-4.75,10.35l-10.77,9.59c-3.04,2.71-6.94,4.06-10.84,4.06s-7.8-1.35-10.84-4.06l-10.76-9.59c-1.47-1.3-2.62-2.82-3.41-4.5H51.38c-.8,1.68-1.95,3.2-3.42,4.5l-10.75,9.59c-3.05,2.71-6.95,4.06-10.85,4.06s-7.8-1.35-10.84-4.06l-10.76-9.59C1.69,31.615,0,27.945,0,23.995s1.69-7.61,4.76-10.34L15.52,4.065c6.07-5.42,15.6-5.42,21.69,0l10.75,9.59c1.92,1.71,3.3,3.78,4.06,6.07h919.96c.76-2.29,2.14-4.36,4.06-6.07l10.75-9.59c6.09-5.42,15.62-5.41,21.69,0l10.77,9.59c3.06,2.73,4.75,6.4,4.75,10.34Z" style="stroke-width:0px;"/></svg>