<?xml version="1.0" encoding="UTF-8"?>
<svg id="Layer_3" xmlns="http://www.w3.org/2000/svg" viewBox="0 0 1024 95">
    <path
        d="M1022.465,43.926c-14.211-13.518-25.442-16.21-32.77-15.814.763-5.196.862-11.875-1.911-17.605-2.377-4.909-6.556-8.461-12.092-10.262-1.783-.584-3.743-.099-5.061,1.237l-40.544,41.228h-8.071v-6.967c0-2.731-2.218-4.948-4.952-4.948s-4.952,2.217-4.952,4.948v6.967h-5.08V11.704c0-2.731-2.218-4.948-4.952-4.948s-4.952,2.217-4.952,4.948v31.005H126.871V11.704c0-2.731-2.218-4.948-4.952-4.948s-4.952,2.217-4.952,4.948v31.005h-5.08v-6.967c0-2.731-2.218-4.948-4.952-4.948s-4.952,2.217-4.952,4.948v6.967h-8.081L53.369,1.481c-1.317-1.336-3.278-1.821-5.07-1.237-5.526,1.801-9.705,5.354-12.082,10.262-2.773,5.73-2.674,12.41-1.911,17.605-7.319-.386-18.559,2.296-32.77,15.814-.98.93-1.535,2.227-1.535,3.582s.555,2.652,1.535,3.582c14.211,13.508,25.442,16.19,32.77,15.804-.763,5.196-.862,11.875,1.911,17.605,2.377,4.908,6.556,8.461,12.082,10.262.505.158,1.02.237,1.535.237,1.307,0,2.575-.505,3.526-1.465l40.584-40.931h8.041v6.957c0,2.731,2.208,4.948,4.952,4.948s4.952-2.217,4.952-4.948v-6.957h5.08v31.005c0,2.731,2.218,4.948,4.952,4.948s4.952-2.217,4.952-4.948v-31.005h770.258v31.005c0,2.731,2.218,4.948,4.952,4.948s4.952-2.217,4.952-4.948v-31.005h5.08v6.957c0,2.731,2.218,4.948,4.952,4.948s4.952-2.217,4.952-4.948v-6.957h8.041l40.584,40.931c.951.96,2.218,1.465,3.516,1.465.515,0,1.04-.079,1.535-.237,5.536-1.801,9.715-5.354,12.092-10.262,2.773-5.73,2.674-12.41,1.911-17.605,7.318.396,18.559-2.296,32.76-15.804.99-.93,1.545-2.227,1.545-3.582s-.555-2.652-1.535-3.582ZM48.724,84.154c-1.594-.97-2.773-2.276-3.585-3.949-2.912-5.977-.594-15.379.545-18.496.772-2.088.158-4.532-1.664-5.829-.891-.633-1.901-.96-2.912-.96-1.04,0-2.06.336-2.931,1.029-.772.435-9.695,4.938-25.798-8.441,16.103-13.39,25.026-8.887,25.798-8.451,1.723,1.366,4.05,1.346,5.843.069,1.822-1.296,2.436-3.741,1.664-5.829-.04-.119-4.021-11.331-.555-18.476.812-1.672,1.991-2.989,3.575-3.958l36.187,36.804-36.167,36.487ZM985.813,55.95c-1.713-1.366-4.031-1.346-5.833-.069-1.812,1.286-2.436,3.731-1.674,5.819,1.139,3.127,3.466,12.529.555,18.506-.812,1.672-2,2.979-3.585,3.949l-36.177-36.487,36.187-36.804c1.585.97,2.763,2.276,3.575,3.939,2.912,5.977.584,15.379-.545,18.496-.782,2.088-.168,4.532,1.654,5.829,1.802,1.277,4.12,1.296,5.843-.069.782-.435,9.705-4.938,25.798,8.451-16.093,13.38-25.016,8.877-25.798,8.441Z"
        style="stroke-width:0px;" />
</svg>