<?xml version="1.0" encoding="UTF-8"?><svg id="Layer_1" xmlns="http://www.w3.org/2000/svg" viewBox="0 0 1024 26"><path d="M1019.048,26c-12.619,0-19.164-4.75-24.939-8.939-5.221-3.789-9.73-7.061-19.161-7.061s-13.939,3.272-19.16,7.06c-5.775,4.19-12.32,8.94-24.939,8.94s-19.162-4.75-24.936-8.94c-5.221-3.789-9.728-7.06-19.157-7.06s-13.937,3.271-19.158,7.06c-5.774,4.19-12.319,8.94-24.937,8.94s-19.162-4.75-24.936-8.94c-5.221-3.789-9.728-7.06-19.157-7.06s-13.936,3.271-19.156,7.06c-5.774,4.19-12.317,8.94-24.935,8.94s-19.163-4.75-24.937-8.94c-5.221-3.789-9.728-7.06-19.158-7.06s-13.936,3.272-19.157,7.06c-5.774,4.19-12.317,8.94-24.935,8.94s-19.163-4.75-24.937-8.94c-5.221-3.789-9.728-7.06-19.157-7.06s-13.936,3.271-19.157,7.06c-5.774,4.19-12.318,8.94-24.936,8.94s-19.162-4.75-24.935-8.94c-5.22-3.789-9.728-7.06-19.156-7.06s-13.935,3.271-19.155,7.06c-5.774,4.19-12.318,8.94-24.935,8.94s-19.161-4.75-24.935-8.94c-5.219-3.789-9.727-7.06-19.154-7.06s-13.936,3.271-19.156,7.06c-5.773,4.19-12.318,8.94-24.935,8.94s-19.161-4.75-24.934-8.94c-5.219-3.789-9.727-7.06-19.154-7.06s-13.936,3.271-19.156,7.06c-5.774,4.19-12.318,8.94-24.936,8.94s-19.161-4.75-24.934-8.94c-5.219-3.789-9.727-7.06-19.154-7.06s-13.934,3.271-19.153,7.06c-5.773,4.19-12.317,8.94-24.933,8.94s-19.16-4.75-24.933-8.94c-5.219-3.789-9.726-7.06-19.152-7.06s-13.933,3.271-19.152,7.06c-5.773,4.19-12.316,8.94-24.933,8.94s-19.161-4.75-24.934-8.94c-5.22-3.789-9.727-7.06-19.155-7.06s-13.936,3.271-19.156,7.06c-5.774,4.19-12.318,8.94-24.935,8.94s-19.161-4.75-24.935-8.94c-5.22-3.789-9.727-7.06-19.154-7.06C2.217,10,0,7.761,0,5S2.217,0,4.952,0c12.617,0,19.161,4.75,24.935,8.94,5.219,3.789,9.727,7.06,19.154,7.06s13.936-3.271,19.156-7.06c5.774-4.19,12.318-8.94,24.935-8.94s19.161,4.75,24.935,8.94c5.219,3.789,9.727,7.06,19.154,7.06s13.933-3.271,19.152-7.06c5.773-4.19,12.316-8.94,24.932-8.94s19.16,4.75,24.933,8.94c5.219,3.789,9.726,7.06,19.152,7.06s13.934-3.271,19.153-7.06c5.773-4.19,12.317-8.94,24.933-8.94s19.161,4.75,24.934,8.94c5.219,3.789,9.727,7.06,19.154,7.06s13.937-3.271,19.157-7.06c5.774-4.19,12.318-8.94,24.936-8.94s19.161,4.75,24.934,8.94c5.219,3.789,9.727,7.06,19.154,7.06s13.936-3.271,19.156-7.06c5.773-4.19,12.318-8.94,24.935-8.94s19.161,4.75,24.934,8.94c5.22,3.789,9.727,7.06,19.155,7.06s13.935-3.271,19.155-7.06c5.774-4.19,12.318-8.94,24.935-8.94s19.162,4.75,24.935,8.94c5.22,3.789,9.728,7.06,19.156,7.06s13.936-3.271,19.157-7.06c5.774-4.19,12.318-8.94,24.936-8.94s19.162,4.75,24.936,8.94c5.221,3.788,9.728,7.06,19.158,7.06s13.935-3.271,19.156-7.06c5.774-4.19,12.318-8.94,24.936-8.94s19.163,4.75,24.937,8.94c5.221,3.789,9.729,7.06,19.158,7.06s13.936-3.271,19.156-7.06c5.774-4.19,12.317-8.94,24.935-8.94s19.162,4.75,24.936,8.94c5.221,3.789,9.728,7.06,19.157,7.06s13.937-3.271,19.158-7.06c5.774-4.19,12.318-8.94,24.937-8.94s19.162,4.75,24.936,8.94c5.221,3.789,9.728,7.06,19.157,7.06s13.939-3.272,19.16-7.06c5.775-4.19,12.32-8.94,24.939-8.94s19.165,4.75,24.94,8.94c5.221,3.788,9.729,7.06,19.16,7.06,2.735,0,4.952,2.239,4.952,5s-2.217,5-4.952,5Z" style="stroke-width:0px;"/></svg>