<?xml version="1.0" encoding="UTF-8"?><svg id="Layer_1" xmlns="http://www.w3.org/2000/svg" viewBox="0 0 1024 10"><path d="M1018.59,10h-22.256c-2.988,0-5.41-2.239-5.41-5s2.422-5,5.41-5h22.256c2.988,0,5.41,2.239,5.41,5s-2.422,5-5.41,5ZM960.3,10h-22.256c-2.988,0-5.41-2.239-5.41-5s2.422-5,5.41-5h22.256c2.988,0,5.41,2.239,5.41,5s-2.422,5-5.41,5ZM902.011,10h-22.256c-2.988,0-5.41-2.239-5.41-5s2.422-5,5.41-5h22.256c2.988,0,5.41,2.239,5.41,5s-2.422,5-5.41,5ZM843.721,10h-22.256c-2.988,0-5.41-2.239-5.41-5s2.422-5,5.41-5h22.256c2.988,0,5.41,2.239,5.41,5s-2.422,5-5.41,5ZM785.431,10h-22.256c-2.988,0-5.41-2.239-5.41-5s2.422-5,5.41-5h22.256c2.988,0,5.41,2.239,5.41,5s-2.422,5-5.41,5ZM727.142,10h-22.256c-2.988,0-5.41-2.239-5.41-5s2.422-5,5.41-5h22.256c2.988,0,5.41,2.239,5.41,5s-2.422,5-5.41,5ZM668.852,10h-22.256c-2.988,0-5.41-2.239-5.41-5s2.422-5,5.41-5h22.256c2.988,0,5.41,2.239,5.41,5s-2.422,5-5.41,5ZM610.562,10h-22.256c-2.988,0-5.41-2.239-5.41-5s2.422-5,5.41-5h22.256c2.988,0,5.41,2.239,5.41,5s-2.422,5-5.41,5ZM552.273,10h-22.256c-2.988,0-5.41-2.239-5.41-5s2.422-5,5.41-5h22.256c2.988,0,5.41,2.239,5.41,5s-2.422,5-5.41,5ZM493.983,10h-22.256c-2.988,0-5.41-2.239-5.41-5s2.422-5,5.41-5h22.256c2.988,0,5.41,2.239,5.41,5s-2.422,5-5.41,5ZM435.694,10h-22.256c-2.988,0-5.41-2.239-5.41-5s2.422-5,5.41-5h22.256c2.988,0,5.41,2.239,5.41,5s-2.422,5-5.41,5ZM377.404,10h-22.256c-2.988,0-5.41-2.239-5.41-5s2.422-5,5.41-5h22.256c2.988,0,5.41,2.239,5.41,5s-2.422,5-5.41,5ZM319.114,10h-22.256c-2.988,0-5.41-2.239-5.41-5s2.422-5,5.41-5h22.256c2.988,0,5.41,2.239,5.41,5s-2.422,5-5.41,5ZM260.825,10h-22.256c-2.988,0-5.41-2.239-5.41-5s2.422-5,5.41-5h22.256c2.988,0,5.41,2.239,5.41,5s-2.422,5-5.41,5ZM202.535,10h-22.256c-2.988,0-5.41-2.239-5.41-5s2.422-5,5.41-5h22.256c2.988,0,5.41,2.239,5.41,5s-2.422,5-5.41,5ZM144.245,10h-22.256c-2.988,0-5.41-2.239-5.41-5s2.422-5,5.41-5h22.256c2.988,0,5.41,2.239,5.41,5s-2.422,5-5.41,5ZM85.956,10h-22.256c-2.988,0-5.41-2.239-5.41-5s2.422-5,5.41-5h22.256c2.988,0,5.41,2.239,5.41,5s-2.422,5-5.41,5ZM27.666,10H5.41C2.422,10,0,7.761,0,5S2.422,0,5.41,0h22.256c2.988,0,5.41,2.239,5.41,5s-2.422,5-5.41,5Z" style="stroke-width:0px;"/></svg>