<?xml version="1.0" encoding="UTF-8"?><svg id="Layer_1" xmlns="http://www.w3.org/2000/svg" viewBox="0 0 1024 40"><path d="M968.327,29.147h-22.442c-3.013,0-5.455-2.91-5.455-6.5s2.442-6.5,5.455-6.5h22.442c3.013,0,5.455,2.91,5.455,6.5s-2.442,6.5-5.455,6.5ZM909.55,29.147h-22.442c-3.013,0-5.455-2.91-5.455-6.5s2.442-6.5,5.455-6.5h22.442c3.013,0,5.455,2.91,5.455,6.5s-2.442,6.5-5.455,6.5ZM850.774,29.147h-22.442c-3.013,0-5.455-2.91-5.455-6.5s2.442-6.5,5.455-6.5h22.442c3.013,0,5.455,2.91,5.455,6.5s-2.442,6.5-5.455,6.5ZM791.997,29.147h-22.442c-3.013,0-5.455-2.91-5.455-6.5s2.442-6.5,5.455-6.5h22.442c3.013,0,5.455,2.91,5.455,6.5s-2.442,6.5-5.455,6.5ZM733.22,29.147h-22.442c-3.013,0-5.455-2.91-5.455-6.5s2.442-6.5,5.455-6.5h22.442c3.013,0,5.455,2.91,5.455,6.5s-2.442,6.5-5.455,6.5ZM674.443,29.147h-22.442c-3.013,0-5.455-2.91-5.455-6.5s2.442-6.5,5.455-6.5h22.442c3.013,0,5.455,2.91,5.455,6.5s-2.442,6.5-5.455,6.5ZM615.666,29.147h-22.442c-3.013,0-5.455-2.91-5.455-6.5s2.442-6.5,5.455-6.5h22.442c3.013,0,5.455,2.91,5.455,6.5s-2.442,6.5-5.455,6.5ZM556.889,29.147h-22.442c-3.013,0-5.455-2.91-5.455-6.5s2.442-6.5,5.455-6.5h22.442c3.013,0,5.455,2.91,5.455,6.5s-2.442,6.5-5.455,6.5ZM498.112,29.147h-22.442c-3.013,0-5.455-2.91-5.455-6.5s2.443-6.5,5.455-6.5h22.442c3.013,0,5.455,2.91,5.455,6.5s-2.443,6.5-5.455,6.5ZM439.335,29.147h-22.442c-3.013,0-5.455-2.91-5.455-6.5s2.442-6.5,5.455-6.5h22.442c3.013,0,5.455,2.91,5.455,6.5s-2.443,6.5-5.455,6.5ZM380.559,29.147h-22.442c-3.013,0-5.455-2.91-5.455-6.5s2.443-6.5,5.455-6.5h22.442c3.013,0,5.455,2.91,5.455,6.5s-2.443,6.5-5.455,6.5ZM321.782,29.147h-22.442c-3.013,0-5.455-2.91-5.455-6.5s2.443-6.5,5.455-6.5h22.442c3.013,0,5.455,2.91,5.455,6.5s-2.443,6.5-5.455,6.5ZM263.005,29.147h-22.442c-3.013,0-5.455-2.91-5.455-6.5s2.443-6.5,5.455-6.5h22.442c3.013,0,5.455,2.91,5.455,6.5s-2.443,6.5-5.455,6.5ZM204.228,29.147h-22.442c-3.013,0-5.455-2.91-5.455-6.5s2.443-6.5,5.455-6.5h22.442c3.013,0,5.455,2.91,5.455,6.5s-2.443,6.5-5.455,6.5ZM145.451,29.147h-22.442c-3.013,0-5.455-2.91-5.455-6.5s2.443-6.5,5.455-6.5h22.442c3.013,0,5.455,2.91,5.455,6.5s-2.443,6.5-5.455,6.5ZM86.674,29.147h-22.442c-3.013,0-5.455-2.91-5.455-6.5s2.443-6.5,5.455-6.5h22.442c3.013,0,5.455,2.91,5.455,6.5s-2.442,6.5-5.455,6.5ZM27.897,29.147H5.455c-3.013,0-5.455-2.91-5.455-6.5s2.442-6.5,5.455-6.5h22.442c3.013,0,5.455,2.91,5.455,6.5s-2.443,6.5-5.455,6.5Z" style="stroke-width:0px;"/><path d="M1024,20c0,.133-.081.252-.207.315l-25.538,19.615c-.103.049-.214.07-.325.07-.125,0-.251-.028-.369-.098-.207-.119-.332-.336-.332-.567V.672c0-.231.118-.448.325-.567.207-.126.465-.14.679-.035l25.553,19.615c.125.063.207.182.214.315Z" style="stroke-width:0px;"/></svg>