<?xml version="1.0" encoding="UTF-8"?><svg id="Layer_1" xmlns="http://www.w3.org/2000/svg" viewBox="0 0 1024 34"><path d="M965.945,24.045h-24.103c-3.236,0-5.859-3.154-5.859-7.045s2.623-7.045,5.859-7.045h24.103c3.236,0,5.859,3.154,5.859,7.045s-2.623,7.045-5.859,7.045ZM902.817,24.045h-24.103c-3.236,0-5.859-3.154-5.859-7.045s2.623-7.045,5.859-7.045h24.103c3.236,0,5.859,3.154,5.859,7.045s-2.623,7.045-5.859,7.045ZM839.689,24.045h-24.103c-3.236,0-5.859-3.154-5.859-7.045s2.623-7.045,5.859-7.045h24.103c3.236,0,5.859,3.154,5.859,7.045s-2.623,7.045-5.859,7.045ZM776.562,24.045h-24.103c-3.236,0-5.859-3.154-5.859-7.045s2.623-7.045,5.859-7.045h24.103c3.236,0,5.859,3.154,5.859,7.045s-2.623,7.045-5.859,7.045ZM713.434,24.045h-24.103c-3.236,0-5.859-3.154-5.859-7.045s2.623-7.045,5.859-7.045h24.103c3.236,0,5.859,3.154,5.859,7.045s-2.623,7.045-5.859,7.045ZM650.307,24.045h-24.103c-3.236,0-5.859-3.154-5.859-7.045s2.623-7.045,5.859-7.045h24.103c3.236,0,5.859,3.154,5.859,7.045s-2.623,7.045-5.859,7.045ZM587.179,24.045h-24.103c-3.236,0-5.859-3.154-5.859-7.045s2.623-7.045,5.859-7.045h24.103c3.236,0,5.859,3.154,5.859,7.045s-2.623,7.045-5.859,7.045ZM524.052,24.045h-24.103c-3.236,0-5.859-3.154-5.859-7.045s2.623-7.045,5.859-7.045h24.103c3.236,0,5.859,3.154,5.859,7.045s-2.623,7.045-5.859,7.045ZM460.924,24.045h-24.103c-3.236,0-5.859-3.154-5.859-7.045s2.623-7.045,5.859-7.045h24.103c3.236,0,5.859,3.154,5.859,7.045s-2.623,7.045-5.859,7.045ZM397.797,24.045h-24.103c-3.236,0-5.859-3.154-5.859-7.045s2.623-7.045,5.859-7.045h24.103c3.236,0,5.859,3.154,5.859,7.045s-2.623,7.045-5.859,7.045ZM334.669,24.045h-24.103c-3.236,0-5.859-3.154-5.859-7.045s2.623-7.045,5.859-7.045h24.103c3.236,0,5.859,3.154,5.859,7.045s-2.623,7.045-5.859,7.045ZM271.541,24.045h-24.103c-3.236,0-5.859-3.154-5.859-7.045s2.623-7.045,5.859-7.045h24.103c3.236,0,5.859,3.154,5.859,7.045s-2.623,7.045-5.859,7.045ZM208.414,24.045h-24.103c-3.236,0-5.859-3.154-5.859-7.045s2.623-7.045,5.859-7.045h24.103c3.236,0,5.859,3.154,5.859,7.045s-2.623,7.045-5.859,7.045ZM145.286,24.045h-24.103c-3.236,0-5.859-3.154-5.859-7.045s2.623-7.045,5.859-7.045h24.103c3.236,0,5.859,3.154,5.859,7.045s-2.623,7.045-5.859,7.045ZM82.159,24.045h-24.103c-3.236,0-5.859-3.154-5.859-7.045s2.623-7.045,5.859-7.045h24.103c3.236,0,5.859,3.154,5.859,7.045s-2.623,7.045-5.859,7.045Z" style="stroke-width:0px;"/><ellipse cx="16.847" cy="17" rx="16.847" ry="17" style="stroke-width:0px;"/><ellipse cx="1007.153" cy="17" rx="16.847" ry="17" style="stroke-width:0px;"/></svg>