<?xml version="1.0" encoding="UTF-8"?><svg id="Layer_1" xmlns="http://www.w3.org/2000/svg" viewBox="0 0 1024 10"><path d="M4.952,10c-1.307,0-2.575-.54-3.506-1.469-.228-.23-.436-.49-.614-.759-.178-.27-.327-.56-.456-.86-.119-.3-.218-.62-.278-.939-.069-.32-.099-.649-.099-.969,0-.33.03-.66.099-.979.059-.32.159-.64.278-.94.129-.3.277-.589.456-.859.178-.27.386-.529.614-.759C2.377.537,3.645.008,4.952.008s2.575.529,3.496,1.459c.237.23.436.489.624.759.178.27.327.56.456.859.119.31.218.62.277.94.07.32.099.649.099.979,0,.32-.029.649-.099.969-.059.32-.158.64-.277.939-.129.3-.277.59-.456.86-.188.269-.386.529-.624.759-.921.929-2.189,1.469-3.496,1.469Z" style="stroke-width:0px;"/><path d="M984.268,5.004c0-2.768,2.219-4.996,4.952-4.996h0c2.733,0,4.952,2.228,4.952,4.996h0c0,2.758-2.219,4.996-4.952,4.996h0c-2.733,0-4.952-2.239-4.952-4.996ZM954.439,5.004c0-2.768,2.219-4.996,4.952-4.996h0c2.744,0,4.952,2.228,4.952,4.996h0c0,2.758-2.208,4.996-4.952,4.996h0c-2.733,0-4.952-2.239-4.952-4.996ZM924.61,5.004c0-2.768,2.219-4.996,4.962-4.996h0c2.733,0,4.941,2.228,4.941,4.996h0c0,2.758-2.208,4.996-4.941,4.996h0c-2.744,0-4.962-2.239-4.962-4.996ZM894.792,5.004c0-2.768,2.219-4.996,4.952-4.996h0c2.733,0,4.952,2.228,4.952,4.996h0c0,2.758-2.219,4.996-4.952,4.996h0c-2.733,0-4.952-2.239-4.952-4.996ZM864.963,5.004c0-2.768,2.219-4.996,4.952-4.996h0c2.733,0,4.952,2.228,4.952,4.996h0c0,2.758-2.219,4.996-4.952,4.996h0c-2.733,0-4.952-2.239-4.952-4.996ZM835.134,5.004c0-2.768,2.219-4.996,4.952-4.996h0c2.733,0,4.952,2.228,4.952,4.996h0c0,2.758-2.219,4.996-4.952,4.996h0c-2.733,0-4.952-2.239-4.952-4.996ZM805.306,5.004c0-2.768,2.219-4.996,4.952-4.996h0c2.744,0,4.952,2.228,4.952,4.996h0c0,2.758-2.208,4.996-4.952,4.996h0c-2.733,0-4.952-2.239-4.952-4.996ZM775.487,5.004c0-2.768,2.218-4.996,4.952-4.996h0c2.733,0,4.952,2.228,4.952,4.996h0c0,2.758-2.219,4.996-4.952,4.996h0c-2.734,0-4.952-2.239-4.952-4.996ZM745.659,5.004c0-2.768,2.218-4.996,4.952-4.996h0c2.733,0,4.952,2.228,4.952,4.996h0c0,2.758-2.219,4.996-4.952,4.996h0c-2.734,0-4.952-2.239-4.952-4.996ZM715.83,5.004c0-2.768,2.219-4.996,4.952-4.996h0c2.733,0,4.952,2.228,4.952,4.996h0c0,2.758-2.219,4.996-4.952,4.996h0c-2.733,0-4.952-2.239-4.952-4.996ZM686.011,5.004c0-2.768,2.209-4.996,4.942-4.996h0c2.743,0,4.961,2.228,4.961,4.996h0c0,2.758-2.219,4.996-4.961,4.996h0c-2.733,0-4.942-2.239-4.942-4.996ZM656.182,5.004c0-2.768,2.219-4.996,4.952-4.996h0c2.734,0,4.952,2.228,4.952,4.996h0c0,2.758-2.218,4.996-4.952,4.996h0c-2.733,0-4.952-2.239-4.952-4.996ZM626.353,5.004c0-2.768,2.219-4.996,4.952-4.996h0c2.734,0,4.952,2.228,4.952,4.996h0c0,2.758-2.218,4.996-4.952,4.996h0c-2.733,0-4.952-2.239-4.952-4.996ZM596.525,5.004c0-2.768,2.218-4.996,4.952-4.996h0c2.733,0,4.952,2.228,4.952,4.996h0c0,2.758-2.219,4.996-4.952,4.996h0c-2.734,0-4.952-2.239-4.952-4.996ZM566.696,5.004c0-2.768,2.218-4.996,4.952-4.996h0c2.733,0,4.952,2.228,4.952,4.996h0c0,2.758-2.219,4.996-4.952,4.996h0c-2.734,0-4.952-2.239-4.952-4.996ZM536.877,5.004c0-2.768,2.208-4.996,4.952-4.996h0c2.734,0,4.952,2.228,4.952,4.996h0c0,2.758-2.218,4.996-4.952,4.996h0c-2.743,0-4.952-2.239-4.952-4.996ZM507.048,5.004c0-2.768,2.219-4.996,4.952-4.996h0c2.734,0,4.952,2.228,4.952,4.996h0c0,2.758-2.218,4.996-4.952,4.996h0c-2.733,0-4.952-2.239-4.952-4.996ZM477.22,5.004c0-2.768,2.218-4.996,4.952-4.996h0c2.733,0,4.952,2.228,4.952,4.996h0c0,2.758-2.219,4.996-4.952,4.996h0c-2.734,0-4.952-2.239-4.952-4.996ZM447.391,5.004c0-2.768,2.218-4.996,4.952-4.996h0c2.743,0,4.952,2.228,4.952,4.996h0c0,2.758-2.208,4.996-4.952,4.996h0c-2.734,0-4.952-2.239-4.952-4.996ZM417.572,5.004c0-2.768,2.209-4.996,4.952-4.996h0c2.734,0,4.952,2.228,4.952,4.996h0c0,2.758-2.218,4.996-4.952,4.996h0c-2.743,0-4.952-2.239-4.952-4.996ZM387.744,5.004c0-2.768,2.218-4.996,4.952-4.996h0c2.733,0,4.952,2.228,4.952,4.996h0c0,2.758-2.219,4.996-4.952,4.996h0c-2.734,0-4.952-2.239-4.952-4.996ZM357.915,5.004c0-2.768,2.218-4.996,4.952-4.996h0c2.733,0,4.952,2.228,4.952,4.996h0c0,2.758-2.219,4.996-4.952,4.996h0c-2.734,0-4.952-2.239-4.952-4.996ZM328.086,5.004c0-2.768,2.219-4.996,4.952-4.996h0c2.734,0,4.952,2.228,4.952,4.996h0c0,2.758-2.218,4.996-4.952,4.996h0c-2.733,0-4.952-2.239-4.952-4.996ZM298.267,5.004c0-2.768,2.218-4.996,4.952-4.996h0c2.733,0,4.941,2.228,4.941,4.996h0c0,2.758-2.208,4.996-4.941,4.996h0c-2.734,0-4.952-2.239-4.952-4.996ZM268.439,5.004c0-2.768,2.219-4.996,4.952-4.996h0c2.734,0,4.952,2.228,4.952,4.996h0c0,2.758-2.218,4.996-4.952,4.996h0c-2.733,0-4.952-2.239-4.952-4.996ZM238.61,5.004C238.61,2.236,240.828.008,243.561.008h0c2.734,0,4.952,2.228,4.952,4.996h0c0,2.758-2.218,4.996-4.952,4.996h0c-2.733,0-4.952-2.239-4.952-4.996ZM208.781,5.004C208.781,2.236,211,.008,213.733.008h0c2.733,0,4.952,2.228,4.952,4.996h0c0,2.758-2.219,4.996-4.952,4.996h0c-2.734,0-4.952-2.239-4.952-4.996ZM178.962,5.004C178.962,2.236,181.171.008,183.914.008h0c2.734,0,4.942,2.228,4.942,4.996h0c0,2.758-2.208,4.996-4.942,4.996h0c-2.743,0-4.952-2.239-4.952-4.996ZM149.134,5.004C149.134,2.236,151.352.008,154.086.008h0c2.733,0,4.952,2.228,4.952,4.996h0c0,2.758-2.219,4.996-4.952,4.996h0c-2.734,0-4.952-2.239-4.952-4.996ZM119.305,5.004C119.305,2.236,121.523.008,124.257.008h0c2.733,0,4.952,2.228,4.952,4.996h0c0,2.758-2.219,4.996-4.952,4.996h0c-2.734,0-4.952-2.239-4.952-4.996ZM89.476,5.004C89.476,2.236,91.695.008,94.428.008h0c2.734,0,4.952,2.228,4.952,4.996h0c0,2.758-2.218,4.996-4.952,4.996h0c-2.733,0-4.952-2.239-4.952-4.996ZM59.658,5.004C59.658,2.236,61.866.008,64.599.008h0c2.743,0,4.952,2.228,4.952,4.996h0c0,2.758-2.208,4.996-4.952,4.996h0c-2.733,0-4.941-2.239-4.941-4.996ZM29.829,5.004C29.829,2.236,32.047.008,34.78.008h0c2.734,0,4.952,2.228,4.952,4.996h0c0,2.758-2.218,4.996-4.952,4.996h0c-2.733,0-4.952-2.239-4.952-4.996Z" style="stroke-width:0px;"/><path d="M1019.048,10c-.327,0-.654-.04-.97-.1-.317-.07-.625-.16-.922-.29-.307-.12-.594-.28-.862-.46-.267-.18-.524-.39-.752-.62-.227-.23-.435-.49-.614-.759-.178-.27-.327-.56-.456-.86-.119-.3-.218-.62-.277-.939-.07-.32-.1-.649-.1-.969,0-1.319.525-2.608,1.446-3.537.228-.23.485-.44.752-.62.268-.18.555-.34.862-.46.297-.13.604-.22.922-.29.643-.13,1.297-.13,1.941,0,.316.07.624.16.921.29.297.12.584.28.852.46.277.18.524.39.752.62.93.929,1.456,2.218,1.456,3.537,0,.32-.03.649-.099.969-.06.32-.159.64-.278.939-.129.3-.278.59-.456.86-.189.269-.397.529-.624.759-.228.23-.476.44-.752.62-.268.18-.555.34-.852.46-.297.13-.604.22-.921.29-.327.06-.644.1-.971.1Z" style="stroke-width:0px;"/></svg>