<?xml version="1.0" encoding="UTF-8"?><svg id="Layer_1" xmlns="http://www.w3.org/2000/svg" viewBox="0 0 1024 63"><path d="M1023.101,31.999c-2.339,7.462-8.987,13.312-18.252,16.048-7.504,2.229-15.585,2.477-23.209,2.428-7.176-.05-14.351-.07-21.517-.09-11.286-.03-22.562-.04-33.838-.05-15.068-.02-30.135-.02-45.203-.03-18.531,0-37.072.01-55.613.01-21.696.01-43.382.02-65.078.04-24.542.01-49.085.03-73.627.05-36.186.04-78.364.08-81.2.08-4.867.01-70.024.08-85.072.099l4.449,3.552c2.14,1.721,2.488,4.845.776,6.994-.985,1.234-2.428,1.87-3.891,1.87-1.085,0-2.19-.358-3.105-1.084l-6.718-5.373-6.728,5.373c-.916.726-2.02,1.084-3.105,1.084-1.463,0-2.906-.637-3.891-1.87-1.712-2.149-1.363-5.273.786-6.994l4.449-3.552c-15.058-.02-80.215-.09-85.082-.099-2.836,0-45.004-.04-81.2-.08-24.542-.02-49.085-.04-73.617-.05-21.696-.02-43.392-.03-65.088-.04-18.541,0-37.082-.01-55.613-.01-15.068.01-30.135.01-45.203.03-11.276.01-22.552.02-33.828.05-7.176.02-14.351.04-21.527.09-7.623.05-15.705-.199-23.209-2.428C9.892,45.311,3.234,39.46.895,31.999c-2.11-6.755-.428-14.844,4.399-21.132C10.081,4.629,17.665.689,26.094.072c6.598-.478,16.431,1.333,22.432,8.029,4.797,5.353,6.857,15.242,1.99,22.535-5.175,7.75-14.809,7.701-17.984,7.691-8.171-.03-14.162-3.94-16.998-6.268-2.13-1.741-2.438-4.875-.697-7.004,1.742-2.119,4.877-2.438,6.996-.696,1.821,1.492,5.643,3.999,10.748,4.019,2.04.01,7.454.04,9.654-3.253,1.99-3.005,1.055-7.949-1.125-10.377-2.866-3.204-8.738-5.154-14.291-4.746-5.523.398-10.619,2.985-13.635,6.915-2.836,3.701-3.941,8.457-2.797,12.108,1.314,4.179,5.643,7.73,11.584,9.491,6.569,1.94,13.933,2.05,20.313,2.01,7.185-.05,14.381-.07,21.567-.09,11.286-.03,22.572-.04,33.848-.05,15.068-.02,30.145-.02,45.213-.03,18.531,0,37.072.01,55.613.01,21.696.01,43.392.02,65.088.04,24.542.01,49.085.03,73.627.05,36.196.04,78.364.08,81.2.08,5.315.01,82.355.09,87.859.099,1.125,0,2.219.388,3.095,1.084l2.607,2.079,2.598-2.079c.876-.696,1.971-1.084,3.095-1.084,5.504-.01,82.554-.09,87.858-.099,2.836,0,45.014-.04,81.2-.08,24.542-.02,49.085-.04,73.627-.05,21.696-.02,43.392-.03,65.088-.04,18.541,0,37.082-.01,55.623-.01,15.068.01,30.135.01,45.203.03,11.286.01,22.562.02,33.848.05,7.196.02,14.381.04,21.567.09,6.389.04,13.754-.07,20.313-2.01,5.942-1.761,10.271-5.313,11.584-9.491,1.145-3.651.05-8.407-2.797-12.108-3.016-3.93-8.111-6.517-13.635-6.915-5.553-.418-11.425,1.542-14.291,4.746-2.18,2.428-3.115,7.372-1.115,10.377,2.19,3.283,7.604,3.263,9.644,3.253,5.106-.02,8.927-2.527,10.748-4.019,2.13-1.741,5.265-1.423,7.006.696,1.742,2.129,1.423,5.263-.697,7.004-2.846,2.328-8.838,6.238-17.008,6.268-3.185.01-12.809.06-17.974-7.691-4.867-7.293-2.817-17.182,1.98-22.535,6.011-6.696,15.834-8.506,22.432-8.029,8.43.617,16.013,4.557,20.8,10.795,4.827,6.288,6.519,14.376,4.399,21.132Z" style="stroke-width:0px;"/></svg>