<?xml version="1.0" encoding="UTF-8"?><svg id="Layer_1" xmlns="http://www.w3.org/2000/svg" viewBox="0 0 1025.028 61"><path d="M452.19,52.029c-12.174,0-22.079-9.658-22.079-21.529s9.904-21.529,22.079-21.529,22.079,9.658,22.079,21.529-9.905,21.529-22.079,21.529ZM452.19,19.573c-6.232,0-11.303,4.902-11.303,10.927s5.071,10.927,11.303,10.927,11.303-4.902,11.303-10.927-5.071-10.927-11.303-10.927Z" style="stroke-width:0px;"/><path d="M572.838,52.029c-12.174,0-22.079-9.658-22.079-21.529s9.904-21.529,22.079-21.529,22.079,9.658,22.079,21.529-9.904,21.529-22.079,21.529ZM572.838,19.573c-6.233,0-11.303,4.902-11.303,10.927s5.07,10.927,11.303,10.927,11.303-4.902,11.303-10.927-5.07-10.927-11.303-10.927Z" style="stroke-width:0px;"/><path d="M417.148,30.5H47.434c-2.456,0-4.447-2.234-4.447-4.989s1.991-4.989,4.447-4.989h369.713c2.456,0,4.447,2.234,4.447,4.989s-1.991,4.989-4.447,4.989Z" style="stroke-width:0px;"/><path d="M416.643,46.653H4.952c-2.735,0-4.952-2.234-4.952-4.989s2.217-4.989,4.952-4.989h411.691c2.735,0,4.952,2.234,4.952,4.989s-2.217,4.989-4.952,4.989Z" style="stroke-width:0px;"/><path d="M607.881,30.5h369.713c2.456,0,4.447-2.234,4.447-4.989s-1.991-4.989-4.447-4.989h-369.713c-2.456,0-4.447,2.234-4.447,4.989s1.991,4.989,4.447,4.989Z" style="stroke-width:0px;"/><path d="M608.385,46.653h411.691c2.735,0,4.952-2.234,4.952-4.989s-2.217-4.989-4.952-4.989h-411.691c-2.735,0-4.952,2.234-4.952,4.989s2.217,4.989,4.952,4.989Z" style="stroke-width:0px;"/><path d="M512.514,61c-17.093,0-30.998-13.682-30.998-30.5s13.906-30.5,30.998-30.5,30.998,13.682,30.998,30.5-13.905,30.5-30.998,30.5ZM512.514,10.603c-11.151,0-20.223,8.926-20.223,19.897s9.072,19.897,20.223,19.897,20.222-8.926,20.222-19.897-9.072-19.897-20.222-19.897Z" style="stroke-width:0px;"/></svg>