<?xml version="1.0" encoding="UTF-8"?><svg id="Layer_1" xmlns="http://www.w3.org/2000/svg" viewBox="0 0 1024 74"><path d="M979.936,74c-1.442,0-2.871-.633-3.85-1.853-1.721-2.145-1.395-5.294.73-7.032l28.254-23.115H4.952c-2.735,0-4.952-2.239-4.952-5s2.217-5,4.952-5h1000.119l-28.254-23.115c-1.208-.988-1.835-2.431-1.835-3.887,0-1.106.361-2.219,1.104-3.145,1.722-2.145,4.84-2.477,6.964-.737l39.115,32c.006.004.011.009.016.013.002.002.004.003.006.005l.012.009s.004.003.006.005c.005.004.01.008.015.012.004.002.007.005.01.008l.006.004s.008.006.012.01h0c.669.572,1.161,1.297,1.45,2.093,0,0,0,0,0,.001,0,.004.003.008.004.012,0,.003.003.007.004.01,0,.002.002.005.003.008.1.28.175.57.224.866v.003c0,.007.002.013.003.02,0,.004.002.007.002.011,0,.003,0,.006.002.008,0,.005,0,.01.002.015v.002c.108.704.069,1.435-.132,2.144,0,0,0,.002,0,.003,0,.004-.002.009-.004.014,0,.004-.002.008-.003.011s-.002.006-.003.009l-.006.019s0,.003,0,.004c-.037.125-.079.249-.126.371,0,0,0,.001-.002.003l-.006.016-.003.007s-.003.007-.004.01c-.306.778-.792,1.448-1.399,1.969-.003.002-.005.004-.008.007-.003.002-.005.004-.007.006-.005.004-.01.007-.014.011,0,0,0,0-.002.001-.018.016-.037.031-.056.046l-39.115,32c-.917.75-2.019,1.115-3.114,1.115Z" style="stroke-width:0px;"/></svg>