<?xml version="1.0" encoding="UTF-8"?><svg id="Layer_1" xmlns="http://www.w3.org/2000/svg" viewBox="0 0 1024 993"><path d="M471.161,688.156h185.32l-223.052,282.58,23.322-170.931c.188-1.415-.238-2.84-1.178-3.919-.941-1.079-2.298-1.692-3.734-1.692h-168.524l105.846-233.272.079-.168c.079-.168.139-.336.198-.505.04-.138.089-.287.119-.425.01-.059.02-.109.03-.158.03-.129.05-.247.059-.366.01-.04.01-.069.01-.099.01-.049.02-.099.02-.148v-.158c.01-.059.01-.119.01-.168,0-.267-.02-.524-.059-.782-.02-.089-.03-.178-.05-.267-.03-.119-.059-.228-.089-.346-.02-.079-.05-.158-.079-.238-.03-.089-.059-.168-.089-.247-.04-.099-.079-.188-.129-.277-.03-.069-.059-.139-.099-.198-.277-.515-.644-.99-1.089-1.375-.109-.089-.218-.178-.327-.257-.109-.089-.228-.168-.347-.237-.03-.02-.05-.04-.079-.049-.119-.069-.238-.129-.357-.188-.04-.02-.079-.04-.119-.059-.05-.02-.089-.04-.139-.059-.089-.04-.178-.069-.267-.099-.099-.04-.208-.069-.307-.099-.02-.01-.04-.01-.059-.01-.149-.049-.297-.079-.446-.099-.158-.04-.327-.059-.485-.059-.109-.01-.218-.02-.327-.02l-374.116-25.371L86.527,10.12l821.012,42.381,105.42,543.786-466.791-31.645c-.119,0-.248-.01-.376-.01-.198,0-.406.01-.604.04-.198.02-.396.059-.594.109-.158.04-.327.089-.485.148-.198.069-.386.148-.574.247-.109.049-.218.109-.317.188-.04.01-.079.04-.119.069-.079.049-.158.099-.238.158-.099.069-.188.139-.277.228-.178.139-.337.297-.485.465-.069.069-.119.139-.168.208-.099.109-.178.218-.257.336-.01.01-.02.03-.03.04l-.109.158-1.416,2.167-73.096,111.302c-1,1.514-1.079,3.463-.218,5.056.862,1.603,2.535,2.602,4.357,2.602Z" style="fill:#9ed9d8; stroke-width:0px;"/><path d="M389.676,558.943v.109h-.01c.01-.04.01-.079.01-.109Z" style="fill:#9ed9d8; stroke-width:0px;"/><path d="M541.533,567.027c-.386.653-.634,1.405-.693,2.217l-.723-.049,1.416-2.167Z" style="fill:#9ed9d8; stroke-width:0px;"/><path d="M1023.912,600.721L916.521,46.822c-.436-2.236-2.337-3.889-4.605-4.008L82.536.007c-2.545-.139-4.783,1.692-5.16,4.215L.052,532.245c-.198,1.356.178,2.741,1.05,3.82.862,1.069,2.139,1.732,3.516,1.831l372.66,25.273-106.153,233.925c-.693,1.534-.564,3.315.347,4.73.911,1.405,2.476,2.266,4.159,2.266h170.544l-25.016,183.291c-.297,2.217.921,4.354,2.971,5.225.634.267,1.287.396,1.941.396,1.476,0,2.921-.663,3.882-1.88l240.62-304.844c1.178-1.494,1.396-3.523.574-5.225-.832-1.712-2.565-2.79-4.456-2.79h-186.36l67.996-103.544,470.386,31.883c.109.01.228.01.337.01,1.416,0,2.763-.604,3.704-1.672,1.02-1.148,1.446-2.711,1.159-4.215ZM546.168,564.643c-.119,0-.248-.01-.376-.01-.198,0-.406.01-.604.04-.198.02-.396.059-.594.109-.158.04-.327.089-.485.148-.198.069-.386.148-.574.247-.109.059-.218.119-.317.188-.04.01-.079.04-.119.069-.079.049-.158.099-.238.158-.099.069-.188.139-.277.228-.178.139-.337.297-.485.465-.069.069-.119.139-.168.208-.099.109-.178.218-.257.336-.01.01-.02.03-.03.04l-.109.158c-.386.653-.634,1.405-.693,2.217l-.723-.049-73.096,111.302c-1,1.514-1.079,3.463-.218,5.056.862,1.603,2.535,2.602,4.357,2.602h185.32l-223.052,282.58,23.322-170.931c.188-1.415-.238-2.84-1.178-3.919-.941-1.079-2.298-1.692-3.734-1.692h-168.524l105.846-233.272.079-.168c.079-.168.139-.336.198-.505.04-.138.089-.287.119-.425.01-.059.02-.109.03-.158.03-.129.05-.247.059-.366.01-.04.01-.069.01-.099.01-.049.01-.099.01-.148.01-.04.01-.079.01-.109v-.049c.01-.059.01-.119.01-.168,0-.267-.02-.524-.059-.782-.02-.089-.03-.178-.05-.267-.03-.119-.059-.228-.089-.346-.02-.079-.05-.158-.079-.238-.03-.089-.059-.168-.089-.247-.04-.099-.079-.188-.129-.277-.03-.069-.059-.139-.099-.198-.277-.515-.644-.99-1.089-1.375-.109-.089-.218-.178-.327-.257-.109-.089-.228-.168-.347-.237-.03-.02-.05-.04-.079-.049-.119-.069-.238-.129-.357-.188-.04-.02-.079-.04-.119-.059-.05-.02-.089-.04-.139-.059-.089-.04-.178-.069-.267-.099-.099-.04-.208-.069-.307-.099-.02-.01-.04-.01-.059-.01-.149-.049-.297-.079-.446-.099-.158-.03-.327-.049-.485-.059-.109-.01-.218-.02-.327-.02l-374.116-25.371L86.527,10.12l821.012,42.381,105.42,543.786-466.791-31.645Z" style="stroke-width:0px;"/><path d="M389.676,558.943v.109c0,.049-.01.099-.02.148.01-.049.01-.099.01-.148.01-.04.01-.079.01-.109Z" style="fill:#231f20; stroke-width:0px;"/><path d="M289.655,671.778c0,.049-.01.099-.02.148.01-.049.01-.099.01-.148h.01Z" style="fill:#9ed9d8; stroke-width:0px;"/><path d="M441.512,679.754c-.386.653-.634,1.405-.693,2.217l-.723-.049,1.416-2.167Z" style="fill:#231f20; stroke-width:0px;"/></svg>