<?xml version="1.0" encoding="UTF-8"?><svg id="Layer_1" xmlns="http://www.w3.org/2000/svg" viewBox="0 0 1024 801"><polygon points="188.082 196.894 208.98 67.123 311.977 132.008 353.773 22.374 447.813 109.634 510.507 0 580.665 105.905 668.735 13.425 716.501 129.771 818.006 59.665 841.889 196.894 953.843 177.503 921.003 284.899 1024 355.006 925.481 410.196 959.813 528.034 886.671 514.609 925.481 801 704.56 602.615 670.227 686.145 580.665 587.698 523.43 699.57 446.321 596.648 353.773 687.637 306.006 560.849 207.487 633.939 188.082 498.201 73.143 526.542 107.475 410.196 0 353.514 102.997 284.899 77.621 174.52 188.082 196.894" style="fill:#b28b9a; stroke-width:0px;"/></svg>