<?xml version="1.0" encoding="UTF-8"?><svg id="Layer_1" xmlns="http://www.w3.org/2000/svg" viewBox="0 0 594 1024"><path d="M569.217,1009.927c-24.196-5.694-67.393-18.014-116.856-41.841-69.743-33.612-166.597-97.686-231.947-212.109-.883-1.545-2.519-2.496-4.304-2.496H9.917V9.903h526.358v743.578h-104.639c-1.438,0-2.806.624-3.748,1.713-.942,1.089-1.368,2.535-1.16,3.951,6.267,42.782,19.268,83.841,38.625,122.038,24.88,49.101,60.55,93.249,103.865,128.743Z" style="fill:#ebf0b7; stroke-width:0px;"/><path d="M591.976,1015.057c-49.702-36.533-90.439-84.376-117.778-138.339-18.018-35.553-30.384-73.651-36.78-113.333h103.816c2.737,0,4.958-2.218,4.958-4.952V4.952c0-2.733-2.221-4.952-4.958-4.952H4.958C2.221,0,0,2.218,0,4.952v753.482c0,2.733,2.221,4.952,4.958,4.952h208.286c29.244,50.546,66.867,95.616,111.858,133.982,36.552,31.185,78.033,58.023,123.262,79.791,77.041,37.068,139.317,46.694,139.942,46.783.248.04.496.059.734.059,1.983,0,3.808-1.188,4.581-3.06.873-2.109.198-4.536-1.646-5.882ZM452.361,968.086c-69.743-33.612-166.597-97.686-231.947-212.109-.883-1.545-2.519-2.496-4.304-2.496H9.917V9.903h526.358v743.578h-104.639c-1.438,0-2.806.624-3.748,1.713-.942,1.089-1.368,2.535-1.16,3.951,6.267,42.782,19.268,83.841,38.625,122.038,24.88,49.101,60.55,93.249,103.865,128.743-24.196-5.694-67.393-18.014-116.856-41.841Z" style="stroke-width:0px;"/></svg>