<?xml version="1.0" encoding="UTF-8"?><svg id="Layer_1" xmlns="http://www.w3.org/2000/svg" viewBox="0 0 1024 721"><path d="M1024,646.935c-23.953,2.787-67.142,4.661-117.319-11.501-48.042-15.475-81.031-40.57-98.873-56.349-46.219,86.607-135.306,141.915-231.652,141.915-95.008,0-177.373-46.478-218.063-114.501-33.796,15.165-72.202,23.712-112.97,23.712C109.74,630.21,0,535.758,0,419.247c0-96.422,75.235-177.798,177.964-202.928C192.183,94.532,295.739,0,421.354,0c90.873,0,170.243,49.472,212.509,122.97,29.227-9.611,61.369-14.928,95.087-14.928,135.344,0,245.084,85.551,245.084,191.072,0,73.104-52.665,136.637-130.026,168.699,5.418,22.067,19.153,64.976,55.776,105.515,46.631,51.618,102.251,68.269,124.217,73.607Z" style="fill:#ede697; stroke-width:0px;"/></svg>