<?xml version="1.0" encoding="UTF-8"?><svg id="Layer_1" xmlns="http://www.w3.org/2000/svg" viewBox="0 0 1024 849"><path d="M1024,849l-288.288-172.48c-22.313,31.413-58.998,51.903-100.448,51.903-38.079,0-72.091-17.275-94.676-44.427-20.415,39.741-61.787,66.893-109.551,66.893-59.308,0-108.815-41.871-120.514-97.686-19.95,17.74-46.215,28.508-75.036,28.508-60.121,0-109.241-46.829-112.882-105.975-57.022-5.849-101.494-54.033-101.494-112.598,0-18.244,4.3-35.48,12.009-50.741C12.667,391.944,0,363.708,0,332.45c0-54.498,38.467-99.971,89.756-110.739-.387-3.796-.581-7.669-.581-11.581,0-62.477,50.669-113.141,113.154-113.141,18.943,0,36.801,4.648,52.49,12.898,7.709-54.963,54.93-97.221,111.991-97.221,38.699,0,72.866,19.444,93.242,49.076C478.724,25.099,516.842,0,560.81,0c62.213,0,112.727,50.237,113.115,112.405,20.725-23.24,50.902-37.881,84.488-37.881,62.484,0,113.154,50.664,113.154,113.14,0,14.757-2.828,28.818-7.98,41.716,54.156,11.581,94.443,55.389,94.443,107.679,0,33.195-16.192,62.942-41.915,83.238,10.576,18.166,16.619,39.315,16.619,61.819,0,61.858-45.595,113.063-105.057,121.778l196.324,245.106Z" style="fill:#97c1c4; stroke-width:0px;"/></svg>