<?xml version="1.0" encoding="UTF-8"?><svg id="Layer_1" xmlns="http://www.w3.org/2000/svg" viewBox="0 0 1024 943"><path d="M1013.741,456.363c-5.209,71.353-66.045,135.106-180.835,189.479-1.961.93-3.08,3.018-2.783,5.155l37.484,269.035-156.423-205.162c-.802-1.049-1.981-1.732-3.288-1.9-1.307-.188-2.624.178-3.674.97-.297.228-30.393,22.867-92.745,36.166-57.647,12.29-155.413,18.889-293.772-19.493-2.04-.564-4.199.218-5.397,1.959l-130.575,188.608,11.815-283.174c.059-1.464-.535-2.879-1.614-3.869-.921-.831-2.109-1.286-3.337-1.286-.218,0-.446.01-.673.049-.426.049-42.98,5.492-86.109-20.008C31.143,571.095,5.087,488.69,10.623,425.56c7.289-83.118,67.917-155.104,154.452-183.393,1.872-.613,3.209-2.266,3.397-4.225.04-.396,4.041-40.48,20.639-86.482,15.172-42.054,44.288-97.851,96.845-124.885,59.737-30.724,137.419-18.939,230.896,35.028,1.446.831,3.219.881,4.714.129.376-.188,38.207-19.196,88.209-30.813,45.724-10.627,111.323-17.099,164.177,12.458,54.557,30.496,86.09,93.409,93.725,186.995.119,1.504.931,2.87,2.189,3.711.376.257,38.831,26.063,75.642,66.435,33.622,36.879,72.75,93.864,68.234,155.846Z" style="fill:#9bdbef; stroke-width:0px;"/><path d="M1004.086,366.991c-11.943-24.352-29.244-49.02-51.418-73.312-32.78-35.919-66.847-60.547-75.315-66.465-8.269-95.793-41.426-160.546-98.588-192.487-24.669-13.794-53.854-21.373-86.743-22.551-26.125-.94-54.627,2.147-84.723,9.163-44.407,10.34-78.563,25.945-87.793,30.378C423.929-2.913,343.821-14.331,281.39,17.788c-24.57,12.646-46.328,32.119-64.669,57.886-14.568,20.453-27.016,44.903-37.009,72.669-14.429,40.075-19.46,74.875-20.738,85.433-42.822,14.585-80.247,39.916-108.402,73.411C21.715,341.512,4.493,382.141.76,424.689c-3.169,36.107,3.644,74.846,19.173,109.082,17.103,37.72,43.674,68.028,76.83,87.63,36.92,21.828,72.859,22.521,86.654,21.789l-12.3,294.653c-.089,2.207,1.287,4.195,3.377,4.898.515.178,1.05.257,1.575.257,1.594,0,3.129-.772,4.07-2.137l138.31-199.78c60.866,16.643,119.038,26.123,172.971,28.171,44.06,1.682,85.406-1.563,122.91-9.638,51.735-11.152,81.544-28.24,91.844-34.979l164.999,216.413c1.367,1.791,3.763,2.434,5.843,1.573,2.08-.871,3.318-3.028,3.001-5.254l-39.584-284.144c116.146-55.699,177.765-121.688,183.182-196.168,2.109-29.052-4.456-59.36-19.529-90.064ZM1013.741,456.363c-5.209,71.353-66.045,135.106-180.835,189.479-1.961.93-3.08,3.018-2.783,5.155l37.484,269.035-156.423-205.162c-.802-1.049-1.981-1.732-3.288-1.9-1.307-.188-2.624.178-3.674.97-.297.228-30.393,22.867-92.745,36.166-57.647,12.29-155.413,18.889-293.772-19.493-2.04-.564-4.199.218-5.397,1.959l-130.575,188.608,11.815-283.174c.059-1.464-.535-2.879-1.614-3.869-.921-.831-2.109-1.286-3.337-1.286-.218,0-.446.01-.673.049-.426.049-42.98,5.492-86.109-20.008C31.143,571.095,5.087,488.69,10.623,425.56c7.289-83.118,67.917-155.104,154.452-183.393,1.872-.613,3.209-2.266,3.397-4.225.04-.396,4.041-40.48,20.639-86.482,15.172-42.054,44.288-97.851,96.845-124.885,59.737-30.724,137.419-18.939,230.896,35.028,1.446.831,3.219.881,4.714.129.376-.188,38.207-19.196,88.209-30.813,45.724-10.627,111.323-17.099,164.177,12.458,54.557,30.496,86.09,93.409,93.725,186.995.119,1.504.931,2.87,2.189,3.711.376.257,38.831,26.063,75.642,66.435,33.622,36.879,72.75,93.864,68.234,155.846Z" style="stroke-width:0px;"/></svg>