<?xml version="1.0" encoding="UTF-8"?><svg id="Layer_1" xmlns="http://www.w3.org/2000/svg" viewBox="0 0 1024 844"><path d="M1001.31,736.94c-35.543,31.392-98.023,74.748-184.845,90.84-115.631,21.436-208.385-16.181-253.375-40.516-.733-.396-1.545-.594-2.357-.594-.604,0-1.218.109-1.802.337-46.753,18.2-96.022,27.433-146.45,27.433-221.982,0-402.578-180.442-402.578-402.242S190.499,9.896,412.481,9.896s402.588,180.472,402.588,402.301c0,76.717-21.708,151.317-62.767,215.723-1.02,1.603-1.03,3.652-.03,5.265,16.36,26.424,46.258,62.951,95.765,86.93,60.568,29.343,119.047,24.266,153.273,16.824Z" style="fill:#5b91ad; stroke-width:0px;"/><path d="M1023.295,724.639c-1.178-1.959-3.535-2.86-5.724-2.177-25.996,8.085-94.15,23.168-165.206-11.242-45.763-22.168-74.037-55.569-90.031-80.626,40.99-65.396,62.638-140.846,62.638-218.395,0-55.648-10.904-109.633-32.413-160.451-20.777-49.086-50.517-93.165-88.397-131.019-37.88-37.854-81.999-67.573-131.119-88.336C522.19,10.896,468.167,0,412.481,0s-109.708,10.896-160.562,32.391c-49.12,20.763-93.229,50.482-131.109,88.336-37.88,37.854-67.62,81.933-88.397,131.019C10.904,302.565,0,356.55,0,412.198s10.904,109.603,32.413,160.412c20.777,49.077,50.517,93.155,88.397,130.999,37.88,37.854,81.989,67.573,131.109,88.336,50.853,21.495,104.876,32.391,160.562,32.391,50.893,0,100.647-9.174,147.915-27.285,28.056,14.963,58.419,26.622,90.278,34.687,32.295,8.174,64.787,12.262,97.201,12.262,23.55,0,47.06-2.157,70.392-6.482,47.199-8.748,92.13-26.107,133.565-51.58,25.719-15.815,49.506-34.39,70.69-55.232,1.624-1.593,1.951-4.107.772-6.067ZM816.465,827.78c-115.631,21.436-208.385-16.181-253.375-40.516-.733-.396-1.545-.594-2.357-.594-.604,0-1.218.109-1.802.337-46.753,18.2-96.022,27.433-146.45,27.433-221.982,0-402.578-180.442-402.578-402.242S190.499,9.896,412.481,9.896s402.588,180.472,402.588,402.301c0,76.717-21.708,151.317-62.767,215.723-1.02,1.603-1.03,3.652-.03,5.265,16.36,26.424,46.258,62.951,95.765,86.93,60.568,29.343,119.047,24.266,153.273,16.824-35.543,31.392-98.023,74.748-184.845,90.84Z" style="stroke-width:0px;"/></svg>