<?xml version="1.0" encoding="UTF-8"?><svg id="Layer_1" xmlns="http://www.w3.org/2000/svg" viewBox="0 0 1024 815"><path d="M1014.097,9.9v486.19h-198.908c-1.129,0-2.228.386-3.11,1.099-15.756,12.682-31.393,29.492-44.04,47.332-23.916,33.769-37.939,71.151-41.673,111.118-6.427,68.815,20.371,122.107,37.434,148.332-64.401-8.801-120.652-49.758-148.48-108.831-19.222-40.798-22.748-84.853-10.478-130.928,9.616-36.155,25.917-60.133,26.075-60.37,1.04-1.515,1.159-3.485.307-5.108-.862-1.624-2.545-2.643-4.387-2.643h-199.215c-2.298,0-4.288,1.574-4.823,3.811-11.042,46.718-36.682,115.375-96.082,177.161-70.64,73.448-153.867,100.475-205.285,110.415,40.118-41.313,71.858-88.892,94.477-141.62,19.658-45.837,31.8-94.426,36.097-144.392.119-1.386-.347-2.752-1.287-3.772-.931-1.02-2.258-1.604-3.644-1.604H9.903V9.9h1004.193Z" style="fill:#fff09a; stroke-width:0px;"/><path d="M1019.048,0H4.952C2.218,0,0,2.218,0,4.95v496.09c0,2.732,2.218,4.95,4.952,4.95h236.699c-4.595,47.025-16.311,92.743-34.85,135.967-24.134,56.292-58.915,106.584-103.361,149.481-1.555,1.495-1.961,3.821-1,5.752.951,1.93,3.04,3.039,5.169,2.703,50.081-7.514,146.064-32.581,226.241-115.979,59.37-61.727,85.862-130.126,97.676-177.923h186.459c-5.863,10.197-15.845,29.868-22.718,55.678-12.696,47.718-8.863,95.327,11.102,137.69,30.839,65.489,94.923,109.801,167.227,115.622.129.02.267.02.396.02,1.783,0,3.436-.96,4.318-2.534.951-1.683.822-3.762-.317-5.326-14.875-20.424-48.734-75.983-41.762-150.579,7.824-83.774,62.074-135.224,80.722-150.569h202.096c2.733,0,4.952-2.218,4.952-4.95V4.95c0-2.732-2.218-4.95-4.952-4.95ZM1014.097,496.09h-198.908c-1.129,0-2.228.386-3.11,1.099-15.756,12.682-31.393,29.492-44.04,47.332-23.916,33.769-37.939,71.151-41.673,111.118-6.427,68.815,20.371,122.107,37.434,148.332-64.401-8.801-120.652-49.758-148.48-108.831-19.222-40.798-22.748-84.853-10.478-130.928,9.616-36.155,25.917-60.133,26.075-60.37,1.04-1.515,1.159-3.485.307-5.108-.862-1.624-2.545-2.643-4.387-2.643h-199.215c-2.298,0-4.288,1.574-4.823,3.811-11.042,46.718-36.682,115.375-96.082,177.161-70.64,73.448-153.867,100.475-205.285,110.415,40.118-41.313,71.858-88.892,94.477-141.62,19.658-45.837,31.8-94.426,36.097-144.392.119-1.386-.347-2.752-1.287-3.772-.931-1.02-2.258-1.604-3.644-1.604H9.903V9.9h1004.193v486.19Z" style="stroke-width:0px;"/></svg>