<?xml version="1.0" encoding="UTF-8"?><svg id="Layer_1" xmlns="http://www.w3.org/2000/svg" viewBox="0 0 1024 915"><path d="M1012.906,360.509c-15.716,54.399-47.366,105.65-94.099,152.339l-400.906,400.707c-.931.92-2.189,1.445-3.506,1.445-.366,0-.723-.04-1.07-.119-1.594.356-3.327-.089-4.575-1.326l-280.227-280.091c.733-.04,1.446-.069,2.159-.099,1.287-.049,2.446-.594,3.288-1.445.951-.93,1.515-2.257,1.456-3.702-.05-1.148-.495-2.207-1.188-3.029l278.999,278.844h.178l398.391-398.183c87.216-87.141,120.372-190.634,93.366-291.434-25.104-93.664-101.883-170.412-195.615-195.523-100.873-27.021-204.459,6.097-291.656,93.248l-1.07,1.069c-1.941,1.93-5.07,1.94-7.001,0l-1.079-1.069C366.542-29.934,204.488-7.366,106.972,78.023,13.428,159.938-35.454,315.741,78.224,464.259c.218.267.406.554.555.851.05.089.089.188.129.277.059.119.099.228.139.346.05.148.099.297.139.455.02.059.03.129.04.188.02.109.04.218.05.336.02.079.03.148.03.228.03.287.03.564,0,.851,0,.079-.01.148-.03.228-.01.119-.03.238-.05.356-.05.218-.109.436-.188.653-.059.168-.129.336-.208.495-.079.168-.168.336-.267.495-.079.129-.168.247-.257.366-.03.03-.05.069-.079.099-.129.148-.257.297-.406.436l.04.049c-29.581,38.721-65.152,102.176-67.797,185.467-.99,31.317,2.842,62.644,11.418,93.288,15.31-26.398,41.128-59.863,82.661-86.448,45.485-29.12,90.583-37.711,121.748-39.582l1.139,1.178-.05.049c-1.03,1.029-1.515,2.405-1.436,3.761.059,1.178.545,2.346,1.436,3.237l1.545,1.544c-29.996,1.544-74.313,9.512-119.035,38.147-45.416,29.07-71.272,66.692-84.968,93.129-.852,1.653-2.555,2.672-4.397,2.672-.139,0-.277,0-.416-.01-1.991-.168-3.694-1.524-4.298-3.435C4.139,728.701-.991,692.416.158,656.12c2.674-84.182,37.919-148.657,68.004-188.743C17.359,399.705-4.616,324.392,4.594,249.366,13.012,180.833,47.049,117.337,100.446,70.58,154.666,23.099,223.165-1.932,293.319.117c78.086,2.267,154.092,37.731,220.007,102.612,46.059-45.362,96.525-76.184,150.032-91.605,48.981-14.124,100.427-14.738,148.764-1.792,47.971,12.847,92.287,38.592,128.156,74.442,35.859,35.85,61.617,80.143,74.461,128.079,12.943,48.302,12.31,99.702-1.832,148.657Z" style="stroke-width:0px;"/><path d="M78.224,470.485c-.119.158-.238.317-.366.485l-.04-.049c.149-.139.277-.287.406-.436Z" style="fill:#f3828a; stroke-width:0px;"/><path d="M235.425,628.218c.059,1.445-.505,2.771-1.456,3.702l-3.496-3.494-3.446-3.553-1.139-1.178c1.495-.089,2.951-.158,4.377-.218h.257c.04,0,.079,0,.119.01h.099c.03,0,.05,0,.079.01.059,0,.129,0,.188.01.139.01.277.03.416.059.059.01.119.02.168.03.099.01.198.04.297.079.03,0,.059.01.089.02h.01c.109.04.218.069.317.119.02,0,.03.01.04.02.149.069.297.139.436.208.149.079.287.158.426.247.139.089.267.188.396.297.139.099.257.218.376.337.099.089.178.178.257.267.693.822,1.139,1.881,1.188,3.029Z" style="fill:#f3828a; stroke-width:0px;"/><path d="M235.425,628.218c.059,1.445-.505,2.771-1.456,3.702-.842.851-2,1.396-3.288,1.445-.713.03-1.426.059-2.159.099l-1.545-1.544c-.891-.891-1.377-2.059-1.436-3.237-.079-1.356.406-2.732,1.436-3.761l.05-.049c.961-.93,2.199-1.396,3.446-1.396h.05c.04,0,.079,0,.119.01h.099c.03,0,.05,0,.079.01.04-.01.089,0,.129,0,.02,0,.04,0,.059.01.139.01.277.03.416.059.158.03.307.069.465.109.139.049.277.089.416.139.02,0,.03.01.04.02.149.069.297.139.436.208.149.079.287.158.426.247.139.089.267.188.396.297.139.099.257.218.376.337.099.089.178.178.257.267.693.822,1.139,1.881,1.188,3.029Z" style="stroke-width:0px;"/><path d="M911.806,505.85l-398.391,398.183h-.178l-278.999-278.844c-.079-.089-.158-.178-.257-.267-.119-.119-.238-.238-.376-.337-.129-.119-.257-.218-.396-.297-.376-.267-.782-.465-1.218-.594h-.01c-.03-.01-.059-.02-.089-.02-.099-.04-.198-.069-.297-.079-.188-.049-.386-.079-.584-.089-.02-.01-.04-.01-.059-.01-.069-.01-.139-.02-.208-.01-.158-.02-.317-.02-.475-.01-1.426.059-2.882.129-4.377.218-31.165,1.871-76.264,10.462-121.748,39.582-41.534,26.586-67.351,60.051-82.661,86.448-8.576-30.644-12.409-61.971-11.418-93.288,2.644-83.291,38.216-146.746,67.797-185.467.129-.168.248-.327.366-.485.03-.03.05-.069.079-.099.089-.119.178-.238.257-.366.099-.158.188-.327.267-.495.089-.158.149-.327.208-.495.079-.218.139-.436.188-.653.02-.119.04-.238.05-.356.02-.079.03-.148.03-.228.03-.287.03-.564,0-.851-.01-.079-.01-.158-.03-.228-.01-.119-.03-.228-.05-.336-.01-.059-.02-.129-.04-.188-.04-.148-.079-.307-.139-.455-.04-.119-.079-.228-.139-.346-.04-.089-.079-.188-.129-.277-.149-.297-.337-.584-.555-.851C-35.454,315.741,13.428,159.938,106.972,78.023,204.488-7.366,366.542-29.934,508.75,112.141l1.079,1.069c1.931,1.94,5.061,1.93,7.001,0l1.07-1.069C605.097,24.99,708.683-8.128,809.556,18.893c93.733,25.111,170.511,101.859,195.615,195.523,27.006,100.8-6.15,204.293-93.366,291.434Z" style="fill:#f3828a; stroke-width:0px;"/><path d="M230.474,628.426c-1.515.059-3.169.148-4.932.257-.079-1.356.406-2.732,1.436-3.761l.05-.049,3.446,3.553Z" style="fill:#f3828a; stroke-width:0px;"/><path d="M78.224,470.485c-.119.158-.238.317-.366.485l-.04-.049c.149-.139.277-.287.406-.436Z" style="stroke-width:0px;"/><path d="M235.425,628.218c.059,1.445-.505,2.771-1.456,3.702-.842.851-2,1.396-3.288,1.445-.713.03-1.426.059-2.159.099l-1.545-1.544c-.891-.891-1.377-2.059-1.436-3.237-.079-1.356.406-2.732,1.436-3.761l.05-.049-1.139-1.178c1.495-.089,2.951-.158,4.377-.218h.257c.04,0,.079,0,.119.01h.099c.03,0,.05,0,.079.01.059,0,.129,0,.188.01.139.01.277.03.416.059.059.01.119.02.168.03.099.01.198.04.297.079.03,0,.059.01.089.02h.01c.109.04.218.069.317.119.02,0,.03.01.04.02.149.069.297.139.436.208.149.079.287.158.426.247.139.089.267.188.396.297.139.099.257.218.376.337.099.089.178.178.257.267.693.822,1.139,1.881,1.188,3.029Z" style="stroke-width:0px;"/></svg>