<?xml version="1.0" encoding="UTF-8"?><svg id="Layer_1" xmlns="http://www.w3.org/2000/svg" viewBox="0 0 750 1024"><path d="M474.855,602.585c-.92,1.386-1.078,3.139-.435,4.674l71.844,169.623h-156.055c-1.464,0-2.85.644-3.79,1.763s-1.336,2.605-1.088,4.04l37.995,216.852-222.734-297.039h148.061c1.692,0,3.265-.871,4.175-2.298.91-1.436,1.019-3.228.297-4.763l-43.476-92.229c-.811-1.733-2.553-2.832-4.472-2.832H9.894V9.903h730.211v590.474h-261.125c-1.662,0-3.216.832-4.126,2.208Z" style="fill:#dfaed1; stroke-width:0px;"/><path d="M745.053,0H4.947C2.216,0,0,2.218,0,4.952v600.377c0,2.733,2.216,4.952,4.947,4.952h297.091l38.806,82.316h-150.158c-1.87,0-3.582,1.06-4.423,2.743-.841,1.674-.653,3.684.465,5.179l241.079,321.5c.96,1.278,2.444,1.981,3.958,1.981.663,0,1.336-.129,1.969-.406,2.098-.911,3.305-3.149,2.909-5.397l-40.547-231.41h157.639c1.662,0,3.216-.832,4.126-2.218.92-1.386,1.078-3.139.435-4.664l-71.844-169.623h258.602c2.731,0,4.947-2.218,4.947-4.952V4.952c0-2.733-2.216-4.952-4.947-4.952ZM740.106,600.377h-261.125c-1.662,0-3.216.832-4.126,2.208-.92,1.386-1.078,3.139-.435,4.674l71.844,169.623h-156.055c-1.464,0-2.85.644-3.79,1.763s-1.336,2.605-1.088,4.04l37.995,216.852-222.734-297.039h148.061c1.692,0,3.265-.871,4.175-2.298.91-1.436,1.019-3.228.297-4.763l-43.476-92.229c-.811-1.733-2.553-2.832-4.472-2.832H9.894V9.903h730.211v590.474Z" style="stroke-width:0px;"/></svg>