<?xml version="1.0" encoding="UTF-8"?><svg id="Layer_1" xmlns="http://www.w3.org/2000/svg" viewBox="0 0 919 1024"><path d="M459.5,1024c-22.849,0-45.073-6.285-64.268-18.174-20.702-12.823-36.942-31.632-46.966-54.391l-57.812-131.267c-2.255-5.121-7.509-8.15-13.073-7.551l-142.512,15.515c-24.706,2.692-49.098-1.975-70.542-13.488-19.884-10.677-36.433-26.777-47.858-46.558C5.046,748.304-.63,725.922.056,703.36c.74-24.333,8.885-47.8,23.555-67.864l84.786-115.952c3.299-4.512,3.299-10.575,0-15.086l-84.786-115.954C8.941,368.44.795,344.974.056,320.641c-.686-22.563,4.991-44.944,16.416-64.726,11.425-19.782,27.974-35.881,47.857-46.558,21.444-11.514,45.836-16.179,70.542-13.49l142.512,15.515c5.558.606,10.816-2.429,13.073-7.552l57.812-131.266c10.023-22.759,26.264-41.567,46.966-54.39C414.427,6.285,436.651,0,459.5,0s45.073,6.285,64.268,18.175c20.701,12.823,36.942,31.631,46.965,54.391l57.813,131.266c2.256,5.123,7.506,8.157,13.072,7.552l142.511-15.515c24.705-2.687,49.098,1.976,70.543,13.49,19.883,10.677,36.432,26.776,47.857,46.557,11.424,19.782,17.101,42.163,16.415,64.726-.739,24.333-8.885,47.799-23.555,67.863l-84.784,115.953c-3.299,4.512-3.299,10.575,0,15.087l84.784,115.953c14.671,20.063,22.816,43.53,23.555,67.862.686,22.563-4.99,44.945-16.415,64.727-11.426,19.782-27.974,35.881-47.858,46.558-21.444,11.514-45.838,16.18-70.542,13.488l-142.511-15.515c-5.566-.602-10.816,2.429-13.072,7.551l-57.813,131.267c-10.023,22.759-26.264,41.567-46.965,54.391-19.195,11.889-41.418,18.174-64.268,18.174ZM278.961,703.729c21.24,0,41.958,5.546,60.59,16.308,22.519,13.008,39.963,32.466,50.447,56.268l57.813,131.268c2.229,5.061,6.162,7.627,11.69,7.627s9.461-2.566,11.69-7.626l57.813-131.268c10.483-23.803,27.928-43.261,50.447-56.268,22.518-13.008,48.087-18.4,73.938-15.582l142.511,15.515c5.492.598,9.678-1.526,12.443-6.311,2.764-4.786,2.511-9.473-.75-13.934l-84.785-115.954c-31.39-42.929-31.39-100.615,0-143.544l84.784-115.953c3.262-4.461,3.515-9.15.751-13.935-2.763-4.786-6.939-6.909-12.444-6.311l-142.51,15.515c-25.85,2.811-51.419-2.573-73.939-15.582-22.519-13.008-39.963-32.466-50.446-56.27l-57.813-131.266c-2.229-5.06-6.162-7.626-11.69-7.626s-9.461,2.566-11.689,7.626l-57.813,131.267c-10.484,23.804-27.928,43.261-50.447,56.269-22.519,13.008-48.085,18.392-73.939,15.582l-142.512-15.515c-5.498-.6-9.68,1.525-12.443,6.311-2.764,4.786-2.512,9.473.75,13.934l84.786,115.954c31.39,42.929,31.39,100.615,0,143.544l-84.786,115.953c-3.262,4.461-3.514,9.149-.75,13.935,2.763,4.787,6.948,6.912,12.443,6.311l142.512-15.515c4.462-.487,8.917-.728,13.348-.728Z" style="fill:#ea9c48; stroke-width:0px;"/></svg>