<?xml version="1.0" encoding="UTF-8"?><svg id="Layer_1" xmlns="http://www.w3.org/2000/svg" viewBox="0 0 1024 981"><path d="M584.021,44.735l95.998,194.363c11.699,23.686,34.312,40.103,60.472,43.901l214.657,31.168c65.875,9.565,92.179,90.457,44.511,136.886l-155.328,151.291c-18.929,18.437-27.567,45-23.098,71.034l36.668,213.626c11.253,65.559-57.611,115.553-116.532,84.6l-191.995-100.86c-23.397-12.291-51.349-12.291-74.747,0l-191.995,100.86c-58.921,30.953-127.785-19.042-116.532-84.6l36.668-213.626c4.469-26.033-4.169-52.597-23.098-71.034L24.342,451.053c-47.668-46.429-21.364-127.321,44.511-136.886l214.657-31.168c26.159-3.798,48.773-20.215,60.472-43.901l95.998-194.363c29.46-59.647,114.581-59.647,144.041,0Z" style="fill:#fee35e; stroke-width:0px;"/></svg>