<?xml version="1.0" encoding="UTF-8"?><svg id="Layer_1" xmlns="http://www.w3.org/2000/svg" viewBox="0 0 1024 985"><path d="M273.736,985c-26.153,0-52.128-8.193-74.326-24.32-39.237-28.504-58.515-75.887-50.312-123.656l32.737-190.615c.932-5.427-.871-10.963-4.824-14.811L38.336,496.605C3.578,462.769-8.705,413.105,6.279,366.992c14.992-46.135,54.152-79.125,102.201-86.098l191.642-27.81c5.485-.796,10.221-4.228,12.669-9.182l85.705-173.427C419.978,27.007,463.475,0,512,0c.003,0-.002,0,.001,0,48.528,0,92.02,27.005,113.502,70.476l85.706,173.426c2.448,4.954,7.184,8.386,12.667,9.182l191.644,27.811c48.048,6.973,87.21,39.963,102.201,86.098,14.985,46.113,2.701,95.777-32.057,129.613l-138.674,134.993c-3.953,3.849-5.757,9.385-4.824,14.812l32.737,190.614c8.204,47.769-11.074,95.152-50.311,123.657-39.268,28.527-90.359,32.23-133.338,9.665l-171.408-89.995c-4.911-2.577-10.778-2.58-15.689,0l-171.411,89.995c-18.681,9.809-38.899,14.654-59.01,14.655ZM511.999,109.696c-3.91,0-11.069,1.216-15.093,9.357l-85.705,173.426c-18.445,37.324-54.074,63.179-95.308,69.162l-191.642,27.81c-8.56,1.242-12.111,6.898-13.581,11.423-1.465,4.509-1.918,11.145,4.248,17.147l138.674,134.994c29.852,29.058,43.467,70.909,36.419,111.951l-32.737,190.614c-1.454,8.466,2.824,13.573,6.669,16.367,3.167,2.299,9.683,5.526,17.758,1.286l171.411-89.995c36.874-19.362,80.903-19.362,117.777,0l171.409,89.995c8.079,4.239,14.594,1.013,17.759-1.286,3.845-2.794,8.124-7.9,6.669-16.367l-32.737-190.614c-7.049-41.041,6.566-82.893,36.419-111.952l138.674-134.993c6.165-6.002,5.713-12.638,4.248-17.147-1.471-4.526-5.021-10.182-13.58-11.423l-191.643-27.81c-41.232-5.983-76.862-31.839-95.306-69.163l-85.706-173.426c-4.024-8.141-11.184-9.357-15.094-9.357h-.001Z" style="fill:#f16465; stroke-width:0px;"/></svg>