<?xml version="1.0" encoding="UTF-8"?><svg id="Layer_1" xmlns="http://www.w3.org/2000/svg" viewBox="0 0 639 1024"><path d="M319.5,1024c-22.496,0-41.75-16.145-45.675-38.302-14.226-80.295-26.348-136.558-39.306-182.428-13.541-47.932-27.958-84.083-45.372-113.771-31.738-54.108-76.184-91.034-163.99-136.245-15.448-7.954-25.156-23.875-25.156-41.253s9.709-33.299,25.156-41.253c87.806-45.211,132.252-82.138,163.991-136.246,17.414-29.687,31.831-65.839,45.372-113.771,12.958-45.87,25.081-102.133,39.306-182.428,3.925-22.157,23.179-38.302,45.675-38.302s41.75,16.146,45.676,38.302c14.225,80.295,26.347,136.558,39.306,182.428,13.54,47.932,27.958,84.083,45.371,113.771,31.739,54.108,76.185,91.035,163.991,136.246,15.447,7.954,25.156,23.875,25.156,41.253s-9.709,33.299-25.156,41.253c-87.806,45.211-132.252,82.137-163.991,136.245-17.413,29.688-31.831,65.839-45.371,113.771-12.958,45.87-25.081,102.133-39.306,182.428-3.926,22.157-23.18,38.302-45.676,38.302ZM140.044,511.986c16.87,10.881,31.748,21.688,45.434,32.925,34.294,28.156,61.668,60.09,83.687,97.628,20.205,34.445,36.367,74.353,50.335,120.755,13.969-46.402,30.13-86.31,50.335-120.755,33.285-56.744,76.415-96.463,129.121-130.526-16.87-10.881-31.748-21.689-45.435-32.925-34.294-28.156-61.668-60.09-83.686-97.627-20.206-34.446-36.367-74.354-50.335-120.756-13.969,46.402-30.13,86.31-50.335,120.756-33.284,56.743-76.415,96.462-129.121,130.525Z" style="fill:#88d4e5; stroke-width:0px;"/></svg>