<?xml version="1.0" encoding="UTF-8"?>
<svg id="Layer_1" xmlns="http://www.w3.org/2000/svg" viewBox="0 0 1024 1024">
    <path
        d="M800.277,1024c-7.566,0-15.152-1.882-22.034-5.686l-266.243-147.175-266.243,147.175c-15.266,8.439-34.012,7.42-48.273-2.628-14.26-10.046-21.53-27.355-18.722-44.571l51.356-314.835L12.949,433.697c-11.923-12.22-16.012-30.081-10.592-46.271,5.42-16.19,19.438-27.99,36.315-30.569l298.28-45.573L470.765,26.197c7.504-15.988,23.574-26.197,41.235-26.197s33.731,10.209,41.235,26.197l133.813,285.087,298.28,45.573c16.877,2.579,30.896,14.379,36.316,30.569,5.42,16.19,1.331,34.051-10.592,46.271l-217.169,222.582,51.356,314.835c2.809,17.216-4.462,34.525-18.722,44.571-7.833,5.519-17.02,8.314-26.238,8.314ZM512,773.539c7.59,0,15.181,1.895,22.037,5.685l206.184,113.976-39.955-244.943c-2.327-14.27,2.257-28.796,12.353-39.144l171.316-175.586-234.676-35.855c-15.016-2.294-27.901-11.923-34.355-25.674l-102.905-219.24-102.905,219.24c-6.455,13.751-19.339,23.38-34.355,25.674l-234.675,35.855,171.315,175.586c10.097,10.348,14.681,24.875,12.354,39.144l-39.955,244.943,206.184-113.976c6.857-3.79,14.447-5.685,22.037-5.685Z"
        style="fill:#8acead; stroke-width:0px;" />
</svg>