<?xml version="1.0" encoding="UTF-8"?>
<svg id="Layer_1" xmlns="http://www.w3.org/2000/svg" viewBox="0 0 898 1024">
    <path
        d="M449,1024c-18.05,0-34.396-10.665-41.673-27.188l-103.025-233.94-253.837,27.635c-17.936,1.964-35.332-6.87-44.358-22.497-9.025-15.627-7.976-35.11,2.675-49.677l150.862-206.333L8.782,305.667c-10.651-14.567-11.7-34.05-2.674-49.678,9.024-15.627,26.415-24.455,44.358-22.498l253.837,27.637L407.327,27.188c7.277-16.523,23.623-27.188,41.673-27.188s34.397,10.665,41.673,27.188l103.024,233.94,253.838-27.637c17.945-1.949,35.333,6.871,44.358,22.498,9.025,15.627,7.976,35.11-2.675,49.678l-150.861,206.333,150.861,206.333c10.652,14.567,11.7,34.05,2.675,49.677s-26.426,24.458-44.358,22.497l-253.838-27.635-103.024,233.94c-7.277,16.523-23.623,27.188-41.673,27.188ZM332.55,668.425c17.883,0,34.32,10.538,41.653,27.19l74.797,169.842,74.796-169.842c8.004-18.177,26.856-29.071,46.6-26.92l184.37,20.072-109.583-149.876c-11.709-16.014-11.709-37.768,0-53.782l109.583-149.876-184.37,20.073c-19.744,2.147-38.595-8.743-46.6-26.921l-74.796-169.842-74.797,169.842c-8.005,18.176-26.86,29.063-46.6,26.92l-184.369-20.073,109.583,149.876c11.709,16.014,11.709,37.768,0,53.782l-109.583,149.876,184.369-20.072c1.657-.181,3.309-.27,4.947-.27Z"
        style="fill:#e07ea1; stroke-width:0px;" />
</svg>