<?xml version="1.0" encoding="UTF-8"?>
<svg id="Layer_1" xmlns="http://www.w3.org/2000/svg" viewBox="0 0 1024 1024">
    <path
        d="M587.462,44.739l126.433,231.174c7.893,14.432,19.759,26.298,34.191,34.191l231.174,126.433c59.653,32.625,59.653,118.3,0,150.925l-231.174,126.433c-14.432,7.893-26.298,19.759-34.191,34.191l-126.433,231.174c-32.625,59.653-118.3,59.653-150.925,0l-126.433-231.174c-7.893-14.432-19.759-26.298-34.191-34.191l-231.174-126.433c-59.653-32.625-59.653-118.3,0-150.925l231.174-126.433c14.432-7.893,26.298-19.759,34.191-34.191l126.433-231.174c32.625-59.653,118.3-59.653,150.925,0Z"
        style="fill:#89cb97; stroke-width:0px;" />
</svg>